<svg width="36" height="44" viewBox="0 0 36 44" fill="none" xmlns="http://www.w3.org/2000/svg">
<path d="M22.7565 11.8755L22.757 11.8768C22.7945 11.9661 22.8297 12.0501 22.8543 12.1077C22.9046 12.2304 22.995 12.4605 23.0553 12.6138C23.1508 12.8797 23.1558 12.9104 23.0754 13.074C23.0302 13.166 22.995 13.2785 22.995 13.3194C22.995 13.3552 22.9448 13.4984 22.8895 13.6364C22.8292 13.7694 22.7639 13.9483 22.7387 14.0352C22.7186 14.117 22.6332 14.3727 22.5528 14.5976C22.4724 14.8226 22.3769 15.0885 22.3417 15.1856C22.3065 15.2829 22.2361 15.4772 22.1809 15.6202C22.1256 15.7583 22.0603 15.9423 22.0352 16.0292C21.9045 16.4894 21.608 17.2819 21.5628 17.2819C21.5377 17.2819 21.3668 16.8984 21.3115 16.7195C21.2914 16.6479 21.2412 16.5456 21.206 16.4894C21.1658 16.4331 21.1357 16.3616 21.1357 16.3258C21.1357 16.29 21.0804 16.1417 21.015 15.9934C20.7738 15.4361 20.2009 14.0199 20.1557 13.8614C20.1356 13.7898 20.0753 13.6671 20.0251 13.5802C19.9698 13.4933 19.9296 13.3757 19.9296 13.3194C19.9296 13.2632 19.8944 13.1712 19.8542 13.12C19.814 13.0689 19.7436 12.9053 19.6984 12.7621C19.6532 12.619 19.5828 12.4554 19.5477 12.3991C19.5075 12.3429 19.4773 12.2713 19.4773 12.2355C19.4773 12.1997 19.422 12.0514 19.3567 11.9032C19.2311 11.6066 19.1004 11.2947 18.8994 10.7886C18.824 10.6045 18.7084 10.3335 18.6431 10.1852C18.5778 10.037 18.5225 9.8887 18.5225 9.85802C18.5225 9.82735 18.4672 9.68419 18.4019 9.54103C18.2159 9.14222 18.03 8.68207 17.9948 8.52357C17.9446 8.31905 17.8793 8.30883 17.824 8.498C17.7838 8.64628 17.623 9.05019 17.4018 9.57682C17.3013 9.81712 17.1405 10.2057 16.9898 10.584C16.9144 10.7681 16.7988 11.0493 16.7335 11.2078C16.5224 11.7242 16.3767 12.0821 16.2611 12.3735C16.2008 12.5269 16.0953 12.7877 16.0299 12.9462C15.9791 13.0734 15.9007 13.2631 15.8378 13.4155C15.8198 13.4588 15.8032 13.4991 15.7887 13.5342C15.7653 13.5929 15.7366 13.6642 15.7067 13.7385C15.6534 13.8712 15.5962 14.0136 15.5576 14.1119C15.4973 14.2653 15.3917 14.5261 15.3264 14.6846C15.2756 14.8118 15.1974 15.0009 15.1344 15.1533C15.1164 15.1968 15.0997 15.2373 15.0852 15.2725C15.0574 15.3416 15.0303 15.4087 15.0026 15.4773C14.9052 15.7185 14.8 15.9788 14.6279 16.4127C14.6155 16.4428 14.6026 16.4744 14.5895 16.5064C14.5226 16.6702 14.4496 16.8487 14.4118 16.9342C14.3716 17.0416 14.3213 17.1285 14.3012 17.1285C14.261 17.1285 14.0902 16.7399 14.0047 16.4638C13.9796 16.3667 13.8841 16.0906 13.7987 15.8503L13.7937 15.8361C13.7092 15.5984 13.607 15.3109 13.5675 15.1856C13.5324 15.0578 13.4771 14.9095 13.4469 14.8533C13.3866 14.7306 13.2158 14.2295 13.1203 13.9074C13.0851 13.7796 13.0097 13.5751 12.9494 13.4472C12.8941 13.3194 12.8439 13.1814 12.8439 13.1354C12.8439 13.0893 12.8087 12.982 12.7685 12.8951C12.6982 12.757 12.6982 12.7212 12.7735 12.5423C12.869 12.3173 13.0349 11.9083 13.1957 11.5044C13.2343 11.406 13.2916 11.2635 13.3449 11.1308C13.3748 11.0565 13.4034 10.9853 13.4268 10.9266C13.4413 10.8915 13.4582 10.8505 13.4761 10.8072C13.5391 10.6549 13.6173 10.4658 13.668 10.3386C13.8086 9.99127 13.9442 9.65412 14.1249 9.20479L14.1639 9.1095C14.2361 8.93329 14.3267 8.71229 14.3816 8.5747C14.5927 8.06341 14.7384 7.70551 14.854 7.41408C14.8927 7.31574 14.9499 7.17327 15.0033 7.04056C15.0331 6.96627 15.0617 6.89504 15.0852 6.83633C15.0996 6.8014 15.1163 6.76095 15.1341 6.71784C15.1971 6.5655 15.2756 6.37561 15.3264 6.24835C15.3917 6.08985 15.4973 5.82909 15.5576 5.67571C15.5961 5.57756 15.6535 5.43478 15.7068 5.30229C15.7366 5.228 15.7653 5.15668 15.7887 5.09796C15.8032 5.06273 15.8202 5.02169 15.8382 4.97815C15.9011 4.82597 15.9792 4.63698 16.0299 4.50998C16.0489 4.46388 16.071 4.40985 16.0941 4.35321L16.0947 4.3517C16.1508 4.21406 16.2135 4.06038 16.2561 3.9629C16.5425 3.26244 16.7837 2.66424 16.844 2.4904C16.8842 2.37792 16.9596 2.20408 17.0149 2.0916C17.0702 1.98423 17.1154 1.87175 17.1154 1.84107C17.1154 1.81039 17.1606 1.68768 17.2159 1.5752C17.2712 1.45761 17.3164 1.34512 17.3164 1.31956C17.3164 1.29911 17.3717 1.15595 17.4421 1.00256C17.5124 0.849177 17.5677 0.711131 17.5677 0.695792C17.5677 0.67534 17.623 0.547519 17.6933 0.399245C17.7637 0.256085 17.8189 0.102702 17.8189 0.0617989C17.8189 -0.0711357 17.9798 0.0260075 18.0451 0.204959C18.1205 0.409472 18.3215 0.915645 18.432 1.1764C18.4422 1.20096 18.4553 1.2327 18.4701 1.26891C18.5141 1.37593 18.5742 1.52195 18.623 1.63656C18.6833 1.78994 18.7888 2.04047 18.8542 2.18874C18.9195 2.33702 18.9748 2.48529 18.9748 2.52619C18.9748 2.56198 19.03 2.70514 19.1004 2.84319C19.1708 2.98124 19.226 3.11417 19.226 3.13462C19.226 3.16019 19.2813 3.30335 19.3517 3.45673C19.422 3.61012 19.4773 3.74816 19.4773 3.75839C19.4773 3.77373 19.5175 3.8811 19.5728 4.00381C19.8391 4.61735 19.9296 4.85254 19.9296 4.92412C19.9296 4.97013 19.9497 5.01615 19.9748 5.03149C19.9949 5.04683 20.0703 5.20533 20.1356 5.37916C20.2009 5.55811 20.2813 5.75751 20.3165 5.82909C20.3517 5.90067 20.3819 5.97737 20.3819 5.99782C20.3819 6.02338 20.4371 6.16654 20.5075 6.31993C20.5778 6.47332 20.6331 6.61648 20.6331 6.64204C20.6331 6.66249 20.6884 6.79542 20.7588 6.93347C20.8291 7.07152 20.8844 7.21468 20.8844 7.25047C20.8844 7.28115 20.9296 7.39874 20.9849 7.501C21.0402 7.60837 21.0854 7.72085 21.0854 7.74641C21.0854 7.77709 21.1407 7.92536 21.211 8.06852C21.2814 8.2168 21.3367 8.34462 21.3367 8.36507C21.3367 8.38041 21.3919 8.51846 21.4623 8.67184C21.5326 8.82523 21.5879 8.97861 21.5879 9.0144C21.5879 9.05019 21.608 9.10132 21.6332 9.132C21.6533 9.15756 21.7588 9.39787 21.8593 9.66373C21.9648 9.9296 22.1055 10.2671 22.1709 10.4153C22.2362 10.5585 22.2915 10.7016 22.2915 10.7323C22.2915 10.763 22.3468 10.9062 22.4121 11.0544C22.4774 11.2027 22.5829 11.4532 22.6432 11.6066C22.6765 11.6846 22.7176 11.7827 22.7565 11.8755Z" fill="#EEE8DE"/>
<path d="M10.9466 14.7175C9.56944 15.3974 9.22137 15.5661 8.24778 16.0415C7.74837 16.2868 6.97656 16.6651 6.53264 16.8849C6.08873 17.1047 5.38754 17.4472 4.96884 17.6517C4.27775 17.9891 3.77834 18.2344 1.48813 19.359C1.07448 19.5686 0.564985 19.814 0.368249 19.906C0.166469 20.0031 0 20.1105 0 20.1513C0 20.1974 0.0403561 20.2076 0.116024 20.1922C0.176558 20.1769 0.509496 20.1207 0.857567 20.0644C1.20564 20.0082 1.80594 19.906 2.19436 19.8446C2.58279 19.7782 2.9914 19.722 3.10237 19.7117C3.29407 19.6964 3.62196 19.6453 5.22107 19.3846C5.6095 19.3232 6.08873 19.2517 6.28042 19.2312C6.47715 19.2108 6.90594 19.1494 7.23887 19.0932C7.57181 19.0319 8.18724 18.9347 8.60089 18.8734C9.01959 18.8121 9.59971 18.7252 9.89733 18.6792L10.4371 18.5923L10.5582 18.9296C10.6742 19.2466 10.7246 19.3897 10.8507 19.7577C10.881 19.8498 10.9516 20.0389 11.0071 20.182C11.0626 20.32 11.1282 20.5194 11.1484 20.6165C11.1736 20.7136 11.2341 20.8874 11.2795 20.9999C11.33 21.1124 11.3956 21.2964 11.4309 21.4088C11.4813 21.5878 11.6226 21.9967 12.1371 23.4536C12.2077 23.6478 12.2985 23.9034 12.3338 24.0159C12.3691 24.1283 12.4852 24.4504 12.5861 24.7315C12.6869 25.0127 12.7828 25.2887 12.7979 25.3449C12.8131 25.4012 12.8736 25.5852 12.9392 25.7539C13.0905 26.1679 13.1561 26.3622 13.2721 26.7353C13.3276 26.9091 13.4033 27.1187 13.4436 27.1954C13.484 27.2721 13.5193 27.3794 13.5193 27.4305C13.5193 27.4817 13.5647 27.6197 13.6202 27.7372C13.6807 27.8548 13.7463 28.0337 13.7665 28.1309C13.7917 28.228 13.8976 28.5398 13.9985 28.8209C14.0994 29.1021 14.2104 29.4241 14.2507 29.5366C14.2861 29.6491 14.397 29.9711 14.4979 30.2522C14.5988 30.5334 14.7502 30.9577 14.8309 31.1979C14.9116 31.4382 15.0579 31.8625 15.1588 32.1436C15.5321 33.1915 15.5976 33.3756 15.643 33.5647C15.6683 33.6771 15.7338 33.8509 15.7893 33.9583C15.8448 34.0708 15.8902 34.1986 15.8902 34.2497C15.8902 34.3008 15.9407 34.4439 15.9961 34.5717C16.0567 34.6995 16.1323 34.904 16.1677 35.0318C16.203 35.1596 16.3039 35.456 16.3896 35.6963C16.4804 35.9366 16.5712 36.1973 16.5964 36.2842C16.6166 36.3659 16.7226 36.6675 16.8234 36.9487C16.9243 37.2298 17.0404 37.5519 17.0757 37.6643C17.116 37.7768 17.227 38.0988 17.3279 38.38C17.4288 38.6611 17.5297 38.9576 17.5499 39.0445C17.57 39.1263 17.6407 39.3103 17.6961 39.4484C17.7567 39.5864 17.8071 39.7397 17.8071 39.7908C17.8071 39.9851 17.9534 39.888 18.024 39.6477C18.0644 39.5097 18.1804 39.1723 18.2813 38.8912C18.3822 38.61 18.5234 38.196 18.5991 37.9711C18.6697 37.7461 18.7807 37.4343 18.8463 37.2758C18.9119 37.1174 18.9674 36.9487 18.9674 36.9027C18.9674 36.8567 19.0128 36.7289 19.0683 36.6164C19.1237 36.5091 19.1893 36.3353 19.2145 36.2228C19.2398 36.1155 19.3457 35.7985 19.4466 35.5174C19.5475 35.2362 19.6585 34.9142 19.6988 34.8017C19.7341 34.6893 19.8451 34.3672 19.946 34.0861C20.0469 33.8049 20.1932 33.3909 20.2638 33.166C20.3344 32.9411 20.4353 32.6599 20.4908 32.5372C20.5413 32.4145 20.6018 32.2407 20.6169 32.1538C20.6371 32.0618 20.7027 31.8727 20.7683 31.7347C20.8288 31.5915 20.8843 31.4382 20.8843 31.3871C20.8843 31.3359 20.9196 31.2235 20.965 31.1366C21.0104 31.0497 21.076 30.8759 21.1113 30.743C21.1466 30.6152 21.2576 30.2778 21.3585 29.9967C21.4644 29.7155 21.5754 29.3935 21.6157 29.281C21.651 29.1685 21.8024 28.7443 21.9436 28.3353C22.0899 27.9264 22.2362 27.5021 22.2665 27.3896C22.3018 27.2772 22.3674 27.0932 22.4128 26.9858C22.4632 26.8734 22.5137 26.7251 22.5288 26.6535C22.5439 26.582 22.5944 26.444 22.6347 26.3519C22.6751 26.2599 22.7356 26.0759 22.776 25.943C22.8113 25.8101 22.9122 25.5085 23.003 25.2682C23.0887 25.028 23.235 24.6037 23.3309 24.3226C23.4267 24.0414 23.5831 23.5814 23.684 23.3002C23.7899 23.0191 23.9009 22.697 23.9362 22.5846C23.9766 22.4721 24.0875 22.1501 24.1884 21.8689C24.2893 21.5878 24.3953 21.2759 24.4154 21.1788C24.4407 21.0817 24.4961 20.9283 24.5415 20.8363C24.5869 20.7494 24.6525 20.5654 24.6929 20.4274C24.7282 20.2945 24.8341 19.9878 24.9199 19.7475C25.0056 19.5073 25.0964 19.2414 25.1166 19.1597C25.1418 19.0728 25.1973 18.9143 25.2427 18.8018L25.3234 18.5974L25.9439 18.6894C26.2819 18.7405 26.8217 18.8274 27.1395 18.8785C27.4573 18.9347 27.7902 18.9807 27.881 18.9807C27.9718 18.9807 28.2896 19.0268 28.5872 19.0881C28.8849 19.1443 29.3036 19.2108 29.5104 19.2363C29.7172 19.2568 30.1964 19.3283 30.5697 19.3897C30.943 19.451 31.5332 19.543 31.8813 19.5942C32.2294 19.6453 32.8196 19.7373 33.1929 19.7986C33.5662 19.86 34.0454 19.9315 34.2522 19.952C34.4591 19.9775 34.8778 20.044 35.1855 20.1002C35.5083 20.1616 35.7555 20.1871 35.7858 20.1565C35.811 20.1309 35.5537 19.9827 35.1804 19.7986C34.8223 19.6248 34.4641 19.4459 34.3783 19.405C34.1413 19.2721 34.1059 19.2568 33.5712 19.0063C33.2938 18.8734 33.0012 18.7303 32.9154 18.6843C32.6884 18.5667 32.6733 18.5565 31.8561 18.1629C31.1347 17.8153 30.4436 17.4779 28.9807 16.7571C27.5279 16.0415 25.046 14.8249 24.365 14.4977C23.8908 14.2677 23.9009 14.2626 23.7647 14.6357C23.7243 14.7328 23.6537 14.9118 23.6033 15.0293C23.5478 15.152 23.5074 15.2696 23.5074 15.3003C23.5074 15.3258 23.4519 15.4485 23.3813 15.5763C23.3107 15.7041 23.2552 15.8319 23.2552 15.8677C23.2552 15.9034 23.1997 16.0466 23.1341 16.1897C23.0686 16.3328 22.9525 16.5986 22.8769 16.7827C22.4481 17.8459 22.1252 18.628 21.9335 19.0625C21.8831 19.175 21.8427 19.3028 21.8427 19.3437C21.8427 19.3846 21.8226 19.4408 21.7973 19.4664C21.757 19.5124 21.6208 19.8395 21.2525 20.7443C21.1819 20.913 21.0709 21.1839 21.0053 21.3424C20.6775 22.1398 20.4202 22.7737 20.2789 23.1213C20.2184 23.2747 20.1125 23.52 20.0469 23.6683C19.9813 23.8114 19.9258 23.9443 19.9258 23.9596C19.9258 23.9801 19.8804 24.0874 19.8249 24.2101C19.7745 24.3277 19.6534 24.6191 19.5576 24.8593C19.4617 25.0996 19.3457 25.3858 19.2953 25.4983C19.1944 25.7283 19.038 26.1066 18.8412 26.5973C18.584 27.2414 18.4982 27.4408 18.3822 27.7066C18.3166 27.8497 18.2611 27.9928 18.2611 28.0235C18.2611 28.0542 18.2208 28.1513 18.1703 28.2433C18.1148 28.3353 18.0442 28.504 18.0089 28.6165C17.9282 28.8874 17.8777 28.9334 17.8323 28.7903C17.797 28.6727 17.7062 28.4427 17.3935 27.6964C17.3128 27.497 17.1967 27.221 17.1413 27.0829C17.0858 26.9398 17.005 26.7558 16.9697 26.674C16.8234 26.3315 16.4148 25.3449 16.2433 24.9104C16.1828 24.7571 16.0769 24.5117 16.0113 24.3686C15.9457 24.2254 15.8902 24.0823 15.8902 24.0465C15.8902 24.0107 15.8347 23.883 15.7641 23.7552C15.6935 23.6274 15.638 23.4945 15.638 23.4536C15.638 23.4127 15.5926 23.3002 15.5371 23.198C15.4816 23.0957 15.4362 22.9935 15.4362 22.9679C15.4362 22.9373 15.3908 22.8197 15.3404 22.697C15.1739 22.3187 14.8662 21.5929 14.5786 20.8721C14.5131 20.7188 14.4122 20.4683 14.3466 20.32C14.281 20.1718 14.2255 20.0389 14.2255 20.0236C14.2255 19.998 14.1045 19.7066 13.6454 18.6076C13.5294 18.3367 13.4487 18.1373 13.1611 17.4472C13.1006 17.2939 12.9947 17.0485 12.9291 16.9002C12.8635 16.7571 12.8131 16.6191 12.8131 16.5935C12.8131 16.5731 12.7576 16.4402 12.6869 16.3022C12.6163 16.1642 12.5608 16.0312 12.5608 16.0057C12.5608 15.9852 12.5154 15.8677 12.4599 15.745C12.4095 15.6274 12.2884 15.336 12.1926 15.0958C12.0967 14.8555 11.9757 14.5744 11.9252 14.4721L11.8294 14.2779L10.9466 14.7175Z" fill="#EEE8DE"/>
<path d="M9.61259 20.3413C9.55198 20.4689 9.50148 20.5863 9.50148 20.6016C9.50148 20.6118 9.44592 20.7496 9.37521 20.9027C9.30451 21.0559 9.24895 21.2039 9.24895 21.2243C9.24895 21.2498 9.20349 21.357 9.14794 21.4693C9.09238 21.5816 9.04693 21.7092 9.04693 21.7602C9.04693 21.8062 9.02673 21.8572 9.00147 21.8725C8.98127 21.8878 8.90551 22.041 8.84491 22.2145C8.77925 22.3881 8.68834 22.6075 8.63278 22.7096C8.58228 22.8117 8.54187 22.924 8.54187 22.9597C8.54187 22.9955 8.49642 23.0975 8.44086 23.1894C8.38531 23.2813 8.33985 23.3987 8.33985 23.4446C8.33985 23.4957 8.29945 23.608 8.24894 23.6998C8.19338 23.7917 8.12268 23.9601 8.08732 24.0724C8.05197 24.1847 8.00651 24.3021 7.98126 24.3328C7.95601 24.3634 7.9055 24.4859 7.8651 24.6033C7.81964 24.7207 7.75399 24.8891 7.71358 24.981C7.67318 25.0678 7.58227 25.2923 7.50651 25.4761C7.43075 25.6598 7.31964 25.9355 7.25398 26.0886C7.12267 26.4051 6.99135 26.7266 6.79943 27.2115C6.72367 27.3953 6.60751 27.676 6.54185 27.8342C6.32973 28.3498 6.18327 28.707 6.0671 28.998C6.0065 29.1511 5.90043 29.4063 5.83983 29.5594C5.48124 30.4272 5.32972 31.397 5.41053 32.2902C5.47619 32.9588 5.52669 33.1834 5.70346 33.4897C5.77417 33.6173 5.88528 33.8112 5.94589 33.9235C6.01155 34.0358 6.10751 34.2094 6.15801 34.3064C6.55701 35.0465 6.5368 35.026 7.15297 35.5569C7.3752 35.7508 7.61257 35.9601 7.67318 36.0214C7.77924 36.1234 7.92065 36.2153 8.46611 36.5318C8.62773 36.6237 9.45602 37.1137 9.67825 37.2464C9.78936 37.3178 10.0267 37.4403 10.2035 37.5271C10.5116 37.6751 10.648 37.7313 11.1328 37.9048C11.249 37.9507 11.4207 38.0222 11.5116 38.063C11.6934 38.1498 12.1328 38.2876 12.7086 38.4408C12.9055 38.4918 13.1783 38.5684 13.3146 38.6092C13.4561 38.65 13.8045 38.7317 14.0975 38.7878C14.3904 38.844 14.8349 38.9308 15.0823 38.9818C15.7187 39.1043 15.8652 39.1247 15.8652 39.0686C15.8652 39.0379 15.7339 38.9869 15.5773 38.9512C15.4157 38.9154 15.153 38.844 14.9965 38.7929C14.8349 38.7368 14.6732 38.696 14.6328 38.696C14.552 38.696 13.6985 38.4152 13.0874 38.1855C12.85 38.0988 12.6025 38.012 12.5318 37.9967C12.4611 37.9763 12.3197 37.9099 12.2187 37.8436C12.1126 37.7823 11.9964 37.7262 11.9611 37.7262C11.9257 37.7262 11.8752 37.7057 11.8449 37.6802C11.8197 37.6496 11.6631 37.5628 11.4964 37.4761C11.3247 37.3944 11.0975 37.2413 10.9914 37.1392C10.557 36.7462 10.0924 36.3072 9.71865 35.9499C9.50653 35.7508 9.31461 35.5824 9.28935 35.5824C9.26915 35.5824 9.24895 35.5365 9.24895 35.4803C9.24895 35.4242 9.20349 35.3017 9.14794 35.1996C9.09238 35.0975 9.04693 34.9903 9.04693 34.9546C9.04693 34.9189 8.99137 34.7759 8.92066 34.6381C8.85501 34.4952 8.7944 34.3625 8.7944 34.3421C8.7944 34.3166 8.73884 34.1787 8.67319 34.0358C8.48632 33.6173 8.44591 33.4642 8.41056 32.9895C8.36005 32.234 8.57723 31.2285 9.04693 30.0954C9.16309 29.8147 9.29946 29.4829 9.34996 29.3553C9.51663 28.952 9.75906 28.3651 9.86007 28.1405C9.91057 28.0231 9.95603 27.8955 9.95603 27.8598C9.95603 27.824 10.0116 27.6913 10.0823 27.5586C10.153 27.4259 10.2086 27.2932 10.2086 27.2677C10.2086 27.237 10.2641 27.0941 10.3298 26.9461C10.3904 26.7981 10.4611 26.6398 10.4762 26.599C10.4914 26.5582 10.5873 26.3285 10.6884 26.0886C10.7894 25.8487 10.8904 25.5986 10.9156 25.5271C10.9409 25.4557 11.0368 25.2107 11.1379 24.9759C11.3348 24.5012 11.3399 24.588 11.0419 23.7662C10.8752 23.3119 10.8146 23.1333 10.7086 22.7862C10.653 22.6126 10.5772 22.4034 10.5368 22.3268C10.4964 22.2502 10.4611 22.1431 10.4611 22.0971C10.4611 22.0461 10.4055 21.8776 10.3348 21.7194C10.2641 21.5612 10.2086 21.4029 10.2086 21.3621C10.2086 21.3264 10.153 21.163 10.0873 20.9997C10.0217 20.8364 9.93582 20.6067 9.90047 20.4842C9.78936 20.0963 9.7338 20.0707 9.61259 20.3413Z" fill="#EEE8DE"/>
<path d="M26.0718 20.2907C26.0566 20.3367 25.9606 20.6075 25.8596 20.8885C25.7585 21.1694 25.6473 21.4913 25.6069 21.6037C25.5715 21.7161 25.4806 21.9664 25.4149 22.1657C24.4851 24.7916 24.5458 24.5822 24.6519 24.9142C24.6974 25.0624 24.7782 25.2565 24.8338 25.3485C24.8843 25.4405 24.9247 25.5375 24.9247 25.5682C24.9247 25.5937 24.9702 25.7163 25.0258 25.8287C25.0814 25.9462 25.1269 26.0586 25.1269 26.0842C25.1269 26.1046 25.1825 26.2477 25.2532 26.4009C25.3239 26.5542 25.3795 26.6921 25.3795 26.7075C25.3795 26.7279 25.4351 26.8556 25.5058 27.0038C25.5766 27.1468 25.6322 27.295 25.6322 27.3205C25.6322 27.3512 25.6675 27.4431 25.713 27.53C25.7585 27.6117 25.8393 27.811 25.8949 27.9642C25.9505 28.1175 26.0162 28.2657 26.0415 28.2963C26.0667 28.3219 26.0869 28.3729 26.0869 28.4138C26.0869 28.4547 26.1425 28.5977 26.2133 28.7408C26.284 28.8787 26.3396 29.0167 26.3396 29.0422C26.3396 29.0677 26.3952 29.2057 26.4659 29.3538C26.5366 29.4969 26.5922 29.6348 26.5922 29.6604C26.5922 29.6859 26.6327 29.7983 26.6882 29.9209C26.9308 30.4778 27.047 30.7639 27.047 30.8099C27.047 30.8354 27.1026 31.0398 27.1683 31.2646C27.4715 32.2966 27.4765 33.2672 27.1733 33.9569C27.1026 34.1153 26.9864 34.3912 26.9156 34.57C26.8398 34.7437 26.7388 34.9838 26.6882 35.1064C26.6327 35.2239 26.5922 35.3517 26.5922 35.3925C26.5922 35.4283 26.5316 35.5254 26.4558 35.6071C26.375 35.6888 26.1577 35.9494 25.9657 36.1793C25.6473 36.5573 25.4705 36.7055 24.95 37.0069C24.8692 37.058 24.6266 37.2011 24.4195 37.3237C24.2123 37.4463 23.9647 37.5944 23.8687 37.6506C23.7777 37.7017 23.6211 37.7988 23.5251 37.8652C23.4341 37.9265 23.328 37.9776 23.2926 37.9776C23.2623 37.9776 23.1107 38.0287 22.9541 38.0849C22.8025 38.1462 22.5397 38.2484 22.373 38.3097C21.893 38.4936 20.7864 38.8206 20.2154 38.9483C20.0537 38.9841 19.9223 39.0351 19.9223 39.0607C19.9223 39.122 20.089 39.1118 20.5943 39.0045C20.852 38.9483 21.322 38.8563 21.6403 38.795C21.9587 38.7388 22.4185 38.6315 22.661 38.56C22.9086 38.4936 23.3179 38.3761 23.5706 38.2995C23.8283 38.2279 24.1112 38.1411 24.1921 38.1053C24.4397 37.998 25.2734 37.6711 25.3037 37.6711C25.3391 37.6711 25.8747 37.4054 26.2133 37.2164C26.38 37.1193 26.663 36.9661 26.8449 36.8639C27.0268 36.7668 27.2138 36.6493 27.2643 36.6084C27.3098 36.5676 27.3906 36.5063 27.4462 36.4756C27.4967 36.445 27.6382 36.3479 27.7544 36.2661C27.8757 36.1793 28.0222 36.0771 28.0829 36.0362C28.1435 35.9954 28.3052 35.883 28.4416 35.7859C28.5831 35.6888 28.9267 35.3261 29.245 34.9276C29.8059 34.2328 29.8666 34.1255 30.1041 33.3285C30.1394 33.2008 30.2253 32.9811 30.286 32.8432C30.3921 32.6082 30.4022 32.5213 30.3971 31.7193C30.3921 30.9325 30.382 30.815 30.2607 30.442C30.19 30.2172 30.1293 30.0078 30.1293 29.972C30.1293 29.9363 30.0737 29.783 30.003 29.6297C29.9323 29.4765 29.8767 29.3334 29.8767 29.3079C29.8716 29.2874 29.8312 29.175 29.7756 29.0626C29.72 28.9502 29.6796 28.843 29.6746 28.8174C29.6746 28.797 29.619 28.6641 29.5482 28.516C29.4775 28.3729 29.4219 28.235 29.4219 28.2095C29.4219 28.1839 29.3764 28.0715 29.3208 27.9489C29.2703 27.8314 29.149 27.5402 29.053 27.3001C28.957 27.06 28.8408 26.7739 28.7903 26.6615C28.6892 26.4316 28.5326 26.0535 28.3355 25.5631C28.1536 25.1135 28.0172 24.7763 27.8757 24.4238C27.81 24.2654 27.6988 23.9998 27.6331 23.8363C27.5675 23.6779 27.4613 23.4173 27.4007 23.2641C27.3401 23.1108 27.234 22.8503 27.1683 22.6868C27.1026 22.5284 26.9914 22.2627 26.9257 22.0993C26.7994 21.7927 26.6882 21.522 26.4659 20.9651C26.3901 20.7812 26.2941 20.5462 26.2486 20.4389C26.1577 20.209 26.1071 20.1681 26.0718 20.2907Z" fill="#EEE8DE"/>
<path d="M33.8547 35.4687C33.8143 35.5352 33.7133 35.6528 33.6325 35.7397C33.5517 35.8216 33.3244 36.0875 33.1274 36.3279C32.5769 36.9979 31.2941 38.2459 30.5416 38.8392C30.1729 39.1307 29.8345 39.3916 29.7891 39.4222C29.7436 39.4478 29.5871 39.5552 29.4355 39.6524C29.284 39.7496 29.1224 39.857 29.077 39.8826C29.0315 39.9132 28.8648 40.0258 28.7032 40.1281C28.5416 40.2355 28.1275 40.4656 27.7841 40.6446C27.4406 40.8236 27.1275 40.9924 27.0921 41.0231C27.0568 41.0538 26.9356 41.1101 26.8245 41.151C26.4861 41.2788 26.1275 41.422 25.9406 41.5039C25.3093 41.7801 25.2184 41.8108 24.2487 42.0818C23.971 42.1585 23.6326 42.2557 23.4912 42.2915C22.9003 42.4603 21.976 42.5728 21.2033 42.5728C20.3144 42.5677 20.0821 42.5421 19.8195 42.4092C19.7134 42.3529 19.6023 42.312 19.572 42.312C19.3599 42.312 18.8044 42.0051 18.3953 41.6675C18.1478 41.4579 17.9155 41.2891 17.8852 41.2891C17.8347 41.2891 17.5317 41.5346 17.3246 41.7443C17.264 41.8056 17.1933 41.8517 17.1579 41.8517C17.1276 41.8517 17.1024 41.8772 17.1024 41.9079C17.1024 41.9898 16.0721 42.4143 15.6125 42.5166C15.2539 42.5984 13.8852 42.5831 13.3145 42.491C12.4762 42.3529 11.5671 42.1279 11.0267 41.9233C10.9257 41.8824 10.7944 41.8517 10.7338 41.8517C10.6782 41.8517 10.5216 41.7954 10.3853 41.7238C10.2489 41.6522 10.1075 41.5959 10.0671 41.5959C10.0317 41.5959 9.88528 41.5397 9.74892 41.4681C9.61256 41.3965 9.47114 41.3402 9.43074 41.3402C9.37519 41.3402 8.34489 40.8339 7.60753 40.44C7.25905 40.2559 5.88533 39.3506 5.552 39.0847C5.36008 38.9312 5.17827 38.788 5.14291 38.7573C5.10756 38.7318 5.02675 38.6551 4.9712 38.5886C4.91059 38.5272 4.84494 38.476 4.82979 38.476C4.69847 38.476 3.2591 37.044 2.61264 36.2768C1.89548 35.4226 1.86012 35.3817 1.81972 35.4226C1.79952 35.4431 1.88033 35.5761 1.99649 35.7244C2.11265 35.8727 2.37022 36.2001 2.56719 36.4558C3.34496 37.4634 5.11766 39.279 5.79442 39.77C5.92068 39.857 6.13785 40.0309 6.27926 40.1485C6.42068 40.2713 6.54694 40.3684 6.56209 40.3684C6.58229 40.3684 6.64795 40.4196 6.7136 40.481C6.77926 40.5475 6.91057 40.6446 7.00148 40.7009C7.20349 40.8236 7.2338 40.839 7.64793 41.1254C7.8247 41.243 7.98126 41.3402 7.99136 41.3402C8.00651 41.3402 8.09237 41.3965 8.18328 41.4681C8.27419 41.5397 8.38025 41.5959 8.41055 41.5959C8.4459 41.5959 8.53681 41.6369 8.60752 41.6931C8.68327 41.7443 8.9156 41.8721 9.12266 41.9744C9.32973 42.0767 9.5368 42.1841 9.5772 42.2097C9.78932 42.3376 11.4913 43.028 11.5974 43.028C11.6327 43.028 11.8196 43.0843 12.0166 43.1508C12.461 43.3042 12.865 43.4167 13.163 43.4832C14.1075 43.6827 14.5165 43.7543 15.3347 43.8668C16.1731 43.9845 16.4357 43.9998 17.8599 43.9998C19.2993 44.0049 19.5468 43.9896 20.4357 43.8668C20.9761 43.7952 21.6124 43.6929 21.8498 43.6418C22.0872 43.5855 22.375 43.5293 22.4962 43.5139C22.7589 43.473 23.6275 43.2224 23.8902 43.1099C23.9962 43.0638 24.1275 43.028 24.178 43.028C24.2285 43.028 24.4104 42.9667 24.5871 42.8951C24.7639 42.8234 25.0215 42.716 25.1578 42.6598C26.0113 42.312 26.0265 42.3018 26.9255 41.8363C27.7487 41.4067 28.8042 40.7213 29.4608 40.1894C29.4962 40.1587 29.577 40.0974 29.6376 40.0513C30.1426 39.6575 30.481 39.366 30.9305 38.9415C31.4658 38.4351 31.5971 38.3073 32.0163 37.847C32.1527 37.6986 32.3598 37.4787 32.4759 37.3508C32.5921 37.223 32.789 36.9928 32.9153 36.8394C33.0365 36.6859 33.1628 36.5325 33.188 36.5018C33.2183 36.466 33.284 36.3791 33.3395 36.3075C33.3951 36.2307 33.4709 36.1387 33.5062 36.0978C33.688 35.8932 33.9708 35.4789 33.9708 35.4226C33.9708 35.3255 33.9405 35.3408 33.8547 35.4687Z" fill="#EEE8DE"/>
<path d="M33.946 35.4713C33.6943 35.8903 33.5057 36.123 33.821 35.6919C33.8757 35.6125 33.6992 35.8608 33.7689 35.7595C33.8504 35.6363 33.9253 35.5486 33.9708 35.4259C33.9707 35.4089 33.9711 35.3922 33.9653 35.3742C33.96 35.3471 33.9258 35.3641 33.9174 35.3762C33.8921 35.4022 33.8715 35.4333 33.8497 35.4663C33.8409 35.48 33.8591 35.4534 33.888 35.4166C33.9029 35.3992 33.9191 35.3748 33.9433 35.3646C33.971 35.3662 33.9622 35.4076 33.9639 35.4259C33.9618 35.4375 33.9579 35.4475 33.9541 35.4555L33.946 35.4713ZM18.2099 44.0003C18.2232 44.0003 18.1807 43.9978 18.2268 43.9977C18.5311 43.9964 18.5668 44.0018 18.8946 43.9976C19.1516 43.9957 19.6085 43.9711 19.899 43.9344C19.8927 43.9282 20.1662 43.8968 20.2786 43.8862C20.3294 43.8793 20.3817 43.8721 20.4355 43.8647C20.5763 43.846 20.7198 43.8258 20.8517 43.806C20.9142 43.7965 20.8728 43.8005 20.8807 43.7991C21.001 43.7776 21.0834 43.7699 21.1239 43.7638C21.3853 43.7239 21.6176 43.6863 21.8494 43.6385C22.0061 43.6015 22.1644 43.5683 22.3334 43.5387C22.3483 43.5365 22.3731 43.5357 22.4841 43.5155C22.4905 43.5142 22.3822 43.5282 22.4954 43.5114C22.5091 43.5092 22.5272 43.506 22.5497 43.5016C22.7455 43.463 23.1084 43.3602 23.3743 43.2819C23.4386 43.263 23.6025 43.217 23.7299 43.1689C23.7472 43.1624 23.7278 43.1676 23.7523 43.1581C23.8055 43.1373 23.8437 43.1251 23.8896 43.1057C23.9118 43.0961 23.9364 43.0858 23.9664 43.0736C24.0115 43.0567 24.0801 43.0266 24.1761 43.0173C24.2738 43.0037 24.3917 42.9571 24.5262 42.908C24.5308 42.9063 24.5525 42.8993 24.5848 42.8875C24.6104 42.8781 24.6429 42.8657 24.6789 42.851C24.8088 42.7977 24.9926 42.7205 25.1281 42.6645C25.1412 42.6591 25.1501 42.6556 25.1557 42.6534C25.1794 42.6445 25.1546 42.6564 25.1639 42.6526C25.6015 42.4747 25.9141 42.3518 26.3636 42.1196C26.4468 42.0775 26.684 41.9591 26.8432 41.8735C26.8862 41.8504 26.908 41.8375 26.9217 41.8287C26.9598 41.8026 26.9353 41.8121 27.2319 41.651C27.3916 41.5631 27.6007 41.4616 27.8763 41.2821C28.4189 40.9475 28.9074 40.6153 29.4115 40.221C29.4205 40.2139 29.4374 40.2013 29.4575 40.1862C29.488 40.1618 29.5282 40.1329 29.5606 40.1079C29.5896 40.0856 29.6138 40.067 29.6355 40.05C29.6733 40.0197 29.7032 39.9952 29.739 39.9669C29.9747 39.7806 30.1885 39.6074 30.4065 39.4163C30.4892 39.3435 30.459 39.3676 30.5568 39.28C30.6542 39.1922 30.7209 39.1351 30.8498 39.0128C30.8752 38.9887 30.9002 38.9643 30.926 38.939C30.9987 38.8675 31.0742 38.7916 31.1696 38.7001C31.178 38.6997 31.2678 38.6155 31.424 38.4646C31.4542 38.4353 31.4235 38.4684 31.4378 38.4546C31.4958 38.3988 31.5473 38.3448 31.6015 38.2908C31.6146 38.2777 31.6167 38.2784 31.6275 38.2677C31.7198 38.1771 31.8615 38.0176 31.8856 37.9901C31.9393 37.9293 31.9771 37.8881 32.0137 37.8482C32.0403 37.8195 32.0663 37.7917 32.0969 37.758C32.1692 37.6786 32.0589 37.7953 32.1438 37.7029C32.2423 37.5958 32.3577 37.4727 32.4699 37.3497C32.5579 37.2524 32.6431 37.1536 32.7189 37.0651C32.7873 36.9848 32.7426 37.0412 32.7524 37.0298C32.8069 36.9661 32.861 36.9015 32.911 36.8406C32.9891 36.7415 33.0601 36.6544 33.1096 36.5988C33.1404 36.5534 33.1602 36.5275 33.1817 36.5019C33.2148 36.4631 33.2507 36.4219 33.3368 36.3107C33.3504 36.292 33.3655 36.2716 33.3825 36.2492C33.3975 36.2298 33.4114 36.2008 33.3533 36.2753C33.346 36.2848 33.3383 36.295 33.3304 36.3059C33.2872 36.3607 33.2352 36.4321 33.1794 36.4998C33.1615 36.5215 33.1435 36.5432 33.1258 36.5643C33.1057 36.5881 32.9894 36.7221 32.974 36.741C32.9428 36.7788 32.9191 36.8088 32.901 36.8326C32.8481 36.8991 32.841 36.9154 32.8366 36.9213C32.768 37.0124 32.6218 37.1726 32.5837 37.2151C32.5434 37.2604 32.5042 37.3043 32.466 37.3461C32.339 37.4842 32.2229 37.6082 32.108 37.7303C32.057 37.7844 32.0287 37.8123 32.0028 37.8379C31.9785 37.8622 31.9566 37.8841 31.9206 37.9236C31.6687 38.198 31.5853 38.2985 31.3286 38.5377C31.2733 38.5887 31.3231 38.5323 31.1314 38.7223C31.1203 38.7334 31.0037 38.8495 30.9169 38.9293C30.9078 38.9377 30.899 38.9456 30.8908 38.953C30.88 38.9626 30.8791 38.9607 30.8649 38.9738C30.7705 39.0608 30.7089 39.1202 30.6049 39.2136C30.501 39.307 30.3744 39.4174 30.2534 39.5213C30.1806 39.5841 30.0881 39.6657 30.053 39.6956C29.9543 39.7804 29.8429 39.8639 29.7817 39.9163C29.7197 39.9692 29.8477 39.8747 29.6813 40.0081C29.672 40.0089 29.6546 40.0157 29.6415 40.0194C29.6354 40.0242 29.6293 40.029 29.6231 40.0338C29.5637 40.0792 29.504 40.1233 29.4458 40.1724C29.1494 40.4121 28.8414 40.6332 28.5225 40.8484C28.4743 40.8808 28.5219 40.8455 28.4703 40.8799C28.2521 41.0252 28.0604 41.1506 27.8284 41.2923C27.6486 41.4019 27.4488 41.5166 27.2565 41.6236C27.1875 41.6665 27.0551 41.7406 26.9143 41.8141C26.8211 41.8623 26.7254 41.9116 26.6421 41.9548C26.5684 41.9931 26.5751 41.9915 26.5218 42.0195C26.3245 42.1227 26.4156 42.0701 26.3602 42.0974C26.1247 42.2114 26.1108 42.2342 25.829 42.3596C25.8141 42.3666 25.6282 42.439 25.6022 42.4491C25.4402 42.5136 25.5765 42.4622 25.4755 42.5044C25.357 42.5538 25.261 42.5938 25.15 42.639C25.0885 42.6644 25.0221 42.6916 24.9445 42.7231C24.8809 42.7487 24.7278 42.8079 24.6058 42.8608C24.5899 42.8677 24.5995 42.866 24.5865 42.8714C24.5842 42.8723 24.5819 42.8733 24.5796 42.8743C24.3508 42.9653 24.3392 42.9627 24.2033 42.9956C24.194 42.9973 24.1835 42.9989 24.1761 42.9989C24.0696 43.0063 23.9574 43.0506 23.8805 43.0844C23.8449 43.1003 23.8172 43.1112 23.8043 43.1165C23.7095 43.1542 23.8407 43.1063 23.882 43.0876C23.8893 43.0844 23.8952 43.082 23.8952 43.082C23.9271 43.0709 23.9155 43.0761 23.8831 43.0904C23.8431 43.1083 23.7646 43.1372 23.6982 43.16C23.6833 43.1725 23.5166 43.2263 23.5752 43.2013C23.5815 43.1987 23.6746 43.1686 23.6982 43.16C23.5924 43.1899 23.409 43.2475 23.2065 43.3123C23.1116 43.3421 23.2034 43.3213 22.9115 43.3996C22.7788 43.4339 22.829 43.4166 22.7113 43.4445C22.643 43.4602 22.5688 43.4776 22.4923 43.49C22.2768 43.5211 22.0447 43.5734 21.8451 43.6197C21.8341 43.622 21.8214 43.6247 21.81 43.6269C21.7084 43.6468 21.807 43.625 21.7374 43.6382C21.5533 43.6721 21.3904 43.7005 21.2041 43.7292C21.1873 43.7317 21.228 43.7228 21.1703 43.7318C20.9141 43.7717 20.6767 43.8066 20.4322 43.8396C20.257 43.864 20.0799 43.8884 19.8885 43.9099C19.6665 43.9374 19.2675 43.9612 19.036 43.9653C18.6578 43.9752 18.1999 43.9764 17.8597 43.9751C17.8371 43.9751 17.8155 43.975 17.7946 43.975C17.5705 43.9742 17.6201 43.9717 17.5238 43.9697C17.3396 43.9662 17.0105 43.9693 16.9669 43.9693C16.9669 43.9693 17.1576 43.9722 17.0554 43.9723C16.995 43.9743 16.9696 43.9693 16.9669 43.9693C16.9381 43.9702 16.5535 43.9621 16.4768 43.9569C16.4355 43.9547 16.459 43.9534 16.4373 43.9523C16.07 43.935 15.7059 43.8888 15.338 43.8369C15.1905 43.8166 15.0437 43.7962 14.8962 43.7746C14.887 43.7733 14.9003 43.778 14.8789 43.7749C14.5799 43.7314 14.3895 43.696 14.1447 43.6493C13.9 43.6021 13.7063 43.5634 13.5605 43.5384C13.4456 43.5145 13.2988 43.4846 13.1676 43.4578C13.0896 43.4409 13.0175 43.4239 12.9609 43.4101C12.8104 43.3729 12.7908 43.3611 12.7778 43.3576C12.4798 43.2728 12.275 43.2081 12.0246 43.1233C11.9301 43.092 11.829 43.059 11.7122 43.0257C11.6796 43.0174 11.6476 43.0055 11.5987 43.0005C11.3975 42.9484 11.0831 42.8167 10.9063 42.7481C10.739 42.6813 10.6379 42.6417 10.4844 42.5781C10.4638 42.5695 10.4855 42.576 10.4793 42.5733C10.3089 42.5002 10.3892 42.5393 10.3533 42.5256C10.2238 42.4757 10.1438 42.4452 9.92659 42.3491C9.87653 42.3268 9.73292 42.255 9.64604 42.2109C9.61954 42.1975 9.60228 42.188 9.59189 42.1819C9.54354 42.1542 9.54923 42.1596 9.45509 42.1094C9.44489 42.1041 9.44784 42.1034 9.37303 42.065C9.29557 42.0255 9.2162 41.9857 9.13558 41.9461C8.96459 41.8608 8.78717 41.7703 8.6234 41.6678C8.56041 41.6215 8.50163 41.58 8.41267 41.5665C8.38248 41.5611 8.33261 41.5331 8.29452 41.5097C8.24902 41.4805 8.30825 41.5163 8.24369 41.4725C8.22961 41.4626 8.21568 41.4523 8.20207 41.4415C8.13662 41.3942 8.09447 41.3474 7.9936 41.308C7.90514 41.253 7.77305 41.1702 7.66507 41.0981C7.53477 41.0085 7.40686 40.9203 7.28203 40.8389C7.2063 40.7901 7.25248 40.8225 7.23578 40.8124C7.1642 40.7692 7.07295 40.7127 7.01609 40.6765C6.99181 40.6608 6.97419 40.6483 6.96716 40.6435C6.8825 40.5855 6.80132 40.5251 6.73417 40.4592L6.73339 40.4585C6.68079 40.4147 6.65225 40.3696 6.56465 40.3392C6.49218 40.2882 6.38367 40.2003 6.29823 40.1262C6.14152 39.9977 5.986 39.8709 5.81081 39.7472C5.7099 39.6738 5.60803 39.5895 5.50294 39.4986C5.47515 39.4757 5.26438 39.281 5.16859 39.1976C5.16152 39.1915 5.06587 39.1094 4.98749 39.0301C4.98267 39.0252 5.0414 39.0777 4.9416 38.9829C4.8424 38.8886 4.68501 38.7329 4.54942 38.6015C4.50652 38.5599 4.40282 38.4632 4.28098 38.3332C4.27251 38.3245 4.08716 38.1213 4.01503 38.0542C4.00338 38.0434 4.00989 38.0602 3.86582 37.9034C3.83837 37.8733 3.89004 37.9261 3.81719 37.8474C3.70556 37.7269 3.55636 37.5685 3.42305 37.417C3.39958 37.3904 3.30214 37.2759 3.22063 37.1886C3.20773 37.1748 3.22987 37.2032 3.18744 37.1555C2.98736 36.9299 2.78309 36.6881 2.59451 36.4474C2.59311 36.4456 2.59173 36.4439 2.59041 36.4422C2.52909 36.3638 2.55753 36.4061 2.48882 36.319C2.41857 36.2299 2.27722 36.0506 2.20512 35.9562C2.13315 35.8619 2.21747 35.9603 2.10804 35.8202C2.07944 35.7836 2.05047 35.7465 2.02189 35.71C1.95299 35.6265 1.87125 35.4909 1.84328 35.4459C1.82985 35.4296 1.894 35.4787 1.92077 35.5099C1.95503 35.5456 1.98696 35.5815 2.01975 35.6187C2.08542 35.6934 2.14849 35.7673 2.21314 35.8433C2.34151 35.9943 2.46732 36.1435 2.59611 36.2962C2.73066 36.4548 2.87151 36.6109 3.01359 36.765C3.09142 36.849 3.02518 36.7808 3.1403 36.9042C3.56681 37.3578 4.31117 38.1284 4.74666 38.4587C4.77843 38.4787 4.7917 38.4939 4.83282 38.4999C5.0199 38.6401 4.70221 38.3884 4.92919 38.5691C4.93995 38.579 4.95056 38.5893 4.96089 38.5998C5.01226 38.6604 5.0655 38.7161 5.11302 38.7574L5.13154 38.773C5.16217 38.8002 5.18478 38.8189 5.19525 38.8275C5.32245 38.9303 5.43347 39.0179 5.53963 39.1025C5.67866 39.2107 5.81635 39.3047 5.9729 39.4138C6.03024 39.4534 5.97218 39.4167 6.02159 39.4507C6.18802 39.5653 6.36624 39.6832 6.52748 39.7899C6.59995 39.8378 6.58556 39.8307 6.65246 39.8744C6.8127 39.9788 6.95551 40.07 7.11376 40.1678C7.12803 40.1767 7.03251 40.1134 7.15253 40.189C7.28468 40.2714 7.43814 40.3681 7.59981 40.4559C7.67522 40.4962 7.75139 40.5366 7.82568 40.5762C7.89453 40.6127 7.89527 40.6185 8.04573 40.6926C8.07734 40.7081 8.03978 40.6829 8.21175 40.7761C8.24064 40.792 8.53064 40.946 8.6772 41.0136C8.7159 41.0316 8.81468 41.0754 8.89891 41.1172C8.91039 41.1229 8.86319 41.1027 8.93352 41.1371C9.09513 41.2131 9.24126 41.2956 9.43258 41.3606C9.51685 41.3759 9.61704 41.4252 9.70494 41.4684C9.76118 41.4974 9.69743 41.4667 9.73772 41.4884C9.74495 41.4923 9.75549 41.4979 9.77061 41.5055C9.86096 41.5481 9.94537 41.596 10.0688 41.6197C10.1615 41.6375 10.2763 41.6943 10.3739 41.7439C10.4826 41.7994 10.5895 41.8458 10.6993 41.87C10.7129 41.8726 10.7245 41.874 10.7353 41.8739C10.7922 41.8767 10.7386 41.8714 10.7451 41.8717C10.8681 41.8806 10.9411 41.9154 10.98 41.9281C10.993 41.9329 11.0057 41.9377 11.0182 41.9428V41.9428C11.251 42.0311 11.4401 42.0857 11.6654 42.15C11.7313 42.1685 11.6839 42.1578 11.697 42.1617C11.8326 42.201 11.732 42.1691 11.8184 42.1919C12.0603 42.255 12.3314 42.3192 12.5785 42.3719C12.6692 42.3912 12.5666 42.3724 12.6481 42.3896C12.8657 42.435 13.0882 42.4769 13.3107 42.5134C13.5837 42.5549 13.8577 42.569 14.1216 42.5796C14.212 42.5827 14.1553 42.5784 14.1741 42.5787C14.3043 42.5803 14.4948 42.5882 14.5386 42.589C14.7384 42.5928 14.8152 42.5904 14.992 42.5871C15.1917 42.5809 15.4025 42.5788 15.6188 42.5373C15.883 42.4752 16.1427 42.3798 16.3988 42.2809C16.5265 42.2309 16.6528 42.1786 16.7755 42.1233C16.898 42.057 17.0178 42.0461 17.1291 41.9024C17.1286 41.8875 17.1432 41.8728 17.1578 41.8733C17.2492 41.8564 17.2917 41.8049 17.3432 41.7579C17.3911 41.7095 17.4397 41.6633 17.4879 41.6193C17.6182 41.503 17.7637 41.3724 17.8849 41.3105C18.0451 41.4044 18.2238 41.5528 18.3787 41.6817C18.7386 41.9575 19.0937 42.2349 19.5713 42.33C19.6424 42.3431 19.7307 42.3845 19.8076 42.4243C19.8411 42.4413 19.8752 42.4571 19.9104 42.4712C19.9715 42.4947 19.9086 42.4743 19.9618 42.4935C20.3729 42.6166 20.79 42.5824 21.202 42.5937C21.4982 42.5934 21.7943 42.5779 22.0916 42.5512C22.1501 42.5459 22.066 42.5566 22.16 42.5478C22.3526 42.5297 22.5958 42.4987 22.7889 42.4662C22.8832 42.4503 22.7564 42.4689 22.851 42.4528C23.0609 42.4163 23.2845 42.3705 23.4965 42.3106C23.5069 42.308 23.5171 42.3053 23.5277 42.3026C23.6223 42.2776 23.4804 42.3184 23.6032 42.2855C23.8217 42.2259 24.038 42.164 24.2544 42.1043C24.8272 41.9461 25.402 41.7837 25.9488 41.5235C25.9847 41.5076 26.0216 41.4918 26.0582 41.4763C26.1133 41.453 26.1595 41.4277 26.278 41.3812C26.2874 41.3791 26.2876 41.381 26.2921 41.381C26.4714 41.3093 26.6511 41.2396 26.8311 41.1716C26.9254 41.1348 27.0157 41.1032 27.1068 41.0391C27.3207 40.9072 27.5626 40.7863 27.7932 40.6644C28.1043 40.5003 28.4144 40.3361 28.7141 40.1465C28.8397 40.0669 28.9642 39.9845 29.0878 39.901L29.086 39.9021C29.2096 39.8268 29.3256 39.7477 29.4457 39.6713C29.4954 39.6394 29.5447 39.6071 29.594 39.5746C29.6385 39.5452 29.5632 39.5985 29.6493 39.5416C29.6994 39.5087 29.7505 39.4737 29.7993 39.4447L29.8012 39.4435C30.0591 39.2518 30.3045 39.0575 30.5551 38.8598C30.7245 38.7258 30.8917 38.5827 31.0577 38.4353C31.103 38.3947 31.0766 38.4119 31.2106 38.2929C31.2343 38.2722 31.4339 38.0911 31.4856 38.0441C31.4926 38.0378 31.4583 38.0731 31.5219 38.014C31.8916 37.6698 32.2691 37.2984 32.6156 36.9319C32.6719 36.8722 32.6101 36.9336 32.6499 36.8913C32.8128 36.7174 32.9828 36.5325 33.1389 36.3432C33.2515 36.2061 33.3636 36.0722 33.4707 35.9468C33.6171 35.777 33.59 35.8042 33.6357 35.7503C33.6438 35.7407 33.6537 35.7289 33.667 35.7134C33.6805 35.6989 33.7867 35.5749 33.789 35.5659C33.7976 35.545 33.7426 35.6016 33.7577 35.5722C33.7647 35.5676 33.8862 35.3932 33.8128 35.4951C33.8092 35.5032 33.7096 35.6242 33.6821 35.6517C33.6636 35.6713 33.6939 35.6333 33.6566 35.6736C33.6417 35.6896 33.6265 35.7065 33.6095 35.725C33.5823 35.753 33.5535 35.7857 33.5161 35.8266C33.4544 35.8949 33.4784 35.862 33.3587 36.0012C33.2773 36.0963 33.1894 36.2011 33.0998 36.3104C32.8853 36.57 32.6347 36.8359 32.4277 37.0508C32.3356 37.1459 32.3836 37.099 32.3196 37.1646C32.1947 37.2925 32.076 37.4095 31.95 37.5336C31.9083 37.5747 31.9622 37.5257 31.9184 37.5687C31.6778 37.8042 31.4454 38.0222 31.1926 38.2508C30.9745 38.4476 30.7533 38.6407 30.5253 38.8213C30.2763 39.0177 30.0266 39.2159 29.7748 39.4036L29.7761 39.4028C29.6544 39.4781 29.5406 39.558 29.422 39.6335C29.3025 39.7097 29.1838 39.7904 29.0646 39.8631L29.0633 39.8639C28.9402 39.9471 28.816 40.0294 28.6903 40.1091C28.3959 40.2955 28.0843 40.4607 27.7731 40.6249C27.5408 40.7482 27.3084 40.8622 27.0783 41.0056C27.066 41.016 27.0492 41.0257 27.0329 41.0348C26.9659 41.0709 26.8919 41.1021 26.8161 41.1304C26.5322 41.2386 26.2271 41.3573 25.9321 41.4846C25.7349 41.5708 25.5424 41.6553 25.3558 41.7242C25.2928 41.7473 25.3295 41.7314 25.3175 41.7356C25.1277 41.7996 25.1917 41.7815 25.0675 41.8224C24.8042 41.9063 24.5228 41.9842 24.2432 42.0628C23.9972 42.1308 23.7545 42.2007 23.5277 42.2609C23.5115 42.2652 23.4973 42.2688 23.486 42.2715C23.352 42.3073 23.5109 42.2619 23.3205 42.313C23.306 42.3167 23.3592 42.3062 23.3024 42.3203C23.174 42.3531 22.9273 42.4 22.8261 42.4163C22.6307 42.4483 22.5986 42.4525 22.4128 42.4762C22.1592 42.5076 21.8559 42.5349 21.5817 42.5458C21.5232 42.548 21.6005 42.5426 21.5073 42.5457C21.4435 42.5478 21.3081 42.5511 21.2022 42.5511C21.1518 42.5509 21.1101 42.5507 21.083 42.5506C21.0005 42.5505 21.0349 42.5527 21.0203 42.553C20.8992 42.5562 20.6132 42.5438 20.5763 42.5411C20.3064 42.5275 20.0461 42.5086 19.825 42.3903C19.7437 42.3496 19.6671 42.309 19.5713 42.2921C19.3051 42.2586 19.0624 42.1027 18.8225 41.9563C18.6794 41.8647 18.5374 41.7631 18.403 41.6522C18.2352 41.5156 18.0827 41.3735 17.8849 41.2708C17.7767 41.311 17.7121 41.38 17.6342 41.4394C17.5194 41.5343 17.4135 41.6303 17.3151 41.7296C17.2691 41.7747 17.2128 41.8241 17.1578 41.8332C17.1211 41.8328 17.0889 41.8656 17.0895 41.9024C16.9011 42.0488 16.6284 42.1432 16.3717 42.2485C16.3198 42.2686 16.3795 42.2424 16.3161 42.2668C16.0837 42.3544 15.8487 42.4391 15.6095 42.4952C15.1484 42.5677 14.6722 42.5511 14.2028 42.5415C14.1307 42.5392 14.2235 42.545 14.1515 42.5427C13.9116 42.5342 13.5927 42.5204 13.3165 42.4775C13.0859 42.4394 12.8811 42.3979 12.7655 42.3695C12.4725 42.3115 12.1192 42.23 11.8603 42.1636C11.6936 42.1204 11.8541 42.1672 11.6505 42.1096C11.6049 42.0964 11.6651 42.1111 11.5962 42.0911C11.4122 42.0376 11.2178 41.9771 11.0321 41.9069C10.9353 41.8695 10.8375 41.84 10.7353 41.834C10.7261 41.8339 10.7156 41.8323 10.7055 41.8303C10.6481 41.8169 10.6644 41.8173 10.6483 41.8125C10.5738 41.7877 10.4736 41.7461 10.3937 41.7053C10.3276 41.6716 10.2706 41.6474 10.2488 41.6381C10.1885 41.6135 10.1342 41.5871 10.0688 41.5792C9.95854 41.5562 9.85275 41.5025 9.75559 41.4536C9.65246 41.4025 9.55524 41.348 9.43258 41.3246C9.38211 41.3102 9.31975 41.2797 9.26152 41.2537C9.18263 41.2174 9.27635 41.2575 9.20161 41.2227C8.81111 41.0386 8.41234 40.8378 8.03593 40.6455C7.95237 40.6026 8.02794 40.6444 7.98802 40.6241C7.81478 40.5355 7.77599 40.51 7.61555 40.4256C7.61294 40.4243 7.61028 40.4229 7.60753 40.4214C7.57259 40.4028 7.59098 40.4151 7.58443 40.4118C7.48364 40.36 7.40134 40.3029 7.37591 40.2875C7.06017 40.0917 6.85743 39.9659 6.55723 39.7678C6.5214 39.744 6.60374 39.7952 6.50296 39.7284C6.19104 39.5199 5.86705 39.3072 5.56172 39.0742C5.42529 38.965 5.28651 38.8573 5.15268 38.7481V38.7481C5.09109 38.6999 5.03334 38.6409 4.98191 38.581V38.581C4.93621 38.5384 4.89944 38.4936 4.83282 38.4653C4.73365 38.4227 4.63996 38.3284 4.55013 38.2528C4.45732 38.1704 4.522 38.2309 4.51581 38.2258C4.41834 38.1434 4.36283 38.0836 4.33263 38.0551C4.10083 37.8352 3.88668 37.6276 3.73798 37.4688C3.35409 37.0805 2.97659 36.6862 2.62402 36.2722C2.49534 36.1192 2.36968 35.9695 2.24128 35.8181C2.17666 35.742 2.11358 35.6679 2.04771 35.593C2.01476 35.5556 1.98276 35.5196 1.94767 35.4831C1.91158 35.4569 1.88437 35.3815 1.81662 35.4189C1.83042 35.5582 1.9258 35.635 1.99297 35.7331C2.17222 35.9607 2.35213 36.1881 2.53015 36.4162C2.54068 36.4297 2.52395 36.4039 2.54487 36.4308C2.55273 36.4409 2.56044 36.4508 2.56767 36.4601C2.79573 36.7479 2.75424 36.6991 2.91942 36.9036C2.9624 36.9566 3.10365 37.1106 3.11601 37.1237C3.16121 37.1728 3.11839 37.1182 3.13335 37.1348C3.25856 37.2732 3.22863 37.259 3.39651 37.4451C3.4018 37.4509 3.38131 37.4248 3.39567 37.4403C3.44014 37.4883 3.48293 37.5366 3.52702 37.5835C3.62727 37.6896 3.66716 37.7242 3.81772 37.8894C3.83687 37.9102 3.80178 37.8842 3.95631 38.0461C4.01762 38.111 4.29257 38.3946 4.37123 38.4725C4.4493 38.5507 4.39764 38.4953 4.40317 38.5007C4.61564 38.7097 4.53662 38.6284 4.6459 38.7304C4.75503 38.8314 4.71879 38.8106 4.76121 38.8537C4.80355 38.897 4.96363 39.0473 5.00258 39.0825C5.0422 39.1188 4.99423 39.0714 5.02965 39.1042C5.26272 39.3179 5.12801 39.2033 5.20261 39.2748C5.3823 39.4443 5.52836 39.5636 5.70708 39.7034C5.7536 39.7391 5.71458 39.7115 5.75808 39.7447C5.77081 39.7543 5.78286 39.7632 5.7943 39.7715C5.94704 39.8799 6.04753 39.9585 6.22133 40.1024C6.23073 40.1102 6.25122 40.1277 6.27774 40.1505C6.33708 40.2038 6.42982 40.2835 6.5029 40.3344C6.51836 40.3443 6.47586 40.3145 6.55319 40.3649C6.55637 40.3664 6.55896 40.3685 6.56465 40.3691C6.61016 40.3841 6.66216 40.4335 6.7138 40.4799C6.79661 40.5606 6.8992 40.6325 6.97292 40.6816C6.98636 40.6905 6.9953 40.6969 7.00148 40.7009C7.0376 40.724 6.97468 40.6878 7.07416 40.747C7.12606 40.778 7.03121 40.7181 7.1286 40.7767C7.22628 40.8333 7.46489 40.9963 7.55534 41.0589C7.64572 41.1213 7.5951 41.0894 7.60219 41.0945C7.61227 41.1017 7.62706 41.1122 7.64678 41.1261C7.7152 41.1728 7.82547 41.2444 7.83791 41.2521C7.88938 41.2835 7.93309 41.3157 7.9936 41.3431C8.05597 41.3716 8.12121 41.4236 8.18081 41.4691C8.25224 41.522 8.32196 41.5756 8.41267 41.5981C8.48128 41.6083 8.54819 41.65 8.60535 41.6933C8.77367 41.7985 8.94814 41.8874 9.12266 41.9744C9.27519 42.0501 9.42832 42.1247 9.57633 42.2081C9.78888 42.3198 10.0147 42.4096 10.2399 42.5059C10.3064 42.5338 10.2611 42.5178 10.2712 42.522C10.4976 42.6171 10.3211 42.5366 10.4807 42.5998C10.4558 42.5953 10.5498 42.6331 10.7099 42.6981C10.7873 42.7295 10.7443 42.7144 10.7513 42.7175C10.8648 42.7663 10.9467 42.7941 10.9671 42.8012C11.045 42.8286 11.126 42.8638 11.1792 42.8819C11.2313 42.8995 11.1131 42.8516 11.2678 42.9101C11.3114 42.9284 11.1933 42.8896 11.3118 42.9347C11.3948 42.9643 11.4877 43.0057 11.5987 43.0288C11.7286 43.0528 11.8725 43.1045 12.0153 43.1509C12.3798 43.2769 12.7613 43.3842 12.9783 43.4372C13.0477 43.4545 13.1086 43.4687 13.1628 43.4807C13.399 43.5303 13.5107 43.5536 13.6879 43.5888C14.081 43.6654 13.9361 43.6406 14.1804 43.6878C14.4257 43.7335 14.308 43.703 14.3435 43.7073C14.3785 43.7114 14.4161 43.7199 14.4594 43.7261C14.5026 43.7322 14.4097 43.7154 14.5109 43.7319C14.6122 43.7487 14.8891 43.7944 14.9249 43.8014C15.0002 43.8167 14.8745 43.8034 15.1436 43.8402C15.1591 43.8422 15.1092 43.8328 15.1686 43.8409C15.2235 43.8484 15.2784 43.8559 15.3344 43.8634C15.7539 43.9225 16.1853 43.9712 16.6045 43.9805C16.6698 43.9824 16.6113 43.9779 16.6497 43.9789C17.0443 43.9869 16.9035 43.9874 17.1199 43.9953C17.0715 43.9881 17.1908 43.9858 17.4918 43.9867C17.6721 43.9872 17.6404 43.9899 17.7574 43.9921C17.7753 43.9924 17.8181 43.9921 17.8596 43.9918C17.8983 43.9917 17.9336 43.9917 17.9446 43.9924C18.0197 43.997 17.9014 44.0019 18.2099 44.0003ZM2.16528 35.9451C2.0822 35.8313 2.41888 36.2603 2.34115 36.1692C2.3367 36.1638 2.17078 35.9524 2.16528 35.9451ZM33.3185 36.1069C33.3607 36.0611 33.2105 36.2404 33.2403 36.2003C33.2415 36.1986 33.3166 36.1089 33.3185 36.1069ZM31.8465 38.0227C31.8014 38.0745 31.6634 38.2175 31.7206 38.1538C31.7671 38.1025 31.9032 37.9581 31.8465 38.0227ZM30.4463 39.3708C30.2822 39.5185 30.2475 39.5311 30.4273 39.378C30.4377 39.369 30.4558 39.3621 30.4463 39.3708ZM5.7145 39.7035C5.7145 39.7035 5.64588 39.6496 5.64847 39.6505C5.6537 39.652 5.74567 39.7251 5.7145 39.7035ZM28.913 40.5861C28.7617 40.6992 28.6517 40.7668 28.7593 40.6885C28.8666 40.6099 28.959 40.5515 28.913 40.5861ZM12.2055 43.2066C12.2026 43.2059 12.0932 43.1696 12.0904 43.1684C12.0319 43.1458 12.2528 43.2193 12.2055 43.2066ZM12.2876 43.2217C12.15 43.1797 12.1327 43.1643 12.2799 43.2145C12.2871 43.2169 12.2947 43.2238 12.2876 43.2217ZM19.9035 43.9336C20.0292 43.9225 20.1794 43.9033 20.2786 43.8862C20.1539 43.9032 20.029 43.9193 19.9035 43.9336Z" fill="#EEE8DE"/>
</svg>
