<?xml version="1.0" encoding="utf-8" standalone="yes"?>
<!DOCTYPE svg PUBLIC "-//W3C//DTD SVG 1.1//EN" "http://www.w3.org/Graphics/SVG/1.1/DTD/svg11.dtd">
<svg width="864" height="685" viewBox="0 0 864 685" style="fill:none;stroke:none;fill-rule:evenodd;clip-rule:evenodd;stroke-linecap:round;stroke-linejoin:round;stroke-miterlimit:1.5;" version="1.1" xmlns="http://www.w3.org/2000/svg" xmlns:xlink="http://www.w3.org/1999/xlink"><style class="text-font-style fontImports" data-font-family="Roboto">@import url('https://fonts.googleapis.com/css2?family=Roboto:wght@400;700&amp;display=block');</style><g id="items" style="isolation: isolate"><g id="blend" style="mix-blend-mode: normal"><g id="g-root-cp_common_g-common_4hxui3t75pu0-fill" data-item-order="-480614" transform="translate(350, 302)"><g id="cp_common_g-common_4hxui3t75pu0-fill" stroke="none" fill="#6b6b6b"><g><path d="M 97.2799 152.3754C 129.7048 145.3684 154 116.5214 154 82C 154 42.2355 121.7645 10 82 10C 42.2355 10 10 42.2355 10 82C 10 107.0781 22.8213 129.1616 42.2665 142.0531C 48.607 138.2115 56.0452 136 64 136C 77.5493 136 89.6 142.4159 97.2799 152.3754Z"></path></g></g></g><g id="g-root-cp_7_g-7_4hxui3t75pu2-fill" data-item-order="-480610" transform="translate(560, 374)"><g id="cp_7_g-7_4hxui3t75pu2-fill" stroke="none" fill="#6b6b6b"><g><path d="M 82 46C 82 65.8823 65.8823 82 46 82C 26.1177 82 10 65.8823 10 46C 10 26.1177 26.1177 10 46 10C 65.8823 10 82 26.1177 82 46Z"></path></g></g></g><g id="g-root-cp_6_g-6_4hxui3t75pu4-fill" data-item-order="-480606" transform="translate(362, 428)"><g id="cp_6_g-6_4hxui3t75pu4-fill" stroke="none" fill="#6b6b6b"><g><path d="M 94 52C 94 75.196 75.196 94 52 94C 28.804 94 10 75.196 10 52C 10 28.804 28.804 10 52 10C 75.196 10 94 28.804 94 52Z"></path></g></g></g><g id="g-root-cp_5_g-5_2qtgrt75ngm-fill" data-item-order="-480602" transform="translate(158, 398)"><g id="cp_5_g-5_2qtgrt75ngm-fill" stroke="none" fill="#6b6b6b"><g><path d="M 82 46C 82 65.8823 65.8823 82 46 82C 26.1177 82 10 65.8823 10 46C 10 26.1177 26.1177 10 46 10C 65.8823 10 82 26.1177 82 46Z"></path></g></g></g><g id="g-root-cp_4_g-4_2qtgrt75ngo-fill" data-item-order="-480598" transform="translate(722, 284)"><g id="cp_4_g-4_2qtgrt75ngo-fill" stroke="none" fill="#6b6b6b"><g><path d="M 70 40C 70 56.5685 56.5685 70 40 70C 23.4315 70 10 56.5685 10 40C 10 23.4315 23.4315 10 40 10C 56.5685 10 70 23.4315 70 40Z"></path></g></g></g><g id="g-root-cp_3_g-3_1uo1dbft75o1u-fill" data-item-order="-480594" transform="translate(494, 236)"><g id="cp_3_g-3_1uo1dbft75o1u-fill" stroke="none" fill="#6b6b6b"><g><path d="M 58 34C 58 47.2548 47.2548 58 34 58C 20.7452 58 10 47.2548 10 34C 10 20.7452 20.7452 10 34 10C 47.2548 10 58 20.7452 58 34Z"></path></g></g></g><g id="g-root-cp_2_g-2_1uo1dbft75o1w-fill" data-item-order="-480590" transform="translate(278, 284)"><g id="cp_2_g-2_1uo1dbft75o1w-fill" stroke="none" fill="#6b6b6b"><g><path d="M 70 40C 70 56.5685 56.5685 70 40 70C 23.4315 70 10 56.5685 10 40C 10 23.4315 23.4315 10 40 10C 56.5685 10 70 23.4315 70 40Z"></path></g></g></g><g id="g-root-cp_1_g-1_1uo1dbft75o1y-fill" data-item-order="-480586" transform="translate(110, 272)"><g id="cp_1_g-1_1uo1dbft75o1y-fill" stroke="none" fill="#E5A000"><g><path d="M 58 34C 58 47.2548 47.2548 58 34 58C 20.7452 58 10 47.2548 10 34C 10 20.7452 20.7452 10 34 10C 47.2548 10 58 20.7452 58 34Z"></path></g></g></g><g id="g-root-cp_-1_common_1q87v6zt75ou8-fill" data-item-order="-480581" transform="translate(38, 254)"></g><g id="g-root-tx_depictst_4jtcx7t6ynm6-fill" data-item-order="0" transform="translate(626, 194)"><g id="tx_depictst_4jtcx7t6ynm6-fill" stroke="none" fill="#f4f4f4"><g><text style="font: 15px Roboto, sans-serif; white-space: pre;" font-size="15px" font-family="Roboto, sans-serif"><tspan x="17.16" y="27.27" dominant-baseline="ideographic">Depicts the movement </tspan><tspan x="61.05" y="45.27" dominant-baseline="ideographic">of energy</tspan></text></g></g></g><g id="g-root-tx_represen_18gxxuzt6yp6w-fill" data-item-order="0" transform="translate(56, 194)"><g id="tx_represen_18gxxuzt6yp6w-fill" stroke="none" fill="#F8E6B8"><g><text style="font: 15px Roboto, sans-serif; white-space: pre;" font-size="15px" font-family="Roboto, sans-serif"><tspan x="16.29" y="27.27" dominant-baseline="ideographic">Represents unity and </tspan><tspan x="50.42" y="45.27" dominant-baseline="ideographic">wholeness</tspan></text></g></g></g><g id="g-root-ic_shap_4gozhnt6vtak-fill" data-item-order="0" transform="translate(503, 245)"></g><g id="g-root-tx_energyfl_dfgd63t6ymth-fill" data-item-order="0" transform="translate(650, 158)"><g id="tx_energyfl_dfgd63t6ymth-fill" stroke="none" fill="#f4f4f4"><g><text style="font: bold 20px Roboto, sans-serif; white-space: pre;" font-weight="bold" font-size="20px" font-family="Roboto, sans-serif"><tspan x="15.44" y="33.64" dominant-baseline="ideographic">Energy Flow</tspan></text></g></g></g><g id="g-root-ic_join_3zusrt6vv9n-fill" data-item-order="0" transform="translate(119, 281)"></g><g id="g-root-tx_represen_hune7ft6yp70-fill" data-item-order="0" transform="translate(428, 158)"><g id="tx_represen_hune7ft6yp70-fill" stroke="none" fill="#f4f4f4"><g><text style="font: 15px Roboto, sans-serif; white-space: pre;" font-size="15px" font-family="Roboto, sans-serif"><tspan x="17.45" y="27.27" dominant-baseline="ideographic">Represents diversity and </tspan><tspan x="62.71" y="45.27" dominant-baseline="ideographic">complexity</tspan></text></g></g></g><g id="g-root-ic_2_18gxxuzt6vw23-fill" data-item-order="0" transform="translate(290, 296)"></g><g id="g-root-tx_symboliz_v63wkrt6ynm2-fill" data-item-order="0" transform="translate(242, 158)"><g id="tx_symboliz_v63wkrt6ynm2-fill" stroke="none" fill="#f4f4f4"><g><text style="font: 15px Roboto, sans-serif; white-space: pre;" font-size="15px" font-family="Roboto, sans-serif"><tspan x="12.5" y="27.27" dominant-baseline="ideographic">Symbolizes stability and </tspan><tspan x="66.75" y="45.27" dominant-baseline="ideographic">balance</tspan></text></g></g></g><g id="g-root-tx_circular_18gxxuzt6yp6v-fill" data-item-order="0" transform="translate(56, 158)"><g id="tx_circular_18gxxuzt6yp6v-fill" stroke="none" fill="#F8E6B8"><g><text style="font: bold 20px Roboto, sans-serif; white-space: pre;" font-weight="bold" font-size="20px" font-family="Roboto, sans-serif"><tspan x="17.01" y="33.64" dominant-baseline="ideographic">Circular Shapes</tspan></text></g></g></g><g id="g-root-ic_2_mfgp0rt6t34f-fill" data-item-order="0" transform="translate(734, 296)"></g><g id="g-root-ic_jet_v7zbu3t6x8g0-fill" data-item-order="0" transform="translate(386, 338)"></g><g id="g-root-tx_highligh_1d0iai3t6ymfh-fill" data-item-order="0" transform="translate(530, 591)"><g id="tx_highligh_1d0iai3t6ymfh-fill" stroke="none" fill="#f4f4f4"><g><text style="font: 15px Roboto, sans-serif; white-space: pre;" font-size="15px" font-family="Roboto, sans-serif"><tspan x="14.78" y="27.27" dominant-baseline="ideographic">Highlights the potential </tspan><tspan x="57.68" y="45.27" dominant-baseline="ideographic">for growth</tspan></text></g></g></g><g id="g-root-tx_othergeo_qqaegbt6yoeb-fill" data-item-order="0" transform="translate(434, 98)"><g id="tx_othergeo_qqaegbt6yoeb-fill" stroke="none" fill="#f4f4f4"><g><text style="font: bold 20px Roboto, sans-serif; white-space: pre;" font-weight="bold" font-size="20px" font-family="Roboto, sans-serif"><tspan x="17.26" y="33.63" dominant-baseline="ideographic">Other Geometric </tspan><tspan x="58.24" y="57.64" dominant-baseline="ideographic">Shapes</tspan></text></g></g></g><g id="g-root-ic_spea_1cxdtwrt75n9f-fill" data-item-order="0" transform="translate(575, 389)"></g><g id="g-root-ic_7_1d2dprft6rmkm-fill" data-item-order="0" transform="translate(173, 413)"></g><g id="g-root-tx_prosperi_1hckuy3t75pmy-fill" data-item-order="0" transform="translate(224, 38)"><g id="tx_prosperi_1hckuy3t75pmy-fill" stroke="none" fill="#f4f4f4"><g><text style="font: bold 25px Roboto, sans-serif; white-space: pre;" font-weight="bold" font-size="25px" font-family="Roboto, sans-serif"><tspan x="16.81" y="43" dominant-baseline="ideographic">Prosperity Node System Overview</tspan></text></g></g></g><g id="g-root-ic_scal_91iaazt6oves-fill" data-item-order="0" transform="translate(380, 446)"></g><g id="g-root-tx_connecti_4jtcx7t6ynm7-fill" data-item-order="0" transform="translate(170, 530)"><g id="tx_connecti_4jtcx7t6ynm7-fill" stroke="none" fill="#f4f4f4"><g><text style="font: bold 20px Roboto, sans-serif; white-space: pre;" font-weight="bold" font-size="20px" font-family="Roboto, sans-serif"><tspan x="13.83" y="33.64" dominant-baseline="ideographic">Connectivity</tspan></text></g></g></g><g id="g-root-tx_harmony_5va23t6yneq-fill" data-item-order="0" transform="translate(374, 542)"><g id="tx_harmony_5va23t6yneq-fill" stroke="none" fill="#f4f4f4"><g><text style="font: bold 20px Roboto, sans-serif; white-space: pre;" font-weight="bold" font-size="20px" font-family="Roboto, sans-serif"><tspan x="16.98" y="33.64" dominant-baseline="ideographic">Harmony</tspan></text></g></g></g><g id="g-root-tx_resonanc_1lvitnvt6yosk-fill" data-item-order="0" transform="translate(554, 531)"><g id="tx_resonanc_1lvitnvt6yosk-fill" stroke="none" fill="#f4f4f4"><g><text style="font: bold 20px Roboto, sans-serif; white-space: pre;" font-weight="bold" font-size="20px" font-family="Roboto, sans-serif"><tspan x="17.75" y="33.63" dominant-baseline="ideographic">Resonance </tspan><tspan x="27.07" y="57.64" dominant-baseline="ideographic">Potential</tspan></text></g></g></g><g id="g-root-tx_illustra_3zusrt6yoeg-fill" data-item-order="0" transform="translate(146, 566)"><g id="tx_illustra_3zusrt6yoeg-fill" stroke="none" fill="#f4f4f4"><g><text style="font: 15px Roboto, sans-serif; white-space: pre;" font-size="15px" font-family="Roboto, sans-serif"><tspan x="46.79" y="30.28" dominant-baseline="ideographic">Illustrates the </tspan><tspan x="17.62" y="48.27" dominant-baseline="ideographic">interconnectedness of </tspan><tspan x="71.63" y="66.27" dominant-baseline="ideographic">nodes</tspan></text></g></g></g><g id="g-root-tx_represen_1qbcbsbt6yo0b-fill" data-item-order="0" transform="translate(338, 578)"><g id="tx_represen_1qbcbsbt6yo0b-fill" stroke="none" fill="#f4f4f4"><g><text style="font: 15px Roboto, sans-serif; white-space: pre;" font-size="15px" font-family="Roboto, sans-serif"><tspan x="14.04" y="27.27" dominant-baseline="ideographic">Represents the balance </tspan><tspan x="52.05" y="45.27" dominant-baseline="ideographic">and synergy</tspan></text></g></g></g><g id="g-root-tx_triangul_141qwtnt6ymtd-fill" data-item-order="0" transform="translate(242, 122)"><g id="tx_triangul_141qwtnt6ymtd-fill" stroke="none" fill="#f4f4f4"><g><text style="font: bold 20px Roboto, sans-serif; white-space: pre;" font-weight="bold" font-size="20px" font-family="Roboto, sans-serif"><tspan x="12.14" y="33.64" dominant-baseline="ideographic">Triangular Shapes</tspan></text></g></g></g><g id="g-root-cp_common_g-common_4hxui3t75pu0-stroke" data-item-order="-480614" transform="translate(350, 302)"><g id="cp_common_g-common_4hxui3t75pu0-stroke" fill="none" stroke-linecap="round" stroke-linejoin="round" stroke-miterlimit="4" stroke="#d3d3d3" stroke-width="2"><g><path d="M 97.2799 152.3754C 129.7048 145.3684 154 116.5214 154 82C 154 42.2355 121.7645 10 82 10C 42.2355 10 10 42.2355 10 82C 10 107.0781 22.8213 129.1616 42.2665 142.0531C 48.607 138.2115 56.0452 136 64 136C 77.5493 136 89.6 142.4159 97.2799 152.3754Z"></path></g></g></g><g id="g-root-cp_7_g-7_4hxui3t75pu2-stroke" data-item-order="-480610" transform="translate(560, 374)"><g id="cp_7_g-7_4hxui3t75pu2-stroke" fill="none" stroke-linecap="round" stroke-linejoin="round" stroke-miterlimit="4" stroke="#d3d3d3" stroke-width="2"><g><path d="M 82 46C 82 65.8823 65.8823 82 46 82C 26.1177 82 10 65.8823 10 46C 10 26.1177 26.1177 10 46 10C 65.8823 10 82 26.1177 82 46Z"></path></g></g></g><g id="g-root-cp_6_g-6_4hxui3t75pu4-stroke" data-item-order="-480606" transform="translate(362, 428)"><g id="cp_6_g-6_4hxui3t75pu4-stroke" fill="none" stroke-linecap="round" stroke-linejoin="round" stroke-miterlimit="4" stroke="#d3d3d3" stroke-width="2"><g><path d="M 94 52C 94 75.196 75.196 94 52 94C 28.804 94 10 75.196 10 52C 10 28.804 28.804 10 52 10C 75.196 10 94 28.804 94 52Z"></path></g></g></g><g id="g-root-cp_5_g-5_2qtgrt75ngm-stroke" data-item-order="-480602" transform="translate(158, 398)"><g id="cp_5_g-5_2qtgrt75ngm-stroke" fill="none" stroke-linecap="round" stroke-linejoin="round" stroke-miterlimit="4" stroke="#d3d3d3" stroke-width="2"><g><path d="M 82 46C 82 65.8823 65.8823 82 46 82C 26.1177 82 10 65.8823 10 46C 10 26.1177 26.1177 10 46 10C 65.8823 10 82 26.1177 82 46Z"></path></g></g></g><g id="g-root-cp_4_g-4_2qtgrt75ngo-stroke" data-item-order="-480598" transform="translate(722, 284)"><g id="cp_4_g-4_2qtgrt75ngo-stroke" fill="none" stroke-linecap="round" stroke-linejoin="round" stroke-miterlimit="4" stroke="#d3d3d3" stroke-width="2"><g><path d="M 70 40C 70 56.5685 56.5685 70 40 70C 23.4315 70 10 56.5685 10 40C 10 23.4315 23.4315 10 40 10C 56.5685 10 70 23.4315 70 40Z"></path></g></g></g><g id="g-root-cp_3_g-3_1uo1dbft75o1u-stroke" data-item-order="-480594" transform="translate(494, 236)"><g id="cp_3_g-3_1uo1dbft75o1u-stroke" fill="none" stroke-linecap="round" stroke-linejoin="round" stroke-miterlimit="4" stroke="#d3d3d3" stroke-width="2"><g><path d="M 58 34C 58 47.2548 47.2548 58 34 58C 20.7452 58 10 47.2548 10 34C 10 20.7452 20.7452 10 34 10C 47.2548 10 58 20.7452 58 34Z"></path></g></g></g><g id="g-root-cp_2_g-2_1uo1dbft75o1w-stroke" data-item-order="-480590" transform="translate(278, 284)"><g id="cp_2_g-2_1uo1dbft75o1w-stroke" fill="none" stroke-linecap="round" stroke-linejoin="round" stroke-miterlimit="4" stroke="#d3d3d3" stroke-width="2"><g><path d="M 70 40C 70 56.5685 56.5685 70 40 70C 23.4315 70 10 56.5685 10 40C 10 23.4315 23.4315 10 40 10C 56.5685 10 70 23.4315 70 40Z"></path></g></g></g><g id="g-root-cp_1_g-1_1uo1dbft75o1y-stroke" data-item-order="-480586" transform="translate(110, 272)"><g id="cp_1_g-1_1uo1dbft75o1y-stroke" fill="none" stroke-linecap="round" stroke-linejoin="round" stroke-miterlimit="4" stroke="#F8E6B8" stroke-width="2"><g><path d="M 58 34C 58 47.2548 47.2548 58 34 58C 20.7452 58 10 47.2548 10 34C 10 20.7452 20.7452 10 34 10C 47.2548 10 58 20.7452 58 34Z"></path></g></g></g><g id="g-root-cp_-1_common_1q87v6zt75ou8-stroke" data-item-order="-480581" transform="translate(38, 254)"><g id="cp_-1_common_1q87v6zt75ou8-stroke" fill="none" stroke-linecap="round" stroke-linejoin="round" stroke-miterlimit="4" stroke="#f4f4f4" stroke-width="2" stroke-dasharray="5.0, 7.0"><g><path d="M 341.0952 199.6416C 254.0767 191.4137 190 163.3765 190 130.0547C 190 110.2098 212.727 92.2393 249.492 79.2112M 419.9839 225.7129C 566.8668 221.3327 682 180.1776 682 130.0547C 682 88.6074 603.2731 53.2921 492.9675 39.832L 481.7233 38.5476C 454.0646 35.6013 424.5893 34.0109 394 34.0109C 357.8585 34.0109 323.2719 36.231 291.3995 40.2846M 454.2573 87.317C 496.8575 95.2826 526 111.4305 526 130.0547C 526 149.063 495.6433 165.4918 451.6051 173.2747C 444.1006 174.9046 422.0706 178.1643 393.9872 178.1643C 365.9039 178.1643 343.891 174.9046 336.3949 173.2747C 292.3567 165.4918 262 149.063 262 130.0547C 262 111.4513 291.0774 95.3187 333.5999 87.3438M 332.0954 223.8744C 282.8376 220.2763 238.2988 212.474 202.0315 201.6522M 133.4109 171.0021C 115.8304 158.5812 106 144.7008 106 130.0547C 106 93.0786 168.6575 60.9828 260.496 44.9313M 130.2261 42.8056C 199.0194 22.4696 291.8519 10 394 10C 418.0282 10 441.541 10.69 464.3466 12.01M 81.4592 60.2877C 36.4738 79.9507 10 104.0361 10 130.0547C 10 167.6789 65.3581 201.2607 151.9985 223.273L 163.0592 225.9801C 213.9363 237.9715 274.6572 246.0983 340.7576 248.9648C 348.6947 249.3099 366.8711 250 376.08 250L 410.5479 250C 614.9487 247.2906 778 194.6258 778 130.0547C 778 114.5454 768.5933 99.723 751.4665 86.1147M 311.3179 64.1839C 331.4404 61.03 353.277 58.9921 376.1976 58.2924M 411.8024 58.2924C 516.1321 61.4771 598 92.39 598 130.0547C 598 133.5579 597.2918 137.0026 595.9232 140.3721M 533.9025 182.48C 501.625 193.2235 459.4272 200.2916 412.6746 201.7898M 515.9004 16.1754C 587.523 23.666 649.7393 37.5762 695.5598 55.7208"></path></g></g></g><g id="g-root-tx_depictst_4jtcx7t6ynm6-stroke" data-item-order="0" transform="translate(626, 194)"></g><g id="g-root-tx_represen_18gxxuzt6yp6w-stroke" data-item-order="0" transform="translate(56, 194)"></g><g id="g-root-ic_shap_4gozhnt6vtak-stroke" data-item-order="0" transform="translate(503, 245)"><g id="ic_shap_4gozhnt6vtak-stroke" fill="none" stroke-linecap="round" stroke-linejoin="round" stroke-miterlimit="4" stroke="#d3d3d3" stroke-width="2"><g><path d="M 11.875 10.625L 21.875 10.625C 21.875 10.625 23.125 10.625 23.125 11.875L 23.125 21.875C 23.125 21.875 23.125 23.125 21.875 23.125L 11.875 23.125C 11.875 23.125 10.625 23.125 10.625 21.875L 10.625 11.875C 10.625 11.875 10.625 10.625 11.875 10.625M 18.033751 38.785C 17.764206 39.155842 17.33345 39.375271 16.875 39.375271C 16.41655 39.375271 15.985794 39.155842 15.71625 38.785004L 11.75875 33.342499C 11.392303 32.840603 11.392303 32.159397 11.75875 31.657501L 15.716249 26.215C 15.985794 25.84416 16.41655 25.624733 16.875 25.624733C 17.33345 25.624733 17.764206 25.84416 18.033751 26.215002L 21.991251 31.657501C 22.357697 32.159397 22.357697 32.840603 21.991249 33.342499ZM 26.875 16.875C 26.875 20.32678 29.673222 23.125 33.125 23.125C 36.576778 23.125 39.375 20.32678 39.375 16.875C 39.375 13.423221 36.576778 10.625 33.125 10.625C 29.673222 10.625 26.875 13.423221 26.875 16.875M 32.326248 27.446249C 32.101379 27.065571 31.692135 26.832006 31.25 26.832006C 30.807865 26.832006 30.398621 27.065571 30.17375 27.446249L 24.24 37.48875C 24.011591 37.875008 24.007755 38.354065 24.229946 38.743935C 24.452137 39.133801 24.866261 39.374657 25.315001 39.375L 37.190002 39.375C 37.638737 39.374657 38.05286 39.133801 38.275055 38.743935C 38.497246 38.354065 38.493408 37.875008 38.264999 37.48875Z"></path></g></g></g><g id="g-root-tx_energyfl_dfgd63t6ymth-stroke" data-item-order="0" transform="translate(650, 158)"></g><g id="g-root-ic_join_3zusrt6vv9n-stroke" data-item-order="0" transform="translate(119, 281)"><g id="ic_join_3zusrt6vv9n-stroke" fill="none" stroke-linecap="round" stroke-linejoin="round" stroke-miterlimit="4" stroke="#F8E6B8" stroke-width="2"><g><path d="M 18.419201 10.9195C 14.277062 10.919497 10.91919 14.277363 10.91919 18.4195L 10.91919 39.08025L 25.55275 39.08025L 25.55275 25.553125L 39.080875 25.553125L 39.080875 10.919517L 18.419201 10.9195ZM 10 10M 20.255125 20.263363L 16.192625 20.263363L 16.192625 16.200863L 20.255125 16.200863L 20.255125 20.263363ZM 10 10M 18.223875 20.263363L 18.223875 39.08025M 10 10M 39.073502 18.232113L 20.256575 18.232113"></path></g></g></g><g id="g-root-tx_represen_hune7ft6yp70-stroke" data-item-order="0" transform="translate(428, 158)"></g><g id="g-root-ic_2_18gxxuzt6vw23-stroke" data-item-order="0" transform="translate(290, 296)"><g id="ic_2_18gxxuzt6vw23-stroke" fill="none" stroke-linecap="round" stroke-linejoin="round" stroke-miterlimit="4" stroke="#d3d3d3" stroke-width="2"><g><path d="M 19.75 34L 19.75 27.969999C 19.749775 27.782372 19.819887 27.601471 19.946501 27.463001L 27.446499 19.2805C 27.588583 19.125109 27.789444 19.0366 28 19.0366C 28.210556 19.0366 28.411417 19.125109 28.553501 19.2805L 36.053497 27.463001C 36.180115 27.601471 36.250225 27.782372 36.25 27.969999L 36.25 34C 36.250374 34.309624 36.060436 34.58765 35.771873 34.69989C 35.483307 34.812126 35.155434 34.735504 34.946503 34.507L 28.2775 27.229C 28.206221 27.151722 28.105879 27.107767 28.00075 27.107767C 27.89562 27.107767 27.795279 27.151722 27.723999 27.229L 21.053499 34.505501C 20.844749 34.733803 20.517246 34.810509 20.228825 34.698658C 19.940403 34.586811 19.750248 34.309349 19.75 34ZM 10.75 10.75L 45.25 10.75L 45.25 45.25L 10.75 45.25Z"></path></g></g></g><g id="g-root-tx_symboliz_v63wkrt6ynm2-stroke" data-item-order="0" transform="translate(242, 158)"></g><g id="g-root-tx_circular_18gxxuzt6yp6v-stroke" data-item-order="0" transform="translate(56, 158)"></g><g id="g-root-ic_2_mfgp0rt6t34f-stroke" data-item-order="0" transform="translate(734, 296)"><g id="ic_2_mfgp0rt6t34f-stroke" fill="none" stroke-linecap="round" stroke-linejoin="round" stroke-miterlimit="4" stroke="#d3d3d3" stroke-width="2"><g><path d="M 33.625 28.75C 33.625 30.821068 35.303932 32.5 37.375 32.5C 39.446068 32.5 41.125 30.821068 41.125 28.75C 41.125 26.678932 39.446068 25 37.375 25C 35.303932 25 33.625 26.678932 33.625 28.75M 33.625 41.5C 33.625 43.571068 35.303932 45.25 37.375 45.25C 39.446068 45.25 41.125 43.571068 41.125 41.5C 41.125 39.428932 39.446068 37.75 37.375 37.75C 35.303932 37.75 33.625 39.428932 33.625 41.5M 23.875 19.75L 23.875 38.5C 23.875 40.156857 25.218145 41.5 26.875 41.5L 33.625 41.5M 23.875 28.75L 33.625 28.75M 32.875 15.25C 32.875 17.735283 30.860283 19.75 28.375 19.75L 19.375 19.75C 16.889719 19.75 14.875 17.735281 14.875 15.25C 14.875 12.764719 16.889719 10.75 19.375 10.75L 28.375 10.75C 30.860283 10.75 32.875 12.764719 32.875 15.25Z"></path></g></g></g><g id="g-root-ic_jet_v7zbu3t6x8g0-stroke" data-item-order="0" transform="translate(386, 338)"><g id="ic_jet_v7zbu3t6x8g0-stroke" fill="none" stroke-linecap="round" stroke-linejoin="round" stroke-miterlimit="4" stroke="#d3d3d3" stroke-width="2"><g><path d="M 17.5 62.5L 17.5 37C 17.5 22.916739 28.916739 11.5 43 11.5C 57.083263 11.5 68.5 22.916739 68.5 37C 68.5 37.828426 67.82843 38.5 67 38.5L 60.279999 38.5C 59.849216 38.499996 59.499992 38.15078 59.499992 37.720001C 59.650341 29.001778 53.161774 21.591835 44.5 20.59C 39.883877 20.159317 35.300011 21.69413 31.87392 24.817583C 28.44783 27.941036 26.496841 32.363831 26.5 37L 26.5 62.5M 43.630001 60.639999C 43.166695 59.513515 42.285 58.610313 41.170002 58.120003C 40.046204 57.65498 38.783794 57.65498 37.66 58.120003L 22.66 64.120003C 20.299578 65.056503 19.145004 67.728973 20.080976 70.089615C 21.016947 72.450249 23.68915 73.605423 26.049999 72.669998L 41.050003 66.669998C 43.422485 65.712097 44.575397 63.017494 43.629997 60.639999ZM 29.5 71.139999L 29.5 79C 29.5 79.82843 28.828428 80.5 28 80.5L 16 80.5C 15.171573 80.5 14.5 79.82843 14.5 79L 14.5 64C 14.5 63.171574 15.171573 62.5 16 62.5L 26.5 62.5M 64.75 47.5C 65.164215 47.5 65.5 47.835785 65.5 48.25C 65.5 48.664215 65.164215 49 64.75 49C 64.335785 49 64 48.664215 64 48.25C 64 47.835785 64.335785 47.5 64.75 47.5M 72.25 47.5C 72.664215 47.5 73 47.835785 73 48.25C 73 48.664215 72.664215 49 72.25 49C 71.835785 49 71.5 48.664215 71.5 48.25C 71.5 47.835785 71.835785 47.5 72.25 47.5M 73.75 56.5C 74.164215 56.5 74.5 56.835785 74.5 57.25C 74.5 57.664215 74.164215 58 73.75 58C 73.335785 58 73 57.664215 73 57.25C 73 56.835785 73.335785 56.5 73.75 56.5M 55.75 56.5C 56.164215 56.5 56.5 56.835785 56.5 57.25C 56.5 57.664215 56.164215 58 55.75 58C 55.335785 58 55 57.664215 55 57.25C 55 56.835785 55.335785 56.5 55.75 56.5M 75.25 65.5C 75.664215 65.5 76 65.835785 76 66.25C 76 66.664215 75.664215 67 75.25 67C 74.835785 67 74.5 66.664215 74.5 66.25C 74.5 65.835785 74.835785 65.5 75.25 65.5M 54.25 65.5C 54.664215 65.5 55 65.835785 55 66.25C 55 66.664215 54.664215 67 54.25 67C 53.835785 67 53.5 66.664215 53.5 66.25C 53.5 65.835785 53.835785 65.5 54.25 65.5M 57.25 47.5C 57.664215 47.5 58 47.835785 58 48.25C 58 48.664215 57.664215 49 57.25 49C 56.835785 49 56.5 48.664215 56.5 48.25C 56.5 47.835785 56.835785 47.5 57.25 47.5M 64.75 56.5C 65.164215 56.5 65.5 56.835785 65.5 57.25C 65.5 57.664215 65.164215 58 64.75 58C 64.335785 58 64 57.664215 64 57.25C 64 56.835785 64.335785 56.5 64.75 56.5M 64.75 65.5C 65.164215 65.5 65.5 65.835785 65.5 66.25C 65.5 66.664215 65.164215 67 64.75 67C 64.335785 67 64 66.664215 64 66.25C 64 65.835785 64.335785 65.5 64.75 65.5M 76.75 74.5C 77.164215 74.5 77.5 74.835785 77.5 75.25C 77.5 75.664215 77.164215 76 76.75 76C 76.335785 76 76 75.664215 76 75.25C 76 74.835785 76.335785 74.5 76.75 74.5M 52.75 74.5C 53.164215 74.5 53.5 74.835785 53.5 75.25C 53.5 75.664215 53.164215 76 52.75 76C 52.335785 76 52 75.664215 52 75.25C 52 74.835785 52.335785 74.5 52.75 74.5M 64.75 74.5C 65.164215 74.5 65.5 74.835785 65.5 75.25C 65.5 75.664215 65.164215 76 64.75 76C 64.335785 76 64 75.664215 64 75.25C 64 74.835785 64.335785 74.5 64.75 74.5"></path></g></g></g><g id="g-root-tx_highligh_1d0iai3t6ymfh-stroke" data-item-order="0" transform="translate(530, 591)"></g><g id="g-root-tx_othergeo_qqaegbt6yoeb-stroke" data-item-order="0" transform="translate(434, 98)"></g><g id="g-root-ic_spea_1cxdtwrt75n9f-stroke" data-item-order="0" transform="translate(575, 389)"><g id="ic_spea_1cxdtwrt75n9f-stroke" fill="none" stroke-linecap="round" stroke-linejoin="round" stroke-miterlimit="4" stroke="#d3d3d3" stroke-width="2"><g><path d="M 17.875 10.875L 44.125 10.875C 44.125 10.875 51.125 10.875 51.125 17.875L 51.125 44.125C 51.125 44.125 51.125 51.125 44.125 51.125L 17.875 51.125C 17.875 51.125 10.875 51.125 10.875 44.125L 10.875 17.875C 10.875 17.875 10.875 10.875 17.875 10.875M 27.5 31C 27.5 32.932995 29.067003 34.5 31 34.5C 32.932995 34.5 34.5 32.932995 34.5 31C 34.5 29.067003 32.932995 27.5 31 27.5C 29.067003 27.5 27.5 29.067003 27.5 31M 19.625 31C 19.625 37.282242 24.717762 42.375 31 42.375C 37.282242 42.375 42.375 37.282242 42.375 31C 42.375 24.717762 37.282242 19.625 31 19.625C 24.717762 19.625 19.625 24.717762 19.625 31M 15.25 31C 15.25 39.698483 22.301516 46.75 31 46.75C 39.698483 46.75 46.75 39.698483 46.75 31C 46.75 22.301516 39.698483 15.25 31 15.25C 22.301516 15.25 15.25 22.301516 15.25 31M 16.125 16.564249C 16.302111 16.564251 16.46175 16.671036 16.529362 16.834732C 16.596975 16.99843 16.559223 17.186743 16.433735 17.311729C 16.308249 17.436714 16.119785 17.473711 15.95636 17.405443C 15.792934 17.337175 15.686791 17.177109 15.6875 17C 15.6875 16.758375 15.883375 16.5625 16.125 16.5625M 45.875 16.564249C 46.116623 16.564249 46.3125 16.760126 46.3125 17.001749C 46.3125 17.243374 46.116623 17.439249 45.875 17.439249C 45.633377 17.439249 45.4375 17.243374 45.4375 17.001749C 45.4375 16.760126 45.633377 16.564249 45.875 16.564249M 16.125 45.439247C 16.366625 45.439247 16.5625 45.635124 16.5625 45.876747C 16.5625 46.118374 16.366625 46.314247 16.125 46.314247C 15.883375 46.314247 15.6875 46.118374 15.6875 45.876747C 15.6875 45.635124 15.883375 45.439247 16.125 45.439247M 45.875 45.439247C 46.116623 45.439247 46.3125 45.635124 46.3125 45.876747C 46.3125 46.118374 46.116623 46.314247 45.875 46.314247C 45.633377 46.314247 45.4375 46.118374 45.4375 45.876747C 45.4375 45.635124 45.633377 45.439247 45.875 45.439247"></path></g></g></g><g id="g-root-ic_7_1d2dprft6rmkm-stroke" data-item-order="0" transform="translate(173, 413)"><g id="ic_7_1d2dprft6rmkm-stroke" fill="none" stroke-linecap="round" stroke-linejoin="round" stroke-miterlimit="4" stroke="#d3d3d3" stroke-width="2"><g><path d="M 10.875 44.123253C 10.875 47.989243 14.009007 51.123253 17.875 51.123253C 21.740993 51.123253 24.875 47.989243 24.875 44.123253C 24.875 40.257259 21.740993 37.123249 17.875 37.123249C 14.009007 37.123249 10.875 40.257259 10.875 44.123253ZM 37.125 44.123253C 37.125 47.989243 40.259007 51.123253 44.125 51.123253C 47.990993 51.123253 51.125 47.989243 51.125 44.123253C 51.125 40.257259 47.990993 37.123249 44.125 37.123249C 40.259007 37.123249 37.125 40.257259 37.125 44.123253ZM 24 17.873251C 24 21.739243 27.134007 24.873249 31 24.873249C 34.865993 24.873249 38 21.739243 38 17.873251C 38 14.007257 34.865993 10.87325 31 10.87325C 27.134007 10.87325 24 14.007257 24 17.873251ZM 24.875 44.123253L 37.125 44.123253M 34.472 23.914249L 41.349499 37.693748M 27.5 23.998251L 20.65225 37.693748"></path></g></g></g><g id="g-root-tx_prosperi_1hckuy3t75pmy-stroke" data-item-order="0" transform="translate(224, 38)"></g><g id="g-root-ic_scal_91iaazt6oves-stroke" data-item-order="0" transform="translate(380, 446)"><g id="ic_scal_91iaazt6oves-stroke" fill="none" stroke-linecap="round" stroke-linejoin="round" stroke-miterlimit="4" stroke="#d3d3d3" stroke-width="2"><g><path d="M 43.562 55.124001C 43.663631 55.429138 43.612297 55.764538 43.424049 56.025311C 43.235802 56.286083 42.93362 56.440399 42.612 56.439999L 25.388 56.439999C 25.06638 56.440399 24.764198 56.286083 24.575951 56.025311C 24.387703 55.764538 24.336369 55.429138 24.438 55.124001L 25.368 52.338001C 25.745724 51.20504 26.805733 50.440643 28 50.439999L 40 50.439999C 41.194267 50.440643 42.254272 51.20504 42.632 52.337997ZM 38 50.439999L 30 50.439999L 30 48.439999C 30 46.230862 31.790861 44.439999 34 44.439999C 36.209137 44.439999 38 46.230862 38 48.439999ZM 10 10M 34 44.439999L 34 20.439999M 37 17.440001C 37 19.096855 35.656853 20.440001 34 20.440001C 32.343147 20.440001 31 19.096855 31 17.440001C 31.425722 15.562143 32.138069 13.761038 33.112 12.1C 33.283829 11.768179 33.626328 11.559843 34 11.559843C 34.373672 11.559843 34.716171 11.768179 34.888 12.1C 35.863228 13.760406 36.575657 15.561716 37 17.440001ZM 10 10M 16 24.439999L 52 24.439999M 10 10M 20 24.439999L 20 34.440002M 26.927999 34.440002C 27.219759 34.437042 27.498257 34.561653 27.690472 34.781166C 27.882689 35.000675 27.969446 35.293186 27.927999 35.582001C 27.366228 39.524467 23.99029 42.453461 20.007999 42.453461C 16.025711 42.453461 12.649771 39.524467 12.088 35.582001C 12.046553 35.293186 12.133312 35.000675 12.325527 34.781166C 12.517743 34.561653 12.796242 34.437042 13.088 34.440002ZM 10 10M 48 24.439999L 48 34.440002M 40.584 34.440002C 40.428501 34.440819 40.28019 34.505573 40.173889 34.619064C 40.067581 34.732552 40.012657 34.884781 40.021999 35.040001C 40.324623 39.113743 43.647804 42.305153 47.73045 42.442799C 51.813099 42.580444 55.343685 39.62011 55.919998 35.576C 55.961449 35.287186 55.874687 34.994675 55.682472 34.775162C 55.490257 34.555656 55.211758 34.431042 54.919998 34.433998Z"></path></g></g></g><g id="g-root-tx_connecti_4jtcx7t6ynm7-stroke" data-item-order="0" transform="translate(170, 530)"></g><g id="g-root-tx_harmony_5va23t6yneq-stroke" data-item-order="0" transform="translate(374, 542)"></g><g id="g-root-tx_resonanc_1lvitnvt6yosk-stroke" data-item-order="0" transform="translate(554, 531)"></g><g id="g-root-tx_illustra_3zusrt6yoeg-stroke" data-item-order="0" transform="translate(146, 566)"></g><g id="g-root-tx_represen_1qbcbsbt6yo0b-stroke" data-item-order="0" transform="translate(338, 578)"></g><g id="g-root-tx_triangul_141qwtnt6ymtd-stroke" data-item-order="0" transform="translate(242, 122)"></g></g></g></svg>