<?xml version="1.0" encoding="utf-8" standalone="yes"?>
<!DOCTYPE svg PUBLIC "-//W3C//DTD SVG 1.1//EN" "http://www.w3.org/Graphics/SVG/1.1/DTD/svg11.dtd">
<svg width="980" height="708" viewBox="0 0 980 708" style="fill:none;stroke:none;fill-rule:evenodd;clip-rule:evenodd;stroke-linecap:round;stroke-linejoin:round;stroke-miterlimit:1.5;" version="1.1" xmlns="http://www.w3.org/2000/svg" xmlns:xlink="http://www.w3.org/1999/xlink"><style class="text-font-style fontImports" data-font-family="Roboto">@import url('https://fonts.googleapis.com/css2?family=Roboto:wght@400;700&amp;display=block');</style><g id="items" style="isolation: isolate"><g id="blend" style="mix-blend-mode: normal"><g id="g-root-cp_-1_line_23zngqyuwb0-fill" data-item-order="-570339" transform="translate(145.5, 290)"></g><g id="g-root-cp_-1_line_1_23zngqyuwb2-fill" data-item-order="-570335" transform="translate(349.5, 290)"></g><g id="g-root-cp_-1_line_2_4hxhrwqyuwao-fill" data-item-order="-570331" transform="translate(553.5, 290)"></g><g id="g-root-cp_-1_line_3_1uneji4qyuwwa-fill" data-item-order="-570327" transform="translate(757.5, 290)"></g><g id="g-root-cp_1_g-1_1_1uneji4qyuwwc-fill" data-item-order="-570324" transform="translate(84.00003051757812, 338)"><g id="cp_1_g-1_1_1uneji4qyuwwc-fill" stroke="none" fill="#E5A000"><g><path d="M 149.501969 13.1012C 145.370969 8.9678 138.668969 8.966 134.535969 13.0974C 130.403969 17.2272 130.403969 23.923 134.535969 28.0529L 153.913969 47.4222L 99.582669 47.4222C 93.737969 47.4222 88.999969 52.1581 88.999969 58.0001C 88.999969 63.842 93.737969 68.5779 99.582669 68.5779L 153.913969 68.5779L 134.535969 87.9471C 130.403969 92.077 130.403969 98.7728 134.535969 102.9026C 138.668969 107.034 145.370969 107.0322 149.501969 102.8988L 186.903969 65.4758C 191.031969 61.3458 191.031969 54.6542 186.903969 50.5242L 149.501969 13.1012ZM 42.906869 51.2384L 49.668869 58.0003L 42.906869 64.7623C 41.974369 65.6948 41.974369 67.2067 42.906869 68.1392C 43.839669 69.072 45.352269 69.0716 46.284669 68.1383L 54.725969 59.6884C 55.657569 58.7558 55.657569 57.2449 54.725969 56.3123L 46.284669 47.8623C 45.352269 46.929 43.839669 46.9286 42.906869 47.8615C 41.974369 48.794 41.974369 50.3059 42.906869 51.2384ZM 26.803069 51.2384L 33.565069 58.0003L 26.803069 64.7623C 25.870569 65.6948 25.870569 67.2067 26.803069 68.1392C 27.735969 69.072 29.248469 69.0716 30.180869 68.1383L 38.622269 59.6884C 39.553869 58.7558 39.553869 57.2449 38.622269 56.3123L 30.180869 47.8623C 29.248469 46.929 27.735969 46.9286 26.803069 47.8615C 25.870569 48.794 25.870569 50.3059 26.803069 51.2384ZM 10.699369 51.2381L 17.461269 58.0001L 10.699369 64.7621C 9.766869 65.6946 9.766869 67.2064 10.699369 68.1389C 11.632169 69.0718 13.144769 69.0714 14.077069 68.1381L 22.518469 59.6881C 23.450069 58.7556 23.450069 57.2446 22.518469 56.3121L 14.077069 47.8621C 13.144769 46.9288 11.632169 46.9284 10.699369 47.8612C 9.766869 48.7937 9.766869 50.3056 10.699369 51.2381ZM 71.949869 68.5775C 66.107869 68.5775 61.372069 63.8417 61.372069 57.9997C 61.372069 52.1577 66.107869 47.4219 71.949869 47.4219C 77.791869 47.4219 82.527669 52.1577 82.527669 57.9997C 82.527669 63.8417 77.791869 68.5775 71.949869 68.5775Z"></path></g></g></g><g id="g-root-cp_2_g-2_1q87igsqyuuiu-fill" data-item-order="-570320" transform="translate(288.0000305175781, 338)"><g id="cp_2_g-2_1q87igsqyuuiu-fill" stroke="none" fill="#6b6b6b"><g><path d="M 149.501969 13.1012C 145.370969 8.9678 138.668969 8.966 134.535969 13.0974C 130.403969 17.2272 130.403969 23.923 134.535969 28.0529L 153.913969 47.4222L 99.582669 47.4222C 93.737969 47.4222 88.999969 52.1581 88.999969 58.0001C 88.999969 63.842 93.737969 68.5779 99.582669 68.5779L 153.913969 68.5779L 134.535969 87.9471C 130.403969 92.077 130.403969 98.7728 134.535969 102.9026C 138.668969 107.034 145.370969 107.0322 149.501969 102.8988L 186.903969 65.4758C 191.031969 61.3458 191.031969 54.6542 186.903969 50.5242L 149.501969 13.1012ZM 42.906869 51.2384L 49.668869 58.0003L 42.906869 64.7623C 41.974369 65.6948 41.974369 67.2067 42.906869 68.1392C 43.839669 69.072 45.352269 69.0716 46.284669 68.1383L 54.725969 59.6884C 55.657569 58.7558 55.657569 57.2449 54.725969 56.3123L 46.284669 47.8623C 45.352269 46.929 43.839669 46.9286 42.906869 47.8615C 41.974369 48.794 41.974369 50.3059 42.906869 51.2384ZM 26.803069 51.2384L 33.565069 58.0003L 26.803069 64.7623C 25.870569 65.6948 25.870569 67.2067 26.803069 68.1392C 27.735969 69.072 29.248469 69.0716 30.180869 68.1383L 38.622269 59.6884C 39.553869 58.7558 39.553869 57.2449 38.622269 56.3123L 30.180869 47.8623C 29.248469 46.929 27.735969 46.9286 26.803069 47.8615C 25.870569 48.794 25.870569 50.3059 26.803069 51.2384ZM 10.699369 51.2381L 17.461269 58.0001L 10.699369 64.7621C 9.766869 65.6946 9.766869 67.2064 10.699369 68.1389C 11.632169 69.0718 13.144769 69.0714 14.077069 68.1381L 22.518469 59.6881C 23.450069 58.7556 23.450069 57.2446 22.518469 56.3121L 14.077069 47.8621C 13.144769 46.9288 11.632169 46.9284 10.699369 47.8612C 9.766869 48.7937 9.766869 50.3056 10.699369 51.2381ZM 71.949869 68.5775C 66.107869 68.5775 61.372069 63.8417 61.372069 57.9997C 61.372069 52.1577 66.107869 47.4219 71.949869 47.4219C 77.791869 47.4219 82.527669 52.1577 82.527669 57.9997C 82.527669 63.8417 77.791869 68.5775 71.949869 68.5775Z"></path></g></g></g><g id="g-root-cp_3_g-3_1_1q87igsqyuuiw-fill" data-item-order="-570316" transform="translate(492, 338)"><g id="cp_3_g-3_1_1q87igsqyuuiw-fill" stroke="none" fill="#6b6b6b"><g><path d="M 149.502 13.1012C 145.371 8.9678 138.669 8.966 134.536 13.0974C 130.404 17.2272 130.404 23.923 134.536 28.0529L 153.914 47.4222L 99.5827 47.4222C 93.738 47.4222 89 52.1581 89 58.0001C 89 63.842 93.738 68.5779 99.5827 68.5779L 153.914 68.5779L 134.536 87.9471C 130.404 92.077 130.404 98.7728 134.536 102.9026C 138.669 107.034 145.371 107.0322 149.502 102.8988L 186.904 65.4758C 191.032 61.3458 191.032 54.6542 186.904 50.5242L 149.502 13.1012ZM 42.9069 51.2384L 49.6689 58.0003L 42.9069 64.7623C 41.9744 65.6948 41.9744 67.2067 42.9069 68.1392C 43.8397 69.072 45.3523 69.0716 46.2847 68.1383L 54.726 59.6884C 55.6576 58.7558 55.6576 57.2449 54.726 56.3123L 46.2847 47.8623C 45.3523 46.929 43.8397 46.9286 42.9069 47.8615C 41.9744 48.794 41.9744 50.3059 42.9069 51.2384ZM 26.8031 51.2384L 33.5651 58.0003L 26.8031 64.7623C 25.8706 65.6948 25.8706 67.2067 26.8031 68.1392C 27.736 69.072 29.2485 69.0716 30.1809 68.1383L 38.6223 59.6884C 39.5539 58.7558 39.5539 57.2449 38.6223 56.3123L 30.1809 47.8623C 29.2485 46.929 27.736 46.9286 26.8031 47.8615C 25.8706 48.794 25.8706 50.3059 26.8031 51.2384ZM 10.6994 51.2381L 17.4613 58.0001L 10.6994 64.7621C 9.7669 65.6946 9.7669 67.2064 10.6994 68.1389C 11.6322 69.0718 13.1448 69.0714 14.0771 68.1381L 22.5185 59.6881C 23.4501 58.7556 23.4501 57.2446 22.5185 56.3121L 14.0771 47.8621C 13.1448 46.9288 11.6322 46.9284 10.6994 47.8612C 9.7669 48.7937 9.7669 50.3056 10.6994 51.2381ZM 71.9499 68.5775C 66.1079 68.5775 61.3721 63.8417 61.3721 57.9997C 61.3721 52.1577 66.1079 47.4219 71.9499 47.4219C 77.7919 47.4219 82.5277 52.1577 82.5277 57.9997C 82.5277 63.8417 77.7919 68.5775 71.9499 68.5775Z"></path></g></g></g><g id="g-root-cp_4_g-4_1q87igsqyuuiy-fill" data-item-order="-570312" transform="translate(696, 338)"><g id="cp_4_g-4_1q87igsqyuuiy-fill" stroke="none" fill="#6b6b6b"><g><path d="M 149.502 13.1012C 145.371 8.9678 138.669 8.966 134.536 13.0974C 130.404 17.2272 130.404 23.923 134.536 28.0529L 153.914 47.4222L 99.5827 47.4222C 93.738 47.4222 89 52.1581 89 58.0001C 89 63.842 93.738 68.5779 99.5827 68.5779L 153.914 68.5779L 134.536 87.9471C 130.404 92.077 130.404 98.7728 134.536 102.9026C 138.669 107.034 145.371 107.0322 149.502 102.8988L 186.904 65.4758C 191.032 61.3458 191.032 54.6542 186.904 50.5242L 149.502 13.1012ZM 42.9069 51.2384L 49.6689 58.0003L 42.9069 64.7623C 41.9744 65.6948 41.9744 67.2067 42.9069 68.1392C 43.8397 69.072 45.3523 69.0716 46.2847 68.1383L 54.726 59.6884C 55.6576 58.7558 55.6576 57.2449 54.726 56.3123L 46.2847 47.8623C 45.3523 46.929 43.8397 46.9286 42.9069 47.8615C 41.9744 48.794 41.9744 50.3059 42.9069 51.2384ZM 26.8031 51.2384L 33.5651 58.0003L 26.8031 64.7623C 25.8706 65.6948 25.8706 67.2067 26.8031 68.1392C 27.736 69.072 29.2485 69.0716 30.1809 68.1383L 38.6223 59.6884C 39.5539 58.7558 39.5539 57.2449 38.6223 56.3123L 30.1809 47.8623C 29.2485 46.929 27.736 46.9286 26.8031 47.8615C 25.8706 48.794 25.8706 50.3059 26.8031 51.2384ZM 10.6994 51.2381L 17.4613 58.0001L 10.6994 64.7621C 9.7669 65.6946 9.7669 67.2064 10.6994 68.1389C 11.6322 69.0718 13.1448 69.0714 14.0771 68.1381L 22.5185 59.6881C 23.4501 58.7556 23.4501 57.2446 22.5185 56.3121L 14.0771 47.8621C 13.1448 46.9288 11.6322 46.9284 10.6994 47.8612C 9.7669 48.7937 9.7669 50.3056 10.6994 51.2381ZM 71.9499 68.5775C 66.1079 68.5775 61.3721 63.8417 61.3721 57.9997C 61.3721 52.1577 66.1079 47.4219 71.9499 47.4219C 77.7919 47.4219 82.5277 52.1577 82.5277 57.9997C 82.5277 63.8417 77.7919 68.5775 71.9499 68.5775Z"></path></g></g></g><g id="g-root-tx_phoenixr_1lse0ccqyuvb8-fill" data-item-order="0" transform="translate(270, 38)"><g id="tx_phoenixr_1lse0ccqyuvb8-fill" stroke="none" fill="#f4f4f4"><g><text style="font: bold 25px Roboto, sans-serif; white-space: pre;" font-weight="bold" font-size="25px" font-family="Roboto, sans-serif"><tspan x="12.56" y="43" dominant-baseline="ideographic">Phoenix Restart Algorithm Sequence</tspan></text></g></g></g><g id="g-root-tx_checkdai_18gxhz0qyuww5-fill" data-item-order="0" transform="translate(86, 134)"><g id="tx_checkdai_18gxhz0qyuww5-fill" stroke="none" fill="#F8E6B8"><g><text style="font: bold 20px Roboto, sans-serif; white-space: pre;" font-weight="bold" font-size="20px" font-family="Roboto, sans-serif"><tspan x="14.75" y="33.63" dominant-baseline="ideographic">Check Daily </tspan><tspan x="27.22" y="57.64" dominant-baseline="ideographic">Required </tspan><tspan x="27.76" y="81.64" dominant-baseline="ideographic">Payment</tspan></text></g></g></g><g id="g-root-tx_triggerp_1lrrj98qz8xzi-fill" data-item-order="0" transform="translate(512, 158)"><g id="tx_triggerp_1lrrj98qz8xzi-fill" stroke="none" fill="#f4f4f4"><g><text style="font: bold 20px Roboto, sans-serif; white-space: pre;" font-weight="bold" font-size="20px" font-family="Roboto, sans-serif"><tspan x="16.84" y="33.63" dominant-baseline="ideographic">Trigger </tspan><tspan x="13.08" y="57.64" dominant-baseline="ideographic">Phoenix </tspan><tspan x="16.55" y="81.64" dominant-baseline="ideographic">Restart</tspan></text></g></g></g><g id="g-root-tx_verifyth_18gxhz0qyuww6-fill" data-item-order="0" transform="translate(92, 218)"><g id="tx_verifyth_18gxhz0qyuww6-fill" stroke="none" fill="#F8E6B8"><g><text style="font: 15px Roboto, sans-serif; white-space: pre;" font-size="15px" font-family="Roboto, sans-serif"><tspan x="13.23" y="30.28" dominant-baseline="ideographic">Verify the daily </tspan><tspan x="33.2" y="48.27" dominant-baseline="ideographic">payment </tspan><tspan x="21.87" y="66.27" dominant-baseline="ideographic">requirement</tspan></text></g></g></g><g id="g-root-ic_conv_zlwyt8qyuuj3-fill" data-item-order="0" transform="translate(320, 218)"></g><g id="g-root-ic_valu_qpnhh8qz8yrx-fill" data-item-order="0" transform="translate(728, 218)"></g><g id="g-root-tx_initiate_1cwr03gqz8we8-fill" data-item-order="0" transform="translate(482, 242)"><g id="tx_initiate_1cwr03gqz8we8-fill" stroke="none" fill="#f4f4f4"><g><text style="font: 15px Roboto, sans-serif; white-space: pre;" font-size="15px" font-family="Roboto, sans-serif"><tspan x="16.59" y="27.27" dominant-baseline="ideographic">Initiate the restart if </tspan><tspan x="12.07" y="45.27" dominant-baseline="ideographic">funds are insufficient</tspan></text></g></g></g><g id="g-root-ic_bala_mfg94sqzd3wt-fill" data-item-order="0" transform="translate(116, 494)"></g><g id="g-root-tx_comparew_1hlq4qz0hze-fill" data-item-order="0" transform="translate(278, 494)"><g id="tx_comparew_1hlq4qz0hze-fill" stroke="none" fill="#f4f4f4"><g><text style="font: bold 20px Roboto, sans-serif; white-space: pre;" font-weight="bold" font-size="20px" font-family="Roboto, sans-serif"><tspan x="17.26" y="33.63" dominant-baseline="ideographic">Compare with </tspan><tspan x="38.38" y="57.64" dominant-baseline="ideographic">Available </tspan><tspan x="52.16" y="81.64" dominant-baseline="ideographic">Funds</tspan></text></g></g></g><g id="g-root-ic_warn_1hby4akqz0gzp-fill" data-item-order="0" transform="translate(524, 494)"></g><g id="g-root-tx_systemmo_1lwri9oqz1xc0-fill" data-item-order="0" transform="translate(704, 494)"><g id="tx_systemmo_1lwri9oqz1xc0-fill" stroke="none" fill="#f4f4f4"><g><text style="font: bold 20px Roboto, sans-serif; white-space: pre;" font-weight="bold" font-size="20px" font-family="Roboto, sans-serif"><tspan x="27.74" y="33.63" dominant-baseline="ideographic">System </tspan><tspan x="12.34" y="57.64" dominant-baseline="ideographic">Monitoring </tspan><tspan x="29.48" y="81.64" dominant-baseline="ideographic">Graphs</tspan></text></g></g></g><g id="g-root-tx_comparet_1lr55bwqz0jd8-fill" data-item-order="0" transform="translate(296, 578)"><g id="tx_comparet_1lr55bwqz0jd8-fill" stroke="none" fill="#f4f4f4"><g><text style="font: 15px Roboto, sans-serif; white-space: pre;" font-size="15px" font-family="Roboto, sans-serif"><tspan x="21.09" y="30.28" dominant-baseline="ideographic">Compare the </tspan><tspan x="19.16" y="48.27" dominant-baseline="ideographic">payment with </tspan><tspan x="13.73" y="66.27" dominant-baseline="ideographic">available funds</tspan></text></g></g></g><g id="g-root-tx_monitort_18lxgzgqz1vr6-fill" data-item-order="0" transform="translate(686, 578)"><g id="tx_monitort_18lxgzgqz1vr6-fill" stroke="none" fill="#f4f4f4"><g><text style="font: 15px Roboto, sans-serif; white-space: pre;" font-size="15px" font-family="Roboto, sans-serif"><tspan x="11.96" y="27.27" dominant-baseline="ideographic">Monitor the system's </tspan><tspan x="38.12" y="45.27" dominant-baseline="ideographic">performance</tspan></text></g></g></g><g id="g-root-cp_-1_line_23zngqyuwb0-stroke" data-item-order="-570339" transform="translate(145.5, 290)"><g id="cp_-1_line_23zngqyuwb0-stroke" fill="none" stroke-linecap="round" stroke-linejoin="round" stroke-miterlimit="4" stroke="#d3d3d3" stroke-width="2" stroke-dasharray="5.0, 7.0"><g><path d="M 10 202L 10 10"></path></g></g></g><g id="g-root-cp_-1_line_1_23zngqyuwb2-stroke" data-item-order="-570335" transform="translate(349.5, 290)"><g id="cp_-1_line_1_23zngqyuwb2-stroke" fill="none" stroke-linecap="round" stroke-linejoin="round" stroke-miterlimit="4" stroke="#d3d3d3" stroke-width="2" stroke-dasharray="5.0, 7.0"><g><path d="M 10 202L 10 10"></path></g></g></g><g id="g-root-cp_-1_line_2_4hxhrwqyuwao-stroke" data-item-order="-570331" transform="translate(553.5, 290)"><g id="cp_-1_line_2_4hxhrwqyuwao-stroke" fill="none" stroke-linecap="round" stroke-linejoin="round" stroke-miterlimit="4" stroke="#d3d3d3" stroke-width="2" stroke-dasharray="5.0, 7.0"><g><path d="M 9.999992 202L 9.999992 10"></path></g></g></g><g id="g-root-cp_-1_line_3_1uneji4qyuwwa-stroke" data-item-order="-570327" transform="translate(757.5, 290)"><g id="cp_-1_line_3_1uneji4qyuwwa-stroke" fill="none" stroke-linecap="round" stroke-linejoin="round" stroke-miterlimit="4" stroke="#d3d3d3" stroke-width="2" stroke-dasharray="5.0, 7.0"><g><path d="M 10 202L 10 10"></path></g></g></g><g id="g-root-cp_1_g-1_1_1uneji4qyuwwc-stroke" data-item-order="-570324" transform="translate(84.00003051757812, 338)"><g id="cp_1_g-1_1_1uneji4qyuwwc-stroke" fill="none" stroke-linecap="round" stroke-linejoin="round" stroke-miterlimit="4" stroke="#F8E6B8" stroke-width="2"><g><path d="M 149.501869 13.1012C 145.370769 8.9678 138.668969 8.9661 134.535669 13.0974C 130.403969 17.2272 130.403969 23.923 134.535669 28.0529L 153.913969 47.4222L 99.582669 47.4222C 93.737969 47.4222 88.999969 52.1581 88.999969 58.0001C 88.999969 63.842 93.737969 68.5779 99.582669 68.5779L 153.913869 68.5779L 134.535669 87.9471C 130.403969 92.077 130.403969 98.7728 134.535669 102.9026C 138.668969 107.0339 145.370769 107.0322 149.501969 102.8988L 186.904169 65.4758C 191.031869 61.3458 191.031869 54.6542 186.904169 50.5242L 149.501869 13.1012ZM 42.906869 51.2384L 49.668869 58.0003L 42.906869 64.7623C 41.974369 65.6948 41.974369 67.2067 42.906869 68.1392C 43.839669 69.072 45.352269 69.0716 46.284669 68.1383L 54.725969 59.6884C 55.657569 58.7558 55.657569 57.2449 54.725969 56.3123L 46.284669 47.8623C 45.352269 46.929 43.839669 46.9286 42.906869 47.8615C 41.974369 48.794 41.974369 50.3059 42.906869 51.2384ZM 26.803069 51.2384L 33.565069 58.0003L 26.803069 64.7623C 25.870569 65.6948 25.870569 67.2067 26.803069 68.1392C 27.735969 69.072 29.248469 69.0716 30.180869 68.1383L 38.622269 59.6884C 39.553869 58.7558 39.553869 57.2449 38.622269 56.3123L 30.180869 47.8623C 29.248469 46.929 27.735969 46.9286 26.803069 47.8615C 25.870569 48.794 25.870569 50.3059 26.803069 51.2384ZM 10.699369 51.2381L 17.461269 58.0001L 10.699369 64.7621C 9.766869 65.6946 9.766869 67.2064 10.699369 68.1389C 11.632169 69.0718 13.144769 69.0714 14.077069 68.1381L 22.518469 59.6881C 23.450069 58.7556 23.450069 57.2446 22.518469 56.3121L 14.077069 47.8621C 13.144769 46.9288 11.632169 46.9284 10.699369 47.8612C 9.766869 48.7937 9.766869 50.3056 10.699369 51.2381ZM 71.949869 68.5775C 66.107869 68.5775 61.372069 63.8417 61.372069 57.9997C 61.372069 52.1577 66.107869 47.4219 71.949869 47.4219C 77.791869 47.4219 82.527669 52.1577 82.527669 57.9997C 82.527669 63.8417 77.791869 68.5775 71.949869 68.5775Z"></path></g></g></g><g id="g-root-cp_2_g-2_1q87igsqyuuiu-stroke" data-item-order="-570320" transform="translate(288.0000305175781, 338)"><g id="cp_2_g-2_1q87igsqyuuiu-stroke" fill="none" stroke-linecap="round" stroke-linejoin="round" stroke-miterlimit="4" stroke="#d3d3d3" stroke-width="2"><g><path d="M 149.501869 13.1012C 145.370769 8.9678 138.668969 8.9661 134.535669 13.0974C 130.403969 17.2272 130.403969 23.923 134.535669 28.0529L 153.913969 47.4222L 99.582669 47.4222C 93.737969 47.4222 88.999969 52.1581 88.999969 58.0001C 88.999969 63.842 93.737969 68.5779 99.582669 68.5779L 153.913869 68.5779L 134.535669 87.9471C 130.403969 92.077 130.403969 98.7728 134.535669 102.9026C 138.668969 107.0339 145.370769 107.0322 149.501969 102.8988L 186.904169 65.4758C 191.031869 61.3458 191.031869 54.6542 186.904169 50.5242L 149.501869 13.1012ZM 42.906869 51.2384L 49.668869 58.0003L 42.906869 64.7623C 41.974369 65.6948 41.974369 67.2067 42.906869 68.1392C 43.839669 69.072 45.352269 69.0716 46.284669 68.1383L 54.725969 59.6884C 55.657569 58.7558 55.657569 57.2449 54.725969 56.3123L 46.284669 47.8623C 45.352269 46.929 43.839669 46.9286 42.906869 47.8615C 41.974369 48.794 41.974369 50.3059 42.906869 51.2384ZM 26.803069 51.2384L 33.565069 58.0003L 26.803069 64.7623C 25.870569 65.6948 25.870569 67.2067 26.803069 68.1392C 27.735969 69.072 29.248469 69.0716 30.180869 68.1383L 38.622269 59.6884C 39.553869 58.7558 39.553869 57.2449 38.622269 56.3123L 30.180869 47.8623C 29.248469 46.929 27.735969 46.9286 26.803069 47.8615C 25.870569 48.794 25.870569 50.3059 26.803069 51.2384ZM 10.699369 51.2381L 17.461269 58.0001L 10.699369 64.7621C 9.766869 65.6946 9.766869 67.2064 10.699369 68.1389C 11.632169 69.0718 13.144769 69.0714 14.077069 68.1381L 22.518469 59.6881C 23.450069 58.7556 23.450069 57.2446 22.518469 56.3121L 14.077069 47.8621C 13.144769 46.9288 11.632169 46.9284 10.699369 47.8612C 9.766869 48.7937 9.766869 50.3056 10.699369 51.2381ZM 71.949869 68.5775C 66.107869 68.5775 61.372069 63.8417 61.372069 57.9997C 61.372069 52.1577 66.107869 47.4219 71.949869 47.4219C 77.791869 47.4219 82.527669 52.1577 82.527669 57.9997C 82.527669 63.8417 77.791869 68.5775 71.949869 68.5775Z"></path></g></g></g><g id="g-root-cp_3_g-3_1_1q87igsqyuuiw-stroke" data-item-order="-570316" transform="translate(492, 338)"><g id="cp_3_g-3_1_1q87igsqyuuiw-stroke" fill="none" stroke-linecap="round" stroke-linejoin="round" stroke-miterlimit="4" stroke="#d3d3d3" stroke-width="2"><g><path d="M 149.5019 13.1012C 145.3708 8.9678 138.669 8.9661 134.5357 13.0974C 130.404 17.2272 130.404 23.923 134.5357 28.0529L 153.914 47.4222L 99.5827 47.4222C 93.738 47.4222 89 52.1581 89 58.0001C 89 63.842 93.738 68.5779 99.5827 68.5779L 153.9139 68.5779L 134.5357 87.9471C 130.404 92.077 130.404 98.7728 134.5357 102.9026C 138.669 107.0339 145.3708 107.0322 149.502 102.8988L 186.9042 65.4758C 191.0319 61.3458 191.0319 54.6542 186.9042 50.5242L 149.5019 13.1012ZM 42.9069 51.2384L 49.6689 58.0003L 42.9069 64.7623C 41.9744 65.6948 41.9744 67.2067 42.9069 68.1392C 43.8397 69.072 45.3523 69.0716 46.2847 68.1383L 54.726 59.6884C 55.6576 58.7558 55.6576 57.2449 54.726 56.3123L 46.2847 47.8623C 45.3523 46.929 43.8397 46.9286 42.9069 47.8615C 41.9744 48.794 41.9744 50.3059 42.9069 51.2384ZM 26.8031 51.2384L 33.5651 58.0003L 26.8031 64.7623C 25.8706 65.6948 25.8706 67.2067 26.8031 68.1392C 27.736 69.072 29.2485 69.0716 30.1809 68.1383L 38.6223 59.6884C 39.5539 58.7558 39.5539 57.2449 38.6223 56.3123L 30.1809 47.8623C 29.2485 46.929 27.736 46.9286 26.8031 47.8615C 25.8706 48.794 25.8706 50.3059 26.8031 51.2384ZM 10.6994 51.2381L 17.4613 58.0001L 10.6994 64.7621C 9.7669 65.6946 9.7669 67.2064 10.6994 68.1389C 11.6322 69.0718 13.1448 69.0714 14.0771 68.1381L 22.5185 59.6881C 23.4501 58.7556 23.4501 57.2446 22.5185 56.3121L 14.0771 47.8621C 13.1448 46.9288 11.6322 46.9284 10.6994 47.8612C 9.7669 48.7937 9.7669 50.3056 10.6994 51.2381ZM 71.9499 68.5775C 66.1079 68.5775 61.3721 63.8417 61.3721 57.9997C 61.3721 52.1577 66.1079 47.4219 71.9499 47.4219C 77.7919 47.4219 82.5277 52.1577 82.5277 57.9997C 82.5277 63.8417 77.7919 68.5775 71.9499 68.5775Z"></path></g></g></g><g id="g-root-cp_4_g-4_1q87igsqyuuiy-stroke" data-item-order="-570312" transform="translate(696, 338)"><g id="cp_4_g-4_1q87igsqyuuiy-stroke" fill="none" stroke-linecap="round" stroke-linejoin="round" stroke-miterlimit="4" stroke="#d3d3d3" stroke-width="2"><g><path d="M 149.5019 13.1012C 145.3708 8.9678 138.669 8.9661 134.5357 13.0974C 130.404 17.2272 130.404 23.923 134.5357 28.0529L 153.914 47.4222L 99.5827 47.4222C 93.738 47.4222 89 52.1581 89 58.0001C 89 63.842 93.738 68.5779 99.5827 68.5779L 153.9139 68.5779L 134.5357 87.9471C 130.404 92.077 130.404 98.7728 134.5357 102.9026C 138.669 107.0339 145.3708 107.0322 149.502 102.8988L 186.9042 65.4758C 191.0319 61.3458 191.0319 54.6542 186.9042 50.5242L 149.5019 13.1012ZM 42.9069 51.2384L 49.6689 58.0003L 42.9069 64.7623C 41.9744 65.6948 41.9744 67.2067 42.9069 68.1392C 43.8397 69.072 45.3523 69.0716 46.2847 68.1383L 54.726 59.6884C 55.6576 58.7558 55.6576 57.2449 54.726 56.3123L 46.2847 47.8623C 45.3523 46.929 43.8397 46.9286 42.9069 47.8615C 41.9744 48.794 41.9744 50.3059 42.9069 51.2384ZM 26.8031 51.2384L 33.5651 58.0003L 26.8031 64.7623C 25.8706 65.6948 25.8706 67.2067 26.8031 68.1392C 27.736 69.072 29.2485 69.0716 30.1809 68.1383L 38.6223 59.6884C 39.5539 58.7558 39.5539 57.2449 38.6223 56.3123L 30.1809 47.8623C 29.2485 46.929 27.736 46.9286 26.8031 47.8615C 25.8706 48.794 25.8706 50.3059 26.8031 51.2384ZM 10.6994 51.2381L 17.4613 58.0001L 10.6994 64.7621C 9.7669 65.6946 9.7669 67.2064 10.6994 68.1389C 11.6322 69.0718 13.1448 69.0714 14.0771 68.1381L 22.5185 59.6881C 23.4501 58.7556 23.4501 57.2446 22.5185 56.3121L 14.0771 47.8621C 13.1448 46.9288 11.6322 46.9284 10.6994 47.8612C 9.7669 48.7937 9.7669 50.3056 10.6994 51.2381ZM 71.9499 68.5775C 66.1079 68.5775 61.3721 63.8417 61.3721 57.9997C 61.3721 52.1577 66.1079 47.4219 71.9499 47.4219C 77.7919 47.4219 82.5277 52.1577 82.5277 57.9997C 82.5277 63.8417 77.7919 68.5775 71.9499 68.5775Z"></path></g></g></g><g id="g-root-tx_phoenixr_1lse0ccqyuvb8-stroke" data-item-order="0" transform="translate(270, 38)"></g><g id="g-root-tx_checkdai_18gxhz0qyuww5-stroke" data-item-order="0" transform="translate(86, 134)"></g><g id="g-root-tx_triggerp_1lrrj98qz8xzi-stroke" data-item-order="0" transform="translate(512, 158)"></g><g id="g-root-tx_verifyth_18gxhz0qyuww6-stroke" data-item-order="0" transform="translate(92, 218)"></g><g id="g-root-ic_conv_zlwyt8qyuuj3-stroke" data-item-order="0" transform="translate(320, 218)"><g id="ic_conv_zlwyt8qyuuj3-stroke" fill="none" stroke-linecap="round" stroke-linejoin="round" stroke-miterlimit="4" stroke="#f4f4f4" stroke-width="2"><g><path d="M 48.75 46.875C 49.095177 46.875 49.375 47.154823 49.375 47.5M 48.125 47.5C 48.125 47.154823 48.404823 46.875 48.75 46.875M 48.75 48.125C 48.404823 48.125 48.125 47.845177 48.125 47.5M 49.375 47.5C 49.375 47.845177 49.095177 48.125 48.75 48.125M 45 18.75L 53.75 18.75C 59.272846 18.75 63.75 23.227154 63.75 28.75L 63.75 36.25M 50 23.75L 45 18.75L 50 13.75M 33.75 61.25L 26.25 61.25C 20.727154 61.25 16.25 56.772846 16.25 51.25L 16.25 43.75M 28.75 56.25L 33.75 61.25L 28.75 66.25M 53.75 61.25L 53.75 51.25C 53.75 49.869286 54.869289 48.75 56.25 48.75L 58.75 48.75M 53.75 56.25L 57.5 56.25M 20 20.625C 20.345177 20.625 20.625 20.904823 20.625 21.25M 19.375 21.25C 19.375 20.904823 19.654821 20.625 20 20.625M 20 21.875C 19.654821 21.875 19.375 21.595177 19.375 21.25M 20.625 21.25C 20.625 21.595177 20.345177 21.875 20 21.875M 28.75 21.25C 25.988577 21.25 23.75 23.488577 23.75 26.25L 23.75 28.75C 23.75 31.511423 25.988577 33.75 28.75 33.75M 11.25 26.25C 11.25 34.534271 17.965729 41.25 26.25 41.25C 34.534271 41.25 41.25 34.534271 41.25 26.25C 41.25 17.965729 34.534271 11.25 26.25 11.25C 17.965729 11.25 11.25 17.965729 11.25 26.25ZM 38.75 53.75C 38.750004 62.034271 45.465729 68.75 53.75 68.75C 62.034271 68.75 68.75 62.034271 68.75 53.75C 68.75 45.465729 62.034271 38.750004 53.75 38.750004C 45.465729 38.750004 38.750004 45.465729 38.750004 53.75Z"></path></g></g></g><g id="g-root-ic_valu_qpnhh8qz8yrx-stroke" data-item-order="0" transform="translate(728, 218)"><g id="ic_valu_qpnhh8qz8yrx-stroke" fill="none" stroke-linecap="round" stroke-linejoin="round" stroke-miterlimit="4" stroke="#f4f4f4" stroke-width="2"><g><path d="M 68.107498 68.125L 11.875 68.125L 11.875 11.875M 20.9375 68.125L 20.9375 29.043625L 29.417425 50L 49.53125 20L 49.53125 66.875M 29.53125 68.125L 29.53125 16.25L 41.796501 47.96875L 57.005249 42.5L 59.622002 31.25L 68.108002 20L 68.108002 66.875"></path></g></g></g><g id="g-root-tx_initiate_1cwr03gqz8we8-stroke" data-item-order="0" transform="translate(482, 242)"></g><g id="g-root-ic_bala_mfg94sqzd3wt-stroke" data-item-order="0" transform="translate(116, 494)"><g id="ic_bala_mfg94sqzd3wt-stroke" fill="none" stroke-linecap="round" stroke-linejoin="round" stroke-miterlimit="4" stroke="#F8E6B8" stroke-width="2"><g><path d="M 29.375 46.375C 29.375 47.875 28.375 48.875 26.875 48.875L 14.375 48.875C 12.875 48.875 11.875 47.875 11.875 46.375L 11.875 33.875126C 11.875 32.375126 12.875 31.375124 14.375 31.375124L 26.875 31.375124C 28.375 31.375124 29.375 32.375126 29.375 33.875126L 29.375 46.375ZM 68.125 44.375C 68.125 45.875 67.125 46.875 65.625 46.875L 56.875 46.875C 55.375 46.875 54.375 45.875 54.375 44.375L 54.375 35.625C 54.375 34.125 55.375 33.125 56.875 33.125L 65.625 33.125C 67.125 33.125 68.125 34.125 68.125 35.625L 68.125 44.375ZM 68.125 23.125C 68.125 24.625 67.125 25.625 65.625 25.625L 56.875 25.625C 55.375 25.625 54.375 24.625 54.375 23.125L 54.375 14.375C 54.375 12.875 55.375 11.875 56.875 11.875L 65.625 11.875C 67.125 11.875 68.125 12.875 68.125 14.375L 68.125 23.125ZM 68.125 65.625C 68.125 67.125 67.125 68.125 65.625 68.125L 56.875 68.125C 55.375 68.125 54.375 67.125 54.375 65.625L 54.375 56.875C 54.375 55.375 55.375 54.375 56.875 54.375L 65.625 54.375C 67.125 54.375 68.125 55.375 68.125 56.875L 68.125 65.625ZM 28.096001 31.640625L 46.625 19.375M 10 10M 29.375 40.125L 46.875 40.125M 10 10M 41.375 34.375L 46.875 40.125L 41.375 45.625M 10 10M 39.125 17.625126L 46.875 19.375126L 45.125 27.125099M 10 10M 28.096001 48.609001L 46.625 60.874748M 10 10M 39.125 62.625L 46.875 60.875L 45.125 53.125"></path></g></g></g><g id="g-root-tx_comparew_1hlq4qz0hze-stroke" data-item-order="0" transform="translate(278, 494)"></g><g id="g-root-ic_warn_1hby4akqz0gzp-stroke" data-item-order="0" transform="translate(524, 494)"><g id="ic_warn_1hby4akqz0gzp-stroke" fill="none" stroke-linecap="round" stroke-linejoin="round" stroke-miterlimit="4" stroke="#f4f4f4" stroke-width="2"><g><path d="M 52.1875 62.5C 51.669735 62.5 51.25 62.080269 51.25 61.5625C 51.25 61.044735 51.669735 60.625 52.1875 60.625M 52.1875 62.5C 52.705269 62.5 53.125 62.080269 53.125 61.5625C 53.125 61.044735 52.705269 60.625 52.1875 60.625M 52.1875 55L 52.1875 47.5M 66.720001 61.7075C 67.405724 63.082848 67.331009 64.715088 66.522507 66.022034C 65.713989 67.328987 64.286812 68.124557 62.75 68.125L 41.619999 68.125C 40.08363 68.123695 38.657249 67.327774 37.849342 66.020973C 37.041439 64.714172 36.966976 63.082451 37.6525 61.7075L 48.217499 40.580002C 48.967152 39.075092 50.503712 38.123859 52.185001 38.123859C 53.866291 38.123859 55.402851 39.075092 56.1525 40.580002L 66.717499 61.7075ZM 42.970001 38.945C 40.504997 36.119999 37.1875 34.195 33.564999 33.010002C 36.838192 36.913921 37.330185 42.444603 34.797501 46.865002C 32.526237 47.040161 30.507267 45.426517 30.1775 43.172501C 26.832062 45.001968 24.850636 48.605007 25.0975 52.409996C 25.096676 56.178169 27.010141 59.688698 30.1775 61.73M 59.545002 33.9575C 58.889473 30.877304 57.624683 27.959272 55.825001 25.375L 55 25.375L 49.077499 32.774998C 46.833824 25.936424 47.121281 18.519415 49.887501 11.875C 39.403164 12.406954 29.95031 18.354052 24.932501 27.575001L 19.5625 22.3375C 14.814865 27.182983 12.379219 33.835514 12.875796 40.601028C 13.372375 47.366539 16.753254 53.592144 22.157499 57.692497C 24.195 59.2425 26.035 60.4375 28.4375 61.25C 29.220001 61.510002 31.029999 62.0625 32.032501 62.1875"></path></g></g></g><g id="g-root-tx_systemmo_1lwri9oqz1xc0-stroke" data-item-order="0" transform="translate(704, 494)"></g><g id="g-root-tx_comparet_1lr55bwqz0jd8-stroke" data-item-order="0" transform="translate(296, 578)"></g><g id="g-root-tx_monitort_18lxgzgqz1vr6-stroke" data-item-order="0" transform="translate(686, 578)"></g></g></g></svg>