<?xml version="1.0" encoding="utf-8" standalone="yes"?>
<!DOCTYPE svg PUBLIC "-//W3C//DTD SVG 1.1//EN" "http://www.w3.org/Graphics/SVG/1.1/DTD/svg11.dtd">
<svg width="636" height="594" viewBox="0 0 636 594" style="fill:none;stroke:none;fill-rule:evenodd;clip-rule:evenodd;stroke-linecap:round;stroke-linejoin:round;stroke-miterlimit:1.5;" version="1.1" xmlns="http://www.w3.org/2000/svg" xmlns:xlink="http://www.w3.org/1999/xlink"><style class="text-font-style fontImports" data-font-family="Roboto">@import url('https://fonts.googleapis.com/css2?family=Roboto:wght@400;700&amp;display=block');</style><g id="items" style="isolation: isolate"><g id="blend" style="mix-blend-mode: normal"><g id="g-root-sy_-1_cu_qp1z58rsv28a-fill" data-item-order="-120245" transform="translate(182.46536254882812, 116)"></g><g id="g-root-sy_0_cu_Vector_m98h0srsv30j-fill" data-item-order="-120242" transform="translate(284, 224)"><g id="sy_0_cu_Vector_m98h0srsv30j-fill" stroke="none" fill="#6b6b6b"><g><path d="M 102.3346 39.636C 112.4768 64.1213 100.8493 92.1925 76.364 102.3346C 51.8787 112.4768 23.8075 100.8493 13.6654 76.364C 3.5232 51.8787 15.1507 23.8075 39.636 13.6654C 64.1213 3.5232 92.1925 15.1507 102.3346 39.636Z"></path></g></g></g><g id="g-root-sy_5_cu_Vector_8yefqkrsv1fo-fill" data-item-order="-120238" transform="translate(218, 122)"><g id="sy_5_cu_Vector_8yefqkrsv1fo-fill" stroke="none" fill="#6b6b6b"><g><path d="M 24.818015 56.167308C 12.575315 51.096208 6.761615 37.060708 11.832715 24.818008C 16.903815 12.575308 30.939315 6.761608 43.182015 11.832708C 55.424715 16.903808 61.238415 30.939308 56.167315 43.182008C 51.096215 55.424708 37.060715 61.238408 24.818015 56.167308Z"></path></g></g></g><g id="g-root-sy_4_cu_Vector_2rfhorsv28d-fill" data-item-order="-120234" transform="translate(158, 296)"><g id="sy_4_cu_Vector_2rfhorsv28d-fill" stroke="none" fill="#6b6b6b"><g><path d="M 43.182 56.1673C 30.9393 61.2384 16.9038 55.4247 11.8327 43.182C 6.7616 30.9393 12.5753 16.9038 24.818 11.8327C 37.0607 6.7616 51.0962 12.5753 56.1673 24.818C 61.2384 37.0607 55.4247 51.0962 43.182 56.1673Z"></path></g></g></g><g id="g-root-sy_3_cu_Vector_1uo1zccrsv2ti-fill" data-item-order="-120230" transform="translate(308, 404)"><g id="sy_3_cu_Vector_1uo1zccrsv2ti-fill" stroke="none" fill="#6b6b6b"><g><path d="M 56.1673 43.182C 51.0962 55.4247 37.0607 61.2384 24.818 56.1673C 12.5753 51.0962 6.7616 37.0607 11.8327 24.818C 16.9038 12.5753 30.9393 6.7616 43.182 11.8327C 55.4247 16.9038 61.2384 30.9393 56.1673 43.182Z"></path></g></g></g><g id="g-root-sy_2_cu_Vector_1lsez3grsv3m7-fill" data-item-order="-120226" transform="translate(458, 296)"><g id="sy_2_cu_Vector_1lsez3grsv3m7-fill" stroke="none" fill="#6b6b6b"><g><path d="M 56.1673 24.818C 61.2384 37.0607 55.4247 51.0962 43.182 56.1673C 30.9393 61.2384 16.9038 55.4247 11.8327 43.182C 6.7616 30.9393 12.5753 16.9038 24.818 11.8327C 37.0607 6.7616 51.0962 12.5753 56.1673 24.818Z"></path></g></g></g><g id="g-root-sy_1_cu_Vector_1hd7y24rsv18o-fill" data-item-order="-120222" transform="translate(398, 122)"><g id="sy_1_cu_Vector_1hd7y24rsv18o-fill" stroke="none" fill="#E5A000"><g><path d="M 24.818 56.167308C 12.5753 51.096208 6.7616 37.060708 11.8327 24.818008C 16.9038 12.575308 30.9393 6.761608 43.182 11.832708C 55.4247 16.903808 61.2384 30.939308 56.1673 43.182008C 51.0962 55.424708 37.0607 61.238408 24.818 56.167308Z"></path></g></g></g><g id="g-root-tx_phoenixr_254q4rsqvil-fill" data-item-order="0" transform="translate(116, 38)"><g id="tx_phoenixr_254q4rsqvil-fill" stroke="none" fill="#f4f4f4"><g><text style="font: bold 25px Roboto, sans-serif; white-space: pre;" font-weight="bold" font-size="25px" font-family="Roboto, sans-serif"><tspan x="12.59" y="43" dominant-baseline="ideographic">Phoenix Restart Mechanism Overview</tspan></text></g></g></g><g id="g-root-tx_designel_djuassrtbyfg-fill" data-item-order="0" transform="translate(110, 122)"><g id="tx_designel_djuassrtbyfg-fill" stroke="none" fill="#f4f4f4"><g><text style="font: 20px Roboto, sans-serif; white-space: pre;" font-size="20px" font-family="Roboto, sans-serif"><tspan x="42.81" y="33.63" dominant-baseline="ideographic">Design </tspan><tspan x="21.1" y="57.64" dominant-baseline="ideographic">Elements</tspan></text></g></g></g><g id="g-root-ic_ui_1cxefxorsv20x-fill" data-item-order="0" transform="translate(230, 134)"></g><g id="g-root-ic_capi_v8mey4rt4v7r-fill" data-item-order="0" transform="translate(410, 134)"></g><g id="g-root-tx_visualel_14809portbxfw-fill" data-item-order="0" transform="translate(458, 134)"><g id="tx_visualel_14809portbxfw-fill" stroke="none" fill="#F8E6B8"><g><text style="font: 20px Roboto, sans-serif; white-space: pre;" font-size="20px" font-family="Roboto, sans-serif"><tspan x="12" y="33.64" dominant-baseline="ideographic">Visual Element</tspan></text></g></g></g><g id="g-root-ic_refr_8yeiwcrt6bd4-fill" data-item-order="0" transform="translate(308, 248)"></g><g id="g-root-tx_colorsch_909ikrtbwum-fill" data-item-order="0" transform="translate(14, 308)"><g id="tx_colorsch_909ikrtbwum-fill" stroke="none" fill="#f4f4f4"><g><text style="font: 20px Roboto, sans-serif; white-space: pre;" font-size="20px" font-family="Roboto, sans-serif"><tspan x="15.45" y="33.64" dominant-baseline="ideographic">Color Scheme</tspan></text></g></g></g><g id="g-root-ic_pale_qqxeekrtahvy-fill" data-item-order="0" transform="translate(170, 308)"></g><g id="g-root-ic_ttf_4nktgsrt3ifd-fill" data-item-order="0" transform="translate(470, 308)"></g><g id="g-root-tx_title_1hiuazwrtbz0q-fill" data-item-order="0" transform="translate(518, 308)"><g id="tx_title_1hiuazwrtbz0q-fill" stroke="none" fill="#f4f4f4"><g><text style="font: 20px Roboto, sans-serif; white-space: pre;" font-size="20px" font-family="Roboto, sans-serif"><tspan x="12" y="33.64" dominant-baseline="ideographic">Title</tspan></text></g></g></g><g id="g-root-ic_logo_zpov8srt0q2r-fill" data-item-order="0" transform="translate(320, 416)"></g><g id="g-root-tx_identifi_1qehb8srtby80-fill" data-item-order="0" transform="translate(290, 512)"><g id="tx_identifi_1qehb8srtby80-fill" stroke="none" fill="#f4f4f4"><g><text style="font: 20px Roboto, sans-serif; white-space: pre;" font-size="20px" font-family="Roboto, sans-serif"><tspan x="12.87" y="33.64" dominant-baseline="ideographic">Identifier</tspan></text></g></g></g><g id="g-root-sy_-1_cu_qp1z58rsv28a-stroke" data-item-order="-120245" transform="translate(182.46536254882812, 116)"><g id="sy_-1_cu_qp1z58rsv28a-stroke" fill="none" stroke-linecap="round" stroke-linejoin="round" stroke-miterlimit="4" stroke="#f4f4f4" stroke-width="2" stroke-dasharray="5.0, 7.0"><g><path d="M 137.923537 311.5745C 115.465137 289.0213 99.534637 232.3476 99.534637 166C 99.534637 79.8436 126.397537 10 159.534637 10C 192.671737 10 219.534637 79.8436 219.534637 166C 219.534637 232.3479 203.604037 289.0218 181.145437 311.5748M 225.900953 35.829345C 194.525853 41.893445 149.287353 78.025745 110.993153 130.733245C 60.351653 200.435245 41.031153 272.729545 67.839653 292.207045C 94.648153 311.684545 157.433653 270.969545 208.075153 201.267545C 247.371953 147.180145 267.808953 91.531745 262.467053 60.212545M 56.601729 60.214569C 51.261429 91.534269 71.698329 147.181069 110.994129 201.266969C 161.635529 270.968969 224.421129 311.684069 251.229629 292.206569C 278.038029 272.729069 258.717629 200.434769 208.076129 130.732769C 169.780929 78.023969 124.541229 41.891069 93.166029 35.828369M 26.563904 230.91132C 54.471004 245.99272 114.072704 243.85972 178.075304 223.06402C 260.015004 196.44022 318.139104 149.30922 307.899104 117.79392C 297.659204 86.27872 222.932904 82.31342 140.993304 108.93722C 77.844904 129.45532 28.841304 162.15332 14.373504 190.49692M 304.694569 190.494976C 290.225669 162.151876 241.222769 129.454676 178.075569 108.936976C 96.135969 82.313176 21.409669 86.278476 11.169769 117.793676C 0.929869 149.308976 59.053869 196.439976 140.993569 223.063776C 204.996069 243.859476 264.597669 245.992476 292.504869 230.911176"></path></g></g></g><g id="g-root-sy_0_cu_Vector_m98h0srsv30j-stroke" data-item-order="-120242" transform="translate(284, 224)"><g id="sy_0_cu_Vector_m98h0srsv30j-stroke" fill="none" stroke-linecap="round" stroke-linejoin="round" stroke-miterlimit="4" stroke="#d3d3d3" stroke-width="2"><g><path d="M 102.3346 39.636C 112.4768 64.1213 100.8493 92.1925 76.364 102.3346C 51.8787 112.4768 23.8075 100.8493 13.6654 76.364C 3.5232 51.8787 15.1507 23.8075 39.636 13.6654C 64.1213 3.5232 92.1925 15.1507 102.3346 39.636Z"></path></g></g></g><g id="g-root-sy_5_cu_Vector_8yefqkrsv1fo-stroke" data-item-order="-120238" transform="translate(218, 122)"><g id="sy_5_cu_Vector_8yefqkrsv1fo-stroke" fill="none" stroke-linecap="round" stroke-linejoin="round" stroke-miterlimit="4" stroke="#d3d3d3" stroke-width="2"><g><path d="M 24.818015 56.167308C 12.575315 51.096208 6.761615 37.060708 11.832715 24.818008C 16.903815 12.575308 30.939315 6.761608 43.182015 11.832708C 55.424715 16.903808 61.238415 30.939308 56.167315 43.182008C 51.096215 55.424708 37.060715 61.238408 24.818015 56.167308Z"></path></g></g></g><g id="g-root-sy_4_cu_Vector_2rfhorsv28d-stroke" data-item-order="-120234" transform="translate(158, 296)"><g id="sy_4_cu_Vector_2rfhorsv28d-stroke" fill="none" stroke-linecap="round" stroke-linejoin="round" stroke-miterlimit="4" stroke="#d3d3d3" stroke-width="2"><g><path d="M 43.182 56.1673C 30.9393 61.2384 16.9038 55.4247 11.8327 43.182C 6.7616 30.9393 12.5753 16.9038 24.818 11.8327C 37.0607 6.7616 51.0962 12.5753 56.1673 24.818C 61.2384 37.0607 55.4247 51.0962 43.182 56.1673Z"></path></g></g></g><g id="g-root-sy_3_cu_Vector_1uo1zccrsv2ti-stroke" data-item-order="-120230" transform="translate(308, 404)"><g id="sy_3_cu_Vector_1uo1zccrsv2ti-stroke" fill="none" stroke-linecap="round" stroke-linejoin="round" stroke-miterlimit="4" stroke="#d3d3d3" stroke-width="2"><g><path d="M 56.1673 43.182C 51.0962 55.4247 37.0607 61.2384 24.818 56.1673C 12.5753 51.0962 6.7616 37.0607 11.8327 24.818C 16.9038 12.5753 30.9393 6.7616 43.182 11.8327C 55.4247 16.9038 61.2384 30.9393 56.1673 43.182Z"></path></g></g></g><g id="g-root-sy_2_cu_Vector_1lsez3grsv3m7-stroke" data-item-order="-120226" transform="translate(458, 296)"><g id="sy_2_cu_Vector_1lsez3grsv3m7-stroke" fill="none" stroke-linecap="round" stroke-linejoin="round" stroke-miterlimit="4" stroke="#d3d3d3" stroke-width="2"><g><path d="M 56.1673 24.818C 61.2384 37.0607 55.4247 51.0962 43.182 56.1673C 30.9393 61.2384 16.9038 55.4247 11.8327 43.182C 6.7616 30.9393 12.5753 16.9038 24.818 11.8327C 37.0607 6.7616 51.0962 12.5753 56.1673 24.818Z"></path></g></g></g><g id="g-root-sy_1_cu_Vector_1hd7y24rsv18o-stroke" data-item-order="-120222" transform="translate(398, 122)"><g id="sy_1_cu_Vector_1hd7y24rsv18o-stroke" fill="none" stroke-linecap="round" stroke-linejoin="round" stroke-miterlimit="4" stroke="#F8E6B8" stroke-width="2"><g><path d="M 24.818 56.167308C 12.5753 51.096208 6.7616 37.060708 11.8327 24.818008C 16.9038 12.575308 30.9393 6.761608 43.182 11.832708C 55.4247 16.903808 61.2384 30.939308 56.1673 43.182008C 51.0962 55.424708 37.0607 61.238408 24.818 56.167308Z"></path></g></g></g><g id="g-root-tx_phoenixr_254q4rsqvil-stroke" data-item-order="0" transform="translate(116, 38)"></g><g id="g-root-tx_designel_djuassrtbyfg-stroke" data-item-order="0" transform="translate(110, 122)"></g><g id="g-root-ic_ui_1cxefxorsv20x-stroke" data-item-order="0" transform="translate(230, 134)"><g id="ic_ui_1cxefxorsv20x-stroke" fill="none" stroke-linecap="round" stroke-linejoin="round" stroke-miterlimit="4" stroke="#d3d3d3" stroke-width="2"><g><path d="M 19.06 24.33L 19.06 27.83L 25.03 31.27L 25.03 27.77L 19.06 24.33ZM 30.43 18.35L 30.43 14.85L 33.469999 13.1L 33.469999 16.6L 30.43 18.35ZM 25.03 27.77L 30.43 24.65L 30.43 21.85L 33.469999 20.1L 33.469999 26.4L 25.03 31.27M 19.06 24.32L 24.55 21.15L 24.55 17.97L 19.06 21.15L 13.56 17.97L 13.56 17.97L 13.56 24.66L 10.53 22.91L 10.53 12.73L 10.53 12.73L 19.06 17.65L 27.58 12.73L 27.58 22.91L 24.55 24.66L 22.09 26.08L 27.58 22.91M 19.06 17.65L 19.06 21.15"></path></g></g></g><g id="g-root-ic_capi_v8mey4rt4v7r-stroke" data-item-order="0" transform="translate(410, 134)"><g id="ic_capi_v8mey4rt4v7r-stroke" fill="none" stroke-linecap="round" stroke-linejoin="round" stroke-miterlimit="4" stroke="#F8E6B8" stroke-width="2"><g><path d="M 13.42572 32.2892L 19.74286 13.33779C 20.0667 12.36625 20.9759 11.71094 22 11.71094L 22 11.71094C 23.0241 11.71094 23.9333 12.36625 24.2571 13.33779L 30.5743 32.2892M 15.7122 25.4298L 28.2878 25.4298"></path></g></g></g><g id="g-root-tx_visualel_14809portbxfw-stroke" data-item-order="0" transform="translate(458, 134)"></g><g id="g-root-ic_refr_8yeiwcrt6bd4-stroke" data-item-order="0" transform="translate(308, 248)"><g id="ic_refr_8yeiwcrt6bd4-stroke" fill="none" stroke-linecap="round" stroke-linejoin="round" stroke-miterlimit="4" stroke="#d3d3d3" stroke-width="2"><g><path d="M 10 10M 25 57L 26 45L 31 45L 31 38C 31 32.477154 26.522848 28 21 28C 15.477153 28 11 32.477154 11 38L 11 45L 16 45L 17 57ZM 14 18C 14 21.865993 17.134007 25 21 25C 24.865993 25 28 21.865993 28 18C 28 14.134007 24.865993 11 21 11C 17.134007 11 14 14.134007 14 18M 44.880001 30.74C 41.895973 27.910765 37.4842 27.19663 33.760002 28.940001M 32 19C 32 22.313709 34.686295 25 38 25C 41.313709 25 44 22.313709 44 19C 44 15.686292 41.313709 13 38 13C 34.686295 13 32 15.686292 32 19M 10 10M 49.82 43.400002L 54.779999 45.619999L 57 40.620003M 37.200001 43.599998C 38.580208 39.579678 42.569798 37.059418 46.793201 37.539894C 51.016602 38.020374 54.338131 41.372391 54.780003 45.600002M 10 10M 42.18 51.080002L 37.220001 48.860001L 35 53.860001M 54.799999 50.880001C 53.419796 54.900326 49.430206 57.420586 45.206806 56.940109C 40.983406 56.459629 37.661873 53.107616 37.220001 48.880001"></path></g></g></g><g id="g-root-tx_colorsch_909ikrtbwum-stroke" data-item-order="0" transform="translate(14, 308)"></g><g id="g-root-ic_pale_qqxeekrtahvy-stroke" data-item-order="0" transform="translate(170, 308)"><g id="ic_pale_qqxeekrtahvy-stroke" fill="none" stroke-linecap="round" stroke-linejoin="round" stroke-miterlimit="4" stroke="#d3d3d3" stroke-width="2"><g><path d="M 14.5 18C 14.500001 22.142136 17.857865 25.5 22.000001 25.5C 26.142136 25.5 29.500001 22.142136 29.500001 18C 29.500001 13.857865 26.142136 10.5 22.000001 10.5C 17.857865 10.5 14.500001 13.857865 14.500001 18ZM 10.5 26C 10.5 30.142136 13.857865 33.500001 18 33.500001C 22.142136 33.500001 25.5 30.142136 25.5 26.000001C 25.5 21.857865 22.142136 18.500001 18 18.500001C 13.857865 18.500001 10.5 21.857865 10.5 26.000001ZM 18.5 26C 18.500001 30.142136 21.857865 33.500001 26.000001 33.500001C 30.142136 33.500001 33.500001 30.142136 33.500001 26.000001C 33.500001 21.857865 30.142136 18.500001 26.000001 18.500001C 21.857865 18.500001 18.500001 21.857865 18.500001 26.000001Z"></path></g></g></g><g id="g-root-ic_ttf_4nktgsrt3ifd-stroke" data-item-order="0" transform="translate(470, 308)"><g id="ic_ttf_4nktgsrt3ifd-stroke" fill="none" stroke-linecap="round" stroke-linejoin="round" stroke-miterlimit="4" stroke="#d3d3d3" stroke-width="2"><g><path d="M 11.5 15L 32.5 15C 32.5 15 33.5 15 33.5 16L 33.5 28C 33.5 28 33.5 29 32.5 29L 11.5 29C 11.5 29 10.5 29 10.5 28L 10.5 16C 10.5 16 10.5 15 11.5 15M 14.5 19L 18.5 19M 16.5 19L 16.5 25M 20.5 19L 24.5 19M 22.5 19L 22.5 25M 26.5 25L 26.5 20C 26.5 19.447715 26.947715 19 27.5 19L 29.5 19M 26.5 22L 28.5 22"></path></g></g></g><g id="g-root-tx_title_1hiuazwrtbz0q-stroke" data-item-order="0" transform="translate(518, 308)"></g><g id="g-root-ic_logo_zpov8srt0q2r-stroke" data-item-order="0" transform="translate(320, 416)"><g id="ic_logo_zpov8srt0q2r-stroke" fill="none" stroke-linecap="round" stroke-linejoin="round" stroke-miterlimit="4" stroke="#d3d3d3" stroke-width="2"><g><path d="M 16.09473 20.7187C 16.8173 19.08204 18.20234 17.84073 20.1595 17.24829M 10 10M 18.98975 17.6875L 18.98975 26.2865C 20.1282 26.8541 21.1584 27.2442 22.6535 27.3899C 23.6282 26.8585 24.4669 26.0844 24.8745 25.5938M 26.1046 17.34302C 25.8119 17.59906 25.1385 18.33611 24.7871 19.23594L 24.7871 25.4932L 25.8704 26.618C 26.3974 26.4168 27.2728 25.8815 27.9051 25.0634M 11.196 22C 11.194669 27.967825 16.032174 32.806408 22 32.806408C 27.967825 32.806408 32.80533 27.967825 32.803999 22C 32.80533 16.032175 27.967825 11.193591 22 11.193591C 16.032174 11.193591 11.194669 16.032175 11.196 22M 19.11017 26.3504C 18.56568 26.0937 17.97592 25.6875 17.74902 25.5164M 24.7868 19.89048C 24.7868 18.91312 24.1412 18.20317 23.7632 18.07666"></path></g></g></g><g id="g-root-tx_identifi_1qehb8srtby80-stroke" data-item-order="0" transform="translate(290, 512)"></g></g></g></svg>