<?xml version="1.0" encoding="utf-8" standalone="yes"?>
<!DOCTYPE svg PUBLIC "-//W3C//DTD SVG 1.1//EN" "http://www.w3.org/Graphics/SVG/1.1/DTD/svg11.dtd">
<svg width="1032" height="913" viewBox="0 0 1032 913" style="fill:none;stroke:none;fill-rule:evenodd;clip-rule:evenodd;stroke-linecap:round;stroke-linejoin:round;stroke-miterlimit:1.5;" version="1.1" xmlns="http://www.w3.org/2000/svg" xmlns:xlink="http://www.w3.org/1999/xlink"><style class="text-font-style fontImports" data-font-family="Roboto">@import url('https://fonts.googleapis.com/css2?family=Roboto:wght@400;700&amp;display=block');</style><g id="items" style="isolation: isolate"><g id="blend" style="mix-blend-mode: normal"><g id="g-root-cp_6_g-6_1hfp54csx7gg1-fill" data-item-order="-802940" transform="translate(290, 122.001953125)"><g id="cp_6_g-6_1hfp54csx7gg1-fill" stroke="none" fill="#6b6b6b"><g><path d="M 10.000003 250L 10 289.429L 70 238L 130 289.429L 130 250C 130 205.268 160.595 167.681 202 157.024L 202 178L 274 94L 202 10L 202 35.3182C 94.0012 47.2569 10.000013 138.819 10.000003 250Z"></path></g></g></g><g id="g-root-cp_5_g-5_1hfp54csx7gg3-fill" data-item-order="-802936" transform="translate(266, 350)"><g id="cp_5_g-5_1hfp54csx7gg3-fill" stroke="none" fill="#6b6b6b"><g><path d="M 34 61.4286L 10 82L 34 82L 34 253.429L 94 202L 154 253.429L 154 82L 178 82L 154 61.4286L 94 10L 34 61.4286Z"></path></g></g></g><g id="g-root-cp_4_g-4_18k24vgsx7h8t-fill" data-item-order="-802932" transform="translate(266, 542.193359375)"><g id="cp_4_g-4_18k24vgsx7h8t-fill" stroke="none" fill="#6b6b6b"><g><path d="M 202 226L 253.482 165.938C 252.326 165.979 251.166 166 250 166C 201.045 166 160.648 129.356 154.743 82L 178 82L 154 61.4286L 94 10L 34 61.4286L 10 82L 34.3277 82C 40.5542 195.712 134.733 286 250 286C 251.137 286 252.273 285.991 253.406 285.974L 202 226Z"></path></g></g></g><g id="g-root-cp_3_g-3_18k24vgsx7h8v-fill" data-item-order="-802928" transform="translate(458, 562.765625)"><g id="cp_3_g-3_18k24vgsx7h8v-fill" stroke="none" fill="#6b6b6b"><g><path d="M 274 49.4286L 274 10L 214 61.4286L 154 10L 154 49.4286C 154 94.1608 123.405 131.747 82 142.404L 82 121.429L 61.4816 145.367L 10 205.429L 61.406 265.402L 82 289.429L 82 264.11C 189.999 252.172 274 160.61 274 49.4286Z"></path></g></g></g><g id="g-root-cp_2_g-2_1448mr0sx7i15-fill" data-item-order="-802924" transform="translate(578, 369.3359375)"><g id="cp_2_g-2_1448mr0sx7i15-fill" stroke="none" fill="#6b6b6b"><g><path d="M 94 62.6638L 32.5589 10C 33.5061 15.4122 34 20.9803 34 26.6638L 34 182.664L 10 182.664L 34 203.235L 94 254.664L 154 203.235L 178 182.664L 154 182.664L 154 26.6638C 154 21.6251 153.827 16.6267 153.488 11.6741L 94 62.6638Z"></path></g></g></g><g id="g-root-cp_1_g-1_1448mr0sx7i17-fill" data-item-order="-802920" transform="translate(502.51800537109375, 146)"><g id="cp_1_g-1_1448mr0sx7i17-fill" stroke="none" fill="#E5A000"><g><path d="M 61.4816 70L 10 130.062C 11.1555 130.021 12.3161 130 13.4816 130C 62.4371 130 102.8338 166.644 108.7389 214L 85.4816 214L 169.482 286L 253.482 214L 229.154 214C 222.927 100.2881 128.748 10.00001 13.4816 10C 12.3442 10 11.2089 10.0089 10.0756 10.0264L 61.4816 70Z"></path></g></g></g><g id="g-root-ic_sear_1cxe04sswp8ul-fill" data-item-order="0" transform="translate(602, 242)"></g><g id="g-root-tx_beginthe_8d9gsswqlts-fill" data-item-order="0" transform="translate(86, 272)"><g id="tx_beginthe_8d9gsswqlts-fill" stroke="none" fill="#f4f4f4"><g><text style="font: 15px Roboto, sans-serif; white-space: pre;" font-size="15px" font-family="Roboto, sans-serif"><tspan x="12.92" y="30.27" dominant-baseline="ideographic">Begin the next phase</tspan></text></g></g></g><g id="g-root-tx_restores_v9uu5oswqo75-fill" data-item-order="0" transform="translate(62, 692)"><g id="tx_restores_v9uu5oswqo75-fill" stroke="none" fill="#f4f4f4"><g><text style="font: 15px Roboto, sans-serif; white-space: pre;" font-size="15px" font-family="Roboto, sans-serif"><tspan x="12" y="30.27" dominant-baseline="ideographic">Restore system integrity</tspan></text></g></g></g><g id="g-root-ic_laun_qtelgssx7gge-fill" data-item-order="0" transform="translate(362, 242)"></g><g id="g-root-tx_launchne_1utntbgswqln3-fill" data-item-order="0" transform="translate(50, 236)"><g id="tx_launchne_1utntbgswqln3-fill" stroke="none" fill="#f4f4f4"><g><text style="font: bold 20px Roboto, sans-serif; white-space: pre;" font-weight="bold" font-size="20px" font-family="Roboto, sans-serif"><tspan x="23.36" y="33.64" dominant-baseline="ideographic">Launch New Cycle</tspan></text></g></g></g><g id="g-root-tx_prosperi_hz0svgswqmmb-fill" data-item-order="0" transform="translate(62, 440)"><g id="tx_prosperi_hz0svgswqmmb-fill" stroke="none" fill="#f4f4f4"><g><text style="font: bold 20px Roboto, sans-serif; white-space: pre;" font-weight="bold" font-size="20px" font-family="Roboto, sans-serif"><tspan x="19.31" y="33.63" dominant-baseline="ideographic">Prosperity Period </tspan><tspan x="123.66" y="57.64" dominant-baseline="ideographic">Setup</tspan></text></g></g></g><g id="g-root-tx_executep_dcc2ssswqo7h-fill" data-item-order="0" transform="translate(782, 440)"><g id="tx_executep_dcc2ssswqo7h-fill" stroke="none" fill="#f4f4f4"><g><text style="font: bold 20px Roboto, sans-serif; white-space: pre;" font-weight="bold" font-size="20px" font-family="Roboto, sans-serif"><tspan x="12" y="33.63" dominant-baseline="ideographic">Execute Phoenix </tspan><tspan x="12" y="57.64" dominant-baseline="ideographic">Restart</tspan></text></g></g></g><g id="g-root-ic_sun_hye8mksws2kt-fill" data-item-order="0" transform="translate(326, 458)"></g><g id="g-root-ic_elix_1hitovgsx7ggb-fill" data-item-order="0" transform="translate(638, 458)"></g><g id="g-root-tx_establis_93dsmkswqnf0-fill" data-item-order="0" transform="translate(38, 500)"><g id="tx_establis_93dsmkswqnf0-fill" stroke="none" fill="#f4f4f4"><g><text style="font: 15px Roboto, sans-serif; white-space: pre;" font-size="15px" font-family="Roboto, sans-serif"><tspan x="15.21" y="30.27" dominant-baseline="ideographic">Establish growth conditions</tspan></text></g></g></g><g id="g-root-tx_initiate_8x51rgswqlty-fill" data-item-order="0" transform="translate(782, 500)"><g id="tx_initiate_8x51rgswqlty-fill" stroke="none" fill="#f4f4f4"><g><text style="font: 15px Roboto, sans-serif; white-space: pre;" font-size="15px" font-family="Roboto, sans-serif"><tspan x="12" y="30.27" dominant-baseline="ideographic">Initiate system reset</tspan></text></g></g></g><g id="g-root-tx_systemli_qnsl64swqmmj-fill" data-item-order="0" transform="translate(782, 218)"><g id="tx_systemli_qnsl64swqmmj-fill" stroke="none" fill="#F8E6B8"><g><text style="font: bold 20px Roboto, sans-serif; white-space: pre;" font-weight="bold" font-size="20px" font-family="Roboto, sans-serif"><tspan x="12" y="33.63" dominant-baseline="ideographic">System Liquidity </tspan><tspan x="12" y="57.64" dominant-baseline="ideographic">Monitor</tspan></text></g></g></g><g id="g-root-tx_phoenixr_zof4mksx7ith-fill" data-item-order="0" transform="translate(380, 38)"><g id="tx_phoenixr_zof4mksx7ith-fill" stroke="none" fill="#f4f4f4"><g><text style="font: bold 25px Roboto, sans-serif; white-space: pre;" font-weight="bold" font-size="25px" font-family="Roboto, sans-serif"><tspan x="12.07" y="43" dominant-baseline="ideographic">Phoenix Restart Cycle</tspan></text></g></g></g><g id="g-root-tx_systemst_zpoca4swqnev-fill" data-item-order="0" transform="translate(98, 632)"><g id="tx_systemst_zpoca4swqnev-fill" stroke="none" fill="#f4f4f4"><g><text style="font: bold 20px Roboto, sans-serif; white-space: pre;" font-weight="bold" font-size="20px" font-family="Roboto, sans-serif"><tspan x="12" y="33.63" dominant-baseline="ideographic">System State </tspan><tspan x="12" y="57.64" dominant-baseline="ideographic">Rebuild</tspan></text></g></g></g><g id="g-root-tx_valuedis_1qbyvxoswqner-fill" data-item-order="0" transform="translate(782, 638)"><g id="tx_valuedis_1qbyvxoswqner-fill" stroke="none" fill="#f4f4f4"><g><text style="font: bold 20px Roboto, sans-serif; white-space: pre;" font-weight="bold" font-size="20px" font-family="Roboto, sans-serif"><tspan x="12" y="33.64" dominant-baseline="ideographic">Value Distribution</tspan></text></g></g></g><g id="g-root-ic_layo_4mxq98swwao0-fill" data-item-order="0" transform="translate(362, 674.193359375)"></g><g id="g-root-ic_coin_18n6omksx4owf-fill" data-item-order="0" transform="translate(602, 674.193359375)"></g><g id="g-root-tx_allocate_1hgbvosswqo7g-fill" data-item-order="0" transform="translate(782, 674)"><g id="tx_allocate_1hgbvosswqo7g-fill" stroke="none" fill="#f4f4f4"><g><text style="font: 15px Roboto, sans-serif; white-space: pre;" font-size="15px" font-family="Roboto, sans-serif"><tspan x="12" y="27.27" dominant-baseline="ideographic">Allocate resources </tspan><tspan x="12" y="45.27" dominant-baseline="ideographic">effectively</tspan></text></g></g></g><g id="g-root-tx_continuo_m7z31oswqnes-fill" data-item-order="0" transform="translate(782, 278)"><g id="tx_continuo_m7z31oswqnes-fill" stroke="none" fill="#F8E6B8"><g><text style="font: 15px Roboto, sans-serif; white-space: pre;" font-size="15px" font-family="Roboto, sans-serif"><tspan x="12" y="27.27" dominant-baseline="ideographic">Continuously assess </tspan><tspan x="12" y="45.27" dominant-baseline="ideographic">system health</tspan></text></g></g></g><g id="g-root-cp_6_g-6_1hfp54csx7gg1-stroke" data-item-order="-802940" transform="translate(290, 122.001953125)"><g id="cp_6_g-6_1hfp54csx7gg1-stroke" fill="none" stroke-linecap="round" stroke-linejoin="round" stroke-miterlimit="4" stroke="#d3d3d3" stroke-width="2"><g><path d="M 10 249.9999L 10 289.4286L 70 238L 130 289.4286L 130 249.9999C 130 205.2678 160.5946 167.6814 202 157.0244L 202 178L 274 94L 202 10L 202 35.3182C 94.0012 47.2569 10 138.8187 10 249.9999Z"></path></g></g></g><g id="g-root-cp_5_g-5_1hfp54csx7gg3-stroke" data-item-order="-802936" transform="translate(266, 350)"><g id="cp_5_g-5_1hfp54csx7gg3-stroke" fill="none" stroke-linecap="round" stroke-linejoin="round" stroke-miterlimit="4" stroke="#d3d3d3" stroke-width="2"><g><path d="M 10 82L 34 82L 34 253.4286L 94 202L 154 253.4286L 154 82L 178 82L 94 10L 10 82Z"></path></g></g></g><g id="g-root-cp_4_g-4_18k24vgsx7h8t-stroke" data-item-order="-802932" transform="translate(266, 542.193359375)"><g id="cp_4_g-4_18k24vgsx7h8t-stroke" fill="none" stroke-linecap="round" stroke-linejoin="round" stroke-miterlimit="4" stroke="#d3d3d3" stroke-width="2"><g><path d="M 202 226L 253.4816 165.9381C 252.3262 165.9793 251.1655 166.0001 250 166.0001C 201.0446 166.0001 160.6479 129.3558 154.7427 82L 178 82L 94 10L 10 82L 34.3277 82C 40.5542 195.7119 134.7332 286 250 286C 251.1374 286 252.2728 285.9911 253.406 285.9736L 202 226Z"></path></g></g></g><g id="g-root-cp_3_g-3_18k24vgsx7h8v-stroke" data-item-order="-802928" transform="translate(458, 562.765625)"><g id="cp_3_g-3_18k24vgsx7h8v-stroke" fill="none" stroke-linecap="round" stroke-linejoin="round" stroke-miterlimit="4" stroke="#d3d3d3" stroke-width="2"><g><path d="M 274 49.4286L 274 10L 214 61.4286L 154 10L 154 49.4286C 154 94.1608 123.4054 131.7472 82 142.4042L 82 121.4286L 10 205.4286L 82 289.4286L 82 264.1104C 189.9988 252.1717 274 160.6099 274 49.4286Z"></path></g></g></g><g id="g-root-cp_2_g-2_1448mr0sx7i15-stroke" data-item-order="-802924" transform="translate(578, 369.3359375)"><g id="cp_2_g-2_1448mr0sx7i15-stroke" fill="none" stroke-linecap="round" stroke-linejoin="round" stroke-miterlimit="4" stroke="#d3d3d3" stroke-width="2"><g><path d="M 94 62.6638L 32.5589 10C 33.5061 15.4122 34 20.9803 34 26.6638L 34 182.6638L 10 182.6638L 94 254.6638L 178 182.6638L 154 182.6638L 154 26.6638C 154 21.6251 153.8275 16.6266 153.488 11.6741L 94 62.6638Z"></path></g></g></g><g id="g-root-cp_1_g-1_1448mr0sx7i17-stroke" data-item-order="-802920" transform="translate(502.51800537109375, 146)"><g id="cp_1_g-1_1448mr0sx7i17-stroke" fill="none" stroke-linecap="round" stroke-linejoin="round" stroke-miterlimit="4" stroke="#F8E6B8" stroke-width="2"><g><path d="M 61.4816 70L 10 130.0619C 11.1555 130.0207 12.3161 129.9999 13.4816 129.9999C 62.4371 129.9999 102.8338 166.6442 108.7389 214L 85.4816 214L 169.4816 286L 253.4816 214L 229.1539 214C 222.9274 100.2881 128.7485 10 13.4816 10C 12.3442 10 11.2089 10.0089 10.0756 10.0264L 61.4816 70Z"></path></g></g></g><g id="g-root-ic_sear_1cxe04sswp8ul-stroke" data-item-order="0" transform="translate(602, 242)"><g id="ic_sear_1cxe04sswp8ul-stroke" fill="none" stroke-linecap="round" stroke-linejoin="round" stroke-miterlimit="4" stroke="#F8E6B8" stroke-width="2"><g><path d="M 35 44.057999C 35 49.060593 39.055405 53.115997 44.057999 53.115997C 49.060593 53.115997 53.115997 49.060593 53.115997 44.057999C 53.115997 39.055405 49.060593 35 44.057999 35C 39.055405 35 35 39.055405 35 44.057999ZM 57 57L 50.464001 50.464001M 26 51.042C 23.622351 51.048409 21.33877 50.113693 19.647999 48.442001M 38.127998 32.400002C 34.793571 25.206566 31.028751 18.220575 26.854 11.48C 26.672499 11.182076 26.348858 11.000273 26 11.000273C 25.651142 11.000273 25.327501 11.182076 25.146 11.48C 21.968 16.688 11 35.068001 11 42.104C 11.049257 47.849186 14.370726 53.063217 19.556656 55.536209C 24.742586 58.009205 30.884792 57.308083 35.380001 53.73"></path></g></g></g><g id="g-root-tx_beginthe_8d9gsswqlts-stroke" data-item-order="0" transform="translate(86, 272)"></g><g id="g-root-tx_restores_v9uu5oswqo75-stroke" data-item-order="0" transform="translate(62, 692)"></g><g id="g-root-ic_laun_qtelgssx7gge-stroke" data-item-order="0" transform="translate(362, 242)"><g id="ic_laun_qtelgssx7gge-stroke" fill="none" stroke-linecap="round" stroke-linejoin="round" stroke-miterlimit="4" stroke="#d3d3d3" stroke-width="2"><g><path d="M 26.540001 35L 37.459999 35M 36 48.740002C 36 52.259998 32 55 32 55C 32 55 28 52.259998 28 48.740002C 27.907532 47.675186 28.309505 46.626945 29.090221 45.896976C 29.870937 45.167004 30.943794 44.836285 32 45C 33.056206 44.836285 34.129063 45.167004 34.909779 45.896976C 35.690495 46.626945 36.092468 47.675186 36 48.739998ZM 48 11L 48 15M 50 13L 46 13M 56 29L 52.599998 29C 51.164059 29 50 30.164059 50 31.6C 49.998497 32.474747 50.433655 33.292542 51.159996 33.779999L 54.84 36.220001C 55.566341 36.707455 56.001499 37.525249 55.999996 38.399998C 56 39.835938 54.835941 41 53.399998 41L 50 41M 54 29L 54 27M 52 43L 52 41M 18 13L 14.6 13C 13.16406 13 12 14.16406 12 15.6C 11.998498 16.474749 12.433655 17.292545 13.16 17.779999L 16.84 20.220001C 17.566345 20.707455 18.001501 21.525249 18 22.4C 18 23.835941 16.835941 25 15.4 25L 12 25M 16 13L 16 11M 14 27L 14 25M 32 11C 21 20 25.119999 30 28 40L 36 40C 38.879997 30 43 20 32 11ZM 26.219999 34L 24.220001 35.040001C 22.881947 35.788441 22.038055 37.187325 22 38.720001L 22 42C 21.989967 42.384464 22.188972 42.744202 22.52 42.939999C 22.835094 43.149239 23.244907 43.149239 23.559999 42.939999L 28 40M 37.779999 33.860001L 39.779999 34.940002C 41.148727 35.70623 41.997478 37.151398 42 38.720001L 42 42C 42.010029 42.384464 41.811028 42.744202 41.479996 42.939999C 41.164906 43.149239 40.755096 43.149239 40.440002 42.939999L 36 40M 29 23C 29 24.656855 30.343147 26 32 26C 33.656853 26 35 24.656855 35 23C 35 21.343147 33.656853 20 32 20C 30.343147 20 29 21.343147 29 23M 23 48C 21 48 19 49.099998 19 51C 19 51.16 19 51.860001 19 52L 18 52C 16.663994 51.966724 15.372798 52.482815 14.427806 53.427807C 13.482814 54.372799 12.966722 55.663994 13 57M 40 48C 41.900002 48 44 49.099998 44 51C 44 51.16 44 51.860001 44 52L 45 52C 46.336006 51.966724 47.627201 52.482815 48.572193 53.427807C 49.517185 54.372799 50.033276 55.663994 50 57"></path></g></g></g><g id="g-root-tx_launchne_1utntbgswqln3-stroke" data-item-order="0" transform="translate(50, 236)"></g><g id="g-root-tx_prosperi_hz0svgswqmmb-stroke" data-item-order="0" transform="translate(62, 440)"></g><g id="g-root-tx_executep_dcc2ssswqo7h-stroke" data-item-order="0" transform="translate(782, 440)"></g><g id="g-root-ic_sun_hye8mksws2kt-stroke" data-item-order="0" transform="translate(326, 458)"><g id="ic_sun_hye8mksws2kt-stroke" fill="none" stroke-linecap="round" stroke-linejoin="round" stroke-miterlimit="4" stroke="#d3d3d3" stroke-width="2"><g><path d="M 47.200001 27L 49.98 27M 43.720001 17.219999L 45.799999 15.139999M 33.98 13.78L 33.98 11M 24.24 17.219999L 22.16 15.139999M 20.76 27L 17.98 27M 12.48 40.66C 12.166221 40.831223 11.973558 41.162598 11.98 41.519997L 11.98 56C 11.98 56.552284 12.427715 57 12.98 57L 54.98 57C 55.248665 57.005375 55.508186 56.902393 55.700073 56.714272C 55.891956 56.52615 56.000053 56.268719 56 56L 56 41.52C 56.002045 41.168953 55.819862 40.842545 55.52 40.66C 44.52 34 23.459999 34.120003 12.48 40.66ZM 44.240002 56.959999L 37.720001 35.82M 55.98 54.919998L 40.639999 36.080002M 23.720001 56.959999L 30.24 35.84M 11.98 55.139999L 27.52 36.080002M 33.98 56.959999L 33.98 35.720001M 25.4 32.120003C 24.480639 30.570608 23.996931 28.80162 24 27C 24.004333 22.773178 26.665756 19.005566 30.648056 17.58876C 34.630356 16.171953 39.073376 17.411976 41.746418 20.686255C 44.41946 23.960533 44.745163 28.561836 42.560001 32.18"></path></g></g></g><g id="g-root-ic_elix_1hitovgsx7ggb-stroke" data-item-order="0" transform="translate(638, 458)"><g id="ic_elix_1hitovgsx7ggb-stroke" fill="none" stroke-linecap="round" stroke-linejoin="round" stroke-miterlimit="4" stroke="#d3d3d3" stroke-width="2"><g><path d="M 18.720001 40.5C 18.720001 29.440001 27.74 15.3 34.139999 11.34C 34.493088 11.116962 34.902367 10.999035 35.32 11C 35.645382 11.002531 35.952946 11.14899 36.160004 11.4C 36.362259 11.65298 36.442749 11.982242 36.380001 12.3C 35.618237 16.161943 36.400902 20.168617 38.559998 23.459999C 42.560001 29.66 49.279999 34.639999 49.279999 42.18C 49.37759 46.094433 47.883507 49.881088 45.139339 52.674263C 42.395168 55.467434 38.635544 57.028297 34.720001 57.000004C 25.720001 57 18.720001 51.34 18.720001 40.5ZM 24.34 46.16C 22.18 37.779999 26.219999 25.299999 30.34 21.040001C 30.562841 20.806179 30.847019 20.639832 31.16 20.559999C 31.405552 20.485085 31.672018 20.529497 31.880001 20.68C 32.08007 20.837196 32.209553 21.067389 32.239998 21.32C 32.424072 24.386353 33.802658 27.258415 36.080002 29.32C 40.379997 33.220001 46.400002 35.68 47.880001 41.32C 48.701172 44.251915 48.304428 47.391151 46.779644 50.026581C 45.25486 52.66201 42.731075 54.570599 39.779999 55.32C 32.900002 57.279999 26.48 54.380001 24.34 46.16ZM 30.66 46.439999C 31.419762 48.930206 33.780289 50.580921 36.379997 50.439999L 37.059998 50.439999C 37.858047 50.366177 38.534958 49.823074 38.779999 49.060001C 39.017685 48.292946 38.773533 47.458115 38.16 46.939999C 36.019379 45.20348 33.019783 44.995506 30.66 46.419998Z"></path></g></g></g><g id="g-root-tx_establis_93dsmkswqnf0-stroke" data-item-order="0" transform="translate(38, 500)"></g><g id="g-root-tx_initiate_8x51rgswqlty-stroke" data-item-order="0" transform="translate(782, 500)"></g><g id="g-root-tx_systemli_qnsl64swqmmj-stroke" data-item-order="0" transform="translate(782, 218)"></g><g id="g-root-tx_phoenixr_zof4mksx7ith-stroke" data-item-order="0" transform="translate(380, 38)"></g><g id="g-root-tx_systemst_zpoca4swqnev-stroke" data-item-order="0" transform="translate(98, 632)"></g><g id="g-root-tx_valuedis_1qbyvxoswqner-stroke" data-item-order="0" transform="translate(782, 638)"></g><g id="g-root-ic_layo_4mxq98swwao0-stroke" data-item-order="0" transform="translate(362, 674.193359375)"><g id="ic_layo_4mxq98swwao0-stroke" fill="none" stroke-linecap="round" stroke-linejoin="round" stroke-miterlimit="4" stroke="#d3d3d3" stroke-width="2"><g><path d="M 15 14.007999L 53 14.007999C 53 14.007999 57 14.007999 57 18.007999L 57 50.007999C 57 50.007999 57 54.007999 53 54.007999L 15 54.007999C 15 54.007999 11 54.007999 11 50.007999L 11 18.007999C 11 18.007999 11 14.007999 15 14.007999M 11 24.007999L 57 24.007999M 18 18.507999C 18.276142 18.507999 18.5 18.731857 18.5 19.007999C 18.5 19.284142 18.276142 19.507999 18 19.507999C 17.723858 19.507999 17.5 19.284142 17.5 19.007999C 17.5 18.731857 17.723858 18.507999 18 18.507999M 24 18.507999C 24.276142 18.507999 24.5 18.731857 24.5 19.007999C 24.5 19.284142 24.276142 19.507999 24 19.507999C 23.723858 19.507999 23.5 19.284142 23.5 19.007999C 23.5 18.731857 23.723858 18.507999 24 18.507999M 30 18.507999C 30.276142 18.507999 30.5 18.731857 30.5 19.007999C 30.5 19.284142 30.276142 19.507999 30 19.507999C 29.723858 19.507999 29.5 19.284142 29.5 19.007999C 29.5 18.731857 29.723858 18.507999 30 18.507999M 19.998001 32.007999L 23.998001 32.007999C 23.998001 32.007999 24.998001 32.007999 24.998001 33.007999L 24.998001 37.007999C 24.998001 37.007999 24.998001 38.007999 23.998001 38.007999L 19.998001 38.007999C 19.998001 38.007999 18.998001 38.007999 18.998001 37.007999L 18.998001 33.007999C 18.998001 33.007999 18.998001 32.007999 19.998001 32.007999M 19.998001 42.007999L 23.998001 42.007999C 23.998001 42.007999 24.998001 42.007999 24.998001 43.007999L 24.998001 47.007999C 24.998001 47.007999 24.998001 48.007999 23.998001 48.007999L 19.998001 48.007999C 19.998001 48.007999 18.998001 48.007999 18.998001 47.007999L 18.998001 43.007999C 18.998001 43.007999 18.998001 42.007999 19.998001 42.007999M 31.997999 32.007999L 35.998001 32.007999C 35.998001 32.007999 36.998001 32.007999 36.998001 33.007999L 36.998001 37.007999C 36.998001 37.007999 36.998001 38.007999 35.998001 38.007999L 31.997999 38.007999C 31.997999 38.007999 30.997999 38.007999 30.997999 37.007999L 30.997999 33.007999C 30.997999 33.007999 30.997999 32.007999 31.997999 32.007999M 31.997999 42.007999L 35.998001 42.007999C 35.998001 42.007999 36.998001 42.007999 36.998001 43.007999L 36.998001 47.007999C 36.998001 47.007999 36.998001 48.007999 35.998001 48.007999L 31.997999 48.007999C 31.997999 48.007999 30.997999 48.007999 30.997999 47.007999L 30.997999 43.007999C 30.997999 43.007999 30.997999 42.007999 31.997999 42.007999M 43.998001 32.007999L 47.998001 32.007999C 47.998001 32.007999 48.998001 32.007999 48.998001 33.007999L 48.998001 37.007999C 48.998001 37.007999 48.998001 38.007999 47.998001 38.007999L 43.998001 38.007999C 43.998001 38.007999 42.998001 38.007999 42.998001 37.007999L 42.998001 33.007999C 42.998001 33.007999 42.998001 32.007999 43.998001 32.007999M 43.998001 42.007999L 47.998001 42.007999C 47.998001 42.007999 48.998001 42.007999 48.998001 43.007999L 48.998001 47.007999C 48.998001 47.007999 48.998001 48.007999 47.998001 48.007999L 43.998001 48.007999C 43.998001 48.007999 42.998001 48.007999 42.998001 47.007999L 42.998001 43.007999C 42.998001 43.007999 42.998001 42.007999 43.998001 42.007999"></path></g></g></g><g id="g-root-ic_coin_18n6omksx4owf-stroke" data-item-order="0" transform="translate(602, 674.193359375)"><g id="ic_coin_18n6omksx4owf-stroke" fill="none" stroke-linecap="round" stroke-linejoin="round" stroke-miterlimit="4" stroke="#d3d3d3" stroke-width="2"><g><path d="M 42.139999 46.942001L 51 44C 53.221539 43.34127 55.618008 44.140095 57 46C 32.542 58.226002 40.456001 58.153999 19 51L 11 56M 29 48L 40 48C 40.799885 48.143661 41.608437 47.796913 42.055729 47.118397C 42.503025 46.439884 42.503025 45.56012 42.055729 44.881603C 41.608437 44.203091 40.799885 43.856342 40 44L 34 44C 31.629362 41.554111 28.404079 40.120651 25 40L 19 40L 11 44M 28.709999 24.298C 28.709782 31.090153 34.215847 36.596397 41.008003 36.596397C 47.800156 36.596397 53.306221 31.090153 53.306 24.298C 53.306221 17.505848 47.800156 11.999603 41.008003 11.999603C 34.215847 11.999603 28.709782 17.505848 28.710001 24.298ZM 41.007999 18L 41.007999 16M 44 18L 39.942001 18C 38.656754 18.000896 37.552536 18.912786 37.308643 20.174677C 37.064751 21.436569 37.749653 22.694248 38.942001 23.174L 43.07 24.826C 44.262344 25.305752 44.947247 26.563431 44.703358 27.825323C 44.459465 29.087214 43.355244 29.999102 42.07 30L 38 30M 41.007999 32L 41.007999 30"></path></g></g></g><g id="g-root-tx_allocate_1hgbvosswqo7g-stroke" data-item-order="0" transform="translate(782, 674)"></g><g id="g-root-tx_continuo_m7z31oswqnes-stroke" data-item-order="0" transform="translate(782, 278)"></g></g></g></svg>