<?xml version="1.0" encoding="utf-8" standalone="yes"?>
<!DOCTYPE svg PUBLIC "-//W3C//DTD SVG 1.1//EN" "http://www.w3.org/Graphics/SVG/1.1/DTD/svg11.dtd">
<svg width="588" height="589" viewBox="0 0 588 589" style="fill:none;stroke:none;fill-rule:evenodd;clip-rule:evenodd;stroke-linecap:round;stroke-linejoin:round;stroke-miterlimit:1.5;" version="1.1" xmlns="http://www.w3.org/2000/svg" xmlns:xlink="http://www.w3.org/1999/xlink"><style class="text-font-style fontImports" data-font-family="Roboto">@import url('https://fonts.googleapis.com/css2?family=Roboto:wght@400;700&amp;display=block');</style><g id="items" style="isolation: isolate"><g id="blend" style="mix-blend-mode: normal"><g id="g-root-sy_2_cu_quo5uztr21ak-fill" data-item-order="-81750" transform="translate(276.8583984375, 309.2890625)"><g id="sy_2_cu_quo5uztr21ak-fill" stroke="none" fill="#6b6b6b"><g><path d="M 119.3 110.885C 93.9832 114.469 69.7368 119.578 46.9731 126.421C 34.2624 130.242 21.9461 134.824 10.232 139.763L 11.1631 139.178C 18.0099 133.156 23.1497 105.8826 23.1497 74.4362C 23.1497 42.4341 17.8811 16.2513 10.8536 10.8539L 10 10C 21.7599 14.9659 34.2005 19.0603 46.966 22.8981C 69.7318 29.7423 93.9806 34.8515 119.3 38.4363C 125.927 38.4363 131.3 54.6544 131.3 74.6605C 131.3 94.6665 125.927 110.885 119.3 110.885Z"></path></g></g></g><g id="g-root-sy_2_line_meunqjtr222t-fill" data-item-order="-81745" transform="translate(344, 418)"></g><g id="g-root-sy_1_cu_dj7nhntr22vi-fill" data-item-order="-81742" transform="translate(146, 218.2236328125)"><g id="sy_1_cu_dj7nhntr22vi-fill" stroke="none" fill="#E5A000"><g><path d="M 32.0941 317.947C 30.7789 320.598 29.4083 322 28 322C 18.0589 322 10 252.156 10 166C 10 79.8436 18.0589 10 28 10C 29.4187 10 30.799 11.4224 32.123 14.1115C 50.1417 42.2845 74.6013 64.7711 103.8953 82.3841L 103.8964 82.3843C 115.486 89.3524 127.833 95.5576 140.84 101.0501L 141.635 101.7759C 148.663 107.1733 154 133.774 154 165.776C 154 197.222 148.847 224.253 142 230.276L 140.881 230.933C 127.971 236.382 115.711 242.533 104.1963 249.436L 104.1953 249.436C 74.7481 267.087 50.1777 289.651 32.0941 317.947Z"></path></g></g></g><g id="g-root-sy_1_line_93e5d7tr23nr-fill" data-item-order="-81737" transform="translate(236, 206)"></g><g id="g-root-tx_prosperi_1cuwjortqpfd5-fill" data-item-order="0" transform="translate(74, 38)"><g id="tx_prosperi_1cuwjortqpfd5-fill" stroke="none" fill="#f4f4f4"><g><text style="font: bold 25px Roboto, sans-serif; white-space: pre;" font-weight="bold" font-size="25px" font-family="Roboto, sans-serif"><tspan x="12.67" y="43" dominant-baseline="ideographic">Prosperity Node Selection Process</tspan></text></g></g></g><g id="g-root-tx_overallr_hrjjqjtqpdza-fill" data-item-order="0" transform="translate(164, 170)"><g id="tx_overallr_hrjjqjtqpdza-fill" stroke="none" fill="#F8E6B8"><g><text style="font: 20px Roboto, sans-serif; white-space: pre;" font-size="20px" font-family="Roboto, sans-serif"><tspan x="13.29" y="33.64" dominant-baseline="ideographic">Overall Ranking</tspan></text></g></g></g><g id="g-root-tx_totalpar_dbq1m3tqperk-fill" data-item-order="0" transform="translate(14, 350)"><g id="tx_totalpar_dbq1m3tqperk-fill" stroke="none" fill="#f4f4f4"><g><text style="font: 20px Roboto, sans-serif; white-space: pre;" font-size="20px" font-family="Roboto, sans-serif"><tspan x="83.34" y="33.63" dominant-baseline="ideographic">Total </tspan><tspan x="20.59" y="57.64" dominant-baseline="ideographic">Participants</tspan></text></g></g></g><g id="g-root-ic_bull_14803hntr7oxs-fill" data-item-order="0" transform="translate(212, 350)"></g><g id="g-root-ic_shap_4o74bvtr21a8-fill" data-item-order="0" transform="translate(320, 350)"></g><g id="g-root-tx_selected_zqb99ntqo170-fill" data-item-order="0" transform="translate(410, 362)"><g id="tx_selected_zqb99ntqo170-fill" stroke="none" fill="#f4f4f4"><g><text style="font: 20px Roboto, sans-serif; white-space: pre;" font-size="20px" font-family="Roboto, sans-serif"><tspan x="12" y="33.64" dominant-baseline="ideographic">Selected Nodes</tspan></text></g></g></g><g id="g-root-tx_36prospe_dju7qjtqo16p-fill" data-item-order="0" transform="translate(278, 482)"><g id="tx_36prospe_dju7qjtqo16p-fill" stroke="none" fill="#f4f4f4"><g><text style="font: 20px Roboto, sans-serif; white-space: pre;" font-size="20px" font-family="Roboto, sans-serif"><tspan x="14.59" y="33.63" dominant-baseline="ideographic">36 Prosperity </tspan><tspan x="44.57" y="57.64" dominant-baseline="ideographic">Nodes</tspan></text></g></g></g><g id="g-root-sy_2_cu_quo5uztr21ak-stroke" data-item-order="-81750" transform="translate(276.8583984375, 309.2890625)"><g id="sy_2_cu_quo5uztr21ak-stroke" fill="none" stroke-linecap="round" stroke-linejoin="round" stroke-miterlimit="4" stroke="#d3d3d3" stroke-width="2"><g><path d="M 46.9731 126.4207C 69.7368 119.5776 93.9832 114.469 119.2997 110.8846C 125.9271 110.8846 131.2997 94.6665 131.2997 74.6605C 131.2997 54.6544 125.9271 38.4363 119.2997 38.4363C 93.9806 34.8515 69.7318 29.7423 46.966 22.8981C 34.2005 19.0603 21.7599 14.9659 10 10L 10.8536 10.8539C 17.8811 16.2513 23.1497 42.4341 23.1497 74.4362C 23.1497 105.8826 18.0099 133.1559 11.1631 139.1784L 10.232 139.7628C 21.9461 134.8236 34.2624 130.2417 46.9731 126.4207Z"></path></g></g></g><g id="g-root-sy_2_line_meunqjtr222t-stroke" data-item-order="-81745" transform="translate(344, 418)"><g id="sy_2_line_meunqjtr222t-stroke" fill="none" stroke-linecap="round" stroke-linejoin="round" stroke-miterlimit="4" stroke="#d3d3d3" stroke-width="2"><g><path d="M 10 12L 10 62"></path><path d="M 16.5 18L 10 11.5L 3.5 18" stroke-dasharray="none"></path></g></g></g><g id="g-root-sy_1_cu_dj7nhntr22vi-stroke" data-item-order="-81742" transform="translate(146, 218.2236328125)"><g id="sy_1_cu_dj7nhntr22vi-stroke" fill="none" stroke-linecap="round" stroke-linejoin="round" stroke-miterlimit="4" stroke="#F8E6B8" stroke-width="2"><g><path d="M 10 166C 10 252.156423 18.058875 322.000002 28 322.000002C 37.941126 322.000002 46 252.156423 46 166.000002C 46 79.843581 37.941126 10.000002 28 10.000002C 18.058875 10.000002 10 79.843581 10 166.000002M 30.702205 320.30161C 46.095205 294.56021 78.064005 257.07221 141.321705 230.79461C 146.395405 228.68701 153.968205 205.25851 153.968205 165.89981C 153.968205 128.26791 147.836405 104.04591 139.965605 100.66651C 73.429705 72.09861 45.323905 34.67681 30.096405 11.04541"></path></g></g></g><g id="g-root-sy_1_line_93e5d7tr23nr-stroke" data-item-order="-81737" transform="translate(236, 206)"><g id="sy_1_line_93e5d7tr23nr-stroke" fill="none" stroke-linecap="round" stroke-linejoin="round" stroke-miterlimit="4" stroke="#F8E6B8" stroke-width="2"><g><path d="M 10 10L 10 90"></path><path d="M 3.5 84L 10 90.5L 16.5 84" stroke-dasharray="none"></path></g></g></g><g id="g-root-tx_prosperi_1cuwjortqpfd5-stroke" data-item-order="0" transform="translate(74, 38)"></g><g id="g-root-tx_overallr_hrjjqjtqpdza-stroke" data-item-order="0" transform="translate(164, 170)"></g><g id="g-root-tx_totalpar_dbq1m3tqperk-stroke" data-item-order="0" transform="translate(14, 350)"></g><g id="g-root-ic_bull_14803hntr7oxs-stroke" data-item-order="0" transform="translate(212, 350)"><g id="ic_bull_14803hntr7oxs-stroke" fill="none" stroke-linecap="round" stroke-linejoin="round" stroke-miterlimit="4" stroke="#F8E6B8" stroke-width="2"><g><path d="M 14 22C 14 24.761425 16.238577 27 19 27C 21.761425 27 24 24.761425 24 22C 24 19.238577 21.761425 17 19 17C 16.238577 17 14 19.238577 14 22ZM 30 17L 54 17M 30 21L 44 21M 30 25L 48 25M 30 36C 30 37.656853 31.343147 39 33 39C 34.656853 39 36 37.656853 36 36C 36 34.343147 34.656853 33 33 33C 31.343147 33 30 34.343147 30 36ZM 40 33L 55 33M 40 37L 48 37M 30 48C 30 49.656857 31.343147 51 33 51C 34.656853 51 36 49.656857 36 48C 36 46.343147 34.656853 45 33 45C 31.343147 45 30 46.343147 30 48ZM 40 45L 55 45M 40 49L 48 49M 24 31L 24 33M 24 37L 24 39M 24 43L 24 45M 24 49L 24 51"></path></g></g></g><g id="g-root-ic_shap_4o74bvtr21a8-stroke" data-item-order="0" transform="translate(320, 350)"><g id="ic_shap_4o74bvtr21a8-stroke" fill="none" stroke-linecap="round" stroke-linejoin="round" stroke-miterlimit="4" stroke="#d3d3d3" stroke-width="2"><g><path d="M 32.5858 55.761799C 33.366798 56.542999 34.633202 56.542999 35.4142 55.761799L 40.789001 50.387001L 48.389198 50.387001C 49.493801 50.387001 50.389198 49.4916 50.389198 48.387001L 50.389198 40.7868L 55.761799 35.4142C 56.542999 34.633202 56.542999 33.366798 55.761799 32.5858L 50.389198 27.21312L 50.389198 19.61108C 50.389198 18.506519 49.493801 17.61108 48.389198 17.61108L 40.787201 17.61108L 35.4142 12.23814C 34.633202 11.457082 33.366798 11.457082 32.5858 12.23814L 27.21282 17.61108L 19.613281 17.61108C 18.50872 17.61108 17.613279 18.506519 17.613279 19.61108L 17.613279 27.21064L 12.23814 32.5858C 11.457082 33.366798 11.457082 34.633202 12.23814 35.4142L 17.613279 40.789398L 17.613279 48.387001C 17.613279 49.4916 18.50872 50.387001 19.613281 50.387001L 27.210939 50.387001L 32.5858 55.761799Z"></path></g></g></g><g id="g-root-tx_selected_zqb99ntqo170-stroke" data-item-order="0" transform="translate(410, 362)"></g><g id="g-root-tx_36prospe_dju7qjtqo16p-stroke" data-item-order="0" transform="translate(278, 482)"></g></g></g></svg>