<?xml version="1.0" encoding="utf-8" standalone="yes"?>
<!DOCTYPE svg PUBLIC "-//W3C//DTD SVG 1.1//EN" "http://www.w3.org/Graphics/SVG/1.1/DTD/svg11.dtd">
<svg width="600" height="444" viewBox="0 0 600 444" style="fill:none;stroke:none;fill-rule:evenodd;clip-rule:evenodd;stroke-linecap:round;stroke-linejoin:round;stroke-miterlimit:1.5;" version="1.1" xmlns="http://www.w3.org/2000/svg" xmlns:xlink="http://www.w3.org/1999/xlink"><style class="text-font-style fontImports" data-font-family="Roboto">@import url('https://fonts.googleapis.com/css2?family=Roboto:wght@400;700&amp;display=block');</style><g id="items" style="isolation: isolate"><g id="blend" style="mix-blend-mode: normal"><g id="g-root-sy_1_gauge-filled-1_58mjwtr0n48-fill" data-item-order="-64047" transform="translate(289.99993896484375, 122)"><g id="sy_1_gauge-filled-1_58mjwtr0n48-fill" stroke="none" fill="#E5A000"><g><path d="M 10.000031 10C 35.341474 10.00006 60.032395 18.022666 80.53404 32.918001L 10.000031 130L 10.000031 130L 10.000031 10Z"></path></g></g></g><g id="g-root-sy_2_gauge-filled-2_1luw65otr0oi1-fill" data-item-order="-64043" transform="translate(289.99993896484375, 144.91796875)"><g id="sy_2_gauge-filled-2_1luw65otr0oi1-fill" stroke="none" fill="#6b6b6b"><g><path d="M 80.534031 10.000031C 122.592664 40.557183 140.191826 94.721244 124.127043 144.164039L 10.000031 107.082031L 10.000031 107.082031L 80.534031 10.000031Z"></path></g></g></g><g id="g-root-sy_3_gauge-filled-3_1hf2o18tr0paa-fill" data-item-order="-64039" transform="translate(219.46597290039062, 242)"><g id="sy_3_gauge-filled-3_1hf2o18tr0paa-fill" stroke="none" fill="#6b6b6b"><g><path d="M 194.660997 47.082C 182.790863 83.614563 154.148822 112.256604 117.616268 124.126751C 81.083714 135.996898 41.076447 129.660371 9.999999 107.082011L 80.533997 10L 80.533997 10L 194.660997 47.082Z"></path></g></g></g><g id="g-root-sy_4_gauge-filled-4_18k24vgtr0mx7-fill" data-item-order="-64035" transform="translate(169.9920654296875, 122)"><g id="sy_4_gauge-filled-4_18k24vgtr0mx7-fill" stroke="none" fill="#6b6b6b"><g><path d="M 59.473904 227.082C 17.415476 196.524748 -0.183491 142.360743 15.88136 92.918064C 31.946211 43.475385 78.020817 10.000115 130.00791 10L 130.007904 130L 130.007904 130L 59.473904 227.082Z"></path></g></g></g><g id="g-root-tx_distribu_1cy07qktr222t-fill" data-item-order="0" transform="translate(14, 38)"><g id="tx_distribu_1cy07qktr222t-fill" stroke="none" fill="#f4f4f4"><g><text style="font: bold 25px Roboto, sans-serif; white-space: pre;" font-weight="bold" font-size="25px" font-family="Roboto, sans-serif"><tspan x="12.51" y="43" dominant-baseline="ideographic">Distribution of Node Reward Pool Across Phases</tspan></text></g></g></g><g id="g-root-tx_10phase1_4l24octr21ab-fill" data-item-order="0" transform="translate(328.9339599609375, 98.173828125)"><g id="tx_10phase1_4l24octr21ab-fill" stroke="none" fill="#F8E6B8"><g><text style="font: 20px Roboto, sans-serif; white-space: pre;" font-size="20px" font-family="Roboto, sans-serif"><tspan x="12" y="33.64" dominant-baseline="ideographic">10% Phase 1</tspan></text></g></g></g><g id="g-root-ic_smar_1czvmzwtr213d-fill" data-item-order="0" transform="translate(300.328125, 136.814453125)"></g><g id="g-root-tx_40phase4_141qwq4tqo0ei-fill" data-item-order="0" transform="translate(50.17401123046875, 179.06640625)"><g id="tx_40phase4_141qwq4tqo0ei-fill" stroke="none" fill="#f4f4f4"><g><text style="font: 20px Roboto, sans-serif; white-space: pre;" font-size="20px" font-family="Roboto, sans-serif"><tspan x="14.26" y="33.64" dominant-baseline="ideographic">40% Phase 4</tspan></text></g></g></g><g id="g-root-tx_20phase2_qss7jgtqwfm2-fill" data-item-order="0" transform="translate(409.82598876953125, 179.06640625)"><g id="tx_20phase2_qss7jgtqwfm2-fill" stroke="none" fill="#f4f4f4"><g><text style="font: 20px Roboto, sans-serif; white-space: pre;" font-size="20px" font-family="Roboto, sans-serif"><tspan x="12" y="33.64" dominant-baseline="ideographic">20% Phase 2</tspan></text></g></g></g><g id="g-root-ic_2_dfgd2ktqo0em-fill" data-item-order="0" transform="translate(213.50515747070312, 204.994140625)"></g><g id="g-root-ic_1_6hnvwtqwfm6-fill" data-item-order="0" transform="translate(343.8779296875, 200.64453125)"></g><g id="g-root-ic_5_1ly0mr0tqz957-fill" data-item-order="0" transform="translate(292.4984130859375, 287.087890625)"></g><g id="g-root-tx_30phase3_4nk46ktqza4v-fill" data-item-order="0" transform="translate(328.9339599609375, 361.82421875)"><g id="tx_30phase3_4nk46ktqza4v-fill" stroke="none" fill="#f4f4f4"><g><text style="font: 20px Roboto, sans-serif; white-space: pre;" font-size="20px" font-family="Roboto, sans-serif"><tspan x="12" y="33.64" dominant-baseline="ideographic">30% Phase 3</tspan></text></g></g></g><g id="g-root-sy_1_gauge-filled-1_58mjwtr0n48-stroke" data-item-order="-64047" transform="translate(289.99993896484375, 122)"><g id="sy_1_gauge-filled-1_58mjwtr0n48-stroke" fill="none" stroke-linecap="round" stroke-linejoin="round" stroke-miterlimit="4" stroke="#F8E6B8" stroke-width="2"><g><path d="M 10.000031 10C 35.341474 10.00006 60.032395 18.022666 80.53404 32.918001L 10.000031 130L 10.000031 130L 10.000031 10Z"></path></g></g></g><g id="g-root-sy_2_gauge-filled-2_1luw65otr0oi1-stroke" data-item-order="-64043" transform="translate(289.99993896484375, 144.91796875)"><g id="sy_2_gauge-filled-2_1luw65otr0oi1-stroke" fill="none" stroke-linecap="round" stroke-linejoin="round" stroke-miterlimit="4" stroke="#d3d3d3" stroke-width="2"><g><path d="M 80.534031 10.000031C 122.592664 40.557183 140.191826 94.721244 124.127043 144.164039L 10.000031 107.082031L 10.000031 107.082031L 80.534031 10.000031Z"></path></g></g></g><g id="g-root-sy_3_gauge-filled-3_1hf2o18tr0paa-stroke" data-item-order="-64039" transform="translate(219.46597290039062, 242)"><g id="sy_3_gauge-filled-3_1hf2o18tr0paa-stroke" fill="none" stroke-linecap="round" stroke-linejoin="round" stroke-miterlimit="4" stroke="#d3d3d3" stroke-width="2"><g><path d="M 194.660997 47.082C 182.790863 83.614563 154.148822 112.256604 117.616268 124.126751C 81.083714 135.996898 41.076447 129.660371 9.999999 107.082011L 80.533997 10L 80.533997 10L 194.660997 47.082Z"></path></g></g></g><g id="g-root-sy_4_gauge-filled-4_18k24vgtr0mx7-stroke" data-item-order="-64035" transform="translate(169.9920654296875, 122)"><g id="sy_4_gauge-filled-4_18k24vgtr0mx7-stroke" fill="none" stroke-linecap="round" stroke-linejoin="round" stroke-miterlimit="4" stroke="#d3d3d3" stroke-width="2"><g><path d="M 59.473904 227.082C 17.415476 196.524748 -0.183491 142.360743 15.88136 92.918064C 31.946211 43.475385 78.020817 10.000115 130.00791 10L 130.007904 130L 130.007904 130L 59.473904 227.082Z"></path></g></g></g><g id="g-root-tx_distribu_1cy07qktr222t-stroke" data-item-order="0" transform="translate(14, 38)"></g><g id="g-root-tx_10phase1_4l24octr21ab-stroke" data-item-order="0" transform="translate(328.9339599609375, 98.173828125)"></g><g id="g-root-ic_smar_1czvmzwtr213d-stroke" data-item-order="0" transform="translate(300.328125, 136.814453125)"><g id="ic_smar_1czvmzwtr213d-stroke" fill="none" stroke-linecap="round" stroke-linejoin="round" stroke-miterlimit="4" stroke="#F8E6B8" stroke-width="2"><g><path d="M 27.618999 38.462502L 24.618999 38.462502C 22.133718 38.462502 20.118999 36.447784 20.118999 33.962502L 20.118999 30.212502M 17.118999 32.462502L 20.118999 29.462502L 23.118999 32.462502M 36.068501 27.212502L 43.568501 27.212502C 43.568501 27.212502 45.068501 27.212502 45.068501 28.712502L 45.068501 43.712502C 45.068501 43.712502 45.068501 45.212502 43.568501 45.212502L 36.068501 45.212502C 36.068501 45.212502 34.568501 45.212502 34.568501 43.712502L 34.568501 28.712502C 34.568501 28.712502 34.568501 27.212502 36.068501 27.212502M 45.068501 40.712502L 34.568501 40.712502M 28.931499 12.2875L 28.931499 22.7875C 28.931499 22.7875 28.931499 24.2875 27.431499 24.2875L 12.4315 24.2875C 12.4315 24.2875 10.9315 24.2875 10.9315 22.7875L 10.9315 12.2875C 10.9315 12.2875 10.9315 10.7875 12.4315 10.7875L 27.431499 10.7875C 27.431499 10.7875 28.931499 10.7875 28.931499 12.2875M 28.931499 15.2875L 10.9315 15.2875M 23.681499 20.5375L 25.931499 20.5375"></path></g></g></g><g id="g-root-tx_40phase4_141qwq4tqo0ei-stroke" data-item-order="0" transform="translate(50.17401123046875, 179.06640625)"></g><g id="g-root-tx_20phase2_qss7jgtqwfm2-stroke" data-item-order="0" transform="translate(409.82598876953125, 179.06640625)"></g><g id="g-root-ic_2_dfgd2ktqo0em-stroke" data-item-order="0" transform="translate(213.50515747070312, 204.994140625)"><g id="ic_2_dfgd2ktqo0em-stroke" fill="none" stroke-linecap="round" stroke-linejoin="round" stroke-miterlimit="4" stroke="#d3d3d3" stroke-width="2"><g><path d="M 17.4265 21.886L 17.4265 11.6485L 15.595 11.6485M 22.9405 18.890499C 22.9405 20.83399 24.51601 22.4095 26.459499 22.4095C 28.402988 22.4095 29.9785 20.83399 29.9785 18.890499L 29.9785 14.65C 29.9785 12.70651 28.402988 11.131 26.459499 11.131C 24.51601 11.131 22.9405 12.70651 22.9405 14.65ZM 31.376501 29.765499L 31.376501 28.777C 31.385176 28.178921 31.631636 27.608912 32.061424 27.192913C 32.491215 26.776917 33.068958 26.549171 33.667 26.559999L 34.811501 26.559999L 34.811501 23.812L 41.68 23.812L 41.68 26.559999L 42.824501 26.559999C 43.422287 26.549574 43.999645 26.777498 44.429108 27.193451C 44.85857 27.609407 45.104824 28.179186 45.113503 28.777L 45.113503 42.657997C 45.104824 43.255814 44.85857 43.825592 44.429108 44.24155C 43.999645 44.657505 43.422287 44.885429 42.824501 44.875L 33.209499 44.875C 32.197746 44.875 31.377327 44.055252 31.376499 43.043499L 31.376501 39.227501M 15.595 34.343498L 38.244999 34.343498M 10.8865 29.765499L 10.8865 38.923M 18.341499 31.597L 15.595 34.343498L 18.341499 37.091499M 15.226 21.886L 19.627001 21.886"></path></g></g></g><g id="g-root-ic_1_6hnvwtqwfm6-stroke" data-item-order="0" transform="translate(343.8779296875, 200.64453125)"><g id="ic_1_6hnvwtqwfm6-stroke" fill="none" stroke-linecap="round" stroke-linejoin="round" stroke-miterlimit="4" stroke="#d3d3d3" stroke-width="2"><g><path d="M 28 37.75L 34 43.75M 34 37.75L 28 43.75M 45.25 45.25L 37 45.25L 42.25 40.616501C 43.730499 39.311501 44.8615 38.397999 44.425003 36.25C 44.041622 34.361958 42.289948 33.071598 40.373131 33.265217C 38.456306 33.458836 36.998062 35.073425 37 37M 10.75 14.5C 10.75 16.571068 14.443651 18.25 19 18.25C 23.556349 18.25 27.25 16.571068 27.25 14.5C 27.25 12.428932 23.556349 10.75 19 10.75C 14.443651 10.75 10.75 12.428932 10.75 14.5ZM 27.25 19C 27.25 21.071501 23.556999 22.75 19 22.75C 14.443 22.75 10.75 21.071501 10.75 19M 27.25 23.5C 27.25 25.571499 23.556999 27.25 19 27.25C 14.443 27.25 10.75 25.571499 10.75 23.5M 27.25 28C 27.25 30.071499 23.556999 31.75 19 31.75C 14.443 31.75 10.75 30.071499 10.75 28M 10.75 14.5L 10.75 37C 10.75 39.071503 14.443 40.75 19 40.75C 21.061443 40.795734 23.108345 40.394539 25 39.573997M 27.25 14.5L 27.25 32.5C 27.25 34.571503 23.556999 36.25 19 36.25C 14.443 36.25 10.75 34.571503 10.75 32.5"></path></g></g></g><g id="g-root-ic_5_1ly0mr0tqz957-stroke" data-item-order="0" transform="translate(292.4984130859375, 287.087890625)"><g id="ic_5_1ly0mr0tqz957-stroke" fill="none" stroke-linecap="round" stroke-linejoin="round" stroke-miterlimit="4" stroke="#d3d3d3" stroke-width="2"><g><path d="M 10.75 28C 10.75 37.526913 18.473087 45.25 28 45.25C 37.526913 45.25 45.25 37.526913 45.25 28C 45.25 18.473087 37.526913 10.75 28 10.75C 18.473087 10.75 10.75 18.473087 10.75 28ZM 19.75 28C 19.75 32.556351 23.443651 36.25 28 36.25C 32.556351 36.25 36.25 32.556351 36.25 28C 36.25 23.443651 32.556351 19.75 28 19.75C 23.443651 19.75 19.75 23.443651 19.75 28ZM 29.5 24.25L 26.5 24.25L 26.5 28L 27.625 28C 28.660534 28 29.5 28.839466 29.5 29.875C 29.5 30.910534 28.660534 31.75 27.625 31.75L 26.307999 31.75M 28 14.875C 28.207108 14.875 28.375 15.042893 28.375 15.25M 27.625 15.25C 27.625 15.042893 27.792892 14.875 28 14.875M 28 15.625C 27.792892 15.625 27.625 15.457107 27.625 15.25M 28.375 15.25C 28.375 15.457107 28.207108 15.625 28 15.625M 15.25 27.625C 15.457107 27.625 15.625 27.792892 15.625 28M 14.875 28C 14.875 27.792892 15.042893 27.625 15.25 27.625M 15.25 28.375C 15.042893 28.375 14.875 28.207108 14.875 28M 15.625 28C 15.625 28.207108 15.457107 28.375 15.25 28.375M 28 40.375C 28.207108 40.375 28.375 40.542892 28.375 40.75M 27.625 40.75C 27.625 40.542892 27.792892 40.375 28 40.375M 28 41.125C 27.792892 41.125 27.625 40.957108 27.625 40.75M 28.375 40.75C 28.375 40.957108 28.207108 41.125 28 41.125M 40.75 27.625C 40.957108 27.625 41.125 27.792892 41.125 28M 40.375 28C 40.375 27.792892 40.542892 27.625 40.75 27.625M 40.75 28.375C 40.542892 28.375 40.375 28.207108 40.375 28M 41.125 28C 41.125 28.207108 40.957108 28.375 40.75 28.375M 20.3785 12.523L 23.883999 20.849499M 32.116001 20.849499L 35.621498 12.523M 43.477001 20.3785L 35.150501 23.883999M 35.150501 32.116001L 43.477001 35.621498M 35.621498 43.477001L 32.116001 35.150501M 23.883999 35.150501L 20.3785 43.477001M 12.523 35.621498L 20.849499 32.116001M 20.849499 23.883999L 12.523 20.3785"></path></g></g></g><g id="g-root-tx_30phase3_4nk46ktqza4v-stroke" data-item-order="0" transform="translate(328.9339599609375, 361.82421875)"></g></g></g></svg>