<?xml version="1.0" encoding="utf-8" standalone="yes"?>
<!DOCTYPE svg PUBLIC "-//W3C//DTD SVG 1.1//EN" "http://www.w3.org/Graphics/SVG/1.1/DTD/svg11.dtd">
<svg width="696" height="430" viewBox="0 0 696 430" style="fill:none;stroke:none;fill-rule:evenodd;clip-rule:evenodd;stroke-linecap:round;stroke-linejoin:round;stroke-miterlimit:1.5;" version="1.1" xmlns="http://www.w3.org/2000/svg" xmlns:xlink="http://www.w3.org/1999/xlink"><style class="text-font-style fontImports" data-font-family="Roboto">@import url('https://fonts.googleapis.com/css2?family=Roboto:wght@400;700&amp;display=block');</style><g id="items" style="isolation: isolate"><g id="blend" style="mix-blend-mode: normal"><g id="g-root-sy_back_cu_1ly0gfgul2800-fill" data-item-order="-44000" transform="translate(259.26953125, 110.166015625)"><g id="sy_back_cu_1ly0gfgul2800-fill" stroke="none" fill="#6b6b6b"><g><path d="M 15.0326 206.541496C 15.9629 207.112496 17.0468 207.444496 18.1904 207.444496L 19.2095 207.444496C 24.2441 213.857896 30.6852 219.848896 37.1417 224.982996L 29.3103 225.260696C 25.9806 225.393796 23.41 228.208396 23.41 231.542096L 23.41 232.952696C 23.5432 236.279696 26.3668 238.848196 29.6965 238.721796L 55.9034 237.809096C 61.4301 241.013396 67.2932 243.994396 73.3864 246.876096L 63.9578 270.929496C 46.3568 262.748596 28.2306 251.796196 14.9511 237.223296C 7.5094 227.592896 9.223 216.307196 15.0326 206.541496ZM 15.133342 110.003595C 7.076442 99.577095 9.706442 87.063395 16.752242 76.799995C 16.204642 77.617195 15.449042 78.809795 14.959442 79.650695C 16.476142 80.525295 17.443242 80.525295 18.546742 80.525295L 19.731442 80.525295C 24.773642 86.939095 30.927942 92.932695 37.386942 98.064495L 29.285442 98.344695C 25.955642 98.477795 23.385142 101.292395 23.385142 104.626095L 23.385142 106.036695C 23.518342 109.363695 26.341942 111.932195 29.671642 111.805795L 56.162042 110.888195C 66.137742 116.666395 77.207042 121.322595 88.745842 126.378595L 89.077642 126.525195L 88.745842 126.670595C 82.647342 129.367795 77.285442 131.582795 73.204342 133.245495C 68.085642 135.395195 62.839142 137.775895 57.604942 140.409495C 42.141042 132.628695 26.768942 122.772395 15.133342 110.003595ZM 135.705342 179.499995L 148.087342 180.001995C 151.296342 180.127995 153.910342 177.729995 154.036342 174.522595L 154.036342 173.244995C 154.036342 170.037795 151.606342 167.349595 148.396342 167.216495L 113.666342 165.834295C 105.899842 161.787995 97.618842 158.040095 89.076842 154.294295C 95.038242 151.663195 100.277342 149.498795 104.284442 147.866195C 109.592042 145.637095 115.037342 143.159795 120.463342 140.409495C 135.730342 148.147695 150.600342 157.992395 162.091342 170.601695C 170.190342 181.083995 167.316342 193.588995 160.247342 203.898995C 160.242342 203.890995 160.236342 203.882995 160.230342 203.874995C 160.236342 203.865995 160.242342 203.857995 160.247342 203.849995C 161.783342 201.609995 163.115342 199.268995 164.176342 196.869995C 163.097342 195.026995 161.468342 193.748995 159.234342 193.748995L 152.217342 193.748995C 147.118342 188.480995 141.266342 183.607995 135.705342 179.499995ZM 113.692421 38.8982L 148.396221 40.2793C 151.606021 40.4124 154.036721 43.1006 154.036721 46.3078L 154.036721 47.5854C 153.910221 50.7926 151.346321 53.2214 148.136521 53.0949L 135.788021 52.6035C 141.347621 56.7126 147.133121 61.5442 152.229621 66.8122L 159.234321 66.8122C 161.474821 66.8122 163.659221 68.2291 164.735421 70.0804C 168.548821 61.6721 169.111421 51.826 162.340421 43.3864C 149.060921 28.8136 130.934721 18.181 113.333621 10L 103.905121 34.0534C 107.242421 35.6318 110.510621 37.2399 113.692421 38.8982Z"></path></g></g></g><g id="g-root-sy_4_cu_18mjy24ul29kx-fill" data-item-order="-43996" transform="translate(338.013916015625, 264.96484375)"><g id="sy_4_cu_18mjy24ul29kx-fill" stroke="none" fill="#6b6b6b"><g><path d="M 69.652 12.374C 72.8619 12.5071 75.2926 15.1953 75.2926 18.4026L 75.2926 19.6801C 75.1661 22.8874 72.6022 25.3161 69.3923 25.1897L 10.000004 22.8259L 10.000004 10L 69.652 12.374ZM 78.8627 52.6209C 79.8051 51.4275 80.6989 50.2193 81.5354 48.9991C 83.0713 46.7592 84.5356 44.1467 85.5964 41.7473C 84.6143 40.2268 82.6713 38.9458 80.4375 38.9458L 10.000004 38.9069L 10.000004 52.6209L 78.8627 52.6209ZM 65.3074 66.4553L 10.000004 68.3809L 10 81.852L 45.9823 80.5926C 51.7414 77.0178 58.6982 72.1444 65.3074 66.4553Z"></path></g></g></g><g id="g-root-sy_3_cu_zqwxt8ul2adm-fill" data-item-order="-43992" transform="translate(264.3424072265625, 264.166015625)"><g id="sy_3_cu_zqwxt8ul2adm-fill" stroke="none" fill="#6b6b6b"><g><path d="M 10.000007 52.6336C 10.898631 53.1539 12.103431 53.454 13.190731 53.454L 83.680831 53.454L 83.680831 39.74L 20.284231 39.74C 17.073131 43.0393 14.074831 46.5121 11.623231 50.0879C 11.050431 50.9232 10.512531 51.7724 10.000007 52.6336ZM 41.933131 21.9974L 83.680831 23.659L 83.680831 10.8331L 62.747331 10C 58.077931 12.3271 53.572131 14.7402 49.281431 17.2997C 47.030131 18.6465 44.544531 20.2237 41.933131 21.9974ZM 18.321731 77.5515C 18.321731 74.2178 20.892231 71.4032 24.222031 71.2701L 83.680831 69.214L 83.680831 82.6851L 24.608231 84.7312C 21.278531 84.8576 18.454931 82.2892 18.321731 78.9621L 18.321731 77.5515Z"></path></g></g></g><g id="g-root-sy_2_cu_mg2wj0ul28sr-fill" data-item-order="-43988" transform="translate(338.01373291015625, 138.0703125)"><g id="sy_2_cu_mg2wj0ul28sr-fill" stroke="none" fill="#6b6b6b"><g><path d="M 69.652 12.374C 72.8619 12.5071 75.2926 15.1953 75.2926 18.4026L 75.2926 19.6801C 75.1661 22.8874 72.6022 25.3161 69.3923 25.1897L 10.000005 22.8259L 10.000005 10L 69.652 12.374ZM 79.467 52.6209C 80.3141 51.5352 81.1207 50.4377 81.88 49.3302C 83.4557 47.0322 84.8166 44.6281 85.8905 42.1635C 84.8338 40.2434 82.7819 38.9069 80.4902 38.9069L 10.000005 38.9069L 10.000005 52.6209L 79.467 52.6209ZM 66.0837 66.4415L 10.000005 68.3809L 10 81.852L 46.9214 80.5732C 52.6853 76.9594 59.5694 72.0937 66.0837 66.4415Z"></path></g></g></g><g id="g-root-sy_1_cu_i09eekul29l0-fill" data-item-order="-43984" transform="translate(264.225830078125, 137.21484375)"><g id="sy_1_cu_i09eekul29l0-fill" stroke="none" fill="#E5A000"><g><path d="M 20.0608 39.7625C 16.9982 42.9437 14.1971 46.2553 11.843 49.6887C 11.1882 50.6438 10.5755 51.6202 9.999992 52.6087C 10.9079 53.1433 12.006 53.4765 13.1095 53.4765L 83.7879 53.4765L 83.7879 39.7625L 20.0608 39.7625ZM 41.4923 22.0049L 83.7879 23.6815L 83.7879 10.8556L 62.1184 10C 59.1294 11.5014 56.209 13.0397 53.3708 14.6308C 52.0273 15.3839 50.7022 16.1489 49.3971 16.9275C 46.9864 18.3697 44.3071 20.076 41.4923 22.0049ZM 18.4288 77.574C 18.4288 74.2403 20.9994 71.4257 24.3291 71.2926L 83.7879 69.2365L 83.7879 82.7076L 24.7154 84.7537C 21.3856 84.8801 18.562 82.3117 18.4288 78.9847L 18.4288 77.574Z"></path></g></g></g><g id="g-root-sy_top_cu_4pfd4cul2805-fill" data-item-order="-43980" transform="translate(253.74176025390625, 110)"><g id="sy_top_cu_4pfd4cul2805-fill" stroke="none" fill="#6b6b6b"><g><path d="M 165.986199 203.901093C 156.501099 217.734893 139.638899 230.028993 128.505899 236.689293C 127.200699 237.467793 125.875599 238.232893 124.532099 238.985993C 119.668399 241.712593 114.562999 244.284293 109.284699 246.780993L 118.718699 270.831893C 136.312299 262.651793 154.428199 251.702693 167.701799 237.136293C 176.487799 227.494593 178.106299 218.223493 178.106299 203.901093C 178.106299 189.578793 176.487799 180.307693 167.701799 170.665893C 175.801699 181.148093 173.055099 193.591293 165.986199 203.901093ZM 20.4382 171.12746C 36.0626 154.03646 58.3749 141.92516 78.6817 133.42416C 82.776 131.76136 88.1553 129.54646 94.2736 126.84926C 106.5574 121.48416 118.308 116.12336 128.783 109.89486C 139.952 103.23456 156.869 90.94046 166.385 77.10666C 173.477 66.79686 176.232 54.35366 168.106 43.87146C 176.921 53.51326 178.544 62.78436 178.544 77.10666C 178.544 91.42906 176.921 100.70016 168.106 110.34196C 152.482 127.43266 130.169 139.54386 109.8625 148.04446C 105.7682 149.70746 100.3918 151.92146 94.2736 154.61946C 81.9897 159.98446 70.2362 165.34546 59.7611 171.57446C 48.592 178.23446 31.6752 190.52846 22.1594 204.36246C 15.0676 214.67246 12.3642 227.14346 20.6699 237.59746C 11.8554 227.95546 10 218.68446 10 204.36246C 10 190.03946 11.6237 180.76846 20.4382 171.12746ZM 22.307892 76.930801C 31.793 63.097 48.739594 50.802902 59.872589 44.142601C 61.177796 43.364097 62.502899 42.598999 63.846375 41.845901C 68.710083 39.119301 73.815491 36.5476 79.093781 34.050903L 69.65979 10C 52.066193 18.180099 33.950287 29.129196 20.676697 43.695595C 11.890686 53.337295 10.272187 62.608398 10.272187 76.930801C 10.272187 91.253097 11.890686 100.5242 20.676697 110.166C 12.576782 99.683792 15.238983 87.2406 22.307892 76.930801Z"></path></g></g></g><g id="g-root-tx_phoenixr_18efrxoul3n5u-fill" data-item-order="0" transform="translate(176, 38)"><g id="tx_phoenixr_18efrxoul3n5u-fill" stroke="none" fill="#f4f4f4"><g><text style="font: bold 25px Roboto, sans-serif; white-space: pre;" font-weight="bold" font-size="25px" font-family="Roboto, sans-serif"><tspan x="13.58" y="43" dominant-baseline="ideographic">Phoenix Restart Mechanism</tspan></text></g></g></g><g id="g-root-tx_orangegr_1cu9a24ul3mdl-fill" data-item-order="0" transform="translate(14, 158)"><g id="tx_orangegr_1cu9a24ul3mdl-fill" stroke="none" fill="#F8E6B8"><g><text style="font: 20px Roboto, sans-serif; white-space: pre;" font-size="20px" font-family="Roboto, sans-serif"><tspan x="19.89" y="33.64" dominant-baseline="ideographic">Orange Gradient</tspan></text></g></g></g><g id="g-root-ic_1_13zvb58uksg0d-fill" data-item-order="0" transform="translate(182, 146)"></g><g id="g-root-ic_badg_v4urzgukpm2w-fill" data-item-order="0" transform="translate(446, 146)"></g><g id="g-root-tx_geometri_1lz9eloul2a68-fill" data-item-order="0" transform="translate(506, 158)"><g id="tx_geometri_1lz9eloul2a68-fill" stroke="none" fill="#f4f4f4"><g><text style="font: 20px Roboto, sans-serif; white-space: pre;" font-size="20px" font-family="Roboto, sans-serif"><tspan x="12" y="33.64" dominant-baseline="ideographic">Geometric Stars</tspan></text></g></g></g><g id="g-root-tx_renewal_1qf2wq4ul29dz-fill" data-item-order="0" transform="translate(86, 290)"><g id="tx_renewal_1qf2wq4ul29dz-fill" stroke="none" fill="#f4f4f4"><g><text style="font: 20px Roboto, sans-serif; white-space: pre;" font-size="20px" font-family="Roboto, sans-serif"><tspan x="16.64" y="33.64" dominant-baseline="ideographic">Renewal</tspan></text></g></g></g><g id="g-root-ic_fire_1hs18ukpkow-fill" data-item-order="0" transform="translate(182, 278)"></g><g id="g-root-ic_3_18efrxoul3n5v-fill" data-item-order="0" transform="translate(446, 278)"></g><g id="g-root-tx_eternalc_1uuweukul28lq-fill" data-item-order="0" transform="translate(506, 290)"><g id="tx_eternalc_1uuweukul28lq-fill" stroke="none" fill="#f4f4f4"><g><text style="font: 20px Roboto, sans-serif; white-space: pre;" font-size="20px" font-family="Roboto, sans-serif"><tspan x="12" y="33.64" dominant-baseline="ideographic">Eternal Cycles</tspan></text></g></g></g><g id="g-root-sy_back_cu_1ly0gfgul2800-stroke" data-item-order="-44000" transform="translate(259.26953125, 110.166015625)"><g id="sy_back_cu_1ly0gfgul2800-stroke" fill="none" stroke-linecap="round" stroke-linejoin="round" stroke-miterlimit="4" stroke="#d3d3d3" stroke-width="2"><g><path d="M 15.0326 206.541496C 15.9629 207.112496 17.0468 207.444496 18.1904 207.444496L 19.2095 207.444496C 24.2441 213.857896 30.6852 219.848896 37.1417 224.982996L 29.3103 225.260696C 25.9806 225.393796 23.41 228.208396 23.41 231.542096L 23.41 232.952696C 23.5432 236.279696 26.3668 238.848196 29.6965 238.721796L 55.9034 237.809096C 61.4301 241.013396 67.2932 243.994396 73.3864 246.876096L 63.9578 270.929496C 46.3568 262.748596 28.2306 251.796196 14.9511 237.223296C 7.5094 227.592896 9.223 216.307196 15.0326 206.541496ZM 15.133342 110.003595C 7.076542 99.577095 9.706442 87.063395 16.752242 76.799995C 16.204642 77.617195 15.449042 78.809795 14.959442 79.650695C 16.476142 80.525295 17.443242 80.525295 18.546642 80.525295L 19.731442 80.525295C 24.773642 86.939095 30.927942 92.932695 37.386942 98.064495L 29.285442 98.344695C 25.955642 98.477795 23.385142 101.292395 23.385142 104.626095L 23.385142 106.036695C 23.518342 109.363695 26.341942 111.932195 29.671642 111.805795L 56.162042 110.888195C 66.137742 116.666395 77.207042 121.322595 88.745842 126.378595L 89.077642 126.525195L 88.745842 126.670595C 82.647342 129.367795 77.285442 131.582795 73.204342 133.245495C 68.085642 135.395195 62.839142 137.775895 57.604942 140.409495C 42.141042 132.628695 26.768942 122.772395 15.133342 110.003595ZM 135.705442 179.499495L 148.086942 180.001495C 151.296842 180.127895 153.910242 177.729795 154.036842 174.522595L 154.036842 173.244995C 154.036842 170.037795 151.606142 167.349595 148.396242 167.216495L 113.666042 165.834295C 105.899842 161.787995 97.618842 158.040095 89.076842 154.294295C 95.038242 151.663195 100.277342 149.498795 104.284442 147.866195C 109.592042 145.637095 115.037042 143.159795 120.463242 140.409495C 135.730842 148.147695 150.600742 157.992395 162.090942 170.601695C 170.190842 181.083895 167.316442 193.589395 160.247542 203.899295C 160.241942 203.890995 160.236342 203.882795 160.230642 203.874595C 160.236342 203.866295 160.241942 203.858095 160.247642 203.849895C 161.783442 201.609895 163.115242 199.269195 164.176142 196.869795C 163.097642 195.027395 161.468242 193.749395 159.234342 193.749395L 152.217042 193.749395C 147.118042 188.480595 141.266142 183.608295 135.705442 179.499495ZM 113.692421 38.8982L 148.396221 40.2793C 151.606021 40.4124 154.036721 43.1006 154.036721 46.3078L 154.036721 47.5854C 153.910221 50.7926 151.346321 53.2214 148.136521 53.0949L 135.788021 52.6035C 141.347621 56.7126 147.133121 61.5442 152.229621 66.8122L 159.234321 66.8122C 161.474821 66.8122 163.659221 68.2291 164.735421 70.0804C 168.548821 61.6721 169.111421 51.826 162.340421 43.3864C 149.060921 28.8136 130.934721 18.181 113.333621 10L 103.905121 34.0534C 107.242421 35.6318 110.510621 37.2399 113.692421 38.8982Z"></path></g></g></g><g id="g-root-sy_4_cu_18mjy24ul29kx-stroke" data-item-order="-43996" transform="translate(338.013916015625, 264.96484375)"><g id="sy_4_cu_18mjy24ul29kx-stroke" fill="none" stroke-linecap="round" stroke-linejoin="round" stroke-miterlimit="4" stroke="#d3d3d3" stroke-width="2"><g><path d="M 69.652 12.374C 72.8619 12.5071 75.2926 15.1953 75.2926 18.4025L 75.2926 19.6801C 75.1661 22.8874 72.6022 25.3161 69.3923 25.1897L 10 22.8259L 10 10L 69.652 12.374ZM 78.8627 52.6209C 79.8051 51.4275 80.6989 50.2193 81.5354 48.9991C 83.0713 46.7592 84.5356 44.1467 85.5964 41.7473C 84.6142 40.2268 82.6713 38.9458 80.4375 38.9458L 10 38.9069L 10 52.6209L 78.8627 52.6209ZM 65.3074 66.4553L 10 68.3809L 10 81.852L 45.9823 80.5926C 51.7414 77.0178 58.6982 72.1444 65.3074 66.4553Z"></path></g></g></g><g id="g-root-sy_3_cu_zqwxt8ul2adm-stroke" data-item-order="-43992" transform="translate(264.3424072265625, 264.166015625)"><g id="sy_3_cu_zqwxt8ul2adm-stroke" fill="none" stroke-linecap="round" stroke-linejoin="round" stroke-miterlimit="4" stroke="#d3d3d3" stroke-width="2"><g><path d="M 10.000031 52.6336C 10.898631 53.1539 12.103431 53.454 13.190731 53.454L 83.680831 53.454L 83.680831 39.74L 20.284231 39.74C 17.073131 43.0393 14.074831 46.5121 11.623131 50.0879C 11.050431 50.9232 10.512531 51.7724 10.000031 52.6336ZM 41.933131 21.9974L 83.680831 23.659L 83.680831 10.8331L 62.747331 10C 58.077931 12.3271 53.572131 14.7402 49.281431 17.2997C 47.030131 18.6465 44.544531 20.2237 41.933131 21.9974ZM 18.321731 77.5515C 18.321731 74.2178 20.892231 71.4032 24.222031 71.2701L 83.680831 69.214L 83.680831 82.6851L 24.608231 84.7312C 21.278531 84.8576 18.454931 82.2892 18.321731 78.9621L 18.321731 77.5515Z"></path></g></g></g><g id="g-root-sy_2_cu_mg2wj0ul28sr-stroke" data-item-order="-43988" transform="translate(338.01373291015625, 138.0703125)"><g id="sy_2_cu_mg2wj0ul28sr-stroke" fill="none" stroke-linecap="round" stroke-linejoin="round" stroke-miterlimit="4" stroke="#d3d3d3" stroke-width="2"><g><path d="M 69.652 12.374C 72.8619 12.5071 75.2926 15.1953 75.2926 18.4025L 75.2926 19.6801C 75.1661 22.8874 72.6022 25.3161 69.3923 25.1897L 10 22.8259L 10 10L 69.652 12.374ZM 79.467 52.6209C 80.3141 51.5352 81.1207 50.4377 81.88 49.3302C 83.4557 47.0322 84.8166 44.6281 85.8905 42.1635C 84.8338 40.2434 82.7819 38.9069 80.4902 38.9069L 10 38.9069L 10 52.6209L 79.467 52.6209ZM 66.0837 66.4415L 10 68.3809L 10 81.852L 46.9214 80.5732C 52.6853 76.9594 59.5694 72.0937 66.0837 66.4415Z"></path></g></g></g><g id="g-root-sy_1_cu_i09eekul29l0-stroke" data-item-order="-43984" transform="translate(264.225830078125, 137.21484375)"><g id="sy_1_cu_i09eekul29l0-stroke" fill="none" stroke-linecap="round" stroke-linejoin="round" stroke-miterlimit="4" stroke="#F8E6B8" stroke-width="2"><g><path d="M 20.0608 39.7625C 16.9982 42.9437 14.1971 46.2553 11.843 49.6887C 11.1882 50.6438 10.5755 51.6202 10 52.6087C 10.9079 53.1433 12.006 53.4765 13.1095 53.4765L 83.7879 53.4765L 83.7879 39.7625L 20.0608 39.7625ZM 41.4923 22.0049L 83.7879 23.6815L 83.7879 10.8556L 62.1184 10C 59.1294 11.5014 56.209 13.0397 53.3708 14.6308C 52.0273 15.3839 50.7022 16.1489 49.3971 16.9275C 46.9864 18.3697 44.3071 20.076 41.4923 22.0049ZM 18.4288 77.574C 18.4288 74.2403 20.9994 71.4257 24.3291 71.2926L 83.7879 69.2365L 83.7879 82.7076L 24.7154 84.7537C 21.3856 84.8801 18.562 82.3117 18.4288 78.9847L 18.4288 77.574Z"></path></g></g></g><g id="g-root-sy_top_cu_4pfd4cul2805-stroke" data-item-order="-43980" transform="translate(253.74176025390625, 110)"><g id="sy_top_cu_4pfd4cul2805-stroke" fill="none" stroke-linecap="round" stroke-linejoin="round" stroke-miterlimit="4" stroke="#d3d3d3" stroke-width="2"><g><path d="M 165.986199 203.901093C 156.501099 217.734893 139.638899 230.028993 128.505899 236.689293C 127.200699 237.467793 125.875599 238.232893 124.532099 238.985993C 119.668399 241.712593 114.562999 244.284293 109.284699 246.780993L 118.718699 270.831493C 136.312299 262.651793 154.428199 251.702693 167.701799 237.136293C 176.487799 227.494593 178.106299 218.223493 178.106299 203.901093C 178.106299 189.578793 176.487799 180.307693 167.701799 170.665893C 175.801699 181.148093 173.055099 193.591293 165.986199 203.901093ZM 78.6817 133.42416C 58.3749 141.92516 36.0626 154.03626 20.4382 171.12706C 11.6237 180.76876 10 190.03996 10 204.36226C 10 218.68456 11.8554 227.95576 20.6699 237.59746C 12.3642 227.14336 15.0676 214.67206 22.1594 204.36226C 31.6752 190.52846 48.592 178.23436 59.7611 171.57406C 70.2362 165.34556 81.9897 159.98426 94.2736 154.61916C 100.3918 151.92196 105.7682 149.70756 109.8625 148.04486C 130.1694 139.54386 152.4817 127.43266 168.106 110.34196C 176.9206 100.70016 178.5443 91.42906 178.5443 77.10666C 178.5443 62.78436 176.9206 53.51326 168.106 43.87146C 176.2322 54.35366 173.4767 66.79686 166.3849 77.10666C 156.8691 90.94046 139.9523 103.23456 128.7832 109.89486C 118.3081 116.12336 106.5574 121.48416 94.2736 126.84926C 88.1553 129.54646 82.776 131.76136 78.6817 133.42416ZM 22.307892 76.930801C 31.793 63.097 48.739594 50.802902 59.872589 44.142601C 61.177796 43.364097 62.502899 42.598999 63.846375 41.845901C 68.710083 39.119301 73.815491 36.5476 79.093781 34.050903L 69.65979 10.000397C 52.066193 18.180099 33.950287 29.129196 20.676697 43.695595C 11.890686 53.337295 10.272187 62.608398 10.272187 76.930801C 10.272187 91.253097 11.890686 100.5242 20.676697 110.166C 12.576782 99.683792 15.238983 87.2406 22.307892 76.930801Z"></path></g></g></g><g id="g-root-tx_phoenixr_18efrxoul3n5u-stroke" data-item-order="0" transform="translate(176, 38)"></g><g id="g-root-tx_orangegr_1cu9a24ul3mdl-stroke" data-item-order="0" transform="translate(14, 158)"></g><g id="g-root-ic_1_13zvb58uksg0d-stroke" data-item-order="0" transform="translate(182, 146)"><g id="ic_1_13zvb58uksg0d-stroke" fill="none" stroke-linecap="round" stroke-linejoin="round" stroke-miterlimit="4" stroke="#F8E6B8" stroke-width="2"><g><path d="M 35.049999 11C 22.348 11 11.05 21.304001 11.05 34C 11.05 46.695999 22.348 57 35.049999 57ZM 15.05 34.001999L 19.049999 34.001999M 53.049999 34.001999L 49.049999 34.001999M 20.616001 47.442001L 23.445999 44.613998M 47.486 20.571999L 44.658001 23.4M 47.486 47.442001L 44.658001 44.613998M 20.616001 20.571999L 23.445999 23.4"></path></g></g></g><g id="g-root-ic_badg_v4urzgukpm2w-stroke" data-item-order="0" transform="translate(446, 146)"><g id="ic_badg_v4urzgukpm2w-stroke" fill="none" stroke-linecap="round" stroke-linejoin="round" stroke-miterlimit="4" stroke="#f4f4f4" stroke-width="2"><g><path d="M 21 36.475998L 32.779999 27.414C 33.49913 26.860403 34.50087 26.860403 35.220001 27.414L 47 36.475998M 21 28.476L 32.779999 19.414C 33.49913 18.860405 34.50087 18.860405 35.220001 19.414L 47 28.476M 21 20.476L 32.779999 11.414C 33.49913 10.860404 34.50087 10.860404 35.220001 11.414L 47 20.476M 35.178001 37.718002L 37.742001 43L 42.731998 43C 43.248779 42.979301 43.722801 43.285648 43.916195 43.765327C 44.109592 44.245003 43.980621 44.794468 43.593998 45.138L 39.262001 49.664001L 41.662003 55.186001C 41.876713 55.703884 41.738075 56.300995 41.317139 56.671291C 40.896202 57.041588 40.286285 57.102978 39.799999 56.823997L 34 53.556L 28.200001 56.824001C 27.713837 57.105835 27.101986 57.045647 26.680059 56.674477C 26.258135 56.30331 26.12044 55.704124 26.337999 55.186001L 28.738001 49.664001L 24.4 45.138C 24.013039 44.794235 23.88414 44.244225 24.078075 43.764328C 24.272011 43.284428 24.746847 42.978397 25.264 43L 30.264 43L 32.834 37.718002C 33.06282 37.282608 33.514141 37.009949 34.005997 37.009949C 34.497856 37.009949 34.949181 37.282608 35.178001 37.717999Z"></path></g></g></g><g id="g-root-tx_geometri_1lz9eloul2a68-stroke" data-item-order="0" transform="translate(506, 158)"></g><g id="g-root-tx_renewal_1qf2wq4ul29dz-stroke" data-item-order="0" transform="translate(86, 290)"></g><g id="g-root-ic_fire_1hs18ukpkow-stroke" data-item-order="0" transform="translate(182, 278)"><g id="ic_fire_1hs18ukpkow-stroke" fill="none" stroke-linecap="round" stroke-linejoin="round" stroke-miterlimit="4" stroke="#f4f4f4" stroke-width="2"><g><path d="M 19.939999 17.812C 19.540798 19.855549 19.857189 21.974232 20.835999 23.812C 22.439747 22.182638 24.257759 20.779095 26.240002 19.639999C 25.032845 21.270926 25.032845 23.499073 26.24 25.129999C 28.41708 27.250711 30.953896 28.967428 33.732002 30.200001C 33.732002 30.200001 31.379999 32.599998 31.284 32.599998C 31.188 32.599998 25.666 32.152 23.813999 36.176003C 21.962 40.200001 28.698 44.316002 30.294001 44.576C 31.889999 44.835999 41.478001 46.428001 42.754002 38C 44.029999 29.572001 38.370003 27.4 38.370003 27.4C 38.370003 27.4 50.672001 28.209999 46.714001 40.253998C 52.335976 35.459915 54.102459 27.521749 51.043999 20.796001M 51.043999 20.782C 58.831985 30.20188 57.504211 44.152618 48.07906 51.934223C 38.653904 59.715824 24.704067 58.378601 16.928852 48.948177C 9.153636 39.517754 10.500312 25.568825 19.936001 17.799999M 52.551998 27.525999C 51.17205 24.838657 49.484032 22.321056 47.521996 20.023998C 44.372002 16.618 41.18 13.34 40.924 11C 40.924 11 34.158001 13.512 32.924 23.257999M 26.614 25.557999C 29.268435 23.58123 32.639549 22.829475 35.882355 23.491173C 39.125164 24.15287 41.932251 26.165287 43.600002 29.024M 34 30.302C 32.260384 31.234156 30.229189 31.462549 28.326 30.939999C 24.878309 29.228563 20.881535 28.998133 17.26 30.302C 17.26 30.302 17.875999 33.365997 22.368 33.622002C 22.09236 35.884567 22.761597 38.160698 24.218 39.914001"></path></g></g></g><g id="g-root-ic_3_18efrxoul3n5v-stroke" data-item-order="0" transform="translate(446, 278)"><g id="ic_3_18efrxoul3n5v-stroke" fill="none" stroke-linecap="round" stroke-linejoin="round" stroke-miterlimit="4" stroke="#f4f4f4" stroke-width="2"><g><path d="M 32.299999 47.099998L 39.900002 47.099998C 42.099998 47.099998 44.099998 46.299999 45.700001 44.900002C 47.299999 43.299999 48.099998 41.299999 48.099998 39.099998L 48.099998 28.9M 36.099998 54.099998C 33.700001 55.700001 30.700001 56.5 27.5 56.5C 18.700001 56.5 11.5 49.299999 11.5 40.5C 11.5 31.700001 18.700001 24.500019 27.5 24.500019C 35.099998 24.500019 41.5 29.900021 43.099998 36.900002M 27.5 48.5C 31.9182 48.5 35.5 44.9184 35.5 40.5C 35.5 36.081802 31.9182 32.5 27.5 32.5C 23.08172 32.5 19.5 36.081802 19.5 40.5C 19.5 44.9184 23.08172 48.5 27.5 48.5ZM 27.499981 40.900002C 27.279079 40.900002 27.099979 40.721001 27.099979 40.5C 27.099979 40.278999 27.279079 40.099998 27.499981 40.099998M 27.499901 40.900002C 27.7208 40.900002 27.8999 40.721001 27.8999 40.5C 27.8999 40.278999 27.7208 40.099998 27.499901 40.099998M 48.099998 28.29998C 52.739201 28.29998 56.5 24.53916 56.5 19.899979C 56.5 15.26078 52.739201 11.499978 48.099998 11.499978C 43.4608 11.499978 39.700001 15.26078 39.700001 19.899979C 39.700001 24.53916 43.4608 28.29998 48.099998 28.29998ZM 10 10M 48.0998 19.900059L 50.299801 17.70006"></path></g></g></g><g id="g-root-tx_eternalc_1uuweukul28lq-stroke" data-item-order="0" transform="translate(506, 290)"></g></g></g></svg>