<?xml version="1.0" encoding="utf-8" standalone="yes"?>
<!DOCTYPE svg PUBLIC "-//W3C//DTD SVG 1.1//EN" "http://www.w3.org/Graphics/SVG/1.1/DTD/svg11.dtd">
<svg width="624" height="672" viewBox="0 0 624 672" style="fill:none;stroke:none;fill-rule:evenodd;clip-rule:evenodd;stroke-linecap:round;stroke-linejoin:round;stroke-miterlimit:1.5;" version="1.1" xmlns="http://www.w3.org/2000/svg" xmlns:xlink="http://www.w3.org/1999/xlink"><style class="text-font-style fontImports" data-font-family="Roboto">@import url('https://fonts.googleapis.com/css2?family=Roboto:wght@400;700&amp;display=block');</style><g id="items" style="isolation: isolate"><g id="blend" style="mix-blend-mode: normal"><g id="g-root-sy_0_arrow-left-stroke_1hbcisrt6q9e7-fill" data-item-order="-331761" transform="translate(37.99993896484375, 198.94091796875)"></g><g id="g-root-sy_0_arrow-right-stroke_1lr60x7t6q9ds-fill" data-item-order="-331757" transform="translate(448.95098876953125, 350)"></g><g id="g-root-cp_3_g-3_1lr60x7t6q9dt-fill" data-item-order="-331756" transform="translate(302, 206)"><g id="cp_3_g-3_1lr60x7t6q9dt-fill" stroke="none" fill="#6b6b6b"><g><path d="M 46 154L 46.0075 154C 46.0075 144.5458 47.8696 135.1842 51.4876 126.4496C 55.1055 117.7151 60.4085 109.7787 67.0936 103.0936C 73.7787 96.4085 81.7151 91.1055 90.4497 87.4876C 99.1842 83.8696 108.5458 82.0075 118 82.0075C 127.4542 82.0075 136.8158 83.8696 145.5504 87.4876C 154.2849 91.1055 162.2213 96.4085 168.9064 103.0936C 175.5916 109.7787 180.8945 117.7151 184.5125 126.4497C 188.1304 135.1842 189.9925 144.5459 189.9925 154L 262 154.0001C 262 135.0897 258.2754 116.3646 251.0387 98.8937C 243.802 81.4228 233.1951 65.5483 219.8234 52.1767C 206.4518 38.805 190.5774 28.1981 173.1065 20.9614C 155.6356 13.7247 136.9104 10 118.0001 10C 99.0897 10 80.3645 13.7247 62.8936 20.9613C 45.4227 28.198 29.5483 38.805 16.1767 52.1766C 14.0468 54.3064 11.9871 56.4998 10 58.7529C 22.8125 73.281 32.5625 90.245 38.6658 108.6299C 43.5318 123.2873 46 138.6071 46 154Z"></path></g></g></g><g id="g-root-cp_4_g-4_1cw5hrft6q70r-fill" data-item-order="-331752" transform="translate(50, 350)"><g id="cp_4_g-4_1cw5hrft6q70r-fill" stroke="none" fill="#6b6b6b"><g><path d="M 262.0002 105.2472C 249.1695 90.6987 239.4104 73.7076 233.3088 55.2937C 228.4595 40.6591 226 25.3658 226 10L 225.9901 10C 225.9901 29.093 218.4055 47.4039 204.9047 60.9047C 191.4039 74.4055 173.093 81.9901 154 81.9901C 134.907 81.9901 116.5961 74.4055 103.0953 60.9047C 89.5945 47.4039 82.0099 29.093 82.0099 10L 10 10C 10 48.1912 25.1714 84.8182 52.1766 111.8234C 79.1819 138.8286 115.8088 154 154 154C 192.1912 154 228.8181 138.8286 255.8234 111.8234C 257.9567 109.69 260.0162 107.4967 262.0002 105.2472Z"></path></g></g></g><g id="g-root-cp_2_g-2_1cw5hrft6q70t-fill" data-item-order="-331748" transform="translate(266, 350)"><g id="cp_2_g-2_1cw5hrft6q70t-fill" stroke="none" fill="#6b6b6b"><g><path d="M 298 10C 298 48.1912 282.8286 84.8181 255.8234 111.8234C 228.8181 138.8286 192.1912 154 154 154C 115.8088 154 79.1819 138.8286 52.1766 111.8234C 25.1714 84.8182 10 48.1912 10 10L 81.9937 10C 81.9937 29.0973 89.5801 47.4123 103.0839 60.9161C 116.5877 74.4199 134.9027 82.0063 154 82.0063C 173.0973 82.0063 191.4123 74.4199 204.9161 60.9161C 218.4199 47.4123 226.0063 29.0973 226.0063 10L 298 10Z"></path></g></g></g><g id="g-root-cp_1_g-1_18gbzmzt6q7t3-fill" data-item-order="-331744" transform="translate(50, 206)"><g id="cp_1_g-1_18gbzmzt6q7t3-fill" stroke="none" fill="#E5A000"><g><path d="M 10 154C 10 115.8088 25.1714 79.1819 52.1766 52.1766C 79.1819 25.1714 115.8088 10 154 10C 192.1912 10 228.8181 25.1714 255.8233 52.1766C 282.8286 79.1818 298 115.8088 298 154L 225.9995 154C 225.9995 134.9045 218.4138 116.5912 204.9113 103.0887C 191.4088 89.5861 173.0954 82.0005 154 82.0005C 134.9045 82.0005 116.5912 89.5861 103.0887 103.0887C 89.5861 116.5912 82.0005 134.9045 82.0005 154L 10 154Z"></path></g></g></g><g id="g-root-tx_resonanc_18gbzmzt6q7t5-fill" data-item-order="0" transform="translate(170, 38)"><g id="tx_resonanc_18gbzmzt6q7t5-fill" stroke="none" fill="#f4f4f4"><g><text style="font: bold 25px Roboto, sans-serif; white-space: pre;" font-weight="bold" font-size="25px" font-family="Roboto, sans-serif"><tspan x="17.22" y="43" dominant-baseline="ideographic">Resonance Pool Cycle</tspan></text></g></g></g><g id="g-root-tx_inputval_de7xuzt6q8li-fill" data-item-order="0" transform="translate(134, 110)"><g id="tx_inputval_de7xuzt6q8li-fill" stroke="none" fill="#F8E6B8"><g><text style="font: bold 20px Roboto, sans-serif; white-space: pre;" font-weight="bold" font-size="20px" font-family="Roboto, sans-serif"><tspan x="13.93" y="33.64" dominant-baseline="ideographic">Input Values</tspan></text></g></g></g><g id="g-root-tx_generate_1hd7y23t6q96q-fill" data-item-order="0" transform="translate(326, 110)"><g id="tx_generate_1hd7y23t6q96q-fill" stroke="none" fill="#f4f4f4"><g><text style="font: bold 20px Roboto, sans-serif; white-space: pre;" font-weight="bold" font-size="20px" font-family="Roboto, sans-serif"><tspan x="15.46" y="33.64" dominant-baseline="ideographic">Generate Returns</tspan></text></g></g></g><g id="g-root-tx_valuesar_4ikxm3t6q9e7-fill" data-item-order="0" transform="translate(110, 146)"><g id="tx_valuesar_4ikxm3t6q9e7-fill" stroke="none" fill="#F8E6B8"><g><text style="font: 15px Roboto, sans-serif; white-space: pre;" font-size="15px" font-family="Roboto, sans-serif"><tspan x="13.71" y="27.27" dominant-baseline="ideographic">Values are added to the </tspan><tspan x="75.57" y="45.27" dominant-baseline="ideographic">pool.</tspan></text></g></g></g><g id="g-root-tx_enhanced_18hkxt7t6q9zf-fill" data-item-order="0" transform="translate(332, 146)"><g id="tx_enhanced_18hkxt7t6q9zf-fill" stroke="none" fill="#f4f4f4"><g><text style="font: 15px Roboto, sans-serif; white-space: pre;" font-size="15px" font-family="Roboto, sans-serif"><tspan x="17.53" y="27.27" dominant-baseline="ideographic">Enhanced values are </tspan><tspan x="51.84" y="45.27" dominant-baseline="ideographic">outputted.</tspan></text></g></g></g><g id="g-root-tx_1_v4vh9nt6q9e2-fill" data-item-order="0" transform="translate(182, 224)"><g id="tx_1_v4vh9nt6q9e2-fill" stroke="none" fill="#F8E6B8"><g><text style="font: bold 25px Roboto, sans-serif; white-space: pre;" font-weight="bold" font-size="25px" font-family="Roboto, sans-serif"><tspan x="14.83" y="43" dominant-baseline="ideographic">1</tspan></text></g></g></g><g id="g-root-tx_3_hu1fzft6q7t8-fill" data-item-order="0" transform="translate(398, 224)"><g id="tx_3_hu1fzft6q7t8-fill" stroke="none" fill="#f4f4f4"><g><text style="font: bold 25px Roboto, sans-serif; white-space: pre;" font-weight="bold" font-size="25px" font-family="Roboto, sans-serif"><tspan x="14.83" y="43" dominant-baseline="ideographic">3</tspan></text></g></g></g><g id="g-root-tx_4_hu1fzft6q7t9-fill" data-item-order="0" transform="translate(182, 440)"><g id="tx_4_hu1fzft6q7t9-fill" stroke="none" fill="#f4f4f4"><g><text style="font: bold 25px Roboto, sans-serif; white-space: pre;" font-weight="bold" font-size="25px" font-family="Roboto, sans-serif"><tspan x="14.83" y="43" dominant-baseline="ideographic">4</tspan></text></g></g></g><g id="g-root-tx_2_qpog8bt6q70j-fill" data-item-order="0" transform="translate(398.5, 440.5)"><g id="tx_2_qpog8bt6q70j-fill" stroke="none" fill="#f4f4f4"><g><text style="font: bold 25px Roboto, sans-serif; white-space: pre;" font-weight="bold" font-size="25px" font-family="Roboto, sans-serif"><tspan x="14.83" y="43" dominant-baseline="ideographic">2</tspan></text></g></g></g><g id="g-root-tx_reinputv_142dwrvt6q7lw-fill" data-item-order="0" transform="translate(116, 518)"><g id="tx_reinputv_142dwrvt6q7lw-fill" stroke="none" fill="#f4f4f4"><g><text style="font: bold 20px Roboto, sans-serif; white-space: pre;" font-weight="bold" font-size="20px" font-family="Roboto, sans-serif"><tspan x="16.46" y="33.64" dominant-baseline="ideographic">Re-input Values</tspan></text></g></g></g><g id="g-root-tx_amplifyr_1uoogfft6q7ls-fill" data-item-order="0" transform="translate(320, 518)"><g id="tx_amplifyr_1uoogfft6q7ls-fill" stroke="none" fill="#f4f4f4"><g><text style="font: bold 20px Roboto, sans-serif; white-space: pre;" font-weight="bold" font-size="20px" font-family="Roboto, sans-serif"><tspan x="13" y="33.64" dominant-baseline="ideographic">Amplify Resonance</tspan></text></g></g></g><g id="g-root-tx_returnsa_v6qwizt6q8el-fill" data-item-order="0" transform="translate(104, 554)"><g id="tx_returnsa_v6qwizt6q8el-fill" stroke="none" fill="#f4f4f4"><g><text style="font: 15px Roboto, sans-serif; white-space: pre;" font-size="15px" font-family="Roboto, sans-serif"><tspan x="15.06" y="27.27" dominant-baseline="ideographic">Returns are fed back into </tspan><tspan x="69.15" y="45.27" dominant-baseline="ideographic">the pool.</tspan></text></g></g></g><g id="g-root-tx_poolenha_1lt1g6jt6q8eh-fill" data-item-order="0" transform="translate(320, 554)"><g id="tx_poolenha_1lt1g6jt6q8eh-fill" stroke="none" fill="#f4f4f4"><g><text style="font: 15px Roboto, sans-serif; white-space: pre;" font-size="15px" font-family="Roboto, sans-serif"><tspan x="13.1" y="30.27" dominant-baseline="ideographic">Pool enhances the values.</tspan></text></g></g></g><g id="g-root-sy_0_arrow-left-stroke_1hbcisrt6q9e7-stroke" data-item-order="-331761" transform="translate(37.99993896484375, 198.94091796875)"><g id="sy_0_arrow-left-stroke_1hbcisrt6q9e7-stroke" fill="none" stroke-linecap="round" stroke-linejoin="round" stroke-miterlimit="4" stroke="#d3d3d3" stroke-width="2"><g><path d="M 10 161.058545C 10 126.468545 21.5 92.858545 42.69 65.508545C 63.47 38.688545 92.42 19.388545 125.14 10.508545"></path><path d="M 121.2 18.508545L 125.6 10.408545L 117.5 6.008545" stroke-dasharray="none"></path></g></g></g><g id="g-root-sy_0_arrow-right-stroke_1lr60x7t6q9ds-stroke" data-item-order="-331757" transform="translate(448.95098876953125, 350)"><g id="sy_0_arrow-right-stroke_1lr60x7t6q9ds-stroke" fill="none" stroke-linecap="round" stroke-linejoin="round" stroke-miterlimit="4" stroke="#d3d3d3" stroke-width="2"><g><path d="M 127.03884 11.97998C 126.60884 45.86998 115.14884 78.72998 94.35884 105.54998C 73.17884 132.88998 43.49884 152.41998 9.99884 161.05998"></path><path d="M 133.19884 18.27998L 126.99884 11.47998L 120.29884 17.77998" stroke-dasharray="none"></path></g></g></g><g id="g-root-cp_3_g-3_1lr60x7t6q9dt-stroke" data-item-order="-331756" transform="translate(302, 206)"><g id="cp_3_g-3_1lr60x7t6q9dt-stroke" fill="none" stroke-linecap="round" stroke-linejoin="round" stroke-miterlimit="4" stroke="#d3d3d3" stroke-width="2"><g><path d="M 46 154L 46.0075 154C 46.0075 144.5458 47.8696 135.1842 51.4876 126.4496C 55.1055 117.7151 60.4085 109.7787 67.0936 103.0936C 73.7787 96.4085 81.7151 91.1055 90.4497 87.4876C 99.1842 83.8696 108.5458 82.0075 118 82.0075C 127.4542 82.0075 136.8158 83.8696 145.5504 87.4876C 154.2849 91.1055 162.2213 96.4085 168.9064 103.0936C 175.5916 109.7787 180.8945 117.7151 184.5125 126.4497C 188.1304 135.1842 189.9925 144.5459 189.9925 154L 262 154.0001C 262 135.0897 258.2754 116.3646 251.0387 98.8937C 243.802 81.4228 233.1951 65.5483 219.8234 52.1767C 206.4518 38.805 190.5774 28.1981 173.1065 20.9614C 155.6356 13.7247 136.9104 10 118.0001 10C 99.0897 10 80.3645 13.7247 62.8936 20.9613C 45.4227 28.198 29.5483 38.805 16.1767 52.1766C 14.0468 54.3064 11.9871 56.4998 10 58.7529C 22.8125 73.281 32.5625 90.245 38.6658 108.6299C 43.5318 123.2873 46 138.6071 46 154Z"></path></g></g></g><g id="g-root-cp_4_g-4_1cw5hrft6q70r-stroke" data-item-order="-331752" transform="translate(50, 350)"><g id="cp_4_g-4_1cw5hrft6q70r-stroke" fill="none" stroke-linecap="round" stroke-linejoin="round" stroke-miterlimit="4" stroke="#d3d3d3" stroke-width="2"><g><path d="M 262.0002 105.2472C 249.1695 90.6987 239.4104 73.7076 233.3088 55.2937C 228.4595 40.6591 226 25.3658 226 10L 225.9901 10C 225.9901 29.093 218.4055 47.4039 204.9047 60.9047C 191.4039 74.4055 173.093 81.9901 154 81.9901C 134.907 81.9901 116.5961 74.4055 103.0953 60.9047C 89.5945 47.4039 82.0099 29.093 82.0099 10L 10 10C 10 48.1912 25.1714 84.8182 52.1766 111.8234C 79.1819 138.8286 115.8088 154 154 154C 192.1912 154 228.8181 138.8286 255.8234 111.8234C 257.9567 109.69 260.0162 107.4967 262.0002 105.2472Z"></path></g></g></g><g id="g-root-cp_2_g-2_1cw5hrft6q70t-stroke" data-item-order="-331748" transform="translate(266, 350)"><g id="cp_2_g-2_1cw5hrft6q70t-stroke" fill="none" stroke-linecap="round" stroke-linejoin="round" stroke-miterlimit="4" stroke="#d3d3d3" stroke-width="2"><g><path d="M 298 10C 298 48.1912 282.8286 84.8181 255.8234 111.8234C 228.8181 138.8286 192.1912 154 154 154C 115.8088 154 79.1819 138.8286 52.1766 111.8234C 25.1714 84.8182 10 48.1912 10 10L 81.9937 10C 81.9937 29.0973 89.5801 47.4123 103.0839 60.9161C 116.5877 74.4199 134.9027 82.0063 154 82.0063C 173.0973 82.0063 191.4123 74.4199 204.9161 60.9161C 218.4199 47.4123 226.0063 29.0973 226.0063 10L 298 10Z"></path></g></g></g><g id="g-root-cp_1_g-1_18gbzmzt6q7t3-stroke" data-item-order="-331744" transform="translate(50, 206)"><g id="cp_1_g-1_18gbzmzt6q7t3-stroke" fill="none" stroke-linecap="round" stroke-linejoin="round" stroke-miterlimit="4" stroke="#F8E6B8" stroke-width="2"><g><path d="M 10 154C 10 115.8088 25.1714 79.1819 52.1766 52.1766C 79.1819 25.1714 115.8088 10 154 10C 192.1912 10 228.8181 25.1714 255.8233 52.1766C 282.8286 79.1818 298 115.8088 298 154L 225.9995 154C 225.9995 134.9045 218.4138 116.5912 204.9113 103.0887C 191.4088 89.5861 173.0954 82.0005 154 82.0005C 134.9045 82.0005 116.5912 89.5861 103.0887 103.0887C 89.5861 116.5912 82.0005 134.9045 82.0005 154L 10 154Z"></path></g></g></g><g id="g-root-tx_resonanc_18gbzmzt6q7t5-stroke" data-item-order="0" transform="translate(170, 38)"></g><g id="g-root-tx_inputval_de7xuzt6q8li-stroke" data-item-order="0" transform="translate(134, 110)"></g><g id="g-root-tx_generate_1hd7y23t6q96q-stroke" data-item-order="0" transform="translate(326, 110)"></g><g id="g-root-tx_valuesar_4ikxm3t6q9e7-stroke" data-item-order="0" transform="translate(110, 146)"></g><g id="g-root-tx_enhanced_18hkxt7t6q9zf-stroke" data-item-order="0" transform="translate(332, 146)"></g><g id="g-root-tx_1_v4vh9nt6q9e2-stroke" data-item-order="0" transform="translate(182, 224)"></g><g id="g-root-tx_3_hu1fzft6q7t8-stroke" data-item-order="0" transform="translate(398, 224)"></g><g id="g-root-tx_4_hu1fzft6q7t9-stroke" data-item-order="0" transform="translate(182, 440)"></g><g id="g-root-tx_2_qpog8bt6q70j-stroke" data-item-order="0" transform="translate(398.5, 440.5)"></g><g id="g-root-tx_reinputv_142dwrvt6q7lw-stroke" data-item-order="0" transform="translate(116, 518)"></g><g id="g-root-tx_amplifyr_1uoogfft6q7ls-stroke" data-item-order="0" transform="translate(320, 518)"></g><g id="g-root-tx_returnsa_v6qwizt6q8el-stroke" data-item-order="0" transform="translate(104, 554)"></g><g id="g-root-tx_poolenha_1lt1g6jt6q8eh-stroke" data-item-order="0" transform="translate(320, 554)"></g></g></g></svg>