<?xml version="1.0" encoding="utf-8" standalone="yes"?>
<!DOCTYPE svg PUBLIC "-//W3C//DTD SVG 1.1//EN" "http://www.w3.org/Graphics/SVG/1.1/DTD/svg11.dtd">
<svg width="672" height="708" viewBox="0 0 672 708" style="fill:none;stroke:none;fill-rule:evenodd;clip-rule:evenodd;stroke-linecap:round;stroke-linejoin:round;stroke-miterlimit:1.5;" version="1.1" xmlns="http://www.w3.org/2000/svg" xmlns:xlink="http://www.w3.org/1999/xlink"><style class="text-font-style fontImports" data-font-family="Roboto">@import url('https://fonts.googleapis.com/css2?family=Roboto:wght@400;700&amp;display=block');</style><g id="items" style="isolation: isolate"><g id="blend" style="mix-blend-mode: normal"><g id="g-root-cp_3_g-3_1hitfhnsd8bgp-fill" data-item-order="-381878" transform="translate(118, 140)"><g id="cp_3_g-3_1hitfhnsd8bgp-fill" stroke="none" fill="#6b6b6b"><g><path d="M 218 10L 10 370L 130 298L 218 145L 218 10Z"></path></g></g></g><g id="g-root-cp_2_g-2_1hitfhnsd8bgr-fill" data-item-order="-381874" transform="translate(118, 428)"><g id="cp_2_g-2_1hitfhnsd8bgr-fill" stroke="none" fill="#6b6b6b"><g><path d="M 426 82L 10 82L 130 10L 306 10L 426 82Z"></path></g></g></g><g id="g-root-cp_1_g-1_1d2zxd7sd8c91-fill" data-item-order="-381870" transform="translate(326, 140)"><g id="cp_1_g-1_1d2zxd7sd8c91-fill" stroke="none" fill="#E5A000"><g><path d="M 10 10L 218 370L 98 298L 10 145L 10 10Z"></path></g></g></g><g id="g-root-tx_prosperi_1d2zxd7sd8c93-fill" data-item-order="0" transform="translate(188, 38)"><g id="tx_prosperi_1d2zxd7sd8c93-fill" stroke="none" fill="#f4f4f4"><g><text style="font: bold 25px Roboto, sans-serif; white-space: pre;" font-weight="bold" font-size="25px" font-family="Roboto, sans-serif"><tspan x="11.79" y="43" dominant-baseline="ideographic">Prosperity Node System</tspan></text></g></g></g><g id="g-root-tx_chapterc_1cymox7sd1blu-fill" data-item-order="0" transform="translate(458, 170)"><g id="tx_chapterc_1cymox7sd1blu-fill" stroke="none" fill="#F8E6B8"><g><text style="font: bold 20px Roboto, sans-serif; white-space: pre;" font-weight="bold" font-size="20px" font-family="Roboto, sans-serif"><tspan x="12" y="33.63" dominant-baseline="ideographic">Chapter Cover </tspan><tspan x="12" y="57.64" dominant-baseline="ideographic">Design</tspan></text></g></g></g><g id="g-root-tx_minimali_dfg6ujsd1a8a-fill" data-item-order="0" transform="translate(26, 194)"><g id="tx_minimali_dfg6ujsd1a8a-fill" stroke="none" fill="#f4f4f4"><g><text style="font: bold 20px Roboto, sans-serif; white-space: pre;" font-weight="bold" font-size="20px" font-family="Roboto, sans-serif"><tspan x="14.05" y="33.64" dominant-baseline="ideographic">Minimalist Design</tspan></text></g></g></g><g id="g-root-tx_acleanan_8zmoq3sd1b0k-fill" data-item-order="0" transform="translate(50, 230)"><g id="tx_acleanan_8zmoq3sd1b0k-fill" stroke="none" fill="#f4f4f4"><g><text style="font: 15px Roboto, sans-serif; white-space: pre;" font-size="15px" font-family="Roboto, sans-serif"><tspan x="73.97" y="27.28" dominant-baseline="ideographic">A clean and </tspan><tspan x="21.08" y="45.27" dominant-baseline="ideographic">professional design </tspan><tspan x="57.41" y="63.27" dominant-baseline="ideographic">approach with </tspan><tspan x="15.2" y="81.27" dominant-baseline="ideographic">geometric elements.</tspan></text></g></g></g><g id="g-root-tx_avisuall_143m5rfsd198s-fill" data-item-order="0" transform="translate(458, 230)"><g id="tx_avisuall_143m5rfsd198s-fill" stroke="none" fill="#F8E6B8"><g><text style="font: 15px Roboto, sans-serif; white-space: pre;" font-size="15px" font-family="Roboto, sans-serif"><tspan x="12" y="27.28" dominant-baseline="ideographic">A visually striking cover </tspan><tspan x="12" y="45.27" dominant-baseline="ideographic">with a large orange </tspan><tspan x="12" y="63.27" dominant-baseline="ideographic">number "5" and modern </tspan><tspan x="12" y="81.27" dominant-baseline="ideographic">typography.</tspan></text></g></g></g><g id="g-root-ic_rati_18mk1bfscx345-fill" data-item-order="0" transform="translate(230, 308)"></g><g id="g-root-ic_c5_1uuwi3vscrfuo-fill" data-item-order="0" transform="translate(374, 308)"></g><g id="g-root-ic_1_18nswbvsd89vk-fill" data-item-order="0" transform="translate(290, 344)"></g><g id="g-root-ic_2_1hi71kbscyghw-fill" data-item-order="0" transform="translate(302, 440)"></g><g id="g-root-tx_utopiavd_1lu9p63sd1a1b-fill" data-item-order="0" transform="translate(272, 530)"><g id="tx_utopiavd_1lu9p63sd1a1b-fill" stroke="none" fill="#f4f4f4"><g><text style="font: bold 20px Roboto, sans-serif; white-space: pre;" font-weight="bold" font-size="20px" font-family="Roboto, sans-serif"><tspan x="22.5" y="33.63" dominant-baseline="ideographic">Utopia V-</tspan><tspan x="16.15" y="57.64" dominant-baseline="ideographic">Dimension</tspan></text></g></g></g><g id="g-root-tx_afuturis_1heg71nsd1atl-fill" data-item-order="0" transform="translate(242, 590)"><g id="tx_afuturis_1heg71nsd1atl-fill" stroke="none" fill="#f4f4f4"><g><text style="font: 15px Roboto, sans-serif; white-space: pre;" font-size="15px" font-family="Roboto, sans-serif"><tspan x="26.83" y="30.28" dominant-baseline="ideographic">A futuristic concept </tspan><tspan x="17.56" y="48.27" dominant-baseline="ideographic">representing a utopian </tspan><tspan x="55.29" y="66.27" dominant-baseline="ideographic">dimension.</tspan></text></g></g></g><g id="g-root-cp_3_g-3_1hitfhnsd8bgp-stroke" data-item-order="-381878" transform="translate(118, 140)"><g id="cp_3_g-3_1hitfhnsd8bgp-stroke" fill="none" stroke-linecap="round" stroke-linejoin="round" stroke-miterlimit="4" stroke="#d3d3d3" stroke-width="2"><g><path d="M 218 10L 10 370L 130 298L 218 145L 218 10Z"></path></g></g></g><g id="g-root-cp_2_g-2_1hitfhnsd8bgr-stroke" data-item-order="-381874" transform="translate(118, 428)"><g id="cp_2_g-2_1hitfhnsd8bgr-stroke" fill="none" stroke-linecap="round" stroke-linejoin="round" stroke-miterlimit="4" stroke="#d3d3d3" stroke-width="2"><g><path d="M 426 82L 10 82L 130 10L 306 10L 426 82Z"></path></g></g></g><g id="g-root-cp_1_g-1_1d2zxd7sd8c91-stroke" data-item-order="-381870" transform="translate(326, 140)"><g id="cp_1_g-1_1d2zxd7sd8c91-stroke" fill="none" stroke-linecap="round" stroke-linejoin="round" stroke-miterlimit="4" stroke="#F8E6B8" stroke-width="2"><g><path d="M 10 10L 218 370L 98 298L 10 145L 10 10Z"></path></g></g></g><g id="g-root-tx_prosperi_1d2zxd7sd8c93-stroke" data-item-order="0" transform="translate(188, 38)"></g><g id="g-root-tx_chapterc_1cymox7sd1blu-stroke" data-item-order="0" transform="translate(458, 170)"></g><g id="g-root-tx_minimali_dfg6ujsd1a8a-stroke" data-item-order="0" transform="translate(26, 194)"></g><g id="g-root-tx_acleanan_8zmoq3sd1b0k-stroke" data-item-order="0" transform="translate(50, 230)"></g><g id="g-root-tx_avisuall_143m5rfsd198s-stroke" data-item-order="0" transform="translate(458, 230)"></g><g id="g-root-ic_rati_18mk1bfscx345-stroke" data-item-order="0" transform="translate(230, 308)"><g id="ic_rati_18mk1bfscx345-stroke" fill="none" stroke-linecap="round" stroke-linejoin="round" stroke-miterlimit="4" stroke="#d3d3d3" stroke-width="2"><g><path d="M 13.791019 56.209C 12.68644 56.209 11.791016 55.313599 11.791016 54.209L 11.791014 37.736401C 11.791014 36.631798 12.68644 35.736401 13.791019 35.736401L 30.263599 35.736401C 31.3682 35.736401 32.263599 36.631798 32.263599 37.736401L 32.263599 54.209C 32.263599 55.313599 31.3682 56.209 30.263599 56.209L 13.791019 56.209ZM 13.791019 56.209C 12.68644 56.209 11.791016 55.313599 11.791016 54.209L 11.791014 25.70118C 11.791014 24.5966 12.68644 23.70118 13.791019 23.70118L 42.298801 23.70116C 43.4034 23.70116 44.298801 24.5966 44.298801 25.70116L 44.298801 54.209C 44.298801 55.313599 43.4034 56.209 42.298801 56.209L 13.791019 56.209ZM 13.791019 56.209C 12.68644 56.209 11.791016 55.313599 11.791016 54.209L 11.791014 13.791019C 11.791014 12.68644 12.68644 11.791012 13.791019 11.791012L 54.209 11.79101C 55.313599 11.79101 56.209 12.68644 56.209 13.791019L 56.209 54.209C 56.209 55.313599 55.313599 56.209 54.209 56.209L 13.791019 56.209Z"></path></g></g></g><g id="g-root-ic_c5_1uuwi3vscrfuo-stroke" data-item-order="0" transform="translate(374, 308)"><g id="ic_c5_1uuwi3vscrfuo-stroke" fill="none" stroke-linecap="round" stroke-linejoin="round" stroke-miterlimit="4" stroke="#F8E6B8" stroke-width="2"><g><path d="M 48.784401 34.760597L 48.784401 23.806679C 48.784401 23.292179 48.586201 22.79748 48.230801 22.4254L 38.873001 12.62652C 38.495598 12.231359 37.973 12.00782 37.426598 12.00782L 17.425779 12.00782C 16.32122 12.00782 15.425779 12.90324 15.425779 14.00782L 15.425779 53.991402C 15.425779 55.095798 16.32122 55.991402 17.425779 55.991402L 24.10508 55.991402M 36.832001 12.00782L 36.832001 24.515621L 48.785198 24.515621M 51.942799 40.835999L 45.627602 40.835999L 44.995998 47.7826L 46.455399 47.052799C 47.157001 46.702202 47.930401 46.5196 48.714802 46.5196L 48.785198 46.5196C 50.8778 46.5196 52.5742 48.216 52.5742 50.308601L 52.5742 52.203201C 52.5742 54.295799 50.8778 55.992199 48.785198 55.992199C 47.135399 55.992199 45.516201 54.937801 44.995998 53.466202M 39.148399 43.362C 38.628201 41.8904 37.009201 40.835999 35.359398 40.835999C 33.2668 40.835999 31.5704 42.532398 31.5704 44.625L 31.5704 52.203201C 31.5704 54.295799 33.2668 55.992199 35.359398 55.992199C 37.009201 55.992199 38.628201 54.937801 39.148399 53.466202"></path></g></g></g><g id="g-root-ic_1_18nswbvsd89vk-stroke" data-item-order="0" transform="translate(290, 344)"><g id="ic_1_18nswbvsd89vk-stroke" fill="none" stroke-linecap="round" stroke-linejoin="round" stroke-miterlimit="4" stroke="#f4f4f4" stroke-width="2"><g><path d="M 19.521999 63.897999L 13 80.5M 22 80.5L 24.679001 65.5M 72.477997 63.897999L 79 80.5M 70 80.5L 67.320999 65.5M 52.995998 47.098L 63.82 55.756001M 28.18 55.756001L 39.000999 47.098M 22.932999 53.554001L 21.49 38.406998M 40.293999 67.335999L 28.921001 62.028999M 63.075996 62.031998L 51.706001 67.335999M 70.500999 38.5L 69.067001 53.538998M 51.547001 19.785999L 66.121002 25.785999M 25.875999 25.785999L 40.456001 19.782999M 17.5 59.5C 17.5 62.813713 20.186291 65.5 23.5 65.5C 26.813709 65.5 29.5 62.813713 29.5 59.5C 29.5 56.186291 26.813709 53.5 23.5 53.5C 20.186291 53.5 17.5 56.186291 17.5 59.5ZM 40 17.5C 40 20.813709 42.686291 23.5 46 23.5C 49.313709 23.5 52 20.813709 52 17.5C 52 14.186292 49.313709 11.5 46 11.5C 42.686291 11.5 40 14.186292 40 17.5ZM 13 31C 13 35.142136 16.357864 38.5 20.5 38.5C 24.642136 38.5 28 35.142136 28 31C 28 26.857864 24.642136 23.5 20.5 23.5C 16.357864 23.5 13 26.857864 13 31ZM 62.5 59.5C 62.5 62.813713 65.186287 65.5 68.5 65.5C 71.813713 65.5 74.5 62.813713 74.5 59.5C 74.5 56.186291 71.813713 53.5 68.5 53.5C 65.186287 53.5 62.5 56.186291 62.5 59.5ZM 64 31C 64 35.142136 67.357864 38.5 71.5 38.5C 75.642136 38.5 79 35.142136 79 31C 79 26.857864 75.642136 23.5 71.5 23.5C 67.357864 23.5 64 26.857864 64 31ZM 37.645 38.157997L 23.5 32.5M 68.5 32.5L 54.348999 38.160999M 46 23.5L 46 32.5M 49.320999 49.863998L 53.5 80.5M 38.5 80.5L 42.679001 49.863998M 37 41.5C 37 46.470566 41.029438 50.5 46 50.5C 50.970566 50.5 55 46.470566 55 41.5C 55 36.529438 50.970566 32.5 46 32.5C 41.029438 32.5 37 36.529438 37 41.5Z"></path></g></g></g><g id="g-root-ic_2_1hi71kbscyghw-stroke" data-item-order="0" transform="translate(302, 440)"><g id="ic_2_1hi71kbscyghw-stroke" fill="none" stroke-linecap="round" stroke-linejoin="round" stroke-miterlimit="4" stroke="#d3d3d3" stroke-width="2"><g><path d="M 31.959999 40.59L 11.552 40.59L 11.552 30.388L 24.816 25.285999L 31.959999 30.388L 31.959999 40.59ZM 48.285999 43.652L 31.959999 43.652L 31.959999 24.264L 40.122002 19.161999L 48.285999 24.264L 48.285999 43.652ZM 56.448002 39.57L 48.285999 39.57L 48.285999 29.365999L 56.448002 31.408001L 56.448002 39.57ZM 11.552 40.59L 11.552 47.868M 31.959999 43.652L 31.959999 47.868M 48.285999 43.652L 48.285999 47.868M 56.448002 39.57L 56.448002 47.868M 21.756001 40.59L 21.756001 47.868M 17.674 27.326L 17.674 19.161999L 23.796 14.062L 34 18.142L 34 22.223999M 54.408001 30.388L 54.408001 19.161999L 42.161999 11L 34 14.062L 34 18.142M 19.714001 33.447998L 26.856001 33.447998L 26.856001 40.59L 19.714001 40.59ZM 41.141998 36.510002L 48.284 36.510002L 48.284 43.652L 41.141998 43.652ZM 31.959999 25.285999L 42.161999 28.346001M 37.062 34.468002L 41.141998 36.510002M 20.456001 16.844L 23.796 20.184M 54.408001 19.161999L 51.256001 20.694M 14.204 29.365999L 19.714001 33.447998M 11 56.858002C 15.902 57.900002 20 52.858002 20 52.858002L 20 52.858002C 21.525103 55.27021 24.147509 56.76873 27.000002 56.858002C 29.873795 56.846176 32.530807 55.327881 34 52.858002C 35.469765 55.327293 38.126419 56.845379 41 56.857998C 43.852493 56.76873 46.474899 55.27021 48.000004 52.858002L 48 52.858002C 48 52.858002 52.09 57.900002 57 56.858002"></path></g></g></g><g id="g-root-tx_utopiavd_1lu9p63sd1a1b-stroke" data-item-order="0" transform="translate(272, 530)"></g><g id="g-root-tx_afuturis_1heg71nsd1atl-stroke" data-item-order="0" transform="translate(242, 590)"></g></g></g></svg>