<?xml version="1.0" encoding="utf-8" standalone="yes"?>
<!DOCTYPE svg PUBLIC "-//W3C//DTD SVG 1.1//EN" "http://www.w3.org/Graphics/SVG/1.1/DTD/svg11.dtd">
<svg width="828" height="540" viewBox="0 0 828 540" style="fill:none;stroke:none;fill-rule:evenodd;clip-rule:evenodd;stroke-linecap:round;stroke-linejoin:round;stroke-miterlimit:1.5;" version="1.1" xmlns="http://www.w3.org/2000/svg" xmlns:xlink="http://www.w3.org/1999/xlink"><style class="text-font-style fontImports" data-font-family="Roboto">@import url('https://fonts.googleapis.com/css2?family=Roboto:wght@400;700&amp;display=block');</style><g id="items" style="isolation: isolate"><g id="blend" style="mix-blend-mode: normal"><g id="g-root-cp_0_g-0_1q5pj23sn0w7f-fill" data-item-order="-346310" transform="translate(26, 158)"><g id="cp_0_g-0_1q5pj23sn0w7f-fill" stroke="none" fill="#6b6b6b"><g><path d="M 268.144 181C 251.51 234.863 201.325 274 142 274C 69.0984 274 10 214.902 10 142C 10 69.0984 69.0984 10 142 10C 201.325 10 251.51 49.1366 268.144 103L 255.52 103C 239.332 55.8707 194.622 22 142 22C 75.7258 22 22 75.7258 22 142C 22 208.274 75.7258 262 142 262C 194.622 262 239.332 228.129 255.52 181L 268.144 181Z"></path></g></g></g><g id="g-root-cp_2_g-2_1lpw0xnsn0wzp-fill" data-item-order="-346306" transform="translate(277.072021484375, 209)"><g id="cp_2_g-2_1lpw0xnsn0wzp-fill" stroke="none" fill="#6b6b6b"><g><path d="M 461.079 10L 178.283 10L 71.7831 76L 10 76C 10.4918 79.9438 10.7922 83.947 10.8916 88L 448.088 88L 448.088 71.9389L 477.541 47.0716L 477.541 41.8584L 446.927 41.8584L 446.927 35.3805C 446.927 29.2787 448.547 23.6705 451.899 18.7714C 454.327 15.2221 457.415 12.304 461.079 10Z"></path></g></g><g id="cp_2_g-2_1lpw0xnsn0wzp-fill" stroke="none" fill="#6b6b6b"><g><path d="M 454.088134 88L 454.088134 74.7257L 482.325234 50.885C 485.677634 48.0531 488.201034 45.6991 489.895634 43.823C 491.590234 41.9115 492.732234 40.2124 493.321634 38.7257C 493.947934 37.2389 494.261034 35.7168 494.261034 34.1593L 494.261034 34.0531C 494.261034 32.2124 493.800534 30.6018 492.879534 29.2212C 491.995434 27.8053 490.761334 26.708 489.177334 25.9292C 487.593234 25.115 485.751234 24.708 483.651434 24.708C 481.256934 24.708 479.157134 25.1681 477.352034 26.0885C 475.583734 26.9734 474.202234 28.2124 473.207534 29.8053C 472.212934 31.3982 471.660334 33.2212 471.549834 35.2743L 471.494534 35.8584L 452.927734 35.8584L 452.927734 35.3805C 452.927734 30.3894 454.235534 25.9823 456.851034 22.1593C 459.466634 18.3363 463.076934 15.3628 467.681734 13.2389C 472.323434 11.0797 477.628234 10 483.596234 10C 489.674634 10 494.979434 10.9735 499.510634 12.9204C 504.041834 14.8319 507.559934 17.5044 510.065034 20.938C 512.606934 24.3363 513.877834 28.3186 513.877834 32.885L 513.877834 32.9911C 513.877834 36.2478 513.288434 39.2035 512.109534 41.8584C 510.930734 44.4779 509.015034 47.1858 506.362634 49.9823C 503.710234 52.7434 500.173734 55.9646 495.753034 59.646L 479.502234 72.9734L 514.927734 72.9734L 514.927734 88L 454.088134 88Z"></path></g></g></g><g id="g-root-cp_3_g-3_1lpw0xnsn0wzs-fill" data-item-order="-346300" transform="translate(277.072021484375, 293)"><g id="cp_3_g-3_1lpw0xnsn0wzs-fill" stroke="none" fill="#6b6b6b"><g><path d="M 10.8916 10C 10.7922 14.053 10.4918 18.0562 10 22L 71.7865 22L 177.787 88L 459.693 88C 456.604 86.0542 453.928 83.6638 451.73 80.8047C 448.37 76.4334 446.477 71.3603 446.001 65.7603L 445.999 65.7374L 445.446 58.5739L 467.101 58.5739L 467.101 38.9565L 447.263 38.9565L 447.778 31.7785L 447.78 31.7603C 448.208 26.2658 449.95 21.2735 453.123 16.9816C 455.149 14.218 457.619 11.8961 460.478 10L 10.8916 10Z"></path></g></g><g id="cp_3_g-3_1lpw0xnsn0wzs-fill" stroke="none" fill="#6b6b6b"><g><path d="M 482.796734 88C 476.822034 88 471.598634 87.0435 467.126434 85.1304C 462.654134 83.2174 459.107734 80.5565 456.487334 77.1478C 453.866834 73.7391 452.364534 69.7739 451.980134 65.2522L 451.927734 64.5739L 470.270934 64.5739L 470.375734 65.2C 470.690234 67.3217 471.930534 69.1478 474.096834 70.6783C 476.298034 72.1739 479.197934 72.9217 482.796734 72.9217C 485.172534 72.9217 487.216534 72.5391 488.928634 71.7739C 490.675534 71.0087 492.020734 69.9652 492.964134 68.6435C 493.907434 67.287 494.379134 65.7391 494.379134 64L 494.379134 63.8956C 494.379134 60.8348 493.243634 58.5043 490.972534 56.9043C 488.701434 55.3043 485.469634 54.5043 481.276834 54.5043L 473.101034 54.5043L 473.101034 41.513L 481.172034 41.513C 483.652734 41.513 485.766534 41.1478 487.513534 40.4174C 489.295434 39.687 490.658034 38.6609 491.601434 37.3391C 492.579734 36.0174 493.068934 34.4869 493.068934 32.7478L 493.068934 32.6435C 493.068934 30.9043 492.649634 29.4087 491.811134 28.1565C 491.007534 26.9044 489.819534 25.9478 488.247234 25.287C 486.709934 24.6261 484.858134 24.2957 482.691934 24.2957C 480.490734 24.2957 478.551534 24.6435 476.874434 25.3391C 475.232334 26 473.922134 26.9565 472.943834 28.2087C 472.000434 29.4261 471.423934 30.8522 471.214334 32.487L 471.161834 32.9565L 453.709634 32.9565L 453.762034 32.2261C 454.111434 27.7391 455.509034 23.8435 457.954734 20.5391C 460.400534 17.2 463.719834 14.6087 467.912534 12.7652C 472.140234 10.9217 477.066634 10 482.691934 10C 488.421934 10 493.400834 10.8348 497.628434 12.5044C 501.891134 14.1391 505.175434 16.4522 507.481334 19.4435C 509.787334 22.4348 510.940434 25.9478 510.940434 29.9826L 510.940434 30.087C 510.940434 33.2522 510.224134 36.0174 508.791634 38.3826C 507.394034 40.713 505.507334 42.6261 503.131434 44.1217C 500.755634 45.6174 498.152634 46.6609 495.322534 47.2522L 495.322534 47.6174C 500.982734 48.1739 505.489834 49.9652 508.844034 52.9913C 512.233134 56.0174 513.927734 60.0174 513.927734 64.9913L 513.927734 65.0957C 513.927734 69.7217 512.652434 73.7565 510.101834 77.2C 507.551334 80.6087 503.952534 83.2696 499.305634 85.1826C 494.658634 87.0609 489.155634 88 482.796734 88Z"></path></g></g></g><g id="g-root-cp_4_g-4_1haozwbsn0umb-fill" data-item-order="-346294" transform="translate(273.26300048828125, 311)"><g id="cp_4_g-4_1haozwbsn0umb-fill" stroke="none" fill="#6b6b6b"><g><path d="M 476.31 76L 179.882 76L 73.8813 10L 12.9072 10C 12.1574 14.248 11.1841 18.4188 10 22.5L 70.1197 22.5L 182.122 153.502L 486.138 153.979L 486.138 146.703L 447.737 146.703L 447.737 122.884L 448.587 121.462C 450.54 118.196 452.51 114.949 454.499 111.719L 454.504 111.711L 454.508 111.703C 456.511 108.4737 458.495 105.2441 460.461 102.0147L 466.386 92.285C 468.363 89.0376 470.341 85.8081 472.318 82.5966C 473.657 80.3977 474.988 78.1988 476.31 76Z"></path></g></g><g id="cp_4_g-4_1haozwbsn0umb-fill" stroke="none" fill="#6b6b6b"><g><path d="M 459.607905 114.8649C 457.633105 118.0721 455.676205 121.2973 453.737305 124.5405L 453.737305 140.7027L 492.138405 140.7027L 492.138405 154L 510.881205 154L 510.881205 140.7027L 518.737305 140.7027L 518.737305 125.2433L 510.881205 125.2433L 510.881205 76L 483.305705 76C 481.366805 79.2432 479.409905 82.4865 477.435105 85.7297C 475.460205 88.9369 473.485405 92.1622 471.510605 95.4054L 465.586205 105.1351C 463.611405 108.3784 461.618605 111.6216 459.607905 114.8649ZM 470.271505 125.946L 492.676605 125.946L 492.676605 89.6758L 492.245805 89.6758L 487.829405 96.8109C 486.393205 99.1893 484.939005 101.5677 483.466905 103.946C 482.030605 106.3244 480.558405 108.7208 479.050405 111.1352L 474.634005 118.2704C 473.197805 120.6487 471.743605 123.0271 470.271505 125.4055L 470.271505 125.946Z"></path></g></g></g><g id="g-root-cp_1_g-1_1haozwbsn0ume-fill" data-item-order="-346288" transform="translate(273.406005859375, 125)"><g id="cp_1_g-1_1haozwbsn0ume-fill" stroke="none" fill="#E5A000"><g><path d="M 476.577 10L 183.968 10L 69.9681 142L 10 142C 11.1193 145.922 12.0441 149.925 12.7633 154L 73.7408 154L 180.241 88L 481.173 88L 481.173 38.5068L 461.593 51.8233L 461.593 20.3691L 476.577 10Z"></path></g></g><g id="cp_1_g-1_1haozwbsn0ume-fill" stroke="none" fill="#E5A000"><g><path d="M 487.17355 88L 487.17355 27.4595L 486.74795 27.4595L 467.59375 40.4865L 467.59375 23.5135L 487.12035 10L 506.59375 10L 506.59375 88L 487.17355 88Z"></path></g></g></g><g id="g-root-tx_unveilin_1cuvhrvsn0vep-fill" data-item-order="0" transform="translate(134, 38)"><g id="tx_unveilin_1cuvhrvsn0vep-fill" stroke="none" fill="#f4f4f4"><g><text style="font: bold 25px Roboto, sans-serif; white-space: pre;" font-weight="bold" font-size="25px" font-family="Roboto, sans-serif"><tspan x="16.95" y="43" dominant-baseline="ideographic">Unveiling the Resonance Pool's Core Functions</tspan></text></g></g></g><g id="g-root-ic_conv_zoes3fsn3nyi-fill" data-item-order="0" transform="translate(470, 140)"></g><g id="g-root-tx_valueflo_18jfb97sn3qbl-fill" data-item-order="0" transform="translate(530, 152)"><g id="tx_valueflo_18jfb97sn3qbl-fill" stroke="none" fill="#F8E6B8"><g><text style="font: 15px Roboto, sans-serif; white-space: pre;" font-size="15px" font-family="Roboto, sans-serif"><tspan x="12" y="30.27" dominant-baseline="ideographic">Value Flow Catalyst</tspan></text></g></g></g><g id="g-root-ic_secu_1qapbqzsn3nyd-fill" data-item-order="0" transform="translate(470, 224)"></g><g id="g-root-tx_networks_1upwcsbsn3qbw-fill" data-item-order="0" transform="translate(530, 230)"><g id="tx_networks_1upwcsbsn3qbw-fill" stroke="none" fill="#f4f4f4"><g><text style="font: 15px Roboto, sans-serif; white-space: pre;" font-size="15px" font-family="Roboto, sans-serif"><tspan x="12" y="27.27" dominant-baseline="ideographic">Network Stability </tspan><tspan x="12" y="45.27" dominant-baseline="ideographic">Guarantee</tspan></text></g></g></g><g id="g-root-tx_resonanc_18gaxtnsn6hhj-fill" data-item-order="0" transform="translate(77, 266)"><g id="tx_resonanc_18gaxtnsn6hhj-fill" stroke="none" fill="#f4f4f4"><g><text style="font: bold 20px Roboto, sans-serif; white-space: pre;" font-weight="bold" font-size="20px" font-family="Roboto, sans-serif"><tspan x="12.95" y="33.63" dominant-baseline="ideographic">Resonance Pool </tspan><tspan x="51.73" y="57.64" dominant-baseline="ideographic">System</tspan></text></g></g></g><g id="g-root-ic_targ_1hi6oxnsn2brh-fill" data-item-order="0" transform="translate(470, 308)"></g><g id="g-root-tx_developm_1qdtp6jsn2ays-fill" data-item-order="0" transform="translate(530, 314)"><g id="tx_developm_1qdtp6jsn2ays-fill" stroke="none" fill="#f4f4f4"><g><text style="font: 15px Roboto, sans-serif; white-space: pre;" font-size="15px" font-family="Roboto, sans-serif"><tspan x="12" y="27.27" dominant-baseline="ideographic">Development Direction </tspan><tspan x="12" y="45.27" dominant-baseline="ideographic">Guidance</tspan></text></g></g></g><g id="g-root-ic_turn_zjezejsn0wzn-fill" data-item-order="0" transform="translate(470, 392)"></g><g id="g-root-tx_riskrest_13z8hizsn0w7e-fill" data-item-order="0" transform="translate(530, 404)"><g id="tx_riskrest_13z8hizsn0w7e-fill" stroke="none" fill="#f4f4f4"><g><text style="font: 15px Roboto, sans-serif; white-space: pre;" font-size="15px" font-family="Roboto, sans-serif"><tspan x="12" y="30.27" dominant-baseline="ideographic">Risk Restart Support</tspan></text></g></g></g><g id="g-root-cp_0_g-0_1q5pj23sn0w7f-stroke" data-item-order="-346310" transform="translate(26, 158)"><g id="cp_0_g-0_1q5pj23sn0w7f-stroke" fill="none" stroke-linecap="round" stroke-linejoin="round" stroke-miterlimit="4" stroke="#d3d3d3" stroke-width="2"><g><path d="M 268.1439 181C 251.5099 234.8634 201.3254 274 142 274C 69.0984 274 10 214.9016 10 142C 10 69.0984 69.0984 10 142 10C 201.3254 10 251.5099 49.1366 268.1439 103L 255.5202 103C 239.3324 55.8707 194.6217 22 142 22C 75.7258 22 22 75.7258 22 142C 22 208.2742 75.7258 262 142 262C 194.6217 262 239.3324 228.1293 255.5202 181L 268.1439 181Z"></path></g></g></g><g id="g-root-cp_2_g-2_1lpw0xnsn0wzp-stroke" data-item-order="-346306" transform="translate(277.072021484375, 209)"><g id="cp_2_g-2_1lpw0xnsn0wzp-stroke" fill="none" stroke-linecap="round" stroke-linejoin="round" stroke-miterlimit="4" stroke="#d3d3d3" stroke-width="2"><g><path d="M 461.0794 10L 178.2829 10L 71.7831 76L 10 76C 10.4918 79.9438 10.7922 83.947 10.8916 88L 448.0876 88L 448.0876 71.9389L 477.5406 47.0716L 477.5406 41.8584L 446.9272 41.8584L 446.9272 35.3805C 446.9272 29.2787 448.5468 23.6705 451.8987 18.7713C 454.3269 15.2221 457.415 12.304 461.0794 10Z"></path></g></g><g id="cp_2_g-2_1lpw0xnsn0wzp-stroke" fill="none" stroke-linecap="round" stroke-linejoin="round" stroke-miterlimit="4" stroke="#d3d3d3" stroke-width="2"><g><path d="M 454.088134 88L 454.088134 74.7257L 482.325234 50.885C 485.677634 48.0531 488.201034 45.6991 489.895634 43.823C 491.590234 41.9115 492.732234 40.2124 493.321634 38.7257C 493.947934 37.2389 494.261034 35.7168 494.261034 34.1593L 494.261034 34.0531C 494.261034 32.2124 493.800534 30.6018 492.879534 29.2212C 491.995434 27.8053 490.761334 26.708 489.177334 25.9292C 487.593234 25.115 485.751234 24.708 483.651434 24.708C 481.256934 24.708 479.157134 25.1681 477.352034 26.0885C 475.583734 26.9734 474.202234 28.2124 473.207534 29.8053C 472.212934 31.3982 471.660334 33.2212 471.549834 35.2743L 471.494534 35.8584L 452.927734 35.8584L 452.927734 35.3805C 452.927734 30.3894 454.235534 25.9823 456.851034 22.1593C 459.466634 18.3363 463.076934 15.3628 467.681734 13.2389C 472.323434 11.0796 477.628234 10 483.596234 10C 489.674634 10 494.979434 10.9735 499.510634 12.9204C 504.041834 14.8319 507.559934 17.5044 510.065034 20.938C 512.606934 24.3363 513.877834 28.3186 513.877834 32.885L 513.877834 32.9911C 513.877834 36.2478 513.288434 39.2035 512.109534 41.8584C 510.930734 44.4779 509.015034 47.1858 506.362634 49.9823C 503.710234 52.7434 500.173734 55.9646 495.753034 59.646L 479.502234 72.9734L 514.927734 72.9734L 514.927734 88L 454.088134 88Z"></path></g></g></g><g id="g-root-cp_3_g-3_1lpw0xnsn0wzs-stroke" data-item-order="-346300" transform="translate(277.072021484375, 293)"><g id="cp_3_g-3_1lpw0xnsn0wzs-stroke" fill="none" stroke-linecap="round" stroke-linejoin="round" stroke-miterlimit="4" stroke="#d3d3d3" stroke-width="2"><g><path d="M 10.8916 10C 10.7922 14.053 10.4918 18.0562 10 22L 71.7865 22L 177.7867 88L 459.6932 88C 456.6038 86.0542 453.9281 83.6638 451.7301 80.8047C 448.3697 76.4334 446.4773 71.3603 446.0013 65.7603L 445.9993 65.7374L 445.4458 58.5739L 467.1006 58.5739L 467.1006 38.9565L 447.2633 38.9565L 447.7783 31.7785L 447.7797 31.7603C 448.2076 26.2658 449.9497 21.2735 453.1228 16.9816C 455.1493 14.218 457.6195 11.8961 460.4777 10L 10.8916 10Z"></path></g></g><g id="cp_3_g-3_1lpw0xnsn0wzs-stroke" fill="none" stroke-linecap="round" stroke-linejoin="round" stroke-miterlimit="4" stroke="#d3d3d3" stroke-width="2"><g><path d="M 482.796734 88C 476.822034 88 471.598634 87.0435 467.126434 85.1304C 462.654134 83.2174 459.107734 80.5565 456.487334 77.1478C 453.866834 73.7391 452.364534 69.7739 451.980134 65.2522L 451.927734 64.5739L 470.270934 64.5739L 470.375734 65.2C 470.690234 67.3217 471.930534 69.1478 474.096834 70.6783C 476.298034 72.1739 479.197934 72.9217 482.796734 72.9217C 485.172534 72.9217 487.216534 72.5391 488.928634 71.7739C 490.675534 71.0087 492.020734 69.9652 492.964134 68.6435C 493.907434 67.287 494.379134 65.7391 494.379134 64L 494.379134 63.8956C 494.379134 60.8348 493.243634 58.5043 490.972534 56.9043C 488.701434 55.3043 485.469634 54.5043 481.276834 54.5043L 473.101034 54.5043L 473.101034 41.513L 481.172034 41.513C 483.652734 41.513 485.766534 41.1478 487.513534 40.4174C 489.295434 39.687 490.658034 38.6609 491.601434 37.3391C 492.579734 36.0174 493.068934 34.4869 493.068934 32.7478L 493.068934 32.6435C 493.068934 30.9043 492.649634 29.4087 491.811134 28.1565C 491.007534 26.9044 489.819534 25.9478 488.247234 25.287C 486.709934 24.6261 484.858134 24.2957 482.691934 24.2957C 480.490734 24.2957 478.551534 24.6435 476.874434 25.3391C 475.232334 26 473.922134 26.9565 472.943834 28.2087C 472.000434 29.4261 471.423934 30.8522 471.214334 32.487L 471.161834 32.9565L 453.709634 32.9565L 453.762034 32.2261C 454.111434 27.7391 455.509034 23.8435 457.954734 20.5391C 460.400534 17.2 463.719834 14.6087 467.912534 12.7652C 472.140234 10.9217 477.066634 10 482.691934 10C 488.421934 10 493.400834 10.8348 497.628434 12.5043C 501.891134 14.1391 505.175334 16.4522 507.481334 19.4435C 509.787434 22.4348 510.940434 25.9478 510.940434 29.9826L 510.940434 30.087C 510.940434 33.2522 510.224134 36.0174 508.791634 38.3826C 507.394034 40.713 505.507334 42.6261 503.131434 44.1217C 500.755634 45.6174 498.152634 46.6609 495.322534 47.2522L 495.322534 47.6174C 500.982734 48.1739 505.489834 49.9652 508.844034 52.9913C 512.233134 56.0174 513.927734 60.0174 513.927734 64.9913L 513.927734 65.0957C 513.927734 69.7217 512.652434 73.7565 510.101834 77.2C 507.551334 80.6087 503.952534 83.2696 499.305634 85.1826C 494.658634 87.0609 489.155634 88 482.796734 88Z"></path></g></g></g><g id="g-root-cp_4_g-4_1haozwbsn0umb-stroke" data-item-order="-346294" transform="translate(273.26300048828125, 311)"><g id="cp_4_g-4_1haozwbsn0umb-stroke" fill="none" stroke-linecap="round" stroke-linejoin="round" stroke-miterlimit="4" stroke="#d3d3d3" stroke-width="2"><g><path d="M 476.3098 76L 179.8815 76L 73.8813 10L 12.9072 10C 12.1574 14.248 11.1841 18.4188 10 22.5L 70.1197 22.5L 182.1219 153.5023L 486.1384 153.9787L 486.1384 146.7027L 447.7373 146.7027L 447.7373 122.8838L 448.5874 121.4618C 450.5397 118.1961 452.5102 114.9485 454.4988 111.719L 454.5035 111.7111L 454.5084 111.7033C 456.5107 108.4737 458.495 105.2441 460.4614 102.0147L 466.3859 92.285C 468.3632 89.0376 470.3406 85.8081 472.3181 82.5966C 473.657 80.3977 474.9876 78.1988 476.3098 76Z"></path></g></g><g id="cp_4_g-4_1haozwbsn0umb-stroke" fill="none" stroke-linecap="round" stroke-linejoin="round" stroke-miterlimit="4" stroke="#d3d3d3" stroke-width="2"><g><path d="M 459.607905 114.8649C 457.633105 118.0721 455.676205 121.2973 453.737305 124.5405L 453.737305 140.7027L 492.138405 140.7027L 492.138405 154L 510.881205 154L 510.881205 140.7027L 518.737305 140.7027L 518.737305 125.2433L 510.881205 125.2433L 510.881205 76L 483.305705 76C 481.366805 79.2432 479.409905 82.4865 477.435105 85.7297C 475.460205 88.9369 473.485405 92.1622 471.510605 95.4054L 465.586205 105.1351C 463.611405 108.3784 461.618605 111.6216 459.607905 114.8649ZM 470.271505 125.946L 492.676605 125.946L 492.676605 89.6758L 492.245805 89.6758L 487.829405 96.8109C 486.393205 99.1893 484.939005 101.5677 483.466905 103.946C 482.030605 106.3244 480.558405 108.7208 479.050405 111.1352L 474.634005 118.2704C 473.197805 120.6487 471.743605 123.0271 470.271505 125.4055L 470.271505 125.946Z"></path></g></g></g><g id="g-root-cp_1_g-1_1haozwbsn0ume-stroke" data-item-order="-346288" transform="translate(273.406005859375, 125)"><g id="cp_1_g-1_1haozwbsn0ume-stroke" fill="none" stroke-linecap="round" stroke-linejoin="round" stroke-miterlimit="4" stroke="#F8E6B8" stroke-width="2"><g><path d="M 476.5765 10L 183.9683 10L 69.9681 142L 10 142C 11.1193 145.9217 12.0441 149.9254 12.7633 154L 73.7408 154L 180.2407 88L 481.1732 88L 481.1732 38.5068L 461.5934 51.8233L 461.5934 20.3691L 476.5765 10Z"></path></g></g><g id="cp_1_g-1_1haozwbsn0ume-stroke" fill="none" stroke-linecap="round" stroke-linejoin="round" stroke-miterlimit="4" stroke="#F8E6B8" stroke-width="2"><g><path d="M 487.17355 88L 487.17355 27.4595L 486.74795 27.4595L 467.59375 40.4865L 467.59375 23.5135L 487.12035 10L 506.59375 10L 506.59375 88L 487.17355 88Z"></path></g></g></g><g id="g-root-tx_unveilin_1cuvhrvsn0vep-stroke" data-item-order="0" transform="translate(134, 38)"></g><g id="g-root-ic_conv_zoes3fsn3nyi-stroke" data-item-order="0" transform="translate(470, 140)"><g id="ic_conv_zoes3fsn3nyi-stroke" fill="none" stroke-linecap="round" stroke-linejoin="round" stroke-miterlimit="4" stroke="#F8E6B8" stroke-width="2"><g><path d="M 41 39.5C 41.276142 39.5 41.5 39.723858 41.5 40M 40.5 40C 40.5 39.723858 40.723858 39.5 41 39.5M 41 40.5C 40.723858 40.5 40.5 40.276142 40.5 40M 41.5 40C 41.5 40.276142 41.276142 40.5 41 40.5M 38 17L 45 17C 49.418278 17 53 20.581722 53 25L 53 31M 42 21L 38 17L 42 13M 29 51L 23 51C 18.581722 51 15 47.418278 15 43L 15 37M 25 47L 29 51L 25 55M 45 51L 45 43C 45 41.895432 45.895432 41 47 41L 49 41M 45 47L 48 47M 18 18.5C 18.276142 18.5 18.5 18.723858 18.5 19M 17.5 19C 17.5 18.723858 17.723858 18.5 18 18.5M 18 19.5C 17.723858 19.5 17.5 19.276142 17.5 19M 18.5 19C 18.5 19.276142 18.276142 19.5 18 19.5M 25 19C 22.790861 19 21 20.790861 21 23L 21 25C 21 27.209139 22.790861 29 25 29M 11 23C 11 29.627417 16.372583 35 23 35C 29.627417 35 35 29.627417 35 23C 35 16.372583 29.627417 11 23 11C 16.372583 11 11 16.372583 11 23ZM 33 45C 33 51.627419 38.372581 57 45 57C 51.627419 57 57 51.627419 57 45C 57 38.372581 51.627419 33 45 33C 38.372581 33 33 38.372581 33 45Z"></path></g></g></g><g id="g-root-tx_valueflo_18jfb97sn3qbl-stroke" data-item-order="0" transform="translate(530, 152)"></g><g id="g-root-ic_secu_1qapbqzsn3nyd-stroke" data-item-order="0" transform="translate(470, 224)"><g id="ic_secu_1qapbqzsn3nyd-stroke" fill="none" stroke-linecap="round" stroke-linejoin="round" stroke-miterlimit="4" stroke="#d3d3d3" stroke-width="2"><g><path d="M 34.392998 41.436199C 34.142403 41.534599 33.863197 41.534599 33.6092 41.436199C 29.58884 39.884598 26.936041 36.0196 26.92968 31.707199L 26.92968 28.5308C 26.92968 27.931061 27.41836 27.442381 28.018101 27.442381L 39.9842 27.442381C 40.584 27.442381 41.072601 27.931061 41.072601 28.5308L 41.072601 31.707199C 41.069599 36.016399 38.413601 39.881401 34.392998 41.432999L 34.392998 41.436199ZM 19.105999 33.264C 19.104862 41.491638 25.774363 48.162056 34.001999 48.162056C 42.229637 48.162056 48.899136 41.491638 48.897999 33.264C 48.899136 25.036362 42.229637 18.365944 34.001999 18.365944C 25.774363 18.365944 19.104862 25.036362 19.105999 33.264M 50.245998 16.288C 50.246002 17.931599 51.578403 19.264 53.222 19.264C 54.865601 19.264 56.198002 17.931599 56.198002 16.288C 56.198002 14.644401 54.865601 13.312 53.222 13.312C 51.578403 13.312 50.246002 14.644401 50.246002 16.288M 17.754 16.288C 17.754 17.931599 16.4216 19.264 14.778 19.264C 13.134401 19.264 11.802 17.931599 11.802 16.288C 11.802 14.644401 13.134401 13.312 14.778 13.312C 16.4216 13.312 17.754 14.644401 17.754 16.288M 10 10M 26.25 46L 23.215519 50.291599L 11.84375 50.291401M 10 10M 42.375 45.6562L 45.636002 50.291401L 56.1996 50.291599M 26.1875 20.53124L 23.213779 16.2871L 17.75124 16.2871M 10 10M 41.812401 20.5625L 44.784199 16.2871L 50.246799 16.2871M 10 10M 51.8008 45.8946L 56.1978 50.291599L 51.8008 54.6884M 16.199221 54.6884L 11.802246 50.291599L 16.199221 45.8946"></path></g></g></g><g id="g-root-tx_networks_1upwcsbsn3qbw-stroke" data-item-order="0" transform="translate(530, 230)"></g><g id="g-root-tx_resonanc_18gaxtnsn6hhj-stroke" data-item-order="0" transform="translate(77, 266)"></g><g id="g-root-ic_targ_1hi6oxnsn2brh-stroke" data-item-order="0" transform="translate(470, 308)"><g id="ic_targ_1hi6oxnsn2brh-stroke" fill="none" stroke-linecap="round" stroke-linejoin="round" stroke-miterlimit="4" stroke="#d3d3d3" stroke-width="2"><g><path d="M 13.644 18.028C 13.642836 21.91028 16.789719 25.058107 20.671999 25.058107C 24.554279 25.058107 27.701164 21.91028 27.699999 18.028C 27.701164 14.14572 24.554279 10.997891 20.671999 10.997891C 16.789719 10.997891 13.642836 14.14572 13.644 18.028M 24.962 28.705999C 22.19043 27.192316 18.826122 27.252041 16.110025 28.863146C 13.393929 30.474251 11.728483 33.398018 11.728 36.556L 11.728 44.222L 15.774 44.222L 16.84 57L 24.506001 57M 47.200001 39.984001C 48.598122 45.418388 46.172527 51.114399 41.285744 53.872417C 36.398956 56.630432 30.269064 55.762993 26.339403 51.757362C 22.40974 47.751728 21.659821 41.60635 24.510895 36.773266C 27.361967 31.94018 33.103374 29.624084 38.509998 31.125999M 41.379997 43.096001C 41.379997 46.526791 38.598793 49.307999 35.167999 49.307999C 31.737207 49.307999 28.955999 46.526791 28.955999 43.096001C 28.955999 39.665207 31.737207 36.883999 35.167999 36.883999M 44.130001 33.912003L 35.503998 43.096001M 49.945999 27.804001L 49.939999 21.114L 43.830002 26.736L 44.130001 33.912003M 49.945999 27.804001L 56.271999 27.804001L 50.650002 33.912003L 44.130001 33.912003"></path></g></g></g><g id="g-root-tx_developm_1qdtp6jsn2ays-stroke" data-item-order="0" transform="translate(530, 314)"></g><g id="g-root-ic_turn_zjezejsn0wzn-stroke" data-item-order="0" transform="translate(470, 392)"><g id="ic_turn_zjezejsn0wzn-stroke" fill="none" stroke-linecap="round" stroke-linejoin="round" stroke-miterlimit="4" stroke="#d3d3d3" stroke-width="2"><g><path d="M 11 34C 11 46.702549 21.297451 57 34 57C 46.702549 57 57 46.702549 57 34C 57 21.297451 46.702549 11 34 11C 21.297451 11 11 21.297451 11 34ZM 41 39.124001L 41 32C 41 28.134008 37.865993 25 34 25C 30.134008 25 27.000002 28.134008 27.000002 32L 27 44M 35.75 34L 41 39.125999L 45.188 34M 17.736 50.264L 23.181999 44.818001M 43.112 24.888L 50.264 17.736"></path></g></g></g><g id="g-root-tx_riskrest_13z8hizsn0w7e-stroke" data-item-order="0" transform="translate(530, 404)"></g></g></g></svg>