<?xml version="1.0" encoding="utf-8" standalone="yes"?>
<!DOCTYPE svg PUBLIC "-//W3C//DTD SVG 1.1//EN" "http://www.w3.org/Graphics/SVG/1.1/DTD/svg11.dtd">
<svg width="690" height="517" viewBox="0 0 690 517" style="fill:none;stroke:none;fill-rule:evenodd;clip-rule:evenodd;stroke-linecap:round;stroke-linejoin:round;stroke-miterlimit:1.5;" version="1.1" xmlns="http://www.w3.org/2000/svg" xmlns:xlink="http://www.w3.org/1999/xlink"><style class="text-font-style fontImports" data-font-family="Roboto">@import url('https://fonts.googleapis.com/css2?family=Roboto:wght@400;700&amp;display=block');</style><g id="items" style="isolation: isolate"><g id="blend" style="mix-blend-mode: normal"><g id="g-root-sy_4_cu_hvwv8crt6c5o-fill" data-item-order="-152385" transform="translate(379.68865966796875, 374)"><g id="sy_4_cu_hvwv8crt6c5o-fill" stroke="none" fill="#6b6b6b"><g><path d="M 82 46C 82 65.8823 65.8823 82 46 82C 26.1177 82 10 65.8823 10 46C 10 26.1177 26.1177 10 46 10C 65.8823 10 82 26.1177 82 46Z"></path></g></g></g><g id="g-root-sy_4_cu_1_4l2ty4rt6akt-fill" data-item-order="-152383" transform="translate(162.24212646484375, 110)"><g id="sy_4_cu_1_4l2ty4rt6akt-fill" stroke="none" fill="#6b6b6b"><g><path d="M 10 28.8658L 65.6365 87.4995L 71.2586 68.5227C 90.01 79.9283 106.7212 95.7057 119.905 115.937C 129.137 130.105 135.461 145.053 139.124 160.16C 129.557 166.631 123.269 177.581 123.269 190C 123.269 202.819 129.969 214.074 140.059 220.452C 131.312 261.77 103.4074 297.515 62.1658 313.026L 74.3752 347.212C 130.492 326.74 166.677 277.385 176.181 221.788C 187.538 215.733 195.269 203.769 195.269 190C 195.269 175.856 187.112 163.618 175.247 157.731C 170.988 136.552 162.709 115.684 150.066 96.2822C 131.779 68.2192 108.1902 47.1633 81.819 32.877L 88.5965 10L 10 28.8658Z"></path></g></g></g><g id="g-root-sy_3_cu_59btort6bd2-fill" data-item-order="-152379" transform="translate(379.68841552734375, 290)"><g id="sy_3_cu_59btort6bd2-fill" stroke="none" fill="#6b6b6b"><g><path d="M 82 46C 82 65.8823 65.8823 82 46 82C 26.1177 82 10 65.8823 10 46C 10 26.1177 26.1177 10 46 10C 65.8823 10 82 26.1177 82 46Z"></path></g></g></g><g id="g-root-sy_3_cu_1_1qaqdjwrt6byn-fill" data-item-order="-152377" transform="translate(19.688400268554688, 245.6025390625)"><g id="sy_3_cu_1_1qaqdjwrt6byn-fill" stroke="none" fill="#6b6b6b"><g><path d="M 65.559606 192.065C 90.966906 211.242 123.230006 222.57 158.340006 221.65C 179.698006 221.623 199.298006 218.041 216.929006 211.609L 204.720006 177.423C 190.652006 182.714 175.032006 185.65 158.091006 185.65L 157.841006 185.65L 157.590006 185.657C 132.073006 186.368 109.105506 178.897 90.753006 166.141C 91.451506 163.342 91.822306 160.413 91.822306 157.397C 91.822306 137.515 75.704506 121.397 55.822306 121.397C 55.251306 121.397 54.683406 121.411 54.118906 121.437C 43.713606 97.0247 43.047206 68.5421 55.944906 41.3555C 58.063006 36.8909 60.530906 32.6833 63.296906 28.7495L 32.494206 10C 29.121606 15.004 26.080106 20.3169 23.419606 25.925C 4.311606 66.2018 6.753206 107.3637 23.520806 141.485C 21.152806 146.283 19.822306 151.685 19.822306 157.397C 19.822306 177.279 35.940006 193.397 55.822306 193.397C 59.196606 193.397 62.462506 192.933 65.559606 192.065Z"></path></g></g></g><g id="g-root-sy_2_cu_1hfpue4rt6adc-fill" data-item-order="-152373" transform="translate(379.6884765625, 206)"><g id="sy_2_cu_1hfpue4rt6adc-fill" stroke="none" fill="#6b6b6b"><g><path d="M 82 46C 82 65.8823 65.8823 82 46 82C 26.1177 82 10 65.8823 10 46C 10 26.1177 26.1177 10 46 10C 65.8823 10 82 26.1177 82 46Z"></path></g></g></g><g id="g-root-sy_2_cu_1_18k2u58rt6b61-fill" data-item-order="-152371" transform="translate(42.18255615234375, 176)"><g id="sy_2_cu_1_18k2u58rt6b61-fill" stroke="none" fill="#6b6b6b"><g><path d="M 171.07 41.6631C 183.05 49.4425 193.86 60.0099 202.712 73.5974L 202.718 73.6074C 209.619 84.2141 214.09 96.0025 216.233 108.0936L 180.613 113.458C 179.229 106.3132 176.549 99.3995 172.546 93.2444C 167.835 86.0145 162.328 80.0555 156.248 75.3013C 150.352 79.5183 143.13 82 135.328 82C 120.907 82 108.4662 73.5204 102.7201 61.2752C 102.1114 61.3487 101.5027 61.4289 100.8939 61.5158C 77.639 64.8361 55.1885 77.8927 40.8027 98.3523L 10 79.6029C 30.2564 49.5478 62.4567 30.6387 95.8055 25.8772C 99.25 25.3855 102.7147 25.0444 106.1871 24.8579C 112.731 15.854 123.346 10 135.328 10C 153.743 10 168.928 23.8258 171.07 41.6631Z"></path></g></g></g><g id="g-root-sy_1_cu_1449c0srt6bya-fill" data-item-order="-152367" transform="translate(379.6884765625, 122)"><g id="sy_1_cu_1449c0srt6bya-fill" stroke="none" fill="#E5A000"><g><path d="M 82 46C 82 65.8823 65.8823 82 46 82C 26.1177 82 10 65.8823 10 46C 10 26.1177 26.1177 10 46 10C 65.8823 10 82 26.1177 82 46Z"></path></g></g></g><g id="g-root-sy_1_cu_1_v8mbrwrt6cqz-fill" data-item-order="-152365" transform="translate(95.26364135742188, 274.09375)"><g id="sy_1_cu_1_v8mbrwrt6cqz-fill" stroke="none" fill="#E5A000"><g><path d="M 147.724969 80.7629C 151.806969 75.1392 155.170969 69.0218 157.783969 62.59C 164.412969 46.2757 166.308969 27.8095 163.151969 10L 127.530969 15.3648C 129.727969 26.7086 128.658969 38.636 124.431969 49.0384C 123.953969 50.2158 123.436969 51.3715 122.879969 52.5028C 119.518969 51.4653 115.948969 50.9067 112.246969 50.9067C 95.489269 50.9067 81.405869 62.3566 77.393269 77.86C 65.263269 76.9974 55.604869 71.1896 49.432669 61.1709C 47.695869 58.3516 46.235069 55.199 45.072969 51.7292C 41.915769 42.3028 31.714769 37.2205 22.288269 40.3777C 12.861869 43.5349 7.779569 53.7359 10.936769 63.1624C 12.284169 67.1855 13.895169 71.0187 15.750769 74.6436C 28.567969 99.6822 53.056269 114.787 82.982669 113.938C 84.731169 113.889 86.454269 113.794 88.151669 113.654C 94.532069 119.406 102.980669 122.907 112.246969 122.907C 132.128969 122.907 148.246969 106.7889 148.246969 86.9067C 148.246969 84.8121 148.067969 82.7594 147.724969 80.7629Z"></path></g></g></g><g id="g-root-tx_weeklypr_hxsahort6b64-fill" data-item-order="0" transform="translate(127.68829345703125, 38)"><g id="tx_weeklypr_hxsahort6b64-fill" stroke="none" fill="#f4f4f4"><g><text style="font: bold 25px Roboto, sans-serif; white-space: pre;" font-weight="bold" font-size="25px" font-family="Roboto, sans-serif"><tspan x="12.61" y="43" dominant-baseline="ideographic">Weekly Prosperity Node Renewal Cycle</tspan></text></g></g></g><g id="g-root-ic_48px_9pgcrt3jey-fill" data-item-order="0" transform="translate(391.68829345703125, 134)"></g><g id="g-root-tx_weeklyev_1usfaxort6ayo-fill" data-item-order="0" transform="translate(463.68829345703125, 134)"><g id="tx_weeklyev_1usfaxort6ayo-fill" stroke="none" fill="#F8E6B8"><g><text style="font: 20px Roboto, sans-serif; white-space: pre;" font-size="20px" font-family="Roboto, sans-serif"><tspan x="12" y="33.63" dominant-baseline="ideographic">Weekly Evaluation </tspan><tspan x="12" y="57.64" dominant-baseline="ideographic">(Monday)</tspan></text></g></g></g><g id="g-root-ic_scat_8znh24rt3if9-fill" data-item-order="0" transform="translate(143.51058959960938, 188)"></g><g id="g-root-ic_48px_1480cv0rt239l-fill" data-item-order="0" transform="translate(391.68829345703125, 218)"></g><g id="g-root-tx_dataasse_74r30rt6adj-fill" data-item-order="0" transform="translate(463.68829345703125, 218)"><g id="tx_dataasse_74r30rt6adj-fill" stroke="none" fill="#f4f4f4"><g><text style="font: 20px Roboto, sans-serif; white-space: pre;" font-size="20px" font-family="Roboto, sans-serif"><tspan x="12" y="33.63" dominant-baseline="ideographic">Data Assessment </tspan><tspan x="12" y="57.64" dominant-baseline="ideographic">Period</tspan></text></g></g></g><g id="g-root-ic_cog_18lyckcrtaj2l-fill" data-item-order="0" transform="translate(287.5105895996094, 266)"></g><g id="g-root-ic_48px_1cws55ort2420-fill" data-item-order="0" transform="translate(391.68829345703125, 302)"></g><g id="g-root-ic_1_1usfaxort6ayp-fill" data-item-order="0" transform="translate(173.51058959960938, 326)"></g><g id="g-root-tx_smoothtr_4mbs4crt6cr2-fill" data-item-order="0" transform="translate(463.68829345703125, 314)"><g id="tx_smoothtr_4mbs4crt6cr2-fill" stroke="none" fill="#f4f4f4"><g><text style="font: 20px Roboto, sans-serif; white-space: pre;" font-size="20px" font-family="Roboto, sans-serif"><tspan x="12" y="33.64" dominant-baseline="ideographic">Smooth Transition</tspan></text></g></g></g><g id="g-root-ic_back_1ur6fx8rt7pc2-fill" data-item-order="0" transform="translate(41.510589599609375, 368)"></g><g id="g-root-ic_48px_1inmkrswgll-fill" data-item-order="0" transform="translate(391.68829345703125, 386)"></g><g id="g-root-tx_newnodea_dhysd8rt6byd-fill" data-item-order="0" transform="translate(463.68829345703125, 398)"><g id="tx_newnodea_dhysd8rt6byd-fill" stroke="none" fill="#f4f4f4"><g><text style="font: 20px Roboto, sans-serif; white-space: pre;" font-size="20px" font-family="Roboto, sans-serif"><tspan x="12" y="33.64" dominant-baseline="ideographic">New Node Activation</tspan></text></g></g></g><g id="g-root-sy_4_cu_hvwv8crt6c5o-stroke" data-item-order="-152385" transform="translate(379.68865966796875, 374)"><g id="sy_4_cu_hvwv8crt6c5o-stroke" fill="none" stroke-linecap="round" stroke-linejoin="round" stroke-miterlimit="4" stroke="#d3d3d3" stroke-width="2"><g><path d="M 82 46C 82 65.8823 65.8823 82 46 82C 26.1177 82 10 65.8823 10 46C 10 26.1177 26.1177 10 46 10C 65.8823 10 82 26.1177 82 46Z"></path></g></g></g><g id="g-root-sy_4_cu_1_4l2ty4rt6akt-stroke" data-item-order="-152383" transform="translate(162.24212646484375, 110)"><g id="sy_4_cu_1_4l2ty4rt6akt-stroke" fill="none" stroke-linecap="round" stroke-linejoin="round" stroke-miterlimit="4" stroke="#d3d3d3" stroke-width="2"><g><path d="M 10 28.8658L 65.6365 87.4995L 71.2586 68.5227C 90.01 79.9283 106.7212 95.7057 119.9048 115.9367C 129.1374 130.1048 135.4614 145.053 139.1238 160.1596C 129.5572 166.6305 123.2686 177.5809 123.2686 190C 123.2686 202.8193 129.969 214.0737 140.0588 220.4519C 131.3124 261.7701 103.4074 297.5153 62.1658 313.0258L 74.3752 347.212C 130.4925 326.7398 166.6775 277.3851 176.1812 221.788C 187.5384 215.7328 195.2686 203.7691 195.2686 190C 195.2686 175.8564 187.1122 163.6178 175.2466 157.7312C 170.988 136.5524 162.7093 115.6842 150.0659 96.2822C 131.7788 68.2192 108.1902 47.1633 81.819 32.877L 88.5965 10L 10 28.8658Z"></path></g></g></g><g id="g-root-sy_3_cu_59btort6bd2-stroke" data-item-order="-152379" transform="translate(379.68841552734375, 290)"><g id="sy_3_cu_59btort6bd2-stroke" fill="none" stroke-linecap="round" stroke-linejoin="round" stroke-miterlimit="4" stroke="#d3d3d3" stroke-width="2"><g><path d="M 82 46C 82 65.8823 65.8823 82 46 82C 26.1177 82 10 65.8823 10 46C 10 26.1177 26.1177 10 46 10C 65.8823 10 82 26.1177 82 46Z"></path></g></g></g><g id="g-root-sy_3_cu_1_1qaqdjwrt6byn-stroke" data-item-order="-152377" transform="translate(19.688400268554688, 245.6025390625)"><g id="sy_3_cu_1_1qaqdjwrt6byn-stroke" fill="none" stroke-linecap="round" stroke-linejoin="round" stroke-miterlimit="4" stroke="#d3d3d3" stroke-width="2"><g><path d="M 65.559606 192.0649C 90.966906 211.2422 123.230406 222.5704 158.340406 221.6501C 179.698206 221.6225 199.297606 218.0415 216.929406 211.6092L 204.720006 177.423C 190.652006 182.7139 175.032106 185.6503 158.091506 185.6503L 157.840706 185.6503L 157.590006 185.6573C 132.073006 186.3685 109.105506 178.8972 90.753006 166.1412C 91.451506 163.3419 91.822306 160.4128 91.822306 157.3972C 91.822306 137.515 75.704506 121.3972 55.822306 121.3972C 55.251306 121.3972 54.683406 121.4105 54.118906 121.4368C 43.713606 97.0247 43.047206 68.5421 55.944906 41.3555C 58.063006 36.8909 60.530906 32.6833 63.296906 28.7495L 32.494206 10C 29.121606 15.004 26.080106 20.3169 23.419606 25.925C 4.311606 66.2018 6.753206 107.3637 23.520806 141.4851C 21.152806 146.283 19.822306 151.6847 19.822306 157.3972C 19.822306 177.2795 35.940006 193.3972 55.822306 193.3972C 59.196606 193.3972 62.462506 192.933 65.559606 192.0649Z"></path></g></g></g><g id="g-root-sy_2_cu_1hfpue4rt6adc-stroke" data-item-order="-152373" transform="translate(379.6884765625, 206)"><g id="sy_2_cu_1hfpue4rt6adc-stroke" fill="none" stroke-linecap="round" stroke-linejoin="round" stroke-miterlimit="4" stroke="#d3d3d3" stroke-width="2"><g><path d="M 82 46C 82 65.8823 65.8823 82 46 82C 26.1177 82 10 65.8823 10 46C 10 26.1177 26.1177 10 46 10C 65.8823 10 82 26.1177 82 46Z"></path></g></g></g><g id="g-root-sy_2_cu_1_18k2u58rt6b61-stroke" data-item-order="-152371" transform="translate(42.18255615234375, 176)"><g id="sy_2_cu_1_18k2u58rt6b61-stroke" fill="none" stroke-linecap="round" stroke-linejoin="round" stroke-miterlimit="4" stroke="#d3d3d3" stroke-width="2"><g><path d="M 171.0696 41.6631C 183.0501 49.4425 193.8597 60.0099 202.7119 73.5974L 202.7184 73.6074C 209.6186 84.2141 214.0903 96.0025 216.2334 108.0936L 180.6126 113.4584C 179.2287 106.3132 176.5488 99.3995 172.5457 93.2444C 167.8349 86.0145 162.3284 80.0555 156.2479 75.3013C 150.3519 79.5183 143.1298 82 135.3281 82C 120.9069 82 108.4662 73.5204 102.7201 61.2752C 102.1114 61.3487 101.5027 61.4289 100.8939 61.5158C 77.639 64.8361 55.1885 77.8927 40.8027 98.3523L 10 79.6029C 30.2564 49.5478 62.4567 30.6387 95.8055 25.8772C 99.25 25.3855 102.7147 25.0444 106.1871 24.8579C 112.7309 15.854 123.3459 10 135.3281 10C 153.7426 10 168.9278 23.8258 171.0696 41.6631Z"></path></g></g></g><g id="g-root-sy_1_cu_1449c0srt6bya-stroke" data-item-order="-152367" transform="translate(379.6884765625, 122)"><g id="sy_1_cu_1449c0srt6bya-stroke" fill="none" stroke-linecap="round" stroke-linejoin="round" stroke-miterlimit="4" stroke="#F8E6B8" stroke-width="2"><g><path d="M 82 46C 82 65.8823 65.8823 82 46 82C 26.1177 82 10 65.8823 10 46C 10 26.1177 26.1177 10 46 10C 65.8823 10 82 26.1177 82 46Z"></path></g></g></g><g id="g-root-sy_1_cu_1_v8mbrwrt6cqz-stroke" data-item-order="-152365" transform="translate(95.26364135742188, 274.09375)"><g id="sy_1_cu_1_v8mbrwrt6cqz-stroke" fill="none" stroke-linecap="round" stroke-linejoin="round" stroke-miterlimit="4" stroke="#F8E6B8" stroke-width="2"><g><path d="M 147.724869 80.7629C 151.807269 75.1392 155.170969 69.0218 157.784269 62.59C 164.413069 46.2757 166.308669 27.8095 163.151969 10L 127.531269 15.3648C 129.728369 26.7086 128.658969 38.636 124.432369 49.0384C 123.953869 50.2158 123.436669 51.3715 122.880169 52.5028C 119.519469 51.4653 115.948469 50.9067 112.247069 50.9067C 95.489269 50.9067 81.405869 62.3566 77.393269 77.86C 65.263269 76.9974 55.604869 71.1896 49.432669 61.1709C 47.695869 58.3516 46.235069 55.199 45.072969 51.7292C 41.915769 42.3028 31.714769 37.2205 22.288269 40.3777C 12.861869 43.5349 7.779569 53.7359 10.936769 63.1624C 12.284169 67.1855 13.895169 71.0187 15.750769 74.6436C 28.567969 99.6822 53.056269 114.7868 82.982669 113.9385C 84.731169 113.8889 86.454269 113.7937 88.151669 113.6543C 94.532069 119.4057 102.980669 122.9067 112.247069 122.9067C 132.129269 122.9067 148.247069 106.7889 148.247069 86.9067C 148.247069 84.8121 148.068169 82.7594 147.724869 80.7629Z"></path></g></g></g><g id="g-root-tx_weeklypr_hxsahort6b64-stroke" data-item-order="0" transform="translate(127.68829345703125, 38)"></g><g id="g-root-ic_48px_9pgcrt3jey-stroke" data-item-order="0" transform="translate(391.68829345703125, 134)"><g id="ic_48px_9pgcrt3jey-stroke" fill="none" stroke-linecap="round" stroke-linejoin="round" stroke-miterlimit="4" stroke="#F8E6B8" stroke-width="2"><g><path d="M 37.8418 23.3774L 46.2969 20.1836L 46.2969 47.951M 15.07227 30.1785C 15.07227 24.4817 17.78873 19.69524 23.0107 19.69524C 28.2328 19.69524 30.9492 24.4817 30.9492 30.1785L 30.9492 37.2727C 30.9492 42.9695 28.1054 47.8816 23.0107 47.8816C 17.91609 47.8816 15.07227 42.9695 15.07227 37.2727L 15.07227 30.1785Z"></path></g></g></g><g id="g-root-tx_weeklyev_1usfaxort6ayo-stroke" data-item-order="0" transform="translate(463.68829345703125, 134)"></g><g id="g-root-ic_scat_8znh24rt3if9-stroke" data-item-order="0" transform="translate(143.51058959960938, 188)"><g id="ic_scat_8znh24rt3if9-stroke" fill="none" stroke-linecap="round" stroke-linejoin="round" stroke-miterlimit="4" stroke="#d3d3d3" stroke-width="2"><g><path d="M 11.5 11.5L 11.5 56.5L 56.5 56.5M 20.75 17.5C 20.335781 17.5 20 17.164219 20 16.75C 20 16.335781 20.335781 16 20.75 16M 20.75 17.5C 21.164219 17.5 21.5 17.164219 21.5 16.75C 21.5 16.335781 21.164219 16 20.75 16M 18.75 45.5C 18.335781 45.5 18 45.1642 18 44.75C 18 44.3358 18.335781 44 18.75 44M 18.75 45.5C 19.164219 45.5 19.5 45.1642 19.5 44.75C 19.5 44.3358 19.164219 44 18.75 44M 22.75 27.5C 22.335781 27.5 22 27.164221 22 26.75C 22 26.335779 22.335781 26 22.75 26M 22.75 27.5C 23.164219 27.5 23.5 27.164221 23.5 26.75C 23.5 26.335779 23.164219 26 22.75 26M 16.75 35.5C 16.335781 35.5 16 35.1642 16 34.75C 16 34.3358 16.335781 34 16.75 34M 16.75 35.5C 17.164219 35.5 17.5 35.1642 17.5 34.75C 17.5 34.3358 17.164219 34 16.75 34M 34.75 19.5C 34.3358 19.5 34 19.164219 34 18.75C 34 18.335781 34.3358 18 34.75 18M 34.75 19.5C 35.1642 19.5 35.5 19.164219 35.5 18.75C 35.5 18.335781 35.1642 18 34.75 18M 40.75 39.5C 40.3358 39.5 40 39.1642 40 38.75C 40 38.3358 40.3358 38 40.75 38M 40.75 39.5C 41.1642 39.5 41.5 39.1642 41.5 38.75C 41.5 38.3358 41.1642 38 40.75 38M 52.75 33.5C 52.3358 33.5 52 33.1642 52 32.75C 52 32.3358 52.3358 32 52.75 32M 52.75 33.5C 53.1642 33.5 53.5 33.1642 53.5 32.75C 53.5 32.3358 53.1642 32 52.75 32M 50.75 13.5C 50.3358 13.5 50 13.16422 50 12.75C 50 12.33578 50.3358 12 50.75 12M 50.75 13.5C 51.1642 13.5 51.5 13.16422 51.5 12.75C 51.5 12.33578 51.1642 12 50.75 12M 34.75 49.5C 34.3358 49.5 34 49.1642 34 48.75C 34 48.3358 34.3358 48 34.75 48M 34.75 49.5C 35.1642 49.5 35.5 49.1642 35.5 48.75C 35.5 48.3358 35.1642 48 34.75 48M 54.75 47.5C 54.3358 47.5 54 47.1642 54 46.75C 54 46.3358 54.3358 46 54.75 46M 54.75 47.5C 55.1642 47.5 55.5 47.1642 55.5 46.75C 55.5 46.3358 55.1642 46 54.75 46M 44.75 23.5C 44.3358 23.5 44 23.164219 44 22.75C 44 22.335781 44.3358 22 44.75 22M 44.75 23.5C 45.1642 23.5 45.5 23.164219 45.5 22.75C 45.5 22.335781 45.1642 22 44.75 22M 30.75 35.5C 30.3358 35.5 30 35.1642 30 34.75C 30 34.3358 30.3358 34 30.75 34M 30.75 35.5C 31.1642 35.5 31.5 35.1642 31.5 34.75C 31.5 34.3358 31.1642 34 30.75 34"></path></g></g></g><g id="g-root-ic_48px_1480cv0rt239l-stroke" data-item-order="0" transform="translate(391.68829345703125, 218)"><g id="ic_48px_1480cv0rt239l-stroke" fill="none" stroke-linecap="round" stroke-linejoin="round" stroke-miterlimit="4" stroke="#d3d3d3" stroke-width="2"><g><path d="M 15.07227 30.1785C 15.07227 24.4817 17.78873 19.69524 23.0107 19.69524C 28.2328 19.69524 30.9492 24.4817 30.9492 30.1785L 30.9492 37.2727C 30.9492 42.9695 28.1054 47.8816 23.0107 47.8816C 17.91609 47.8816 15.07227 42.9695 15.07227 37.2727L 15.07227 30.1785ZM 36.8315 27.5154C 36.8315 22.8951 40.0559 19.69531 44.4376 19.69531C 51.7066 19.69531 54.1859 26.7886 49.4213 33.0984L 37.33 47.4175L 53.9507 47.4175"></path></g></g></g><g id="g-root-tx_dataasse_74r30rt6adj-stroke" data-item-order="0" transform="translate(463.68829345703125, 218)"></g><g id="g-root-ic_cog_18lyckcrtaj2l-stroke" data-item-order="0" transform="translate(287.5105895996094, 266)"><g id="ic_cog_18lyckcrtaj2l-stroke" fill="none" stroke-linecap="round" stroke-linejoin="round" stroke-miterlimit="4" stroke="#d3d3d3" stroke-width="2"><g><path d="M 37.799999 45.1278L 37.799999 49.474998C 37.799999 51.474998 36.200001 53.275002 34 53.275002M 34 53.275002C 31.799999 53.275002 30.200001 51.674999 30.200001 49.474998L 30.200001 45.1278M 34 53.275002L 34 56.275002M 44 35.875C 44 41.3978 39.5228 45.875 34 45.875C 28.47716 45.875 24 41.3978 24 35.875C 24 30.3522 28.47716 25.875061 34 25.875061C 39.5228 25.875061 44 30.3522 44 35.875ZM 46.359798 46.360001C 47.292599 45.6604 48.225399 45.194 49.391602 45.194L 52.189999 45.4272C 53.822399 45.6604 55.2216 44.4944 55.9212 43.095001C 56.6208 41.462601 56.154598 39.8302 54.9884 38.6642L 52.889599 36.798401C 52.189999 36.098801 51.723598 35.166 51.723598 34C 51.723598 33.0672 52.189999 31.901199 52.889599 31.201599L 54.9884 29.335899C 56.154598 28.169861 56.6208 26.30418 55.9212 24.90494C 55.2216 23.505699 53.822399 22.57288 52.189999 22.57288L 49.391602 22.806099C 48.225399 22.806099 47.059399 22.33968 46.359798 21.64006C 45.660198 20.707241 45.193802 19.774399 45.193802 18.608379L 45.426998 15.8099C 45.660198 14.17746 44.494202 12.7782 43.095001 12.07858C 41.462402 11.378968 39.830002 11.845402 38.664001 13.01144L 36.798401 15.11028C 36.098801 15.8099 35.166 16.27632 33.999802 16.27632C 32.833801 16.27632 31.901199 15.8099 31.201401 15.11028L 29.335859 13.01144C 28.169821 11.845402 26.537399 11.378968 24.904961 12.07858C 23.50572 12.7782 22.33968 14.17746 22.57288 15.8099L 22.806099 18.608379C 22.806099 19.774399 22.339699 20.707241 21.640079 21.64006C 20.94046 22.33968 19.77438 22.806099 18.608341 22.806099L 15.809919 22.57288C 14.17746 22.57288 12.77822 23.505699 12.0786 24.90494C 11.378976 26.30418 11.845374 28.169861 13.0114 29.335899L 15.11026 31.201599C 15.809879 31.901199 16.276279 33.0672 16.276279 34C 16.276279 35.166 15.809879 36.098801 15.11026 36.798401L 13.0114 38.6642C 11.845374 39.8302 11.378976 41.462601 12.0786 43.095001C 12.77822 44.4944 14.17746 45.6604 15.809919 45.4272L 18.608341 45.194C 19.77438 45.194 20.707241 45.6604 21.640079 46.360001"></path></g></g></g><g id="g-root-ic_48px_1cws55ort2420-stroke" data-item-order="0" transform="translate(391.68829345703125, 302)"><g id="ic_48px_1cws55ort2420-stroke" fill="none" stroke-linecap="round" stroke-linejoin="round" stroke-miterlimit="4" stroke="#d3d3d3" stroke-width="2"><g><path d="M 15.07227 30.1785C 15.07227 24.4817 17.78873 19.69524 23.0107 19.69524C 28.2328 19.69524 30.9492 24.4817 30.9492 30.1785L 30.9492 37.2727C 30.9492 42.9695 28.1054 47.8816 23.0107 47.8816C 17.91609 47.8816 15.07227 42.9695 15.07227 37.2727L 15.07227 30.1785ZM 37.1212 27.0681C 37.0021 24.6592 38.4826 19.70994 45.0653 19.70994C 51.648 19.70994 52.6563 24.5974 52.4282 27.357C 52.1767 30.3999 50.2718 33.5079 42.2007 33.5079C 49.7136 33.5079 53.1255 35.562 53.1255 41.1245C 53.1255 45.9328 48.8755 47.8898 44.9922 47.8898C 42.2014 47.866 36.6196 46.2871 36.6196 40.1622"></path></g></g></g><g id="g-root-ic_1_1usfaxort6ayp-stroke" data-item-order="0" transform="translate(173.51058959960938, 326)"><g id="ic_1_1usfaxort6ayp-stroke" fill="none" stroke-linecap="round" stroke-linejoin="round" stroke-miterlimit="4" stroke="#F8E6B8" stroke-width="2"><g><path d="M 57 57.001999L 49.844002 49.846001M 35 43.001999C 35 47.972565 39.029438 52.001999 44 52.001999C 48.970562 52.001999 53 47.972565 53 43.001999C 53 38.031437 48.970562 34.001999 44 34.001999C 39.029438 34.001999 35 38.031437 35 43.001999ZM 29 47L 13 47C 11.895431 47 11 46.104568 11 45L 11 17C 11 15.895431 11.895431 15 13 15L 49 15C 50.104568 15 51 15.895431 51 17L 51 30M 21 11.002L 21 21.001999M 41 11.002L 41 21.001999M 11 25.001999L 51 25.001999"></path></g></g></g><g id="g-root-tx_smoothtr_4mbs4crt6cr2-stroke" data-item-order="0" transform="translate(463.68829345703125, 314)"></g><g id="g-root-ic_back_1ur6fx8rt7pc2-stroke" data-item-order="0" transform="translate(41.510589599609375, 368)"><g id="ic_back_1ur6fx8rt7pc2-stroke" fill="none" stroke-linecap="round" stroke-linejoin="round" stroke-miterlimit="4" stroke="#d3d3d3" stroke-width="2"><g><path d="M 42 12L 48 18L 42 24M 48 18L 11 18M 42 44L 48 50L 42 56M 48 50L 11 50M 26 28L 20 34L 26 40M 20 34L 57 34"></path></g></g></g><g id="g-root-ic_48px_1inmkrswgll-stroke" data-item-order="0" transform="translate(391.68829345703125, 386)"><g id="ic_48px_1inmkrswgll-stroke" fill="none" stroke-linecap="round" stroke-linejoin="round" stroke-miterlimit="4" stroke="#d3d3d3" stroke-width="2"><g><path d="M 15.07227 30.179C 15.07227 24.4822 17.78873 19.69573 23.0107 19.69573C 28.2328 19.69573 30.9492 24.4822 30.9492 30.179L 30.9492 37.2732C 30.9492 42.97 28.1054 47.8821 23.0107 47.8821C 17.91609 47.8821 15.07227 42.97 15.07227 37.2732L 15.07227 30.179ZM 49.9098 47.9788L 49.9098 19.55127L 36.2949 39.738L 55.3147 39.738"></path></g></g></g><g id="g-root-tx_newnodea_dhysd8rt6byd-stroke" data-item-order="0" transform="translate(463.68829345703125, 398)"></g></g></g></svg>