<?xml version="1.0" encoding="utf-8" standalone="yes"?>
<!DOCTYPE svg PUBLIC "-//W3C//DTD SVG 1.1//EN" "http://www.w3.org/Graphics/SVG/1.1/DTD/svg11.dtd">
<svg width="1056" height="660" viewBox="0 0 1056 660" style="fill:none;stroke:none;fill-rule:evenodd;clip-rule:evenodd;stroke-linecap:round;stroke-linejoin:round;stroke-miterlimit:1.5;" version="1.1" xmlns="http://www.w3.org/2000/svg" xmlns:xlink="http://www.w3.org/1999/xlink"><style class="text-font-style fontImports" data-font-family="Roboto">@import url('https://fonts.googleapis.com/css2?family=Roboto:wght@400;700&amp;display=block');</style><g id="items" style="isolation: isolate"><g id="blend" style="mix-blend-mode: normal"><g id="g-root-cp_4_g-4_zofe58tqqtcb-fill" data-item-order="-568502" transform="translate(50, 398)"><g id="cp_4_g-4_zofe58tqqtcb-fill" stroke="none" fill="#6b6b6b"><g><path d="M 406 70L 526 10L 701 10L 610 166L 610 58L 526 58L 406 178L 10 178L 10 70L 406 70Z"></path></g></g></g><g id="g-root-cp_1_g-1_v8lw0stqqu4l-fill" data-item-order="-568498" transform="translate(50, 134)"><g id="cp_1_g-1_v8lw0stqqu4l-fill" stroke="none" fill="#E5A000"><g><path d="M 406 118L 526 178L 701.5 178L 610 22L 610 130L 526 130L 406 10L 10 10L 10 118L 406 118Z"></path></g></g></g><g id="g-root-cp_2_g-2_v8lw0stqqu4n-fill" data-item-order="-568494" transform="translate(50, 242)"><g id="cp_2_g-2_v8lw0stqqu4n-fill" stroke="none" fill="#6b6b6b"><g><path d="M 10 10L 406 10L 526 70L 701.5 70L 730 118L 10 118L 10 10Z"></path></g></g></g><g id="g-root-cp_3_g-3_qssdwctqquwx-fill" data-item-order="-568490" transform="translate(50, 350)"><g id="cp_3_g-3_qssdwctqquwx-fill" stroke="none" fill="#6b6b6b"><g><path d="M 10 10L 730 10L 701 58L 526 58L 406 118L 10 118L 10 10Z"></path></g></g></g><g id="g-root-tx_crafting_qssdwctqquwz-fill" data-item-order="0" transform="translate(368, 38)"><g id="tx_crafting_qssdwctqquwz-fill" stroke="none" fill="#f4f4f4"><g><text style="font: bold 25px Roboto, sans-serif; white-space: pre;" font-weight="bold" font-size="25px" font-family="Roboto, sans-serif"><tspan x="15.01" y="43" dominant-baseline="ideographic">Crafting the Digital Future</tspan></text></g></g></g><g id="g-root-ic_7_4mbcd8tqqu4u-fill" data-item-order="0" transform="translate(74, 165)"></g><g id="g-root-tx_largeora_dhycm4tqqtc4-fill" data-item-order="0" transform="translate(134, 153)"><g id="tx_largeora_dhycm4tqqtc4-fill" stroke="none" fill="#F8E6B8"><g><text style="font: bold 20px Roboto, sans-serif; white-space: pre;" font-weight="bold" font-size="20px" font-family="Roboto, sans-serif"><tspan x="12" y="33.64" dominant-baseline="ideographic">Large Orange Number "7</tspan></text></g></g></g><g id="g-root-tx_symboliz_dhycm4tqqtc5-fill" data-item-order="0" transform="translate(134, 189)"><g id="tx_symboliz_dhycm4tqqtc5-fill" stroke="none" fill="#F8E6B8"><g><text style="font: 15px Roboto, sans-serif; white-space: pre;" font-size="15px" font-family="Roboto, sans-serif"><tspan x="12" y="27.28" dominant-baseline="ideographic">Symbolizes the seventh dimension of smart </tspan><tspan x="12" y="45.27" dominant-baseline="ideographic">contracts.</tspan></text></g></g></g><g id="g-root-ic_thul_1cwrj30tr4ufg-fill" data-item-order="0" transform="translate(74, 273)"></g><g id="g-root-tx_modernty_24in0tr4vep-fill" data-item-order="0" transform="translate(134, 261)"><g id="tx_modernty_24in0tr4vep-fill" stroke="none" fill="#f4f4f4"><g><text style="font: bold 20px Roboto, sans-serif; white-space: pre;" font-weight="bold" font-size="20px" font-family="Roboto, sans-serif"><tspan x="12" y="33.64" dominant-baseline="ideographic">Modern Typography</tspan></text></g></g></g><g id="g-root-tx_cleanmod_1q7lkd8tr4w0a-fill" data-item-order="0" transform="translate(134, 297)"><g id="tx_cleanmod_1q7lkd8tr4w0a-fill" stroke="none" fill="#f4f4f4"><g><text style="font: 15px Roboto, sans-serif; white-space: pre;" font-size="15px" font-family="Roboto, sans-serif"><tspan x="12" y="27.28" dominant-baseline="ideographic">Clean, modern typography enhances </tspan><tspan x="12" y="45.27" dominant-baseline="ideographic">readability and professionalism.</tspan></text></g></g></g><g id="g-root-tx_informat_1ltnntotqo0lj-fill" data-item-order="0" transform="translate(794, 296)"><g id="tx_informat_1ltnntotqo0lj-fill" stroke="none" fill="#f4f4f4"><g><text style="font: bold 30px Roboto, sans-serif; white-space: pre;" font-weight="bold" font-size="30px" font-family="Roboto, sans-serif"><tspan x="12" y="45.46" dominant-baseline="ideographic">Information-</tspan><tspan x="12" y="81.46" dominant-baseline="ideographic">Driven Smart </tspan><tspan x="12" y="117.45" dominant-baseline="ideographic">Contracts</tspan></text></g></g></g><g id="g-root-ic_2_1uqjj30tr0mip-fill" data-item-order="0" transform="translate(74, 381)"></g><g id="g-root-tx_utopiavd_3djz0tr0mxb-fill" data-item-order="0" transform="translate(134, 369)"><g id="tx_utopiavd_3djz0tr0mxb-fill" stroke="none" fill="#f4f4f4"><g><text style="font: bold 20px Roboto, sans-serif; white-space: pre;" font-weight="bold" font-size="20px" font-family="Roboto, sans-serif"><tspan x="12" y="33.64" dominant-baseline="ideographic">Utopia V-Dimension Identifier</tspan></text></g></g></g><g id="g-root-tx_identifi_4mi58tr0p3c-fill" data-item-order="0" transform="translate(134, 405)"><g id="tx_identifi_4mi58tr0p3c-fill" stroke="none" fill="#f4f4f4"><g><text style="font: 15px Roboto, sans-serif; white-space: pre;" font-size="15px" font-family="Roboto, sans-serif"><tspan x="12" y="27.28" dominant-baseline="ideographic">Identifies the advanced dimension of smart </tspan><tspan x="12" y="45.27" dominant-baseline="ideographic">contract technology.</tspan></text></g></g></g><g id="g-root-ic_cont_zlxkyktr7nyf-fill" data-item-order="0" transform="translate(74, 489)"></g><g id="g-root-tx_minimali_1cwrm8str7pj9-fill" data-item-order="0" transform="translate(134, 477)"><g id="tx_minimali_1cwrm8str7pj9-fill" stroke="none" fill="#f4f4f4"><g><text style="font: bold 20px Roboto, sans-serif; white-space: pre;" font-weight="bold" font-size="20px" font-family="Roboto, sans-serif"><tspan x="12" y="33.64" dominant-baseline="ideographic">Minimalist Design</tspan></text></g></g></g><g id="g-root-tx_minimali_141r330tr7n66-fill" data-item-order="0" transform="translate(134, 513)"><g id="tx_minimali_141r330tr7n66-fill" stroke="none" fill="#f4f4f4"><g><text style="font: 15px Roboto, sans-serif; white-space: pre;" font-size="15px" font-family="Roboto, sans-serif"><tspan x="12" y="27.28" dominant-baseline="ideographic">Minimalist design ensures clarity and focus </tspan><tspan x="12" y="45.27" dominant-baseline="ideographic">on key elements.</tspan></text></g></g></g><g id="g-root-cp_4_g-4_zofe58tqqtcb-stroke" data-item-order="-568502" transform="translate(50, 398)"><g id="cp_4_g-4_zofe58tqqtcb-stroke" fill="none" stroke-linecap="round" stroke-linejoin="round" stroke-miterlimit="4" stroke="#d3d3d3" stroke-width="2"><g><path d="M 406 70L 526 10L 701 10L 610 166L 610 58L 526 58L 406 178L 10 178L 10 70L 406 70Z"></path></g></g></g><g id="g-root-cp_1_g-1_v8lw0stqqu4l-stroke" data-item-order="-568498" transform="translate(50, 134)"><g id="cp_1_g-1_v8lw0stqqu4l-stroke" fill="none" stroke-linecap="round" stroke-linejoin="round" stroke-miterlimit="4" stroke="#F8E6B8" stroke-width="2"><g><path d="M 406 118L 526 178L 701.5 178L 610 22L 610 130L 526 130L 406 10L 10 10L 10 118L 406 118Z"></path></g></g></g><g id="g-root-cp_2_g-2_v8lw0stqqu4n-stroke" data-item-order="-568494" transform="translate(50, 242)"><g id="cp_2_g-2_v8lw0stqqu4n-stroke" fill="none" stroke-linecap="round" stroke-linejoin="round" stroke-miterlimit="4" stroke="#d3d3d3" stroke-width="2"><g><path d="M 10 10L 406 10L 526 70L 701.5 70L 730 118L 10 118L 10 10Z"></path></g></g></g><g id="g-root-cp_3_g-3_qssdwctqquwx-stroke" data-item-order="-568490" transform="translate(50, 350)"><g id="cp_3_g-3_qssdwctqquwx-stroke" fill="none" stroke-linecap="round" stroke-linejoin="round" stroke-miterlimit="4" stroke="#d3d3d3" stroke-width="2"><g><path d="M 10 10L 730 10L 701 58L 526 58L 406 118L 10 118L 10 10Z"></path></g></g></g><g id="g-root-tx_crafting_qssdwctqquwz-stroke" data-item-order="0" transform="translate(368, 38)"></g><g id="g-root-ic_7_4mbcd8tqqu4u-stroke" data-item-order="0" transform="translate(74, 165)"><g id="ic_7_4mbcd8tqqu4u-stroke" fill="none" stroke-linecap="round" stroke-linejoin="round" stroke-miterlimit="4" stroke="#F8E6B8" stroke-width="2"><g><path d="M 15.552 29C 14.447431 29 13.552 28.10457 13.552 27L 13.552 13C 13.552 11.895431 14.447431 11 15.552 11L 17.552 11C 18.65657 11 19.552 11.895431 19.552 13L 19.552 13.944C 21.969439 11.948843 25.043016 10.925031 28.174 11.072001C 33.916 11.072001 35.356003 13.944 41.096001 13.944C 44.112141 13.906645 47.080551 13.185911 49.778 11.836C 50.606777 11.423435 51.610374 11.633587 52.203999 12.344L 53.984001 14.48C 54.446323 15.034441 54.573975 15.795001 54.318001 16.469999C 51.335999 24.341999 43.706001 45.27 42.647999 55.212002C 42.539726 56.227707 41.68346 56.998604 40.662003 57L 28.799999 57C 28.247366 57.001064 27.718925 56.773415 27.340075 56.371075C 26.961224 55.968735 26.765736 55.42757 26.799999 54.875999C 27.976028 42.240543 34.15976 30.601217 43.972 22.554001C 42.092125 24.478119 39.488338 25.520796 36.799999 25.425999C 33.211998 25.425999 28.906 22.554001 26.034 22.554001C 23.02861 22.429226 20.356274 24.451717 19.66 27.378C 19.478924 28.318815 18.656082 28.999063 17.698 29Z"></path></g></g></g><g id="g-root-tx_largeora_dhycm4tqqtc4-stroke" data-item-order="0" transform="translate(134, 153)"></g><g id="g-root-tx_symboliz_dhycm4tqqtc5-stroke" data-item-order="0" transform="translate(134, 189)"></g><g id="g-root-ic_thul_1cwrj30tr4ufg-stroke" data-item-order="0" transform="translate(74, 273)"><g id="ic_thul_1cwrj30tr4ufg-stroke" fill="none" stroke-linecap="round" stroke-linejoin="round" stroke-miterlimit="4" stroke="#d3d3d3" stroke-width="2"><g><path d="M 13 11L 55 11C 55 11 57 11 57 13L 57 55C 57 55 57 57 55 57L 13 57C 13 57 11 57 11 55L 11 13C 11 13 11 11 13 11M 24 48L 44 48M 38.389999 43L 38.389999 36.056C 38.389999 34.368 39.757999 33 41.445999 33L 41.445999 33C 43.133999 33 44.5 34.368 44.5 36.056L 44.5 43M 32.279999 43L 32.279999 36.056C 32.279999 34.368 33.646 33 35.334 33L 35.334 33C 37.021999 33 38.389999 34.368 38.389999 36.056L 38.389999 43M 32.279999 36.334L 32.279999 33M 25.5 25L 25.5 43M 19.5 25L 31.5 25"></path></g></g></g><g id="g-root-tx_modernty_24in0tr4vep-stroke" data-item-order="0" transform="translate(134, 261)"></g><g id="g-root-tx_cleanmod_1q7lkd8tr4w0a-stroke" data-item-order="0" transform="translate(134, 297)"></g><g id="g-root-tx_informat_1ltnntotqo0lj-stroke" data-item-order="0" transform="translate(794, 296)"></g><g id="g-root-ic_2_1uqjj30tr0mip-stroke" data-item-order="0" transform="translate(74, 381)"><g id="ic_2_1uqjj30tr0mip-stroke" fill="none" stroke-linecap="round" stroke-linejoin="round" stroke-miterlimit="4" stroke="#d3d3d3" stroke-width="2"><g><path d="M 10 10M 37 31L 44 43L 57 21L 55 14L 48 14L 37 31ZM 33 25L 40 14L 15 14C 15 14.082 11 20 11 20L 14 25ZM 31 32L 17 32L 30 54L 38 54L 41 49L 31 32Z"></path></g></g></g><g id="g-root-tx_utopiavd_3djz0tr0mxb-stroke" data-item-order="0" transform="translate(134, 369)"></g><g id="g-root-tx_identifi_4mi58tr0p3c-stroke" data-item-order="0" transform="translate(134, 405)"></g><g id="g-root-ic_cont_zlxkyktr7nyf-stroke" data-item-order="0" transform="translate(74, 489)"><g id="ic_cont_zlxkyktr7nyf-stroke" fill="none" stroke-linecap="round" stroke-linejoin="round" stroke-miterlimit="4" stroke="#d3d3d3" stroke-width="2"><g><path d="M 31 29C 31 30.10457 30.10457 31 29 31L 13 31C 11.895431 31 11 30.10457 11 29L 11 13C 11 11.895431 11.895431 11 13 11L 29 11C 30.10457 11 31 11.895431 31 13ZM 31 55C 31 56.104568 30.10457 57 29 57L 13 57C 11.895431 57 11 56.104568 11 55L 11 39C 11 37.895432 11.895431 37 13 37L 29 37C 30.10457 37 31 37.895432 31 39ZM 36.993999 14.993999L 56.993999 14.993999M 36.993999 20.993999L 56.993999 20.993999M 36.993999 26.993999L 56.993999 26.993999M 36.993999 40.993999L 56.993999 40.993999M 36.993999 46.993999L 56.993999 46.993999M 36.993999 52.993999L 56.993999 52.993999"></path></g></g></g><g id="g-root-tx_minimali_1cwrm8str7pj9-stroke" data-item-order="0" transform="translate(134, 477)"></g><g id="g-root-tx_minimali_141r330tr7n66-stroke" data-item-order="0" transform="translate(134, 513)"></g></g></g></svg>