<?xml version="1.0" encoding="utf-8" standalone="yes"?>
<!DOCTYPE svg PUBLIC "-//W3C//DTD SVG 1.1//EN" "http://www.w3.org/Graphics/SVG/1.1/DTD/svg11.dtd">
<svg width="948" height="552" viewBox="0 0 948 552" style="fill:none;stroke:none;fill-rule:evenodd;clip-rule:evenodd;stroke-linecap:round;stroke-linejoin:round;stroke-miterlimit:1.5;" version="1.1" xmlns="http://www.w3.org/2000/svg" xmlns:xlink="http://www.w3.org/1999/xlink"><style class="text-font-style fontImports" data-font-family="Roboto">@import url('https://fonts.googleapis.com/css2?family=Roboto:wght@400;700&amp;display=block');</style><g id="items" style="isolation: isolate"><g id="blend" style="mix-blend-mode: normal"><g id="g-root-cp_1_g-1_1cw554ru14ide-fill" data-item-order="-410390" transform="translate(298, 122)"><g id="cp_1_g-1_1cw554ru14ide-fill" stroke="none" fill="#E5A000"><g><path d="M 309.8675 166.3631C 309.8675 42.8631 398.5 10 398.5 10L 158.507 10.0073C 129.0572 10.2944 101.638 19.0684 78.5779 34.0008L 158 34.0008C 185.6456 34.0008 211.5273 42.9042 232.6834 58L 302 58C 302 58 282.0032 62.3962 270.2293 99.7642C 280.2578 117.6594 286 138.1825 286 160.0008C 286 229.5887 229.5879 286.0008 160 286.0008C 92.3755 286.0008 37.1937 232.727 34.1337 165.8584C 34.1337 137.8986 29.8711 115.3147 23.7056 97.2727C 14.9075 116.3577 10 137.6058 10 160C 10 242.8427 77.1573 310 160 310C 240.711 310 306.5334 246.2544 309.8675 166.3631Z"></path></g></g></g><g id="g-root-cp_2_g-2_1cw554ru14idg-fill" data-item-order="-410386" transform="translate(266.5, 146.0009765625)"><g id="cp_2_g-2_1cw554ru14idg-fill" stroke="none" fill="#6b6b6b"><g><path d="M 189.5 9.999787L 10 9.999787C 10 9.999787 65.6337 40.847787 65.6337 141.857387C 68.6937 208.725987 123.8755 261.999787 191.5 261.999787C 261.0879 261.999787 317.5 205.587687 317.5 135.999787C 317.5 114.181487 311.7578 93.658387 301.7293 75.763287C 296.8171 91.353887 293.3362 112.683987 293.3362 141.828887C 290.3148 195.449287 245.8764 237.998987 191.5 237.998987C 135.167 237.998987 89.5 192.332087 89.5 135.998987C 89.5 114.890687 95.9092 95.277287 106.8883 79.002087C 100.2501 58.409987 91 57.998887 91 57.998887L 125.746 57.998887C 143.0268 43.409187 165.2236 34.461687 189.5 33.998987L 264.1834 33.998987C 243.0273 18.903187 217.1456 9.999787 189.5 9.999787Z"></path></g></g></g><g id="g-root-cp_3_g-3_1414lyzu14g0e-fill" data-item-order="-410382" transform="translate(346, 170)"><g id="cp_3_g-3_1414lyzu14g0e-fill" stroke="none" fill="#6b6b6b"><g><path d="M 213.8362 117.8299C 213.8362 18.8299 254 10 254 10L 110 10C 85.7236 10.4626 63.5268 19.4102 46.246 33.9998L 110 33.9998C 153.0782 33.9998 190 68.9216 190 111.9998C 190 155.078 155.0782 189.9998 112 189.9998C 68.9218 189.9998 34 155.078 34 111.9998C 34 84.3708 31.1031 66.5269 27.3883 55.0031C 16.4092 71.2782 10 90.8917 10 112C 10 168.333 55.667 214 112 214C 166.3764 214 210.8148 171.4503 213.8362 117.8299Z"></path></g></g></g><g id="g-root-cp_4_g-4_zlb3uju14gso-fill" data-item-order="-410378" transform="translate(347.5, 193.9921875)"><g id="cp_4_g-4_zlb3uju14gso-fill" stroke="none" fill="#6b6b6b"><g><path d="M 108.5 10.007601L 10 10.007601C 10 10.007601 32.5 11.007601 32.5 88.007601C 32.5 87.840301 32.5115 89.358901 32.5 88.007601C 32.5 131.085801 67.4218 166.007601 110.5 166.007601C 153.5782 166.007601 188.5 131.085801 188.5 88.007601C 188.5 44.929401 151.5782 10.007601 108.5 10.007601C 107.8229 10.007601 109.173 9.990501 108.5 10.007601Z"></path></g></g></g><g id="g-root-cp_4_g-4_1_zlb3uju14gsq-fill" data-item-order="-410366" transform="translate(234, 194)"><g id="cp_4_g-4_1_zlb3uju14gsq-fill" stroke="none" fill="#6b6b6b"><g><path d="M 10 106C 10 109.3137 12.6863 112 16 112C 19.3137 112 22 109.3137 22 106C 22 102.6863 19.3137 100 16 100C 12.6863 100 10 102.6863 10 106Z"></path></g></g></g><g id="g-root-cp_2_g-2_1_v5hlq3u14hl0-fill" data-item-order="-410358" transform="translate(162, 146)"><g id="cp_2_g-2_1_v5hlq3u14hl0-fill" stroke="none" fill="#6b6b6b"><g><path d="M 10 46C 10 49.3137 12.6863 52 16 52C 19.3137 52 22 49.3137 22 46C 22 42.6863 19.3137 40 16 40C 12.6863 40 10 42.6863 10 46Z"></path></g></g></g><g id="g-root-cp_3_g-3_1_m9ulh7u14idq-fill" data-item-order="-410320" transform="translate(590, 170)"><g id="cp_3_g-3_1_m9ulh7u14idq-fill" stroke="none" fill="#6b6b6b"><g><path d="M 100 130C 100 133.313709 102.686292 136 106 136C 109.313709 136 112 133.313709 112 130C 112 126.686292 109.313709 124 106 124C 102.686292 124 100 126.686292 100 130"></path></g></g></g><g id="g-root-cp_1_g-1_2_qpo3lnu14idc-fill" data-item-order="-410312" transform="translate(686, 122)"><g id="cp_1_g-1_2_qpo3lnu14idc-fill" stroke="none" fill="#E5A000"><g><path d="M 77 70C 77 73.313709 79.686292 76 83 76C 86.313709 76 89 73.313709 89 70C 89 66.686292 86.313709 64 83 64C 79.686292 64 77 66.686292 77 70"></path></g></g></g><g id="g-root-tx_investme_hunkfvu14g0a-fill" data-item-order="0" transform="translate(326, 38)"><g id="tx_investme_hunkfvu14g0a-fill" stroke="none" fill="#f4f4f4"><g><text style="font: bold 25px Roboto, sans-serif; white-space: pre;" font-weight="bold" font-size="25px" font-family="Roboto, sans-serif"><tspan x="15.53" y="43" dominant-baseline="ideographic">Investment Dimensions</tspan></text></g></g></g><g id="g-root-tx_dimensio_4j722ju14hl7-fill" data-item-order="0" transform="translate(62, 194)"><g id="tx_dimensio_4j722ju14hl7-fill" stroke="none" fill="#f4f4f4"><g><text style="font: bold 20px Roboto, sans-serif; white-space: pre;" font-weight="bold" font-size="20px" font-family="Roboto, sans-serif"><tspan x="15.86" y="33.64" dominant-baseline="ideographic">Dimension 3</tspan></text></g></g></g><g id="g-root-tx_dimensio_1cy0ke3u14he7-fill" data-item-order="0" transform="translate(746, 194)"><g id="tx_dimensio_1cy0ke3u14he7-fill" stroke="none" fill="#F8E6B8"><g><text style="font: bold 20px Roboto, sans-serif; white-space: pre;" font-weight="bold" font-size="20px" font-family="Roboto, sans-serif"><tspan x="12" y="33.64" dominant-baseline="ideographic">Dimension 4</tspan></text></g></g></g><g id="g-root-tx_200015da_3djy3u14idg-fill" data-item-order="0" transform="translate(38, 230)"><g id="tx_200015da_3djy3u14idg-fill" stroke="none" fill="#f4f4f4"><g><text style="font: 15px Roboto, sans-serif; white-space: pre;" font-size="15px" font-family="Roboto, sans-serif"><tspan x="16.72" y="30.27" dominant-baseline="ideographic">$2000, 15 days, 13%</tspan></text></g></g></g><g id="g-root-tx_300030da_1hdu2iju14hds-fill" data-item-order="0" transform="translate(746, 230)"><g id="tx_300030da_1hdu2iju14hds-fill" stroke="none" fill="#F8E6B8"><g><text style="font: 15px Roboto, sans-serif; white-space: pre;" font-size="15px" font-family="Roboto, sans-serif"><tspan x="12" y="30.27" dominant-baseline="ideographic">$3000, 30 days, 30%</tspan></text></g></g></g><g id="g-root-tx_dimensio_1q9h2rfu14ft9-fill" data-item-order="0" transform="translate(134, 302)"><g id="tx_dimensio_1q9h2rfu14ft9-fill" stroke="none" fill="#f4f4f4"><g><text style="font: bold 20px Roboto, sans-serif; white-space: pre;" font-weight="bold" font-size="20px" font-family="Roboto, sans-serif"><tspan x="15.86" y="33.64" dominant-baseline="ideographic">Dimension 1</tspan></text></g></g></g><g id="g-root-tx_dimensio_18i729nu14i6h-fill" data-item-order="0" transform="translate(674, 302)"><g id="tx_dimensio_18i729nu14i6h-fill" stroke="none" fill="#f4f4f4"><g><text style="font: bold 20px Roboto, sans-serif; white-space: pre;" font-weight="bold" font-size="20px" font-family="Roboto, sans-serif"><tspan x="12" y="33.64" dominant-baseline="ideographic">Dimension 2</tspan></text></g></g></g><g id="g-root-tx_1001day0_1ltnkmzu14gli-fill" data-item-order="0" transform="translate(134, 338)"><g id="tx_1001day0_1ltnkmzu14gli-fill" stroke="none" fill="#f4f4f4"><g><text style="font: 15px Roboto, sans-serif; white-space: pre;" font-size="15px" font-family="Roboto, sans-serif"><tspan x="14.15" y="30.27" dominant-baseline="ideographic">$100, 1 day, 0.5%</tspan></text></g></g></g><g id="g-root-tx_10007day_143018bu14fsy-fill" data-item-order="0" transform="translate(674, 338)"><g id="tx_10007day_143018bu14fsy-fill" stroke="none" fill="#f4f4f4"><g><text style="font: 15px Roboto, sans-serif; white-space: pre;" font-size="15px" font-family="Roboto, sans-serif"><tspan x="12" y="30.27" dominant-baseline="ideographic">$1000, 7 days, 5%</tspan></text></g></g></g><g id="g-root-cp_1_g-1_1cw554ru14ide-stroke" data-item-order="-410390" transform="translate(298, 122)"><g id="cp_1_g-1_1cw554ru14ide-stroke" fill="none" stroke-linecap="round" stroke-linejoin="round" stroke-miterlimit="4" stroke="#d3d3d3" stroke-width="2"><g><path d="M 309.8675 166.3631C 309.8675 42.8631 398.5 10 398.5 10L 158.507 10.0073C 129.0572 10.2944 101.638 19.0684 78.5779 34.0008L 158 34.0008C 185.6456 34.0008 211.5273 42.9042 232.6834 58L 302 58C 302 58 282.0032 62.3962 270.2293 99.7642C 280.2578 117.6594 286 138.1825 286 160.0008C 286 229.5887 229.5879 286.0008 160 286.0008C 92.3755 286.0008 37.1937 232.727 34.1337 165.8584C 34.1337 137.8986 29.8711 115.3147 23.7056 97.2727C 14.9075 116.3577 10 137.6058 10 160C 10 242.8427 77.1573 310 160 310C 240.711 310 306.5334 246.2544 309.8675 166.3631Z"></path></g></g></g><g id="g-root-cp_2_g-2_1cw554ru14idg-stroke" data-item-order="-410386" transform="translate(266.5, 146.0009765625)"><g id="cp_2_g-2_1cw554ru14idg-stroke" fill="none" stroke-linecap="round" stroke-linejoin="round" stroke-miterlimit="4" stroke="#d3d3d3" stroke-width="2"><g><path d="M 189.5 9.999787L 10 9.999787C 10 9.999787 65.6337 40.847787 65.6337 141.857387C 68.6937 208.725987 123.8755 261.999787 191.5 261.999787C 261.0879 261.999787 317.5 205.587687 317.5 135.999787C 317.5 114.181487 311.7578 93.658387 301.7293 75.763287C 296.8171 91.353887 293.3362 112.683987 293.3362 141.828887C 290.3148 195.449287 245.8764 237.998987 191.5 237.998987C 135.167 237.998987 89.5 192.332087 89.5 135.998987C 89.5 114.890687 95.9092 95.277287 106.8883 79.002087C 100.2501 58.409987 91 57.998887 91 57.998887L 125.746 57.998887C 143.0268 43.409187 165.2236 34.461687 189.5 33.998987L 264.1834 33.998987C 243.0273 18.903187 217.1456 9.999787 189.5 9.999787Z"></path></g></g></g><g id="g-root-cp_3_g-3_1414lyzu14g0e-stroke" data-item-order="-410382" transform="translate(346, 170)"><g id="cp_3_g-3_1414lyzu14g0e-stroke" fill="none" stroke-linecap="round" stroke-linejoin="round" stroke-miterlimit="4" stroke="#d3d3d3" stroke-width="2"><g><path d="M 213.8362 117.8299C 213.8362 18.8299 254 10 254 10L 110 10C 85.7236 10.4626 63.5268 19.4102 46.246 33.9998L 110 33.9998C 153.0782 33.9998 190 68.9216 190 111.9998C 190 155.078 155.0782 189.9998 112 189.9998C 68.9218 189.9998 34 155.078 34 111.9998C 34 84.3708 31.1031 66.5269 27.3883 55.0031C 16.4092 71.2782 10 90.8917 10 112C 10 168.333 55.667 214 112 214C 166.3764 214 210.8148 171.4503 213.8362 117.8299Z"></path></g></g></g><g id="g-root-cp_4_g-4_zlb3uju14gso-stroke" data-item-order="-410378" transform="translate(347.5, 193.9921875)"><g id="cp_4_g-4_zlb3uju14gso-stroke" fill="none" stroke-linecap="round" stroke-linejoin="round" stroke-miterlimit="4" stroke="#d3d3d3" stroke-width="2"><g><path d="M 108.5 10.007601L 10 10.007601C 10 10.007601 32.5 11.007601 32.5 88.007601C 32.5 87.840301 32.5115 89.358901 32.5 88.007601C 32.5 131.085801 67.4218 166.007601 110.5 166.007601C 153.5782 166.007601 188.5 131.085801 188.5 88.007601C 188.5 44.929401 151.5782 10.007601 108.5 10.007601C 107.8229 10.007601 109.173 9.990501 108.5 10.007601Z"></path></g></g></g><g id="g-root-cp_4_g-4_1_zlb3uju14gsq-stroke" data-item-order="-410366" transform="translate(234, 194)"><g id="cp_4_g-4_1_zlb3uju14gsq-stroke" fill="none" stroke-linecap="round" stroke-linejoin="round" stroke-miterlimit="4" stroke="#d3d3d3" stroke-width="2"><g><path d="M 10 106C 10 109.3137 12.6863 112 16 112C 19.3137 112 22 109.3137 22 106C 22 102.6863 19.3137 100 16 100C 12.6863 100 10 102.6863 10 106ZM 124 10L 16 10L 16 100"></path></g></g></g><g id="g-root-cp_2_g-2_1_v5hlq3u14hl0-stroke" data-item-order="-410358" transform="translate(162, 146)"><g id="cp_2_g-2_1_v5hlq3u14hl0-stroke" fill="none" stroke-linecap="round" stroke-linejoin="round" stroke-miterlimit="4" stroke="#d3d3d3" stroke-width="2"><g><path d="M 10 46C 10 49.3137 12.6863 52 16 52C 19.3137 52 22 49.3137 22 46C 22 42.6863 19.3137 40 16 40C 12.6863 40 10 42.6863 10 46ZM 114 10L 16 10L 16 40"></path></g></g></g><g id="g-root-cp_3_g-3_1_m9ulh7u14idq-stroke" data-item-order="-410320" transform="translate(590, 170)"><g id="cp_3_g-3_1_m9ulh7u14idq-stroke" fill="none" stroke-linecap="round" stroke-linejoin="round" stroke-miterlimit="4" stroke="#d3d3d3" stroke-width="2"><g><path d="M 100 130C 100 133.313709 102.686292 136 106 136C 109.313709 136 112 133.313709 112 130C 112 126.686292 109.313709 124 106 124C 102.686292 124 100 126.686292 100 130M 10 10L 106 10L 106 124"></path></g></g></g><g id="g-root-cp_1_g-1_2_qpo3lnu14idc-stroke" data-item-order="-410312" transform="translate(686, 122)"><g id="cp_1_g-1_2_qpo3lnu14idc-stroke" fill="none" stroke-linecap="round" stroke-linejoin="round" stroke-miterlimit="4" stroke="#d3d3d3" stroke-width="2"><g><path d="M 77 70C 77 73.313709 79.686292 76 83 76C 86.313709 76 89 73.313709 89 70C 89 66.686292 86.313709 64 83 64C 79.686292 64 77 66.686292 77 70M 10 10L 83 10L 83 64"></path></g></g></g><g id="g-root-tx_investme_hunkfvu14g0a-stroke" data-item-order="0" transform="translate(326, 38)"></g><g id="g-root-tx_dimensio_4j722ju14hl7-stroke" data-item-order="0" transform="translate(62, 194)"></g><g id="g-root-tx_dimensio_1cy0ke3u14he7-stroke" data-item-order="0" transform="translate(746, 194)"></g><g id="g-root-tx_200015da_3djy3u14idg-stroke" data-item-order="0" transform="translate(38, 230)"></g><g id="g-root-tx_300030da_1hdu2iju14hds-stroke" data-item-order="0" transform="translate(746, 230)"></g><g id="g-root-tx_dimensio_1q9h2rfu14ft9-stroke" data-item-order="0" transform="translate(134, 302)"></g><g id="g-root-tx_dimensio_18i729nu14i6h-stroke" data-item-order="0" transform="translate(674, 302)"></g><g id="g-root-tx_1001day0_1ltnkmzu14gli-stroke" data-item-order="0" transform="translate(134, 338)"></g><g id="g-root-tx_10007day_143018bu14fsy-stroke" data-item-order="0" transform="translate(674, 338)"></g></g></g></svg>