<?xml version="1.0" encoding="utf-8" standalone="yes"?>
<!DOCTYPE svg PUBLIC "-//W3C//DTD SVG 1.1//EN" "http://www.w3.org/Graphics/SVG/1.1/DTD/svg11.dtd">
<svg width="1020" height="721" viewBox="0 0 1020 721" style="fill:none;stroke:none;fill-rule:evenodd;clip-rule:evenodd;stroke-linecap:round;stroke-linejoin:round;stroke-miterlimit:1.5;" version="1.1" xmlns="http://www.w3.org/2000/svg" xmlns:xlink="http://www.w3.org/1999/xlink"><style class="text-font-style fontImports" data-font-family="Roboto">@import url('https://fonts.googleapis.com/css2?family=Roboto:wght@400;700&amp;display=block');</style><g id="items" style="isolation: isolate"><g id="blend" style="mix-blend-mode: normal"><g id="g-root-cp_3_g-3_1qd7u5oqz7jey-fill" data-item-order="-606738" transform="translate(242, 386.1015625)"><g id="cp_3_g-3_1qd7u5oqz7jey-fill" stroke="none" fill="#6b6b6b"><g><path d="M 10 130.1237L 41.0002 82.1237L 10.0001 34.1238L 172.5235 34.1234C 186.5934 34.1234 200.0628 28.4219 209.8568 18.3204L 217.924 10L 221.0002 13.1235C 243.9911 36.8427 274.101 52.0414 306.4178 56.6401L 278.7798 85.1457C 250.9046 113.896 212.5686 130.1234 172.5235 130.1234L 10 130.1237Z"></path></g></g></g><g id="g-root-cp_2_g-2_1qd7u5oqz7jf0-fill" data-item-order="-606734" transform="translate(242, 266.2265625)"><g id="cp_2_g-2_1qd7u5oqz7jf0-fill" stroke="none" fill="#6b6b6b"><g><path d="M 368.8556 177.9919L 327.2705 177.9919C 287.2184 177.9919 248.8763 161.7588 221 132.9995L 209.978 121.8081C 200.1837 111.7035 186.7121 106 172.6397 106L 10 105.9999L 41.0002 57.9999L 10.0001 10L 172.6397 10C 212.6919 10 251.034 26.2331 278.9103 54.9924L 289.9323 66.1838C 299.7266 76.2884 313.1981 81.9919 327.2705 81.9919L 367.6819 81.9919L 414.3702 131.0401L 368.8556 177.9919Z"></path></g></g></g><g id="g-root-cp_4_g-4_1lxec18qz7k7a-fill" data-item-order="-606730" transform="translate(242, 387.265625)"><g id="cp_4_g-4_1lxec18qz7k7a-fill" stroke="none" fill="#6b6b6b"><g><path d="M 10 272.9595L 41.0002 224.9595L 10.0001 176.9596L 177.5887 176.9596C 225.486 176.9596 271.3386 157.5481 304.6766 123.1573L 414.3702 10L 424.5333 20.6768C 445.278 42.0766 473.208 54.8759 502.7768 56.7264L 373.6057 189.9764C 322.1859 243.0198 251.4642 272.9596 177.5887 272.9596L 10 272.9595Z"></path></g></g></g><g id="g-root-cp_1_g-1_1lxec18qz7k7c-fill" data-item-order="-606726" transform="translate(242, 122.2265625)"><g id="cp_1_g-1_1lxec18qz7k7c-fill" stroke="none" fill="#E5A000"><g><path d="M 41.0002 58.0001L 10 10.0001L 177.5887 10C 251.4642 10 322.1859 39.9398 373.6057 92.9832L 493.4622 218.898C 497.8628 223.4377 503.9154 226 510.2379 226L 716.9998 225.5L 748 274L 716.9999 321.4999L 510.2379 322C 477.9372 322 447.0156 308.9094 424.5333 285.7171L 304.6766 159.8023C 271.3386 125.4115 225.486 106 177.5887 106L 10.0001 106L 41.0002 58.0001Z"></path></g></g></g><g id="g-root-tx_building_1hi7azwqz7htu-fill" data-item-order="0" transform="translate(314, 38)"><g id="tx_building_1hi7azwqz7htu-fill" stroke="none" fill="#f4f4f4"><g><text style="font: bold 25px Roboto, sans-serif; white-space: pre;" font-weight="bold" font-size="25px" font-family="Roboto, sans-serif"><tspan x="12.39" y="43" dominant-baseline="ideographic">Building Secure Smart Contracts</tspan></text></g></g></g><g id="g-root-tx_1_1448zfwqz7itn-fill" data-item-order="0" transform="translate(26, 146)"><g id="tx_1_1448zfwqz7itn-fill" stroke="none" fill="#F8E6B8"><g><text style="font: bold 25px Roboto, sans-serif; white-space: pre;" font-weight="bold" font-size="25px" font-family="Roboto, sans-serif"><tspan x="32.83" y="49" dominant-baseline="ideographic">1</tspan></text></g></g></g><g id="g-root-tx_ensuresi_zofhbgqz7jlw-fill" data-item-order="0" transform="translate(86, 140.2265625)"><g id="tx_ensuresi_zofhbgqz7jlw-fill" stroke="none" fill="#F8E6B8"><g><text style="font: 15px Roboto, sans-serif; white-space: pre;" font-size="15px" font-family="Roboto, sans-serif"><tspan x="12" y="30.28" dominant-baseline="ideographic">Ensures input </tspan><tspan x="12" y="48.27" dominant-baseline="ideographic">dimensions are valid </tspan><tspan x="12" y="66.27" dominant-baseline="ideographic">and secure.</tspan></text></g></g></g><g id="g-root-tx_validdim_1qclg8cqz7imc-fill" data-item-order="0" transform="translate(290, 134.2265625)"><g id="tx_validdim_1qclg8cqz7imc-fill" stroke="none" fill="#F8E6B8"><g><text style="font: bold 20px Roboto, sans-serif; white-space: pre;" font-weight="bold" font-size="20px" font-family="Roboto, sans-serif"><tspan x="12" y="33.63" dominant-baseline="ideographic">Valid </tspan><tspan x="12" y="57.64" dominant-baseline="ideographic">Dimension </tspan><tspan x="12" y="81.64" dominant-baseline="ideographic">Modifier</tspan></text></g></g></g><g id="g-root-tx_2_qssh2kqz7kel-fill" data-item-order="0" transform="translate(26, 290)"><g id="tx_2_qssh2kqz7kel-fill" stroke="none" fill="#f4f4f4"><g><text style="font: bold 25px Roboto, sans-serif; white-space: pre;" font-weight="bold" font-size="25px" font-family="Roboto, sans-serif"><tspan x="32.83" y="49" dominant-baseline="ideographic">2</tspan></text></g></g></g><g id="g-root-tx_prevents_mdlg18qz7i12-fill" data-item-order="0" transform="translate(86, 284.2265625)"><g id="tx_prevents_mdlg18qz7i12-fill" stroke="none" fill="#f4f4f4"><g><text style="font: 15px Roboto, sans-serif; white-space: pre;" font-size="15px" font-family="Roboto, sans-serif"><tspan x="12" y="30.28" dominant-baseline="ideographic">Prevents multiple </tspan><tspan x="12" y="48.27" dominant-baseline="ideographic">orders from a single </tspan><tspan x="12" y="66.27" dominant-baseline="ideographic">user.</tspan></text></g></g></g><g id="g-root-tx_oneorder_1hgyfzgqz7jf1-fill" data-item-order="0" transform="translate(290, 290.2265625)"><g id="tx_oneorder_1hgyfzgqz7jf1-fill" stroke="none" fill="#f4f4f4"><g><text style="font: bold 20px Roboto, sans-serif; white-space: pre;" font-weight="bold" font-size="20px" font-family="Roboto, sans-serif"><tspan x="12" y="33.63" dominant-baseline="ideographic">One Order Per </tspan><tspan x="12" y="57.64" dominant-baseline="ideographic">User Modifier</tspan></text></g></g></g><g id="g-root-tx_securesm_1useycsqz7hu3-fill" data-item-order="0" transform="translate(758, 362.2265625)"><g id="tx_securesm_1useycsqz7hu3-fill" stroke="none" fill="#f4f4f4"><g><text style="font: bold 20px Roboto, sans-serif; white-space: pre;" font-weight="bold" font-size="20px" font-family="Roboto, sans-serif"><tspan x="17.43" y="33.63" dominant-baseline="ideographic">Secure Smart </tspan><tspan x="52.47" y="57.64" dominant-baseline="ideographic">Contracts</tspan></text></g></g></g><g id="g-root-ic_lock_18mkar0qz7imj-fill" data-item-order="0" transform="translate(902, 362.2265625)"></g><g id="g-root-tx_3_dhyfscqz7itr-fill" data-item-order="0" transform="translate(26, 434)"><g id="tx_3_dhyfscqz7itr-fill" stroke="none" fill="#f4f4f4"><g><text style="font: bold 25px Roboto, sans-serif; white-space: pre;" font-weight="bold" font-size="25px" font-family="Roboto, sans-serif"><tspan x="32.83" y="49" dominant-baseline="ideographic">3</tspan></text></g></g></g><g id="g-root-tx_guardsag_924xnwqz7jm0-fill" data-item-order="0" transform="translate(86, 428.2265625)"><g id="tx_guardsag_924xnwqz7jm0-fill" stroke="none" fill="#f4f4f4"><g><text style="font: 15px Roboto, sans-serif; white-space: pre;" font-size="15px" font-family="Roboto, sans-serif"><tspan x="12" y="30.28" dominant-baseline="ideographic">Guards against </tspan><tspan x="12" y="48.27" dominant-baseline="ideographic">reentrancy attacks </tspan><tspan x="12" y="66.27" dominant-baseline="ideographic">effectively.</tspan></text></g></g></g><g id="g-root-tx_nonreent_1hgyfzgqz7jf2-fill" data-item-order="0" transform="translate(290, 434.2265625)"><g id="tx_nonreent_1hgyfzgqz7jf2-fill" stroke="none" fill="#f4f4f4"><g><text style="font: bold 20px Roboto, sans-serif; white-space: pre;" font-weight="bold" font-size="20px" font-family="Roboto, sans-serif"><tspan x="12" y="33.63" dominant-baseline="ideographic">Non-Reentrant </tspan><tspan x="12" y="57.64" dominant-baseline="ideographic">Modifier</tspan></text></g></g></g><g id="g-root-tx_4_924xnwqz7jm1-fill" data-item-order="0" transform="translate(26, 578)"><g id="tx_4_924xnwqz7jm1-fill" stroke="none" fill="#f4f4f4"><g><text style="font: bold 25px Roboto, sans-serif; white-space: pre;" font-weight="bold" font-size="25px" font-family="Roboto, sans-serif"><tspan x="32.83" y="49" dominant-baseline="ideographic">4</tspan></text></g></g></g><g id="g-root-tx_controls_4mbfjgqz7kea-fill" data-item-order="0" transform="translate(86, 572.2265625)"><g id="tx_controls_4mbfjgqz7kea-fill" stroke="none" fill="#f4f4f4"><g><text style="font: 15px Roboto, sans-serif; white-space: pre;" font-size="15px" font-family="Roboto, sans-serif"><tspan x="12" y="30.28" dominant-baseline="ideographic">Controls system </tspan><tspan x="12" y="48.27" dominant-baseline="ideographic">access and security </tspan><tspan x="12" y="66.27" dominant-baseline="ideographic">status.</tspan></text></g></g></g><g id="g-root-tx_systemun_1d14xv0qz7k7b-fill" data-item-order="0" transform="translate(290, 566.2265625)"><g id="tx_systemun_1d14xv0qz7k7b-fill" stroke="none" fill="#f4f4f4"><g><text style="font: bold 20px Roboto, sans-serif; white-space: pre;" font-weight="bold" font-size="20px" font-family="Roboto, sans-serif"><tspan x="12" y="33.63" dominant-baseline="ideographic">System </tspan><tspan x="12" y="57.64" dominant-baseline="ideographic">Unlocked </tspan><tspan x="12" y="81.64" dominant-baseline="ideographic">Modifier</tspan></text></g></g></g><g id="g-root-cp_3_g-3_1qd7u5oqz7jey-stroke" data-item-order="-606738" transform="translate(242, 386.1015625)"><g id="cp_3_g-3_1qd7u5oqz7jey-stroke" fill="none" stroke-linecap="round" stroke-linejoin="round" stroke-miterlimit="4" stroke="#d3d3d3" stroke-width="2"><g><path d="M 10 130.1237L 41.0002 82.1237L 10.0001 34.1238L 172.5235 34.1234C 186.5934 34.1234 200.0628 28.4219 209.8568 18.3204L 217.924 10L 221.0002 13.1235C 243.9911 36.8427 274.101 52.0414 306.4178 56.6401L 278.7798 85.1457C 250.9046 113.896 212.5686 130.1234 172.5235 130.1234L 10 130.1237Z"></path></g></g></g><g id="g-root-cp_2_g-2_1qd7u5oqz7jf0-stroke" data-item-order="-606734" transform="translate(242, 266.2265625)"><g id="cp_2_g-2_1qd7u5oqz7jf0-stroke" fill="none" stroke-linecap="round" stroke-linejoin="round" stroke-miterlimit="4" stroke="#d3d3d3" stroke-width="2"><g><path d="M 368.8556 177.9919L 327.2705 177.9919C 287.2184 177.9919 248.8763 161.7588 221 132.9995L 209.978 121.8081C 200.1837 111.7035 186.7121 106 172.6397 106L 10 105.9999L 41.0002 57.9999L 10.0001 10L 172.6397 10C 212.6919 10 251.034 26.2331 278.9103 54.9924L 289.9323 66.1838C 299.7266 76.2884 313.1981 81.9919 327.2705 81.9919L 367.6819 81.9919L 414.3702 131.0401L 368.8556 177.9919Z"></path></g></g></g><g id="g-root-cp_4_g-4_1lxec18qz7k7a-stroke" data-item-order="-606730" transform="translate(242, 387.265625)"><g id="cp_4_g-4_1lxec18qz7k7a-stroke" fill="none" stroke-linecap="round" stroke-linejoin="round" stroke-miterlimit="4" stroke="#d3d3d3" stroke-width="2"><g><path d="M 10 272.9595L 41.0002 224.9595L 10.0001 176.9596L 177.5887 176.9596C 225.486 176.9596 271.3386 157.5481 304.6766 123.1573L 414.3702 10L 424.5333 20.6768C 445.278 42.0766 473.208 54.8759 502.7768 56.7264L 373.6057 189.9764C 322.1859 243.0198 251.4642 272.9596 177.5887 272.9596L 10 272.9595Z"></path></g></g></g><g id="g-root-cp_1_g-1_1lxec18qz7k7c-stroke" data-item-order="-606726" transform="translate(242, 122.2265625)"><g id="cp_1_g-1_1lxec18qz7k7c-stroke" fill="none" stroke-linecap="round" stroke-linejoin="round" stroke-miterlimit="4" stroke="#F8E6B8" stroke-width="2"><g><path d="M 41.0002 58.0001L 10 10.0001L 177.5887 10C 251.4642 10 322.1859 39.9398 373.6057 92.9832L 493.4622 218.898C 497.8628 223.4377 503.9154 226 510.2379 226L 716.9998 225.5L 748 274L 716.9999 321.4999L 510.2379 322C 477.9372 322 447.0156 308.9094 424.5333 285.7171L 304.6766 159.8023C 271.3386 125.4115 225.486 106 177.5887 106L 10.0001 106L 41.0002 58.0001Z"></path></g></g></g><g id="g-root-tx_building_1hi7azwqz7htu-stroke" data-item-order="0" transform="translate(314, 38)"></g><g id="g-root-tx_1_1448zfwqz7itn-stroke" data-item-order="0" transform="translate(26, 146)"></g><g id="g-root-tx_ensuresi_zofhbgqz7jlw-stroke" data-item-order="0" transform="translate(86, 140.2265625)"></g><g id="g-root-tx_validdim_1qclg8cqz7imc-stroke" data-item-order="0" transform="translate(290, 134.2265625)"></g><g id="g-root-tx_2_qssh2kqz7kel-stroke" data-item-order="0" transform="translate(26, 290)"></g><g id="g-root-tx_prevents_mdlg18qz7i12-stroke" data-item-order="0" transform="translate(86, 284.2265625)"></g><g id="g-root-tx_oneorder_1hgyfzgqz7jf1-stroke" data-item-order="0" transform="translate(290, 290.2265625)"></g><g id="g-root-tx_securesm_1useycsqz7hu3-stroke" data-item-order="0" transform="translate(758, 362.2265625)"></g><g id="g-root-ic_lock_18mkar0qz7imj-stroke" data-item-order="0" transform="translate(902, 362.2265625)"><g id="ic_lock_18mkar0qz7imj-stroke" fill="none" stroke-linecap="round" stroke-linejoin="round" stroke-miterlimit="4" stroke="#f4f4f4" stroke-width="2"><g><path d="M 39 41.001999L 57 41.001999L 57 57L 39 57ZM 45.5 49.125999C 45.5 50.506714 46.619289 51.625999 48 51.625999C 49.380711 51.625999 50.5 50.506714 50.5 49.125999C 50.5 47.745289 49.380711 46.625999 48 46.625999C 46.619289 46.625999 45.5 47.745289 45.5 49.125999ZM 53 38C 53 35.238579 50.761425 33 48 33C 45.238575 33 43 35.238579 43 38L 43 41L 53 41ZM 25 57L 11 57L 11 29C 11 27.89543 11.895431 27 13 27L 23 27C 24.104568 27 25 27.89543 25 29ZM 23 27L 23 19.65C 23.000999 19.253292 23.236408 18.894684 23.6 18.736L 39.599998 11.624C 39.908749 11.48925 40.264595 11.519007 40.546673 11.703165C 40.828751 11.887322 40.999153 12.201128 41 12.538L 41 32M 21 57L 21 52C 21 51.447716 20.552284 51 20 51L 16 51C 15.447716 51 15 51.447716 15 52L 15 57M 11 33L 19 33M 35 21L 41 21M 31 25L 41 25M 11 37L 15 37M 27 17.222L 27 11M 25 57L 35 57"></path></g></g></g><g id="g-root-tx_3_dhyfscqz7itr-stroke" data-item-order="0" transform="translate(26, 434)"></g><g id="g-root-tx_guardsag_924xnwqz7jm0-stroke" data-item-order="0" transform="translate(86, 428.2265625)"></g><g id="g-root-tx_nonreent_1hgyfzgqz7jf2-stroke" data-item-order="0" transform="translate(290, 434.2265625)"></g><g id="g-root-tx_4_924xnwqz7jm1-stroke" data-item-order="0" transform="translate(26, 578)"></g><g id="g-root-tx_controls_4mbfjgqz7kea-stroke" data-item-order="0" transform="translate(86, 572.2265625)"></g><g id="g-root-tx_systemun_1d14xv0qz7k7b-stroke" data-item-order="0" transform="translate(290, 566.2265625)"></g></g></g></svg>