<?xml version="1.0" encoding="utf-8" standalone="yes"?>
<!DOCTYPE svg PUBLIC "-//W3C//DTD SVG 1.1//EN" "http://www.w3.org/Graphics/SVG/1.1/DTD/svg11.dtd">
<svg width="698" height="480" viewBox="0 0 698 480" style="fill:none;stroke:none;fill-rule:evenodd;clip-rule:evenodd;stroke-linecap:round;stroke-linejoin:round;stroke-miterlimit:1.5;" version="1.1" xmlns="http://www.w3.org/2000/svg" xmlns:xlink="http://www.w3.org/1999/xlink"><style class="text-font-style fontImports" data-font-family="Roboto">@import url('https://fonts.googleapis.com/css2?family=Roboto:wght@400;700&amp;display=block');</style><g id="items" style="isolation: isolate"><g id="blend" style="mix-blend-mode: normal"><g id="g-root-cp_3_g-3_4jstwsrt6c5d-fill" data-item-order="-249538" transform="translate(471, 292)"><g id="cp_3_g-3_4jstwsrt6c5d-fill" stroke="none" fill="#6b6b6b"><g><path d="M 52.057191 91.618585C 60.665191 98.747385 68.411691 111.655185 73.987091 130.999985L 84.191691 101.569985C 85.746091 96.873185 85.881291 90.357985 84.749291 83.162285C 78.996491 86.252585 71.233191 87.780985 63.241691 89.577085C 59.060191 90.525385 55.360191 91.183585 52.048691 91.618585L 52.057191 91.618585Z"></path></g></g><g id="cp_3_g-3_4jstwsrt6c5d-fill" stroke="none" fill="#6b6b6b"><g><path d="M 63.3684 40.010129C 58.6631 35.603429 53.3074 32.345829 47.3941 30.929029C 3.7876 20.442129 10.3514 34.800129 10.3514 34.800129C 12.5816 41.326529 34.9423 45.655129 63.3684 40.010129Z"></path></g></g><g id="cp_3_g-3_4jstwsrt6c5d-fill" stroke="none" fill="#6b6b6b"><g><path d="M 92.470288 75.6541C 88.094488 84.5567 75.955288 86.7099 63.250188 89.5771C 45.586288 93.5598 36.429088 92.6115 29.324688 90.3914C 23.259288 77.3276 10.351388 34.8002 10.351388 34.8002C 12.598488 41.3823 35.280188 45.7332 64.027288 39.8874C 92.774388 34.0415 112.972388 15.9351 115.000388 10C 115.000388 10 96.846188 66.7515 92.470288 75.6541Z"></path></g></g></g><g id="g-root-cp_2_g-2_1up9vn0rt6cr1-fill" data-item-order="-249530" transform="translate(441.00006103515625, 199)"><g id="cp_2_g-2_1up9vn0rt6cr1-fill" stroke="none" fill="#6b6b6b"><g><path d="M 118.235859 124.999973C 133.542559 117.413173 143.434959 107.696773 144.818059 103.659373C 144.818059 103.659373 144.683059 104.080873 144.438559 104.846273L 145.163759 103.193573C 147.280559 96.150273 147.820359 89.606073 147.052859 83.549973C 137.000259 90.970373 118.514159 97.592173 96.747459 101.418873C 105.906159 107.774473 113.504659 115.971273 118.244259 124.999973L 118.235859 124.999973Z"></path></g></g><g id="cp_2_g-2_1up9vn0rt6cr1-fill" stroke="none" fill="#6b6b6b"><g><path d="M 95.204139 50.562929C 102.979739 49.265129 110.383939 47.512629 117.333939 45.449629C 103.468939 37.518929 86.171939 32.139429 68.461739 29.277729C 57.709139 27.536329 48.339539 26.493729 40.243439 26.371729C 4.949539 25.828229 10.287939 40.081129 10.287939 40.081129C 13.551639 49.609029 49.537039 58.160729 95.195739 50.574029L 95.204139 50.562929Z"></path></g></g><g id="cp_2_g-2_1up9vn0rt6cr1-fill" stroke="none" fill="#6b6b6b"><g><path d="M 177.000272 10C 177.000272 10 159.230272 65.0264 154.213272 75.6967C 149.186272 86.367 124.738272 96.8266 94.411372 101.829C 59.808972 107.5302 37.198972 101.7292 29.811272 97.1039C 23.309072 83.2281 10.296272 40.0698 10.296272 40.0698C 13.559972 49.5977 49.545472 58.1495 95.204072 50.5627C 140.862272 42.9759 173.753272 19.4724 177.000272 10Z"></path></g></g></g><g id="g-root-cp_1_g-1_1qa2ulort6adl-fill" data-item-order="-249522" transform="translate(410.00006103515625, 105)"><g id="cp_1_g-1_1qa2ulort6adl-fill" stroke="none" fill="#E5A000"><g><path d="M 127.15598 61.702767C 144.22998 59.137067 160.03698 55.110267 174.10398 50.335967L 174.13198 50.326767C 151.39998 38.816267 120.52598 31.341767 89.78258 28.429067C 75.85908 27.113667 63.19508 26.508767 51.90748 26.980067C 4.09458 28.984867 10.25908 45.684367 10.25908 45.684367C 14.55698 58.278167 64.46028 71.117467 127.15598 61.691567L 127.15598 61.702767Z"></path></g></g><g id="cp_1_g-1_1qa2ulort6adl-fill" stroke="none" fill="#E5A000"><g><path d="M 176.375301 128.988872C 194.403001 119.964572 205.912001 109.947472 207.769701 104.515072C 207.769701 104.515072 207.752801 104.581972 207.710501 104.693572L 208.251001 103.399572C 210.091701 97.197472 210.226801 91.330072 208.918001 85.808372C 197.789001 94.375272 177.354801 103.745372 151.871201 110.114872C 161.877201 115.669972 170.346401 122.095172 176.375301 128.999972L 176.375301 128.988872Z"></path></g></g><g id="cp_1_g-1_1qa2ulort6adl-fill" stroke="none" fill="#E5A000"><g><path d="M 240.000399 10C 240.000399 10 223.086399 63.9338 217.395399 76.4941C 211.713399 89.0545 174.391399 108.174 126.328399 115.135C 74.719399 122.898 38.571199 111.911 30.878799 104.8163C 23.920999 89.9692 10.250399 45.6956 10.250399 45.6956C 14.548299 58.2894 64.451699 71.1286 127.147399 61.7028C 189.843399 52.2769 235.524399 23.1293 239.991399 10.0111L 240.000399 10Z"></path></g></g></g><g id="g-root-tx_userpart_1qa2ulort6adp-fill" data-item-order="0" transform="translate(183, 38)"><g id="tx_userpart_1qa2ulort6adp-fill" stroke="none" fill="#f4f4f4"><g><text style="font: bold 25px Roboto, sans-serif; white-space: pre;" font-weight="bold" font-size="25px" font-family="Roboto, sans-serif"><tspan x="15.94" y="43" dominant-baseline="ideographic">User Participation Process</tspan></text></g></g></g><g id="g-root-ic_add_18isu3wrt6cqw-fill" data-item-order="0" transform="translate(50.22601318359375, 128)"></g><g id="g-root-tx_connectw_1cymc8crt6bym-fill" data-item-order="0" transform="translate(98, 134)"><g id="tx_connectw_1cymc8crt6bym-fill" stroke="none" fill="#F8E6B8"><g><text style="font: bold 20px Roboto, sans-serif; white-space: pre;" font-weight="bold" font-size="20px" font-family="Roboto, sans-serif"><tspan x="12" y="33.64" dominant-baseline="ideographic">Connect Wallet</tspan></text></g></g></g><g id="g-root-tx_userconn_1cymc8crt6byn-fill" data-item-order="0" transform="translate(98, 170)"><g id="tx_userconn_1cymc8crt6byn-fill" stroke="none" fill="#F8E6B8"><g><text style="font: 15px Roboto, sans-serif; white-space: pre;" font-size="15px" font-family="Roboto, sans-serif"><tspan x="12" y="30.27" dominant-baseline="ideographic">User connects their digital wallet</tspan></text></g></g></g><g id="g-root-ic_dist_de6z58rss9vu-fill" data-item-order="0" transform="translate(50.22601318359375, 224)"></g><g id="g-root-tx_selectdi_1hby164rss8ap-fill" data-item-order="0" transform="translate(98, 230)"><g id="tx_selectdi_1hby164rss8ap-fill" stroke="none" fill="#f4f4f4"><g><text style="font: bold 20px Roboto, sans-serif; white-space: pre;" font-weight="bold" font-size="20px" font-family="Roboto, sans-serif"><tspan x="12" y="33.64" dominant-baseline="ideographic">Select Dimension</tspan></text></g></g></g><g id="g-root-tx_userchoo_v4uijwrssaod-fill" data-item-order="0" transform="translate(98, 266)"><g id="tx_userchoo_v4uijwrssaod-fill" stroke="none" fill="#f4f4f4"><g><text style="font: 15px Roboto, sans-serif; white-space: pre;" font-size="15px" font-family="Roboto, sans-serif"><tspan x="12" y="30.27" dominant-baseline="ideographic">User chooses a dimension</tspan></text></g></g></g><g id="g-root-ic_1_924bjgrt6br8-fill" data-item-order="0" transform="translate(50.22601318359375, 320)"></g><g id="g-root-tx_confirmt_18f22r0rt4xdy-fill" data-item-order="0" transform="translate(98, 326)"><g id="tx_confirmt_18f22r0rt4xdy-fill" stroke="none" fill="#f4f4f4"><g><text style="font: bold 20px Roboto, sans-serif; white-space: pre;" font-weight="bold" font-size="20px" font-family="Roboto, sans-serif"><tspan x="12" y="33.64" dominant-baseline="ideographic">Confirm Transfer</tspan></text></g></g></g><g id="g-root-tx_userconf_hsrj3grt4xe3-fill" data-item-order="0" transform="translate(98, 362)"><g id="tx_userconf_hsrj3grt4xe3-fill" stroke="none" fill="#f4f4f4"><g><text style="font: 15px Roboto, sans-serif; white-space: pre;" font-size="15px" font-family="Roboto, sans-serif"><tspan x="12" y="30.27" dominant-baseline="ideographic">User confirms the transaction</tspan></text></g></g></g><g id="g-root-cp_3_g-3_4jstwsrt6c5d-stroke" data-item-order="-249538" transform="translate(471, 292)"><g id="cp_3_g-3_4jstwsrt6c5d-stroke" fill="none" stroke-linecap="round" stroke-linejoin="round" stroke-miterlimit="4" stroke="#d3d3d3" stroke-width="2"><g><path d="M 52.057191 91.618585C 60.665191 98.747385 68.411691 111.655185 73.987091 130.999985L 84.191691 101.569985C 85.746091 96.873185 85.881291 90.357985 84.749291 83.162285C 78.996491 86.252585 71.233191 87.780985 63.241691 89.577085C 59.060191 90.525385 55.360191 91.183485 52.048691 91.618585L 52.057191 91.618585Z"></path></g></g><g id="cp_3_g-3_4jstwsrt6c5d-stroke" fill="none" stroke-linecap="round" stroke-linejoin="round" stroke-miterlimit="4" stroke="#d3d3d3" stroke-width="2"><g><path d="M 63.3684 40.010129C 58.6631 35.603429 53.3074 32.345829 47.3941 30.929029C 3.7877 20.442129 10.3514 34.800129 10.3514 34.800129C 12.5816 41.326529 34.9423 45.655129 63.3684 40.010129Z"></path></g></g><g id="cp_3_g-3_4jstwsrt6c5d-stroke" fill="none" stroke-linecap="round" stroke-linejoin="round" stroke-miterlimit="4" stroke="#d3d3d3" stroke-width="2"><g><path d="M 92.470288 75.6541C 88.094488 84.5567 75.955288 86.7099 63.250188 89.5771C 45.586288 93.5598 36.429088 92.6115 29.324688 90.3914C 23.259288 77.3276 10.351388 34.8002 10.351388 34.8002C 12.598488 41.3823 35.280188 45.7332 64.027288 39.8874C 92.774388 34.0415 112.972588 15.9351 114.999988 10C 114.999988 10 96.846188 66.7515 92.470288 75.6541Z"></path></g></g></g><g id="g-root-cp_2_g-2_1up9vn0rt6cr1-stroke" data-item-order="-249530" transform="translate(441.00006103515625, 199)"><g id="cp_2_g-2_1up9vn0rt6cr1-stroke" fill="none" stroke-linecap="round" stroke-linejoin="round" stroke-miterlimit="4" stroke="#d3d3d3" stroke-width="2"><g><path d="M 118.235859 124.999973C 133.542559 117.413173 143.434959 107.696773 144.818059 103.659373C 144.818059 103.659373 144.683059 104.080873 144.438559 104.846273L 145.163759 103.193573C 147.280559 96.150273 147.820359 89.606073 147.052859 83.549973C 137.000259 90.970373 118.514159 97.592173 96.747459 101.418873C 105.906159 107.774473 113.504759 115.971273 118.244259 124.999973L 118.235859 124.999973Z"></path></g></g><g id="cp_2_g-2_1up9vn0rt6cr1-stroke" fill="none" stroke-linecap="round" stroke-linejoin="round" stroke-miterlimit="4" stroke="#d3d3d3" stroke-width="2"><g><path d="M 95.204139 50.562929C 102.979739 49.265129 110.384339 47.512629 117.333439 45.449629C 103.468939 37.518929 86.171939 32.139429 68.461739 29.277729C 57.709139 27.536329 48.339539 26.493729 40.243439 26.371729C 4.949539 25.828229 10.287939 40.081129 10.287939 40.081129C 13.551639 49.608929 49.537039 58.160729 95.195739 50.574029L 95.204139 50.562929Z"></path></g></g><g id="cp_2_g-2_1up9vn0rt6cr1-stroke" fill="none" stroke-linecap="round" stroke-linejoin="round" stroke-miterlimit="4" stroke="#d3d3d3" stroke-width="2"><g><path d="M 176.999972 10C 176.999972 10 159.230672 65.0264 154.212772 75.6967C 149.186472 86.367 124.737972 96.8266 94.411372 101.829C 59.808972 107.5302 37.198972 101.7292 29.811272 97.1039C 23.309072 83.2281 10.296272 40.0698 10.296272 40.0698C 13.559972 49.5977 49.545472 58.1495 95.204072 50.5627C 140.862672 42.9759 173.753072 19.4724 176.999972 10Z"></path></g></g></g><g id="g-root-cp_1_g-1_1qa2ulort6adl-stroke" data-item-order="-249522" transform="translate(410.00006103515625, 105)"><g id="cp_1_g-1_1qa2ulort6adl-stroke" fill="none" stroke-linecap="round" stroke-linejoin="round" stroke-miterlimit="4" stroke="#F8E6B8" stroke-width="2"><g><path d="M 127.15608 61.702767C 144.22968 59.137067 160.03658 55.110267 174.10408 50.335967L 174.13168 50.326767C 151.39968 38.816267 120.52608 31.341767 89.78258 28.429067C 75.85908 27.113667 63.19508 26.508767 51.90748 26.980067C 4.09458 28.984867 10.25908 45.684367 10.25908 45.684367C 14.55698 58.278167 64.46028 71.117467 127.15608 61.691567L 127.15608 61.702767Z"></path></g></g><g id="cp_1_g-1_1qa2ulort6adl-stroke" fill="none" stroke-linecap="round" stroke-linejoin="round" stroke-miterlimit="4" stroke="#F8E6B8" stroke-width="2"><g><path d="M 176.375301 128.988872C 194.403001 119.964572 205.912001 109.947472 207.769701 104.515072C 207.769701 104.515072 207.752801 104.581972 207.710501 104.693572L 208.251001 103.399572C 210.091701 97.197472 210.226801 91.330072 208.918001 85.808372C 197.789001 94.375272 177.354801 103.745372 151.871201 110.114872C 161.877201 115.669972 170.346401 122.095172 176.375301 128.999972L 176.375301 128.988872Z"></path></g></g><g id="cp_1_g-1_1qa2ulort6adl-stroke" fill="none" stroke-linecap="round" stroke-linejoin="round" stroke-miterlimit="4" stroke="#F8E6B8" stroke-width="2"><g><path d="M 239.999899 10C 239.999899 10 223.086799 63.9337 217.395599 76.4941C 211.712899 89.0545 174.390999 108.174 126.328399 115.1346C 74.719399 122.8984 38.571199 111.9108 30.878799 104.8163C 23.920999 89.9692 10.250399 45.6956 10.250399 45.6956C 14.548299 58.2894 64.451699 71.1286 127.147499 61.7028C 189.843299 52.2769 235.524699 23.1293 239.991499 10.0111L 239.999899 10Z"></path></g></g></g><g id="g-root-tx_userpart_1qa2ulort6adp-stroke" data-item-order="0" transform="translate(183, 38)"></g><g id="g-root-ic_add_18isu3wrt6cqw-stroke" data-item-order="0" transform="translate(50.22601318359375, 128)"><g id="ic_add_18isu3wrt6cqw-stroke" fill="none" stroke-linecap="round" stroke-linejoin="round" stroke-miterlimit="4" stroke="#F8E6B8" stroke-width="2"><g><path d="M 37.75 15.349L 37.75 21.182499M 40.666 18.264999L 34.834 18.264999M 30.25 18.264999C 30.25 22.407137 33.607864 25.764999 37.75 25.764999C 41.892136 25.764999 45.25 22.407137 45.25 18.264999C 45.25 14.122865 41.892136 10.765 37.75 10.765C 33.607864 10.765 30.25 14.122865 30.25 18.264999M 13.492001 39.206501L 23.173 44.854C 24.027534 45.352386 25.083317 45.355888 25.941137 44.863182C 26.798962 44.370476 27.327915 43.456749 27.327999 42.467499L 27.327999 29.7295C 27.328058 27.763636 26.283997 25.945667 24.586 24.954998L 14.905 19.307499C 14.049538 18.808571 12.992476 18.805637 12.134256 19.29981C 11.276039 19.793983 10.747932 20.709677 10.75 21.700001L 10.75 34.439499C 10.752299 36.402767 11.796088 38.217407 13.492001 39.206501ZM 34.75 29.514999L 34.75 34.014999C 34.75 35.671852 33.406853 37.014999 31.75 37.014999L 28 37.014999M 13.3345 18.927999L 27.071499 18.927999M 21.2005 34.3255C 21.2005 34.739716 21.536285 35.0755 21.9505 35.0755C 22.364714 35.0755 22.7005 34.739716 22.7005 34.3255C 22.7005 33.911285 22.364714 33.5755 21.9505 33.5755C 21.536285 33.5755 21.2005 33.911285 21.2005 34.3255"></path></g></g></g><g id="g-root-tx_connectw_1cymc8crt6bym-stroke" data-item-order="0" transform="translate(98, 134)"></g><g id="g-root-tx_userconn_1cymc8crt6byn-stroke" data-item-order="0" transform="translate(98, 170)"></g><g id="g-root-ic_dist_de6z58rss9vu-stroke" data-item-order="0" transform="translate(50.22601318359375, 224)"><g id="ic_dist_de6z58rss9vu-stroke" fill="none" stroke-linecap="round" stroke-linejoin="round" stroke-miterlimit="4" stroke="#f4f4f4" stroke-width="2"><g><path d="M 34 29.401899C 34.828449 29.401899 35.5 30.07345 35.5 30.901899L 35.5 42.904598C 35.5 43.733051 34.828449 44.404598 34 44.404598L 21.997255 44.404598C 21.168819 44.404598 20.497255 43.733051 20.497255 42.904598L 20.497255 30.901899C 20.497255 30.07345 21.168835 29.401899 21.997255 29.401899L 34 29.401899ZM 10 10M 11.423828 11.5954L 44.576202 11.5954M 10 10M 28 16.761354L 28 29.401899M 10 10M 23.435545 21.325991L 28.00045 16.761354L 32.565102 21.325991"></path></g></g></g><g id="g-root-tx_selectdi_1hby164rss8ap-stroke" data-item-order="0" transform="translate(98, 230)"></g><g id="g-root-tx_userchoo_v4uijwrssaod-stroke" data-item-order="0" transform="translate(98, 266)"></g><g id="g-root-ic_1_924bjgrt6br8-stroke" data-item-order="0" transform="translate(50.22601318359375, 320)"><g id="ic_1_924bjgrt6br8-stroke" fill="none" stroke-linecap="round" stroke-linejoin="round" stroke-miterlimit="4" stroke="#f4f4f4" stroke-width="2"><g><path d="M 10 10M 26.651951 12.23173L 17.24365 12.23173C 16.41523 12.23173 15.743649 12.903295 15.743649 13.73173L 15.743649 23.65234M 10 10M 29.348049 43.768299L 38.756351 43.768299C 39.584801 43.768299 40.256351 43.096752 40.256351 42.268299L 40.256351 32.347599M 10 10M 11.844235 19.75L 15.745435 23.651199L 19.646635 19.75M 10 10M 44.15575 36.25L 40.254551 32.348801L 36.353348 36.25M 18.257111 37.819153C 20.370729 37.819153 22.084166 36.105698 22.084166 33.99205C 22.084166 31.878399 20.370729 30.1651 18.257111 30.1651C 16.14349 30.1651 14.430056 31.878399 14.430056 33.99205C 14.430056 36.105698 16.14349 37.819153 18.257111 37.819153ZM 24.672356 43.766949C 23.834425 41.0215 21.239319 38.9632 18.258295 38.9632C 15.277269 38.9632 12.682165 41.0215 11.844235 43.766949M 37.739502 19.88653C 39.853149 19.88653 41.566597 18.173111 41.566597 16.059475C 41.566597 13.945855 39.853149 12.23242 37.739502 12.23242C 35.625851 12.23242 33.912552 13.945855 33.912552 16.059475C 33.912552 18.173111 35.625851 19.88653 37.739502 19.88653ZM 44.154701 25.834301C 43.316803 23.088955 40.721798 21.03064 37.7407 21.03064C 34.75975 21.03064 32.1646 23.088955 31.3267 25.834301"></path></g></g></g><g id="g-root-tx_confirmt_18f22r0rt4xdy-stroke" data-item-order="0" transform="translate(98, 326)"></g><g id="g-root-tx_userconf_hsrj3grt4xe3-stroke" data-item-order="0" transform="translate(98, 362)"></g></g></g></svg>