<?xml version="1.0" encoding="utf-8" standalone="yes"?>
<!DOCTYPE svg PUBLIC "-//W3C//DTD SVG 1.1//EN" "http://www.w3.org/Graphics/SVG/1.1/DTD/svg11.dtd">
<svg width="771" height="576" viewBox="0 0 771 576" style="fill:none;stroke:none;fill-rule:evenodd;clip-rule:evenodd;stroke-linecap:round;stroke-linejoin:round;stroke-miterlimit:1.5;" version="1.1" xmlns="http://www.w3.org/2000/svg" xmlns:xlink="http://www.w3.org/1999/xlink"><style class="text-font-style fontImports" data-font-family="Roboto">@import url('https://fonts.googleapis.com/css2?family=Roboto:wght@400;700&amp;display=block');</style><g id="items" style="isolation: isolate"><g id="blend" style="mix-blend-mode: normal"><g id="g-root-sy_1_Polygon_8xs1tosxabk8-fill" data-item-order="-199164" transform="translate(218.16015625, 170.00390625)"></g><g id="g-root-sy_1_cu_4hyjp8sxacch-fill" data-item-order="-199163" transform="translate(301.150390625, 134)"><g id="sy_1_cu_4hyjp8sxacch-fill" stroke="none" fill="#E5A000"><g><path d="M 13.1989 190.029C 8.9337 197.44 8.9337 206.56 13.1989 213.971L 109.8864 381.971C 114.169 389.413 122.101 394 130.688 394L 323.931 394C 332.517 394 340.449 389.413 344.732 381.971L 441.419 213.971C 445.685 206.56 445.685 197.44 441.419 190.029L 344.732 22.0286C 340.449 14.5868 332.517 10 323.931 10L 130.687 10.000009C 122.101 10.000009 114.169 14.5869 109.8864 22.0286L 13.1989 190.029ZM 69.1444 226.069C 64.9104 233.46 64.9104 242.54 69.1444 249.931L 137.894 369.931C 142.171 377.395 150.116 382 158.719 382L 295.899 382C 304.502 382 312.447 377.395 316.724 369.931L 385.474 249.931C 389.708 242.54 389.708 233.46 385.474 226.069L 316.724 106.0693C 312.447 98.6047 304.502 94 295.899 94L 158.719 94C 150.116 94 142.171 98.6047 137.894 106.0693L 69.1444 226.069Z"></path></g></g></g><g id="g-root-sy_1_line_1uo22iksxa9sa-fill" data-item-order="-199158" transform="translate(260.16015625, 206)"></g><g id="g-root-sy_2_Polygon_1hclk58sxabd7-fill" data-item-order="-199154" transform="translate(218.16058349609375, 290.00390625)"></g><g id="g-root-sy_2_cu_1hclk58sxabd8-fill" data-item-order="-199153" transform="translate(357.1193542480469, 218)"><g id="sy_2_cu_1hclk58sxabd8-fill" stroke="none" fill="#6b6b6b"><g><path d="M 13.1755 142.069C 8.9415 149.46 8.9415 158.54 13.1755 165.931L 81.9255 285.931C 86.2022 293.395 94.1471 298 102.75 298L 239.93 298C 248.533 298 256.478 293.395 260.755 285.931L 329.505 165.931C 333.739 158.54 333.739 149.46 329.505 142.069L 260.755 22.0693C 256.478 14.6047 248.533 10 239.93 10L 102.75 10.000007C 94.147 10.000007 86.2021 14.6047 81.9255 22.0693L 13.1755 142.069ZM 68.1755 178.069C 63.9415 185.46 63.9415 194.54 68.1755 201.931L 109.4255 273.931C 113.702 281.395 121.647 286 130.25 286L 212.43 286C 221.033 286 228.978 281.395 233.255 273.931L 274.505 201.931C 278.739 194.54 278.739 185.46 274.505 178.069L 233.255 106.0693C 228.978 98.6047 221.033 94 212.43 94L 130.25 94C 121.647 94 113.702 98.6047 109.4255 106.0693L 68.1755 178.069Z"></path></g></g></g><g id="g-root-sy_2_line_1cws20ssxac5h-fill" data-item-order="-199148" transform="translate(260.1603698730469, 326)"></g><g id="g-root-sy_3_Polygon_141riv0sxa9se-fill" data-item-order="-199144" transform="translate(218.1605224609375, 410.00390625)"></g><g id="g-root-sy_3_cu_zly0qksxaakn-fill" data-item-order="-199143" transform="translate(412.1191101074219, 302.00390625)"><g id="sy_3_cu_zly0qksxaakn-fill" stroke="none" fill="#6b6b6b"><g><path d="M 13.1755 117.931C 8.9415 110.54 8.9415 101.4596 13.1755 94.0693L 54.4255 22.0693C 58.7022 14.6047 66.6471 10.000004 75.25 10.000004L 157.43 10C 166.033 10 173.978 14.6047 178.255 22.0693L 219.505 94.0693C 223.739 101.4596 223.739 110.54 219.505 117.931L 178.255 189.931C 173.978 197.395 166.033 202 157.43 202L 75.25 202C 66.6471 202 58.7022 197.395 54.4255 189.931L 13.1755 117.931Z"></path></g></g></g><g id="g-root-sy_3_line_v64im4sxabcw-fill" data-item-order="-199138" transform="translate(260.16033935546875, 446)"></g><g id="g-root-tx_10_8x5r24sx6499-fill" data-item-order="0" transform="translate(494.1601257324219, 248.0078125)"><g id="tx_10_8x5r24sx6499-fill" stroke="none" fill="#f4f4f4"><g><text style="font: 20px Roboto, sans-serif; white-space: pre;" font-size="20px" font-family="Roboto, sans-serif"><tspan x="15.43" y="33.64" dominant-baseline="ideographic">10%</tspan></text></g></g></g><g id="g-root-ic_five_v4vnlosws075-fill" data-item-order="0" transform="translate(194.162109375, 301.984375)"></g><g id="g-root-tx_initialf_mahid8sxac5l-fill" data-item-order="0" transform="translate(26, 230.375)"><g id="tx_initialf_mahid8sxac5l-fill" stroke="none" fill="#F8E6B8"><g><text style="font: 15px Roboto, sans-serif; white-space: pre;" font-size="15px" font-family="Roboto, sans-serif"><tspan x="14.38" y="27.28" dominant-baseline="ideographic">Initial fund distribution </tspan><tspan x="112.66" y="45.27" dominant-baseline="ideographic">amount</tspan></text></g></g></g><g id="g-root-tx_bridgere_8znh30sxaaks-fill" data-item-order="0" transform="translate(26.162109375, 314.00390625)"><g id="tx_bridgere_8znh30sxaaks-fill" stroke="none" fill="#f4f4f4"><g><text style="font: bold 20px Roboto, sans-serif; white-space: pre;" font-weight="bold" font-size="20px" font-family="Roboto, sans-serif"><tspan x="22.48" y="33.64" dominant-baseline="ideographic">Bridge Rewards</tspan></text></g></g></g><g id="g-root-tx_restartf_hvahbwsxa9s2-fill" data-item-order="0" transform="translate(50.16015625, 194.00390625)"><g id="tx_restartf_hvahbwsxa9s2-fill" stroke="none" fill="#F8E6B8"><g><text style="font: bold 20px Roboto, sans-serif; white-space: pre;" font-weight="bold" font-size="20px" font-family="Roboto, sans-serif"><tspan x="14.38" y="33.64" dominant-baseline="ideographic">Restart Funds</tspan></text></g></g></g><g id="g-root-tx_100_4hyq0ssx61vr-fill" data-item-order="0" transform="translate(488.1601257324219, 164.00390625)"><g id="tx_100_4hyq0ssx61vr-fill" stroke="none" fill="#F8E6B8"><g><text style="font: 20px Roboto, sans-serif; white-space: pre;" font-size="20px" font-family="Roboto, sans-serif"><tspan x="15.81" y="33.64" dominant-baseline="ideographic">100%</tspan></text></g></g></g><g id="g-root-tx_entersno_4jtyyksxabd1-fill" data-item-order="0" transform="translate(14, 470.375)"><g id="tx_entersno_4jtyyksxabd1-fill" stroke="none" fill="#f4f4f4"><g><text style="font: 15px Roboto, sans-serif; white-space: pre;" font-size="15px" font-family="Roboto, sans-serif"><tspan x="14.17" y="30.27" dominant-baseline="ideographic">Enters node reward pool</tspan></text></g></g></g><g id="g-root-tx_90_m8m9fgsx62ob-fill" data-item-order="0" transform="translate(494.1601257324219, 386.00390625)"><g id="tx_90_m8m9fgsx62ob-fill" stroke="none" fill="#f4f4f4"><g><text style="font: 20px Roboto, sans-serif; white-space: pre;" font-size="20px" font-family="Roboto, sans-serif"><tspan x="15.43" y="33.64" dominant-baseline="ideographic">90%</tspan></text></g></g></g><g id="g-root-ic_1_1qa3zngsxa9l3-fill" data-item-order="0" transform="translate(194.162109375, 421.98046875)"></g><g id="g-root-ic_remo_1lux4xoswz401-fill" data-item-order="0" transform="translate(194.162109375, 181.98828125)"></g><g id="g-root-tx_heritage_1upb0ossxabym-fill" data-item-order="0" transform="translate(14.16015625, 434.00390625)"><g id="tx_heritage_1upb0ossxabym-fill" stroke="none" fill="#f4f4f4"><g><text style="font: bold 20px Roboto, sans-serif; white-space: pre;" font-weight="bold" font-size="20px" font-family="Roboto, sans-serif"><tspan x="16.11" y="33.64" dominant-baseline="ideographic">Heritage Rewards</tspan></text></g></g></g><g id="g-root-tx_restartf_zjgaposx6495-fill" data-item-order="0" transform="translate(212.16012573242188, 38)"><g id="tx_restartf_zjgaposx6495-fill" stroke="none" fill="#f4f4f4"><g><text style="font: bold 25px Roboto, sans-serif; white-space: pre;" font-weight="bold" font-size="25px" font-family="Roboto, sans-serif"><tspan x="16.54" y="43" dominant-baseline="ideographic">Restart fund distribution</tspan></text></g></g></g><g id="g-root-tx_rewardsf_8znh30sxaakr-fill" data-item-order="0" transform="translate(50, 350.375)"><g id="tx_rewardsf_8znh30sxaakr-fill" stroke="none" fill="#f4f4f4"><g><text style="font: 15px Roboto, sans-serif; white-space: pre;" font-size="15px" font-family="Roboto, sans-serif"><tspan x="13.93" y="27.28" dominant-baseline="ideographic">Rewards for bridge </tspan><tspan x="60.4" y="45.27" dominant-baseline="ideographic">participants</tspan></text></g></g></g><g id="g-root-sy_1_Polygon_8xs1tosxabk8-stroke" data-item-order="-199164" transform="translate(218.16015625, 170.00390625)"><g id="sy_1_Polygon_8xs1tosxabk8-stroke" fill="none" stroke-linecap="round" stroke-linejoin="round" stroke-miterlimit="4" stroke="#F8E6B8" stroke-width="2"><g><path d="M 10 82L 27.5538 82C 29.6878 82 31.6612 80.8665 32.7365 79.0232L 50.2365 49.0232C 51.3262 47.155 51.3262 44.8449 50.2365 42.9768L 32.7365 12.9768C 31.6612 11.1335 29.6878 10 27.5538 10L 10 10"></path></g></g></g><g id="g-root-sy_1_cu_4hyjp8sxacch-stroke" data-item-order="-199163" transform="translate(301.150390625, 134)"><g id="sy_1_cu_4hyjp8sxacch-stroke" fill="none" stroke-linecap="round" stroke-linejoin="round" stroke-miterlimit="4" stroke="#F8E6B8" stroke-width="2"><g><path d="M 13.1989 190.0286C 8.9337 197.4397 8.9337 206.5604 13.1989 213.9715L 109.8864 381.9714C 114.1693 389.4131 122.1014 394 130.6875 394L 323.9307 394C 332.5169 394 340.4489 389.4131 344.7318 381.9714L 441.4193 213.9715C 445.6845 206.5603 445.6845 197.4396 441.4193 190.0285L 344.7318 22.0286C 340.4489 14.5868 332.5169 10 323.9307 10L 130.6875 10C 122.1013 10 114.1693 14.5869 109.8864 22.0286L 13.1989 190.0286ZM 69.1444 226.0693C 64.9104 233.4596 64.9104 242.5404 69.1444 249.9307L 137.8944 369.9307C 142.171 377.3954 150.1159 382 158.7189 382L 295.8994 382C 304.5023 382 312.4472 377.3954 316.7238 369.9307L 385.4738 249.9307C 389.7079 242.5404 389.7079 233.4596 385.4738 226.0693L 316.7238 106.0693C 312.4472 98.6047 304.5023 94 295.8994 94L 158.7189 94C 150.1159 94 142.171 98.6047 137.8944 106.0693L 69.1444 226.0693Z"></path></g></g></g><g id="g-root-sy_1_line_1uo22iksxa9sa-stroke" data-item-order="-199158" transform="translate(260.16015625, 206)"><g id="sy_1_line_1uo22iksxa9sa-stroke" fill="none" stroke-linecap="round" stroke-linejoin="round" stroke-miterlimit="4" stroke="#F8E6B8" stroke-width="2"><style>.fillAsStrokeColor-mk-1cuwpx8t6vv2g { fill:#F8E6B8; }</style><g><path d="M 10 10L 116 10"></path><path d="M 7 10C 7 11.656854 8.343146 13 10 13C 11.656854 13 13 11.656854 13 10C 13 8.343146 11.656854 7 10 7C 8.343146 7 7 8.343146 7 10Z" stroke-dasharray="none" class="fillAsStrokeColor-mk-1cuwpx8t6vv2g"></path><path d="M 113 10C 113.000003 11.656854 114.343149 13 116.000003 13C 117.656857 13 119.000003 11.656854 119.000003 10C 119.000003 8.343146 117.656857 7 116.000003 7C 114.343149 7 113.000003 8.343146 113.000003 10Z" stroke-dasharray="none" class="fillAsStrokeColor-mk-1cuwpx8t6vv2g"></path></g></g></g><g id="g-root-sy_2_Polygon_1hclk58sxabd7-stroke" data-item-order="-199154" transform="translate(218.16058349609375, 290.00390625)"><g id="sy_2_Polygon_1hclk58sxabd7-stroke" fill="none" stroke-linecap="round" stroke-linejoin="round" stroke-miterlimit="4" stroke="#f4f4f4" stroke-width="2"><g><path d="M 10 82L 27.5538 82C 29.6878 82 31.6612 80.8665 32.7365 79.0232L 50.2365 49.0232C 51.3262 47.155 51.3262 44.8449 50.2365 42.9768L 32.7365 12.9768C 31.6612 11.1335 29.6878 10 27.5538 10L 10 10"></path></g></g></g><g id="g-root-sy_2_cu_1hclk58sxabd8-stroke" data-item-order="-199153" transform="translate(357.1193542480469, 218)"><g id="sy_2_cu_1hclk58sxabd8-stroke" fill="none" stroke-linecap="round" stroke-linejoin="round" stroke-miterlimit="4" stroke="#d3d3d3" stroke-width="2"><g><path d="M 13.1755 142.0693C 8.9415 149.4596 8.9415 158.5404 13.1755 165.9307L 81.9255 285.9307C 86.2022 293.3954 94.1471 298 102.75 298L 239.9305 298C 248.5334 298 256.4783 293.3954 260.7549 285.9307L 329.5049 165.9307C 333.739 158.5404 333.739 149.4596 329.5049 142.0693L 260.7549 22.0693C 256.4783 14.6047 248.5334 10 239.9305 10L 102.75 10C 94.147 10 86.2021 14.6047 81.9255 22.0693L 13.1755 142.0693ZM 68.1755 178.0693C 63.9415 185.4596 63.9415 194.5404 68.1755 201.9307L 109.4255 273.9307C 113.7022 281.3954 121.6471 286 130.25 286L 212.4305 286C 221.0334 286 228.9783 281.3954 233.2549 273.9307L 274.5049 201.9307C 278.739 194.5404 278.739 185.4596 274.5049 178.0693L 233.2549 106.0693C 228.9783 98.6047 221.0334 94 212.4305 94L 130.25 94C 121.647 94 113.7021 98.6047 109.4255 106.0693L 68.1755 178.0693Z"></path></g></g></g><g id="g-root-sy_2_line_1cws20ssxac5h-stroke" data-item-order="-199148" transform="translate(260.1603698730469, 326)"><g id="sy_2_line_1cws20ssxac5h-stroke" fill="none" stroke-linecap="round" stroke-linejoin="round" stroke-miterlimit="4" stroke="#f4f4f4" stroke-width="2"><style>.fillAsStrokeColor-mk-1cuwpx8t6vv2h { fill:#f4f4f4; }</style><g><path d="M 10 10L 124 10"></path><path d="M 7 10C 7 11.656854 8.343146 13 10 13C 11.656854 13 13 11.656854 13 10C 13 8.343146 11.656854 7 10 7C 8.343146 7 7 8.343146 7 10Z" stroke-dasharray="none" class="fillAsStrokeColor-mk-1cuwpx8t6vv2h"></path><path d="M 121 10C 121.000003 11.656854 122.343149 13 124.000003 13C 125.656858 13 127.000003 11.656854 127.000003 10C 127.000003 8.343146 125.656858 7 124.000003 7C 122.343149 7 121.000003 8.343146 121.000003 10Z" stroke-dasharray="none" class="fillAsStrokeColor-mk-1cuwpx8t6vv2h"></path></g></g></g><g id="g-root-sy_3_Polygon_141riv0sxa9se-stroke" data-item-order="-199144" transform="translate(218.1605224609375, 410.00390625)"><g id="sy_3_Polygon_141riv0sxa9se-stroke" fill="none" stroke-linecap="round" stroke-linejoin="round" stroke-miterlimit="4" stroke="#f4f4f4" stroke-width="2"><g><path d="M 10 82L 27.5538 82C 29.6878 82 31.6612 80.8665 32.7365 79.0232L 50.2365 49.0232C 51.3262 47.155 51.3262 44.8449 50.2365 42.9768L 32.7365 12.9768C 31.6612 11.1335 29.6878 10 27.5538 10L 10 10"></path></g></g></g><g id="g-root-sy_3_cu_zly0qksxaakn-stroke" data-item-order="-199143" transform="translate(412.1191101074219, 302.00390625)"><g id="sy_3_cu_zly0qksxaakn-stroke" fill="none" stroke-linecap="round" stroke-linejoin="round" stroke-miterlimit="4" stroke="#d3d3d3" stroke-width="2"><g><path d="M 13.1755 117.9307C 8.9415 110.5404 8.9415 101.4596 13.1755 94.0693L 54.4255 22.0693C 58.7022 14.6046 66.6471 10 75.25 10L 157.4305 10C 166.0334 10 173.9783 14.6047 178.255 22.0693L 219.505 94.0693C 223.739 101.4596 223.739 110.5404 219.505 117.9307L 178.2549 189.9307C 173.9783 197.3954 166.0334 202 157.4305 202L 75.25 202C 66.6471 202 58.7022 197.3953 54.4255 189.9307L 13.1755 117.9307Z"></path></g></g></g><g id="g-root-sy_3_line_v64im4sxabcw-stroke" data-item-order="-199138" transform="translate(260.16033935546875, 446)"><g id="sy_3_line_v64im4sxabcw-stroke" fill="none" stroke-linecap="round" stroke-linejoin="round" stroke-miterlimit="4" stroke="#f4f4f4" stroke-width="2"><style>.fillAsStrokeColor-mk-18f37sst6vvuq { fill:#f4f4f4; }</style><g><path d="M 10 10L 186 10"></path><path d="M 7 10C 7 11.656854 8.343146 13 10 13C 11.656854 13 13 11.656854 13 10C 13 8.343146 11.656854 7 10 7C 8.343146 7 7 8.343146 7 10Z" stroke-dasharray="none" class="fillAsStrokeColor-mk-18f37sst6vvuq"></path><path d="M 183 10C 183.000005 11.656854 184.343151 13 186.000005 13C 187.656859 13 189.000005 11.656854 189.000005 10C 189.000005 8.343146 187.656859 7 186.000005 7C 184.343151 7 183.000005 8.343146 183.000005 10Z" stroke-dasharray="none" class="fillAsStrokeColor-mk-18f37sst6vvuq"></path></g></g></g><g id="g-root-tx_10_8x5r24sx6499-stroke" data-item-order="0" transform="translate(494.1601257324219, 248.0078125)"></g><g id="g-root-ic_five_v4vnlosws075-stroke" data-item-order="0" transform="translate(194.162109375, 301.984375)"><g id="ic_five_v4vnlosws075-stroke" fill="none" stroke-linecap="round" stroke-linejoin="round" stroke-miterlimit="4" stroke="#f4f4f4" stroke-width="2"><g><path d="M 12.999701 25.998402C 12.999701 28.75955 15.238053 30.997904 17.999201 30.997904C 20.760349 30.997904 22.998703 28.75955 22.998703 25.998402C 22.998703 23.237255 20.760349 20.998901 17.999201 20.998901C 15.238053 20.998901 12.999701 23.237255 12.999701 25.998402M 44.996506 25.998402C 44.996506 28.75955 47.234856 30.997904 49.996006 30.997904C 52.757156 30.997904 54.995506 28.75955 54.995506 25.998402C 54.995506 23.237255 52.757156 20.998901 49.996006 20.998901C 47.234856 20.998901 44.996506 23.237255 44.996506 25.998402M 42.996704 56.995308L 42.996704 40.94091C 37.864471 40.466885 33.49905 37.000919 31.873816 32.109791L 30.151987 26.948309C 29.871721 26.110121 29.975346 25.190994 30.435207 24.436251C 30.895069 23.681509 31.66436 23.167969 32.53775 23.0327C 34.033295 22.848337 35.446651 23.759993 35.895416 25.198483L 37.567245 30.211983C 38.518837 33.06617 41.187954 34.992928 44.196587 34.997505L 52.983707 34.997505C 55.192627 34.997505 56.983307 36.788185 56.983307 38.997105L 56.983307 56.995308M 30.835918 28.998102L 30.435959 30.211983C 29.481583 33.074554 26.800093 35.003262 23.782623 34.997505L 15.003501 34.997505C 12.794582 34.997505 11.0039 36.788185 11.0039 38.997105L 11.0039 56.995308M 24.998503 56.995308L 24.998503 40.94091C 28.541557 40.613338 31.794823 38.845734 33.997604 36.051399M 32.997704 10.9999L 32.997704 14.999501M 40.824921 15.171484L 37.997204 17.999201M 25.170485 15.171484L 27.998203 17.999201"></path></g></g></g><g id="g-root-tx_initialf_mahid8sxac5l-stroke" data-item-order="0" transform="translate(26, 230.375)"></g><g id="g-root-tx_bridgere_8znh30sxaaks-stroke" data-item-order="0" transform="translate(26.162109375, 314.00390625)"></g><g id="g-root-tx_restartf_hvahbwsxa9s2-stroke" data-item-order="0" transform="translate(50.16015625, 194.00390625)"></g><g id="g-root-tx_100_4hyq0ssx61vr-stroke" data-item-order="0" transform="translate(488.1601257324219, 164.00390625)"></g><g id="g-root-tx_entersno_4jtyyksxabd1-stroke" data-item-order="0" transform="translate(14, 470.375)"></g><g id="g-root-tx_90_m8m9fgsx62ob-stroke" data-item-order="0" transform="translate(494.1601257324219, 386.00390625)"></g><g id="g-root-ic_1_1qa3zngsxa9l3-stroke" data-item-order="0" transform="translate(194.162109375, 421.98046875)"><g id="ic_1_1qa3zngsxa9l3-stroke" fill="none" stroke-linecap="round" stroke-linejoin="round" stroke-miterlimit="4" stroke="#f4f4f4" stroke-width="2"><g><path d="M 16.347366 45.928413L 11.999801 56.995308M 17.999201 56.995308L 19.785023 46.996307M 51.647842 45.928413L 55.995407 56.995308M 49.996006 56.995308L 48.210186 46.996307M 38.661137 34.72953L 45.876419 40.500954M 22.11879 40.500954L 29.332069 34.72953M 18.62114 39.0331L 17.659235 28.93611M 30.193983 48.220184L 22.612741 44.682537M 45.380466 44.684536L 37.801224 48.220184M 50.329971 28.998102L 49.374065 39.023102M 37.695236 16.52335L 47.410267 20.522949M 20.582943 20.522949L 30.301973 16.521349M 14.999501 42.996704C 14.999501 45.205627 16.790184 46.996307 18.999102 46.996307C 21.208019 46.996307 22.998703 45.205627 22.998703 42.996704C 22.998703 40.787788 21.208019 38.997105 18.999102 38.997105C 16.790184 38.997105 14.999501 40.787788 14.999501 42.996704ZM 29.998003 14.999501C 29.998003 17.20842 31.788685 18.999102 33.997604 18.999102C 36.206524 18.999102 37.997204 17.20842 37.997204 14.999501C 37.997204 12.790583 36.206524 10.9999 33.997604 10.9999C 31.788685 10.9999 29.998003 12.790583 29.998003 14.999501ZM 11.999801 23.998602C 11.999801 26.75975 14.238153 28.998102 16.999302 28.998102C 19.76045 28.998102 21.998802 26.75975 21.998802 23.998602C 21.998802 21.237455 19.76045 18.999102 16.999302 18.999102C 14.238153 18.999102 11.999801 21.237455 11.999801 23.998602ZM 44.996506 42.996704C 44.996506 45.205627 46.787186 46.996307 48.996105 46.996307C 51.205025 46.996307 52.995708 45.205627 52.995708 42.996704C 52.995708 40.787788 51.205025 38.997105 48.996105 38.997105C 46.787186 38.997105 44.996506 40.787788 44.996506 42.996704ZM 45.996407 23.998602C 45.996407 26.75975 48.234756 28.998102 50.995907 28.998102C 53.757057 28.998102 55.995407 26.75975 55.995407 23.998602C 55.995407 21.237455 53.757057 18.999102 50.995907 18.999102C 48.234756 18.999102 45.996407 21.237455 45.996407 23.998602ZM 28.42816 28.770124L 18.999102 24.998503M 48.996105 24.998503L 39.563049 28.772125M 33.997604 18.999102L 33.997604 24.998503M 36.211384 36.573345L 38.997105 56.995308M 28.998102 56.995308L 31.783825 36.573345M 27.998203 30.997904C 27.998203 34.311283 30.684227 36.997303 33.997604 36.997303C 37.310982 36.997303 39.997005 34.311283 39.997005 30.997904C 39.997005 27.684526 37.310982 24.998503 33.997604 24.998503C 30.684227 24.998503 27.998203 27.684526 27.998203 30.997904Z"></path></g></g></g><g id="g-root-ic_remo_1lux4xoswz401-stroke" data-item-order="0" transform="translate(194.162109375, 181.98828125)"><g id="ic_remo_1lux4xoswz401-stroke" fill="none" stroke-linecap="round" stroke-linejoin="round" stroke-miterlimit="4" stroke="#F8E6B8" stroke-width="2"><g><path d="M 15.20964 18.465855C 18.011881 19.059435 20.805422 21.496832 21.593884 24.186083M 13.10313 25.300352C 15.420718 24.042978 18.433598 24.380304 20.405201 24.998503M 48.822323 42.964508C 48.822323 52.494957 40.397964 56.056004 30.005802 56.056004C 19.613821 56.056004 11.189419 52.494957 11.189419 42.964508C 11.189419 35.566048 16.266054 26.745207 23.398863 23.168686M 40.739529 25.994343C 39.469257 24.868196 38.084797 23.906771 36.612942 23.168686M 36.637939 23.079575C 36.637939 23.079575 34.594143 24.224159 30.004602 24.224159C 25.415281 24.224159 23.371445 23.079575 23.371445 23.079575C 17.183302 16.875933 19.629559 8.668669 27.089893 13.293591C 28.859438 14.390601 31.149889 14.390601 32.919514 13.293591C 40.379765 8.668667 42.826122 16.875933 36.637939 23.079575ZM 10 10M 52.858921 27.597843L 54.774529 34.84692L 47.577847 36.95071M 54.417965 34.645737C 46.811321 28.990463 39.669235 28.948229 35.548248 37.051697"></path></g></g></g><g id="g-root-tx_heritage_1upb0ossxabym-stroke" data-item-order="0" transform="translate(14.16015625, 434.00390625)"></g><g id="g-root-tx_restartf_zjgaposx6495-stroke" data-item-order="0" transform="translate(212.16012573242188, 38)"></g><g id="g-root-tx_rewardsf_8znh30sxaakr-stroke" data-item-order="0" transform="translate(50, 350.375)"></g></g></g></svg>