<?xml version="1.0" encoding="utf-8" standalone="yes"?>
<!DOCTYPE svg PUBLIC "-//W3C//DTD SVG 1.1//EN" "http://www.w3.org/Graphics/SVG/1.1/DTD/svg11.dtd">
<svg width="552" height="300" viewBox="0 0 552 300" style="fill:none;stroke:none;fill-rule:evenodd;clip-rule:evenodd;stroke-linecap:round;stroke-linejoin:round;stroke-miterlimit:1.5;" version="1.1" xmlns="http://www.w3.org/2000/svg" xmlns:xlink="http://www.w3.org/1999/xlink"><style class="text-font-style fontImports" data-font-family="Roboto">@import url('https://fonts.googleapis.com/css2?family=Roboto:wght@400;700&amp;display=block');</style><g id="items" style="isolation: isolate"><g id="blend" style="mix-blend-mode: normal"><g id="g-root-cp_2-fill_g-2-fill_1uonr70sd9og0-fill" data-item-order="-102804" transform="translate(280, 146)"><g id="cp_2-fill_g-2-fill_1uonr70sd9og0-fill" stroke="none" fill="#6b6b6b"><g><path d="M 36 46C 36 48.2091 34.2091 50 32 50C 29.7909 50 28 48.2091 28 46C 28 43.8644 29.6737 42.1196 31.7809 42.0059C 31.8535 42.002 31.9265 42 32 42C 34.2091 42 36 43.7909 36 46ZM 18 78C 18 80.2091 16.2091 82 14 82C 12.839 82 11.7934 81.5053 11.0627 80.7152C 10.4031 80.002 10 79.0481 10 78C 10 75.7909 11.7909 74 14 74C 15.2284 74 16.3274 74.5537 17.0612 75.4251C 17.647 76.1209 18 77.0192 18 78ZM 18 14C 18 14.9808 17.647 15.8791 17.0612 16.5749C 16.3274 17.4463 15.2284 18 14 18C 11.7909 18 10 16.2091 10 14C 10 12.9519 10.4031 11.998 11.0627 11.2848C 11.7934 10.4947 12.8389 10 14 10C 16.2091 10 18 11.7909 18 14ZM 32 30C 32 31.5625 31.1041 32.9158 29.798 33.5741C 29.2574 33.8466 28.6466 34 28 34C 25.7909 34 24 32.2091 24 30C 24 28.4325 24.9016 27.0756 26.2145 26.4196C 26.7519 26.1511 27.3583 26 28 26C 30.2091 26 32 27.7909 32 30ZM 32 62C 32 64.2091 30.2091 66 28 66C 27.3583 66 26.7519 65.8489 26.2145 65.5804C 24.9016 64.9244 24 63.5675 24 62C 24 59.7909 25.7909 58 28 58C 28.6466 58 29.2574 58.1534 29.798 58.4259C 31.1041 59.0842 32 60.4375 32 62Z"></path></g></g></g><g id="g-root-cp_2-lines_g-2-lines_1lt0qy4sd9p8p-fill" data-item-order="-102799" transform="translate(269, 140)"></g><g id="g-root-cp_1-fill_g-1-fill_1lt0qy4sd9p8r-fill" data-item-order="-102794" transform="translate(226, 130)"><g id="cp_1-fill_g-1-fill_1lt0qy4sd9p8r-fill" stroke="none" fill="#E5A000"><g><path d="M 10 62C 10 59.7909 11.7909 58 14 58C 16.2091 58 18 59.7909 18 62C 18 64.1356 16.3263 65.8804 14.2191 65.9941C 14.1465 65.998 14.0735 66 14 66C 11.7909 66 10 64.2091 10 62ZM 28 30C 28 27.7909 29.7909 26 32 26C 33.1611 26 34.2066 26.4947 34.9373 27.2847C 35.5969 27.998 36 28.9519 36 30C 36 32.2091 34.2091 34 32 34C 30.7716 34 29.6726 33.4463 28.9388 32.5749C 28.353 31.8791 28 30.9808 28 30ZM 28 94C 28 93.0192 28.353 92.1209 28.9388 91.4251C 29.6726 90.5537 30.7716 90 32 90C 34.2091 90 36 91.7909 36 94C 36 95.0481 35.5969 96.002 34.9373 96.7152C 34.2066 97.5053 33.161 98 32 98C 29.7909 98 28 96.2091 28 94ZM 46 14C 46 11.7909 47.7909 10 50 10C 52.2091 10 54 11.7909 54 14C 54 16.2091 52.2091 18 50 18C 48.8055 18 47.7332 17.4764 47.0003 16.6461C 46.3778 15.941 46 15.0146 46 14ZM 14 78C 14 76.4375 14.8959 75.0842 16.202 74.4259C 16.7426 74.1534 17.3534 74 18 74C 20.2091 74 22 75.7909 22 78C 22 79.5675 21.0984 80.9243 19.7855 81.5804C 19.2481 81.8489 18.6417 82 18 82C 15.7909 82 14 80.2091 14 78ZM 14 46C 14 43.7909 15.7909 42 18 42C 18.6417 42 19.2481 42.1511 19.7855 42.4196C 21.0984 43.0756 22 44.4325 22 46C 22 48.2091 20.2091 50 18 50C 17.3534 50 16.7426 49.8466 16.202 49.5741C 14.8959 48.9158 14 47.5625 14 46Z"></path></g></g></g><g id="g-root-cp_1-lines_g-1-lines_1hd78tosd9q10-fill" data-item-order="-102789" transform="translate(226, 130)"></g><g id="g-root-tx_immutabl_1hd78tosd9q12-fill" data-item-order="0" transform="translate(110, 38)"><g id="tx_immutabl_1hd78tosd9q12-fill" stroke="none" fill="#f4f4f4"><g><text style="font: bold 25px Roboto, sans-serif; white-space: pre;" font-weight="bold" font-size="25px" font-family="Roboto, sans-serif"><tspan x="12.43" y="43" dominant-baseline="ideographic">Immutable Contract Design</tspan></text></g></g></g><g id="g-root-tx_immutabl_8vvxbgscx2bw-fill" data-item-order="0" transform="translate(86, 143)"><g id="tx_immutabl_8vvxbgscx2bw-fill" stroke="none" fill="#F8E6B8"><g><text style="font: bold 11.7px Roboto, sans-serif; white-space: pre;" font-weight="bold" font-size="11.7px" font-family="Roboto, sans-serif"><tspan x="11.54" y="27.63" dominant-baseline="ideographic">Immutable </tspan><tspan x="18.7" y="41.64" dominant-baseline="ideographic">Variables</tspan></text></g></g></g><g id="g-root-tx_construc_8d370scvpjj-fill" data-item-order="0" transform="translate(386, 143)"><g id="tx_construc_8d370scvpjj-fill" stroke="none" fill="#f4f4f4"><g><text style="font: bold 11.7px Roboto, sans-serif; white-space: pre;" font-weight="bold" font-size="11.7px" font-family="Roboto, sans-serif"><tspan x="12" y="27.63" dominant-baseline="ideographic">Constructor-Only </tspan><tspan x="12" y="41.64" dominant-baseline="ideographic">Configuration</tspan></text></g></g></g><g id="g-root-ic_pent_1qegm0cscvnr5-fill" data-item-order="0" transform="translate(158, 164)"></g><g id="g-root-ic_code_18hk8kssd9qtr-fill" data-item-order="0" transform="translate(338, 167)"></g><g id="g-root-tx_variable_1q6cfvwscx1c8-fill" data-item-order="0" transform="translate(38, 185)"><g id="tx_variable_1q6cfvwscx1c8-fill" stroke="none" fill="#F8E6B8"><g><text style="font: 10px Roboto, sans-serif; white-space: pre;" font-size="10px" font-family="Roboto, sans-serif"><tspan x="21.5" y="21.82" dominant-baseline="ideographic">Variables that cannot </tspan><tspan x="40.97" y="33.82" dominant-baseline="ideographic">be changed after </tspan><tspan x="62.28" y="45.82" dominant-baseline="ideographic">initialization</tspan></text></g></g></g><g id="g-root-tx_configur_1uua44sscvmyw-fill" data-item-order="0" transform="translate(386, 185)"><g id="tx_configur_1uua44sscvmyw-fill" stroke="none" fill="#f4f4f4"><g><text style="font: 10px Roboto, sans-serif; white-space: pre;" font-size="10px" font-family="Roboto, sans-serif"><tspan x="12" y="21.82" dominant-baseline="ideographic">Configuration set only </tspan><tspan x="12" y="33.82" dominant-baseline="ideographic">during contract </tspan><tspan x="12" y="45.82" dominant-baseline="ideographic">creation</tspan></text></g></g></g><g id="g-root-cp_2-fill_g-2-fill_1uonr70sd9og0-stroke" data-item-order="-102804" transform="translate(280, 146)"></g><g id="g-root-cp_2-lines_g-2-lines_1lt0qy4sd9p8p-stroke" data-item-order="-102799" transform="translate(269, 140)"><g id="cp_2-lines_g-2-lines_1lt0qy4sd9p8p-stroke" fill="none" stroke-linecap="round" stroke-linejoin="round" stroke-miterlimit="4" stroke="#d3d3d3" stroke-width="2"><g><path d="M 47.0003 51.9999C 47.0003 54.2091 45.2094 55.9999 43.0003 55.9999C 40.7911 55.9999 39.0003 54.2091 39.0003 51.9999C 39.0003 49.8643 40.674 48.1195 42.7812 48.0058C 42.8537 48.0019 42.9268 47.9999 43.0003 47.9999C 45.2094 47.9999 47.0003 49.7908 47.0003 51.9999ZM 29.0003 83.9999C 29.0003 86.209 27.2094 87.9999 25.0003 87.9999C 23.8392 87.9999 22.7937 87.5052 22.063 86.7152C 21.4034 86.0019 21.0003 85.048 21.0003 83.9999C 21.0003 81.7908 22.7911 79.9999 25.0003 79.9999C 26.2286 79.9999 27.3277 80.5536 28.0614 81.425C 28.6473 82.1208 29.0003 83.0191 29.0003 83.9999ZM 29.0003 19.9999C 29.0003 20.9807 28.6473 21.879 28.0614 22.5748C 27.3277 23.4462 26.2286 23.9999 25.0003 23.9999C 22.7911 23.9999 21.0003 22.2091 21.0003 19.9999C 21.0003 18.9518 21.4034 17.9979 22.063 17.2847C 22.7937 16.4946 23.8392 15.9999 25.0003 15.9999C 27.2094 15.9999 29.0003 17.7908 29.0003 19.9999ZM 43.0003 35.9999C 43.0003 37.5624 42.1044 38.9157 40.7982 39.574C 40.2577 39.8465 39.6469 39.9999 39.0003 39.9999C 36.7911 39.9999 35.0003 38.2091 35.0003 35.9999C 35.0003 34.4324 35.9019 33.0756 37.2148 32.4196C 37.7522 32.151 38.3586 31.9999 39.0003 31.9999C 41.2094 31.9999 43.0003 33.7908 43.0003 35.9999ZM 43.0003 67.9999C 43.0003 70.2091 41.2094 71.9999 39.0003 71.9999C 38.3586 71.9999 37.7522 71.8488 37.2148 71.5803C 35.9019 70.9243 35.0003 69.5674 35.0003 67.9999C 35.0003 65.7908 36.7911 63.9999 39.0003 63.9999C 39.6469 63.9999 40.2577 64.1533 40.7982 64.4258C 42.1044 65.0841 43.0003 66.4374 43.0003 67.9999ZM 10.0003 19.9999L 21.0003 19.9999M 10.0003 35.9999L 35.0003 35.9999M 10.0003 51.9999L 39.0003 51.9999M 10.0003 67.9999L 35.0003 67.9999M 10.0003 83.9999L 21.0003 83.9999M 22.063 86.7152L 10 97.3538M 28.0614 81.425L 31.0003 78.8332C 33.3776 76.7055 35.4704 74.2665 37.2148 71.5803M 13.803 10L 22.063 17.2847M 28.0614 22.5748L 31.0003 25.1666C 33.3776 27.2944 35.4704 29.7334 37.2148 32.4196M 40.7982 39.574C 41.7823 42.2498 42.4577 45.0748 42.7812 48.0058M 42.7806 55.9999C 42.4568 58.9288 41.7817 61.7518 40.7982 64.4258"></path></g></g></g><g id="g-root-cp_1-fill_g-1-fill_1lt0qy4sd9p8r-stroke" data-item-order="-102794" transform="translate(226, 130)"></g><g id="g-root-cp_1-lines_g-1-lines_1hd78tosd9q10-stroke" data-item-order="-102789" transform="translate(226, 130)"><g id="cp_1-lines_g-1-lines_1hd78tosd9q10-stroke" fill="none" stroke-linecap="round" stroke-linejoin="round" stroke-miterlimit="4" stroke="#d3d3d3" stroke-width="2"><g><path d="M 10 62C 10 59.7909 11.7909 58 14 58C 16.2091 58 18 59.7909 18 62C 18 64.1356 16.3263 65.8804 14.2191 65.9941C 14.1465 65.998 14.0735 66 14 66C 11.7909 66 10 64.2091 10 62ZM 28 30C 28 27.7909 29.7909 26 32 26C 33.1611 26 34.2066 26.4947 34.9373 27.2847C 35.5969 27.998 36 28.9519 36 30C 36 32.2091 34.2091 34 32 34C 30.7716 34 29.6726 33.4463 28.9388 32.5749C 28.353 31.8791 28 30.9808 28 30ZM 28 94C 28 93.0192 28.353 92.1209 28.9388 91.4251C 29.6726 90.5537 30.7716 90 32 90C 34.2091 90 36 91.7909 36 94C 36 95.0481 35.5969 96.002 34.9373 96.7152C 34.2066 97.5053 33.161 98 32 98C 29.7909 98 28 96.2091 28 94ZM 46 14C 46 11.7909 47.7909 10 50 10C 52.2091 10 54 11.7909 54 14C 54 16.2091 52.2091 18 50 18C 48.8055 18 47.7332 17.4764 47.0003 16.6461C 46.3778 15.941 46 15.0146 46 14ZM 14 78C 14 76.4375 14.8959 75.0842 16.202 74.4259C 16.7426 74.1534 17.3534 74 18 74C 20.2091 74 22 75.7909 22 78C 22 79.5675 21.0984 80.9243 19.7855 81.5804C 19.2481 81.8489 18.6417 82 18 82C 15.7909 82 14 80.2091 14 78ZM 14 46C 14 43.7909 15.7909 42 18 42C 18.6417 42 19.2481 42.1511 19.7855 42.4196C 21.0984 43.0756 22 44.4325 22 46C 22 48.2091 20.2091 50 18 50C 17.3534 50 16.7426 49.8466 16.202 49.5741C 14.8959 48.9158 14 47.5625 14 46ZM 47 94L 36 94M 47 78L 22 78M 47 62L 18 62M 47 46L 22 46M 47 30L 36 30M 34.9373 27.2847L 47.0003 16.6461M 28.9388 32.5749L 26 35.1667C 23.6227 37.2944 21.5299 39.7334 19.7855 42.4196M 43.1973 103.9999L 34.9373 96.7152M 28.9388 91.4251L 26 88.8333C 23.6227 86.7055 21.5299 84.2666 19.7855 81.5804M 16.202 74.4259C 15.218 71.7501 14.5426 68.9251 14.2191 65.9941M 14.2197 58C 14.5435 55.0711 15.2186 52.2481 16.202 49.5741"></path></g></g></g><g id="g-root-tx_immutabl_1hd78tosd9q12-stroke" data-item-order="0" transform="translate(110, 38)"></g><g id="g-root-tx_immutabl_8vvxbgscx2bw-stroke" data-item-order="0" transform="translate(86, 143)"></g><g id="g-root-tx_construc_8d370scvpjj-stroke" data-item-order="0" transform="translate(386, 143)"></g><g id="g-root-ic_pent_1qegm0cscvnr5-stroke" data-item-order="0" transform="translate(158, 164)"><g id="ic_pent_1qegm0cscvnr5-stroke" fill="none" stroke-linecap="round" stroke-linejoin="round" stroke-miterlimit="4" stroke="#F8E6B8" stroke-width="2"><g><path d="M 27.1213 12.16402C 27.647049 11.782045 28.35895 11.782045 28.88455 12.16402L 44.24305 23.322578C 44.768799 23.70454 44.988701 24.381596 44.787998 24.999626L 38.921501 43.0546C 38.720798 43.6726 38.144802 44.091099 37.494999 44.091099L 18.51088 44.091099C 17.86105 44.091099 17.28511 43.6726 17.084305 43.0546L 11.217898 24.999626C 11.017085 24.381596 11.237073 23.70454 11.7628 23.322578L 27.1213 12.16402ZM 10 10M 26.568851 30.765699L 33.635651 21.303579L 36.43 23.390591M 21.363544 37.740273C 23.288408 39.177845 26.014202 38.782822 27.451775 36.857956C 28.889347 34.933094 28.49432 32.207302 26.569456 30.76973C 24.644594 29.332157 21.9188 29.727182 20.481228 31.652046C 19.043655 33.576908 19.438683 36.3027 21.363544 37.740273M 10 10M 30.9238 24.935545L 33.718601 27.0229"></path></g></g></g><g id="g-root-ic_code_18hk8kssd9qtr-stroke" data-item-order="0" transform="translate(338, 167)"><g id="ic_code_18hk8kssd9qtr-stroke" fill="none" stroke-linecap="round" stroke-linejoin="round" stroke-miterlimit="4" stroke="#f4f4f4" stroke-width="2"><g><path d="M 10.75 14.5C 10.75 16.571068 12.428932 18.25 14.5 18.25C 16.571068 18.25 18.25 16.571068 18.25 14.5C 18.25 12.428932 16.571068 10.75 14.5 10.75C 12.428932 10.75 10.75 12.428932 10.75 14.5M 45.25 14.5C 45.25 16.571068 43.571068 18.25 41.5 18.25L 26.5 18.25C 24.428932 18.25 22.75 16.571068 22.75 14.5C 22.75 12.428932 24.428932 10.75 26.5 10.75L 41.5 10.75C 43.571068 10.75 45.25 12.428932 45.25 14.5ZM 10.75 28C 10.75 30.071068 12.428932 31.75 14.5 31.75C 16.571068 31.75 18.25 30.071068 18.25 28C 18.25 25.928932 16.571068 24.25 14.5 24.25C 12.428932 24.25 10.75 25.928932 10.75 28M 10.75 41.5C 10.75 43.571068 12.428932 45.25 14.5 45.25C 16.571068 45.25 18.25 43.571068 18.25 41.5C 18.25 39.428932 16.571068 37.75 14.5 37.75C 12.428932 37.75 10.75 39.428932 10.75 41.5M 36.25 28C 36.25 30.071068 34.571068 31.75 32.5 31.75L 26.5 31.75C 24.428932 31.75 22.75 30.071068 22.75 28C 22.75 25.928932 24.428932 24.25 26.5 24.25L 32.5 24.25C 34.571068 24.25 36.25 25.928932 36.25 28Z"></path></g></g></g><g id="g-root-tx_variable_1q6cfvwscx1c8-stroke" data-item-order="0" transform="translate(38, 185)"></g><g id="g-root-tx_configur_1uua44sscvmyw-stroke" data-item-order="0" transform="translate(386, 185)"></g></g></g></svg>