<?xml version="1.0" encoding="utf-8" standalone="yes"?>
<!DOCTYPE svg PUBLIC "-//W3C//DTD SVG 1.1//EN" "http://www.w3.org/Graphics/SVG/1.1/DTD/svg11.dtd">
<svg width="1092" height="517" viewBox="0 0 1092 517" style="fill:none;stroke:none;fill-rule:evenodd;clip-rule:evenodd;stroke-linecap:round;stroke-linejoin:round;stroke-miterlimit:1.5;" version="1.1" xmlns="http://www.w3.org/2000/svg" xmlns:xlink="http://www.w3.org/1999/xlink"><style class="text-font-style fontImports" data-font-family="Roboto">@import url('https://fonts.googleapis.com/css2?family=Roboto:wght@400;700&amp;display=block');</style><g id="items" style="isolation: isolate"><g id="blend" style="mix-blend-mode: normal"><g id="g-root-cp_1_lines-1_1qbyg58rir8jn-fill" data-item-order="-439512" transform="translate(38, 123)"><g id="cp_1_lines-1_1qbyg58rir8jn-fill" stroke="none" fill="#E5A000"><g><path d="M 190 178L 10 178L 10 154L 142 154L 142 166L 166 142L 142 118L 142 130L 10 130L 10 100C 10 50.2944 50.2944 10 100 10C 149.7056 10 190 50.2944 190 100L 190 178ZM 10 178L 190 178L 190 322L 10 322Z"></path></g></g></g><g id="g-root-cp_2_lines-2_1hgbfwcrir9cd-fill" data-item-order="-439490" transform="translate(242, 123)"><g id="cp_2_lines-2_1hgbfwcrir9cd-fill" stroke="none" fill="#6b6b6b"><g><path d="M 190 178L 10 178L 10 154L 142 154L 142 166L 166 142L 142 118L 142 130L 10 130L 10 100C 10 50.2944 50.2944 10 100 10C 149.7056 10 190 50.2944 190 100L 190 178ZM 10 178L 190 178L 190 322L 10 322Z"></path></g></g></g><g id="g-root-cp_3_lines-3_1hgbfwcrir9cf-fill" data-item-order="-439468" transform="translate(446, 123)"><g id="cp_3_lines-3_1hgbfwcrir9cf-fill" stroke="none" fill="#6b6b6b"><g><path d="M 190 178L 10 178L 10 154L 142 154L 142 166L 166 142L 142 118L 142 130L 10 130L 10 100C 10 50.2944 50.2944 10 100 10C 149.7056 10 190 50.2944 190 100L 190 178ZM 10 178L 190 178L 190 322L 10 322Z"></path></g></g></g><g id="g-root-cp_4_lines-4_1d0hxrwrira4p-fill" data-item-order="-439446" transform="translate(650, 123)"><g id="cp_4_lines-4_1d0hxrwrira4p-fill" stroke="none" fill="#6b6b6b"><g><path d="M 190 178L 10 178L 10 154L 142 154L 142 166L 166 142L 142 118L 142 130L 10 130L 10 100C 10 50.2944 50.2944 10 100 10C 149.7056 10 190 50.2944 190 100L 190 178ZM 10 178L 190 178L 190 322L 10 322Z"></path></g></g></g><g id="g-root-cp_5_lines-5_18kofngrirawz-fill" data-item-order="-439424" transform="translate(854, 123)"><g id="cp_5_lines-5_18kofngrirawz-fill" stroke="none" fill="#6b6b6b"><g><path d="M 190 178L 10 178L 10 154L 142 154L 142 166L 166 142L 142 118L 142 130L 10 130L 10 100C 10 50.2944 50.2944 10 100 10C 149.7056 10 190 50.2944 190 100L 190 178ZM 10 178L 190 178L 190 322L 10 322Z"></path></g></g></g><g id="g-root-tx_phoenixr_18kofngrirax1-fill" data-item-order="0" transform="translate(410, 38)"><g id="tx_phoenixr_18kofngrirax1-fill" stroke="none" fill="#f4f4f4"><g><text style="font: bold 25px Roboto, sans-serif; white-space: pre;" font-weight="bold" font-size="25px" font-family="Roboto, sans-serif"><tspan x="12.07" y="43" dominant-baseline="ideographic">Phoenix Rebirth Cycle</tspan></text></g></g></g><g id="g-root-ic_fire_v9ued8rir9c7-fill" data-item-order="0" transform="translate(104, 165)"></g><g id="g-root-ic_mons_4j6j3wrj2j9k-fill" data-item-order="0" transform="translate(308, 165)"></g><g id="g-root-ic_thre_zqadksrj2jgk-fill" data-item-order="0" transform="translate(512, 165)"></g><g id="g-root-ic_hunt_1ha2s70rjcbnz-fill" data-item-order="0" transform="translate(716, 165)"></g><g id="g-root-ic_prox_qss18crjccng-fill" data-item-order="0" transform="translate(920, 165)"></g><g id="g-root-tx_thephoen_zpnwhorir8jy-fill" data-item-order="0" transform="translate(50, 327)"><g id="tx_thephoen_zpnwhorir8jy-fill" stroke="none" fill="#F8E6B8"><g><text style="font: 15px Roboto, sans-serif; white-space: pre;" font-size="15px" font-family="Roboto, sans-serif"><tspan x="31.87" y="27.28" dominant-baseline="ideographic">The phoenix is </tspan><tspan x="17.19" y="45.27" dominant-baseline="ideographic">engulfed in flames, </tspan><tspan x="40.1" y="63.27" dominant-baseline="ideographic">symbolizing </tspan><tspan x="42.31" y="81.27" dominant-baseline="ideographic">destruction</tspan></text></g></g></g><g id="g-root-tx_thephoen_hun1h8rj2hok-fill" data-item-order="0" transform="translate(254, 327)"><g id="tx_thephoen_hun1h8rj2hok-fill" stroke="none" fill="#f4f4f4"><g><text style="font: 15px Roboto, sans-serif; white-space: pre;" font-size="15px" font-family="Roboto, sans-serif"><tspan x="14.48" y="30.28" dominant-baseline="ideographic">The phoenix emerges </tspan><tspan x="34.53" y="48.27" dominant-baseline="ideographic">from the ashes, </tspan><tspan x="16.44" y="66.27" dominant-baseline="ideographic">representing renewal</tspan></text></g></g></g><g id="g-root-tx_arrowsin_1d1qvy4rj2hvk-fill" data-item-order="0" transform="translate(458, 327)"><g id="tx_arrowsin_1d1qvy4rj2hvk-fill" stroke="none" fill="#f4f4f4"><g><text style="font: 15px Roboto, sans-serif; white-space: pre;" font-size="15px" font-family="Roboto, sans-serif"><tspan x="15.71" y="30.28" dominant-baseline="ideographic">Arrows indicate the </tspan><tspan x="15.2" y="48.27" dominant-baseline="ideographic">continuous cycle of </tspan><tspan x="23.29" y="66.27" dominant-baseline="ideographic">death and rebirth</tspan></text></g></g></g><g id="g-root-tx_thephoen_1uuwev0rjayob-fill" data-item-order="0" transform="translate(662, 327)"><g id="tx_thephoen_1uuwev0rjayob-fill" stroke="none" fill="#f4f4f4"><g><text style="font: 15px Roboto, sans-serif; white-space: pre;" font-size="15px" font-family="Roboto, sans-serif"><tspan x="41.26" y="27.28" dominant-baseline="ideographic">The phoenix </tspan><tspan x="40.76" y="45.27" dominant-baseline="ideographic">undergoes a </tspan><tspan x="30.79" y="63.27" dominant-baseline="ideographic">transformation, </tspan><tspan x="15.64" y="81.27" dominant-baseline="ideographic">symbolizing change</tspan></text></g></g></g><g id="g-root-tx_thephoen_1448jlorjcb2g-fill" data-item-order="0" transform="translate(866, 327)"><g id="tx_thephoen_1448jlorjcb2g-fill" stroke="none" fill="#f4f4f4"><g><text style="font: 15px Roboto, sans-serif; white-space: pre;" font-size="15px" font-family="Roboto, sans-serif"><tspan x="38.46" y="30.28" dominant-baseline="ideographic">The phoenix is </tspan><tspan x="13.26" y="48.27" dominant-baseline="ideographic">renewed, representing </tspan><tspan x="46.29" y="66.27" dominant-baseline="ideographic">a fresh start</tspan></text></g></g></g><g id="g-root-cp_1_lines-1_1qbyg58rir8jn-stroke" data-item-order="-439512" transform="translate(38, 123)"><g id="cp_1_lines-1_1qbyg58rir8jn-stroke" fill="none" stroke-linecap="round" stroke-linejoin="round" stroke-miterlimit="4" stroke="#F8E6B8" stroke-width="2"><g><path d="M 10 178L 10 154L 142 154L 142 166L 166 142L 142 118L 142 130L 10 130L 10 100C 10 50.2944 50.2944 10 100 10C 149.7056 10 190 50.2944 190 100L 190 178M 190 178L 190 322L 10 322L 10 178"></path></g></g></g><g id="g-root-cp_2_lines-2_1hgbfwcrir9cd-stroke" data-item-order="-439490" transform="translate(242, 123)"><g id="cp_2_lines-2_1hgbfwcrir9cd-stroke" fill="none" stroke-linecap="round" stroke-linejoin="round" stroke-miterlimit="4" stroke="#d3d3d3" stroke-width="2"><g><path d="M 10 178L 10 154L 142 154L 142 166L 166 142L 142 118L 142 130L 10 130L 10 100C 10 50.2944 50.2944 10 100 10C 149.7056 10 190 50.2944 190 100L 190 178M 190 178L 190 322L 10 322L 10 178"></path></g></g></g><g id="g-root-cp_3_lines-3_1hgbfwcrir9cf-stroke" data-item-order="-439468" transform="translate(446, 123)"><g id="cp_3_lines-3_1hgbfwcrir9cf-stroke" fill="none" stroke-linecap="round" stroke-linejoin="round" stroke-miterlimit="4" stroke="#d3d3d3" stroke-width="2"><g><path d="M 10 178L 10 154L 142 154L 142 166L 166 142L 142 118L 142 130L 10 130L 10 100C 10 50.2944 50.2944 10 100 10C 149.7056 10 190 50.2944 190 100L 190 178M 190 178L 190 322L 10 322L 10 178"></path></g></g></g><g id="g-root-cp_4_lines-4_1d0hxrwrira4p-stroke" data-item-order="-439446" transform="translate(650, 123)"><g id="cp_4_lines-4_1d0hxrwrira4p-stroke" fill="none" stroke-linecap="round" stroke-linejoin="round" stroke-miterlimit="4" stroke="#d3d3d3" stroke-width="2"><g><path d="M 10 178L 10 154L 142 154L 142 166L 166 142L 142 118L 142 130L 10 130L 10 100C 10 50.2944 50.2944 10 100 10C 149.7056 10 190 50.2944 190 100L 190 178M 190 178L 190 322L 10 322L 10 178"></path></g></g></g><g id="g-root-cp_5_lines-5_18kofngrirawz-stroke" data-item-order="-439424" transform="translate(854, 123)"><g id="cp_5_lines-5_18kofngrirawz-stroke" fill="none" stroke-linecap="round" stroke-linejoin="round" stroke-miterlimit="4" stroke="#d3d3d3" stroke-width="2"><g><path d="M 10 178L 10 154L 142 154L 142 166L 166 142L 142 118L 142 130L 10 130L 10 100C 10 50.2944 50.2944 10 100 10C 149.7056 10 190 50.2944 190 100L 190 178M 190 178L 190 322L 10 322L 10 178"></path></g></g></g><g id="g-root-tx_phoenixr_18kofngrirax1-stroke" data-item-order="0" transform="translate(410, 38)"></g><g id="g-root-ic_fire_v9ued8rir9c7-stroke" data-item-order="0" transform="translate(104, 165)"><g id="ic_fire_v9ued8rir9c7-stroke" fill="none" stroke-linecap="round" stroke-linejoin="round" stroke-miterlimit="4" stroke="#F8E6B8" stroke-width="2"><g><path d="M 19.939999 17.812C 19.540798 19.855549 19.857189 21.974232 20.835999 23.812C 22.439747 22.182638 24.257759 20.779095 26.240002 19.639999C 25.032845 21.270926 25.032845 23.499073 26.24 25.129999C 28.41708 27.250711 30.953896 28.967428 33.732002 30.200001C 33.732002 30.200001 31.379999 32.599998 31.284 32.599998C 31.188 32.599998 25.666 32.152 23.813999 36.176003C 21.962 40.200001 28.698 44.316002 30.294001 44.576C 31.889999 44.835999 41.478001 46.428001 42.754002 38C 44.029999 29.572001 38.370003 27.4 38.370003 27.4C 38.370003 27.4 50.672001 28.209999 46.714001 40.253998C 52.335976 35.459915 54.102459 27.521749 51.043999 20.796001M 51.043999 20.782C 58.831985 30.20188 57.504211 44.152618 48.07906 51.934223C 38.653904 59.715824 24.704067 58.378601 16.928852 48.948177C 9.153636 39.517754 10.500312 25.568825 19.936001 17.799999M 52.551998 27.525999C 51.17205 24.838657 49.484032 22.321056 47.521996 20.023998C 44.372002 16.618 41.18 13.34 40.924 11C 40.924 11 34.158001 13.512 32.924 23.257999M 26.614 25.557999C 29.268435 23.58123 32.639549 22.829475 35.882355 23.491173C 39.125164 24.15287 41.932251 26.165287 43.600002 29.024M 34 30.302C 32.260384 31.234156 30.229189 31.462549 28.326 30.939999C 24.878309 29.228563 20.881535 28.998133 17.26 30.302C 17.26 30.302 17.875999 33.365997 22.368 33.622002C 22.09236 35.884567 22.761597 38.160698 24.218 39.914001"></path></g></g></g><g id="g-root-ic_mons_4j6j3wrj2j9k-stroke" data-item-order="0" transform="translate(308, 165)"><g id="ic_mons_4j6j3wrj2j9k-stroke" fill="none" stroke-linecap="round" stroke-linejoin="round" stroke-miterlimit="4" stroke="#d3d3d3" stroke-width="2"><g><path d="M 10 10M 22.742001 29L 17.742001 32C 17.204508 31.742271 16.794603 31.277468 16.606104 30.711967C 16.417603 30.146465 16.466644 29.528681 16.742001 29.000002L 18.742001 25L 14.742001 27C 14.742001 27 12.742001 26 14.742001 23C 15.627333 21.5844 16.630917 20.246288 17.742001 19L 13.182 19.76C 12.834141 19.81929 12.480785 19.690853 12.252188 19.422033C 12.023588 19.153214 11.953592 18.783813 12.068 18.450001C 12.891117 16.348356 14.602497 14.718994 16.742001 14C 19.114666 13.0082 21.537266 12.140363 24 11.4C 25.993679 10.670359 28.217958 10.959343 29.959002 12.17421C 31.700047 13.389077 32.738838 15.377001 32.742001 17.5L 30.742001 18L 32.742001 20L 30.742001 21.498001C 29.63743 22.326427 29.413572 23.893431 30.242001 24.998001C 31.070427 26.10257 32.637428 26.326427 33.742001 25.498001C 33.742001 25.498001 43.742001 20 46.742001 18C 49.742001 16 52.742001 16 54.742001 18C 55.681065 18.831955 56.133087 20.084049 55.942001 21.324001C 55.870861 21.729111 55.556183 22.047771 55.152 22.124001L 50.742001 23L 49.466 25.552C 49.320992 25.838051 49.047585 26.037197 48.730846 26.087481C 48.414108 26.137762 48.092468 26.033079 47.866001 25.806C 46.572609 24.341835 44.420143 24.005775 42.741997 25.005999C 39.577507 26.747534 36.566681 28.754751 33.741997 31.005999C 33.898819 32.377354 34.235027 33.722183 34.741997 35.005997C 35.742001 38.006001 37.742001 37.006001 40.742001 36.006001C 43.790386 35.157471 46.794178 34.156208 49.742001 33.006001C 50.944649 32.318031 52.064602 31.494673 53.080002 30.552C 53.374786 30.29163 53.794823 30.228237 54.153324 30.390015C 54.511822 30.55179 54.742195 30.908689 54.742001 31.302L 54.742001 36.279999C 54.741673 36.710239 54.466194 37.092045 54.057999 37.228001L 36.742001 43C 34.504128 43.936478 32.467159 45.294453 30.742001 47.000004L 24.742001 53L 26.542 55.400002C 26.769262 55.703018 26.805819 56.108429 26.636427 56.447212C 26.467035 56.785999 26.120771 57 25.742001 57L 22.742001 57C 20.742001 57 17.742001 53 17.742001 53C 17.742001 53 25.742001 44 26.742001 43C 27.742001 42 26.742001 39 26.742001 39ZM 22.742001 16L 25.742001 19M 22.742001 19L 25.742001 16M 40.742001 46L 40.742001 48M 51.742001 43L 51.742001 45M 16.742001 36C 15.874688 37.223202 15.200174 38.572227 14.742 40C 14.742001 41 16.742001 43 16.742001 43C 16.742001 43 18.742001 41 18.742001 40C 18.283825 38.572227 17.60931 37.223202 16.742001 36ZM 47.742001 48C 46.874687 49.223202 46.200172 50.572227 45.741997 52C 45.742001 53 47.742001 55 47.742001 55C 47.742001 55 49.742001 53 49.742001 52C 49.283825 50.572227 48.60931 49.223202 47.741997 48Z"></path></g></g></g><g id="g-root-ic_thre_zqadksrj2jgk-stroke" data-item-order="0" transform="translate(512, 165)"><g id="ic_thre_zqadksrj2jgk-stroke" fill="none" stroke-linecap="round" stroke-linejoin="round" stroke-miterlimit="4" stroke="#d3d3d3" stroke-width="2"><g><path d="M 56.987999 38.188L 50.150002 30.598L 44.779999 39.288002M 50.113998 30.694C 52.902294 41.306534 46.574139 52.173466 35.968002 54.986M 21.774 11.548L 17.959999 21.02L 28.122 22.032M 17.987999 21C 26.328289 13.838432 38.886597 14.757028 46.096001 23.056M 14.46 56.442001L 24.566 54.964001L 20.310001 45.675999M 24.425999 54.880001C 14.062613 51.302372 8.559357 40.003105 12.132 29.638"></path></g></g></g><g id="g-root-ic_hunt_1ha2s70rjcbnz-stroke" data-item-order="0" transform="translate(716, 165)"><g id="ic_hunt_1ha2s70rjcbnz-stroke" fill="none" stroke-linecap="round" stroke-linejoin="round" stroke-miterlimit="4" stroke="#d3d3d3" stroke-width="2"><g><path d="M 41.849998 52.869999C 41.596344 52.36417 41.138008 51.99136 40.591125 51.846035C 40.044239 51.700706 39.461292 51.796814 38.989998 52.110001L 36.709999 53.630001C 35.647102 54.338455 35.278355 55.727684 35.849998 56.869999M 22.4 42.130001C 24.300209 38.786705 27.198017 36.121059 30.688 34.506001C 18 29.516001 13.4 12.13 13.4 12.13C 13.4 12.13 32.400002 14.13 34.400002 22.130001C 35.183617 25.587456 36.343182 28.94879 37.858002 32.153999C 42.466976 31.334757 47.2173 32.027908 51.400002 34.130001C 53.531563 35.329586 54.719265 37.704994 54.399998 40.129997C 56.400002 41.129997 55.400002 45.130001 55.400002 45.130001C 52.217403 43.683083 48.853493 42.673912 45.399998 42.129997C 43.235798 41.758774 41.031937 41.676052 38.846001 41.883999C 37.668884 42.023544 36.61541 42.681015 35.972878 43.67712C 35.330341 44.673225 35.165756 45.904072 35.523998 47.034L 37.400002 53.130001C 33.186771 52.411488 29.517221 49.842804 27.4 46.129997C 27.4 46.130001 19.4 51.271999 18.4 51.130001C 11.4 50.130001 12.4 41.129997 12.4 41.129997ZM 45.400002 32.129997C 45.400002 32.129997 45.400002 25.130001 48.400002 22.130001C 51.339466 19.264164 52.81205 15.214567 52.400002 11.13C 52.400002 11.13 40.400002 11.13 38.400002 20.130001M 48.900002 38.129997C 48.623859 38.129997 48.400002 38.353859 48.400002 38.629997M 49.400002 38.629997C 49.400002 38.353859 49.176144 38.129997 48.900002 38.129997M 48.900002 39.129997C 49.176144 39.129997 49.400002 38.906143 49.400002 38.629997M 48.400002 38.629997C 48.400002 38.906143 48.623859 39.129997 48.900002 39.129997M 27.4 46.130001C 26.910782 45.188892 26.57329 44.176414 26.4 43.129997"></path></g></g></g><g id="g-root-ic_prox_qss18crjccng-stroke" data-item-order="0" transform="translate(920, 165)"><g id="ic_prox_qss18crjccng-stroke" fill="none" stroke-linecap="round" stroke-linejoin="round" stroke-miterlimit="4" stroke="#d3d3d3" stroke-width="2"><g><path d="M 40.580002 15L 34 22.220001L 27.42 15C 23.639999 10.84 19.619999 15.26 19.619999 15.26L 34 31L 48.380001 15.26C 48.380001 15.26 44.360001 10.84 40.580002 15ZM 40.580002 53L 34 45.779999L 27.42 53C 23.639999 57.16 19.619999 52.740002 19.619999 52.740002L 34 37L 48.380001 52.740002C 48.380001 52.740002 44.360001 57.16 40.580002 53ZM 20.119999 22.1C 16.26 18 11 22 11 22L 22 34L 11 46C 11 46 16.26 50 20.119999 46L 31 34ZM 47.880001 22.1C 51.740002 18 57 22 57 22L 46 34L 57 46C 57 46 51.740002 50 47.880001 45.860001L 37 34Z"></path></g></g></g><g id="g-root-tx_thephoen_zpnwhorir8jy-stroke" data-item-order="0" transform="translate(50, 327)"></g><g id="g-root-tx_thephoen_hun1h8rj2hok-stroke" data-item-order="0" transform="translate(254, 327)"></g><g id="g-root-tx_arrowsin_1d1qvy4rj2hvk-stroke" data-item-order="0" transform="translate(458, 327)"></g><g id="g-root-tx_thephoen_1uuwev0rjayob-stroke" data-item-order="0" transform="translate(662, 327)"></g><g id="g-root-tx_thephoen_1448jlorjcb2g-stroke" data-item-order="0" transform="translate(866, 327)"></g></g></g></svg>