<?xml version="1.0" encoding="utf-8" standalone="yes"?>
<!DOCTYPE svg PUBLIC "-//W3C//DTD SVG 1.1//EN" "http://www.w3.org/Graphics/SVG/1.1/DTD/svg11.dtd">
<svg width="608" height="672" viewBox="0 0 608 672" style="fill:none;stroke:none;fill-rule:evenodd;clip-rule:evenodd;stroke-linecap:round;stroke-linejoin:round;stroke-miterlimit:1.5;" version="1.1" xmlns="http://www.w3.org/2000/svg" xmlns:xlink="http://www.w3.org/1999/xlink"><style class="text-font-style fontImports" data-font-family="Roboto">@import url('https://fonts.googleapis.com/css2?family=Roboto:wght@400;700&amp;display=block');</style><g id="items" style="isolation: isolate"><g id="blend" style="mix-blend-mode: normal"><g id="g-root-cp_1_label-1_zn5tv0ukmsjs-fill" data-item-order="-322548" transform="translate(88, 122)"><g id="cp_1_label-1_zn5tv0ukmsjs-fill" stroke="none" fill="#E5A000"><g><path d="M 10 10L 142 10L 142 106L 10 106L 10 10Z"></path></g></g></g><g id="g-root-cp_1_left_zn5tv0ukmsju-fill" data-item-order="-322540" transform="translate(70, 122)"><g id="cp_1_left_zn5tv0ukmsju-fill" stroke="none" fill="#E5A000"><g><path d="M 28 10L 26 10C 17.1634 10 10 17.1634 10 26L 28 26L 28 10ZM 28 25.999996L 28 90L 10 90L 10 26L 28 25.999996ZM 28 106L 26 106C 17.1634 106 10 98.8366 10 90L 28 90L 28 106Z"></path></g></g></g><g id="g-root-cp_1_right_v7cbqkukmtc4-fill" data-item-order="-322526" transform="translate(220, 122)"><g id="cp_1_right_v7cbqkukmtc4-fill" stroke="none" fill="#E5A000"><g><path d="M 10 10L 12 10C 20.8366 10 28 17.1634 28 26L 10 26L 10 10ZM 10 90L 10 26L 28 26L 28 90L 10 90ZM 12 106L 10 106L 10 90L 28 90C 28 98.8366 20.8366 106 12 106Z"></path></g></g></g><g id="g-root-cp_2_label-2_v7cbqkukmtc6-fill" data-item-order="-322512" transform="translate(368, 122)"><g id="cp_2_label-2_v7cbqkukmtc6-fill" stroke="none" fill="#6b6b6b"><g><path d="M 10 10L 142 10L 142 106L 10 106L 10 10Z"></path></g></g></g><g id="g-root-cp_2_left_1_qritm4ukmu4g-fill" data-item-order="-322504" transform="translate(350, 122)"><g id="cp_2_left_1_qritm4ukmu4g-fill" stroke="none" fill="#6b6b6b"><g><path d="M 28 10L 26 10C 17.1634 10 10 17.1634 10 26L 28 26L 28 10ZM 28 25.999996L 28 90L 10 90L 10 26L 28 25.999996ZM 28 106L 26 106C 17.1634 106 10 98.8366 10 90L 28 90L 28 106Z"></path></g></g></g><g id="g-root-cp_2_right_1_qritm4ukmu4i-fill" data-item-order="-322490" transform="translate(500, 122)"><g id="cp_2_right_1_qritm4ukmu4i-fill" stroke="none" fill="#6b6b6b"><g><path d="M 10 10L 12 10C 20.8366 10 28 17.1634 28 26L 10 26L 10 10ZM 10 90L 10 26L 28 26L 28 90L 10 90ZM 12 106L 10 106L 10 90L 28 90C 28 98.8366 20.8366 106 12 106Z"></path></g></g></g><g id="g-root-cp_1_lines_hwiagcukmrrg-fill" data-item-order="-322472" transform="translate(38, 194)"><g id="cp_1_lines_hwiagcukmrrg-fill" stroke="none" fill="#E5A000"><g><path d="M 242 35L 242 58L 10 58L 10 35L 242 35ZM 10 35L 10 26C 10 17.1633 17.1631 10 26 10L 41 10L 41 18C 41 28 49.1631 35 58 35L 60 35L 10 35ZM 242 35L 242 26C 242 17.1633 234.8369 10 226 10L 211 10L 211 18C 211 28 202.8369 35 194 35L 192 35L 242 35ZM 10 58L 242 58L 242 130L 10 130L 10 58ZM 10 130L 242 130L 242 132C 242 140.8366 234.8366 148 226 148L 26 148C 17.1634 148 10 140.8366 10 132L 10 130Z"></path></g></g></g><g id="g-root-cp_2_lines_1_hwiagcukmrri-fill" data-item-order="-322442" transform="translate(318, 194)"><g id="cp_2_lines_1_hwiagcukmrri-fill" stroke="none" fill="#6b6b6b"><g><path d="M 242 35L 242 58L 10 58L 10 35L 242 35ZM 10 35L 10 26C 10 17.1633 17.1631 10 26 10L 41 10L 41 18C 41 28 49.1631 35 58 35L 60 35L 10 35ZM 242 35L 242 26C 242 17.1633 234.8369 10 226 10L 211 10L 211 18C 211 28 202.8369 35 194 35L 192 35L 242 35ZM 10 58L 242 58L 242 130L 10 130L 10 58ZM 10 130L 242 130L 242 132C 242 140.8366 234.8366 148 226 148L 26 148C 17.1634 148 10 140.8366 10 132L 10 130Z"></path></g></g></g><g id="g-root-sy_2_Vector_dgosbwukmsjs-fill" data-item-order="-322417" transform="translate(434, 333)"></g><g id="g-root-sy_-1_Vector_58_dgosbwukmsjt-fill" data-item-order="-322409" transform="translate(271, 272)"></g><g id="g-root-cp_4_label-4_dgosbwukmsju-fill" data-item-order="-322404" transform="translate(88, 380)"><g id="cp_4_label-4_dgosbwukmsju-fill" stroke="none" fill="#6b6b6b"><g><path d="M 10 10L 142 10L 142 106L 10 106L 10 10Z"></path></g></g></g><g id="g-root-cp_4_left_2_90va7gukmtc4-fill" data-item-order="-322396" transform="translate(70, 380)"><g id="cp_4_left_2_90va7gukmtc4-fill" stroke="none" fill="#6b6b6b"><g><path d="M 28 10L 26 10C 17.1634 10 10 17.1634 10 26L 28 26L 28 10ZM 28 25.999996L 28 90L 10 90L 10 26L 28 25.999996ZM 28 106L 26 106C 17.1634 106 10 98.8366 10 90L 28 90L 28 106Z"></path></g></g></g><g id="g-root-cp_4_right_2_90va7gukmtc6-fill" data-item-order="-322382" transform="translate(220, 380)"><g id="cp_4_right_2_90va7gukmtc6-fill" stroke="none" fill="#6b6b6b"><g><path d="M 10 10L 12 10C 20.8366 10 28 17.1634 28 26L 10 26L 10 10ZM 10 90L 10 26L 28 26L 28 90L 10 90ZM 12 106L 10 106L 10 90L 28 90C 28 98.8366 20.8366 106 12 106Z"></path></g></g></g><g id="g-root-cp_3_label-3_4l1s30ukmu4g-fill" data-item-order="-322368" transform="translate(368, 380)"><g id="cp_3_label-3_4l1s30ukmu4g-fill" stroke="none" fill="#6b6b6b"><g><path d="M 10 10L 142 10L 142 106L 10 106L 10 10Z"></path></g></g></g><g id="g-root-cp_3_left_3_4l1s30ukmu4i-fill" data-item-order="-322360" transform="translate(350, 380)"><g id="cp_3_left_3_4l1s30ukmu4i-fill" stroke="none" fill="#6b6b6b"><g><path d="M 28 10L 26 10C 17.1634 10 10 17.1634 10 26L 28 26L 28 10ZM 28 25.999996L 28 90L 10 90L 10 26L 28 25.999996ZM 28 106L 26 106C 17.1634 106 10 98.8366 10 90L 28 90L 28 106Z"></path></g></g></g><g id="g-root-cp_3_right_3_1ur5awcukmrkc-fill" data-item-order="-322346" transform="translate(500, 380)"><g id="cp_3_right_3_1ur5awcukmrkc-fill" stroke="none" fill="#6b6b6b"><g><path d="M 10 10L 12 10C 20.8366 10 28 17.1634 28 26L 10 26L 10 10ZM 10 90L 10 26L 28 26L 28 90L 10 90ZM 12 106L 10 106L 10 90L 28 90C 28 98.8366 20.8366 106 12 106Z"></path></g></g></g><g id="g-root-cp_4_lines_2_1ur5awcukmrke-fill" data-item-order="-322328" transform="translate(38, 452)"><g id="cp_4_lines_2_1ur5awcukmrke-fill" stroke="none" fill="#6b6b6b"><g><path d="M 242 35L 242 58L 10 58L 10 35L 242 35ZM 10 35L 10 26C 10 17.1633 17.1631 10 26 10L 41 10L 41 18C 41 28 49.1631 35 58 35L 60 35L 10 35ZM 242 35L 242 26C 242 17.1633 234.8369 10 226 10L 211 10L 211 18C 211 28 202.8369 35 194 35L 192 35L 242 35ZM 10 58L 242 58L 242 130L 10 130L 10 58ZM 10 130L 242 130L 242 132C 242 140.8366 234.8366 148 226 148L 26 148C 17.1634 148 10 140.8366 10 132L 10 130Z"></path></g></g></g><g id="g-root-cp_3_lines_3_1qbbsrwukmsco-fill" data-item-order="-322300" transform="translate(318, 452)"><g id="cp_3_lines_3_1qbbsrwukmsco-fill" stroke="none" fill="#6b6b6b"><g><path d="M 242 35L 242 58L 10 58L 10 35L 242 35ZM 10 35L 10 26C 10 17.1633 17.1631 10 26 10L 41 10L 41 18C 41 28 49.1631 35 58 35L 60 35L 10 35ZM 242 35L 242 26C 242 17.1633 234.8369 10 226 10L 211 10L 211 18C 211 28 202.8369 35 194 35L 192 35L 242 35ZM 10 58L 242 58L 242 130L 10 130L 10 58ZM 10 130L 242 130L 242 132C 242 140.8366 234.8366 148 226 148L 26 148C 17.1634 148 10 140.8366 10 132L 10 130Z"></path></g></g></g><g id="g-root-sy_4_Vector_58_1qbbsrwukmscq-fill" data-item-order="-322271" transform="translate(275, 530)"></g><g id="g-root-tx_atableof_zp194cukmscv-fill" data-item-order="0" transform="translate(344, 242)"><g id="tx_atableof_zp194cukmscv-fill" stroke="none" fill="#f4f4f4"><g><text style="font: 15px Roboto, sans-serif; white-space: pre;" font-size="15px" font-family="Roboto, sans-serif"><tspan x="17.05" y="27.28" dominant-baseline="ideographic">A table of pre-calculated </tspan><tspan x="40.16" y="45.27" dominant-baseline="ideographic">values is created.</tspan></text></g></g></g><g id="g-root-tx_thesmart_18ko9d8ukmrk6-fill" data-item-order="0" transform="translate(76, 242)"><g id="tx_thesmart_18ko9d8ukmrk6-fill" stroke="none" fill="#F8E6B8"><g><text style="font: 15px Roboto, sans-serif; white-space: pre;" font-size="15px" font-family="Roboto, sans-serif"><tspan x="14.92" y="30.28" dominant-baseline="ideographic">The smart contract is </tspan><tspan x="33.26" y="48.27" dominant-baseline="ideographic">deployed on the </tspan><tspan x="48.09" y="66.27" dominant-baseline="ideographic">blockchain.</tspan></text></g></g></g><g id="g-root-tx_precalcu_1czvaekukmtxp-fill" data-item-order="0" transform="translate(374, 134)"><g id="tx_precalcu_1czvaekukmtxp-fill" stroke="none" fill="#f4f4f4"><g><text style="font: bold 20px Roboto, sans-serif; white-space: pre;" font-weight="bold" font-size="20px" font-family="Roboto, sans-serif"><tspan x="50.64" y="33.63" dominant-baseline="ideographic">Pre-</tspan><tspan x="23.57" y="57.64" dominant-baseline="ideographic">calculated </tspan><tspan x="12.84" y="81.64" dominant-baseline="ideographic">Values Table</tspan></text></g></g></g><g id="g-root-tx_contract_1lviangukmt50-fill" data-item-order="0" transform="translate(94, 146)"><g id="tx_contract_1lviangukmt50-fill" stroke="none" fill="#F8E6B8"><g><text style="font: bold 20px Roboto, sans-serif; white-space: pre;" font-weight="bold" font-size="20px" font-family="Roboto, sans-serif"><tspan x="31.37" y="33.63" dominant-baseline="ideographic">Contract </tspan><tspan x="16.17" y="57.64" dominant-baseline="ideographic">Deployment</tspan></text></g></g></g><g id="g-root-tx_simplelo_v97qzwukmt54-fill" data-item-order="0" transform="translate(106, 392)"><g id="tx_simplelo_v97qzwukmt54-fill" stroke="none" fill="#f4f4f4"><g><text style="font: bold 20px Roboto, sans-serif; white-space: pre;" font-weight="bold" font-size="20px" font-family="Roboto, sans-serif"><tspan x="26.86" y="33.63" dominant-baseline="ideographic">Simple </tspan><tspan x="24.73" y="57.64" dominant-baseline="ideographic">Lookup </tspan><tspan x="13.94" y="81.64" dominant-baseline="ideographic">Operation</tspan></text></g></g></g><g id="g-root-tx_orderpro_qte8vgukmtxd-fill" data-item-order="0" transform="translate(380, 404)"><g id="tx_orderpro_qte8vgukmtxd-fill" stroke="none" fill="#f4f4f4"><g><text style="font: bold 20px Roboto, sans-serif; white-space: pre;" font-weight="bold" font-size="20px" font-family="Roboto, sans-serif"><tspan x="38.84" y="33.63" dominant-baseline="ideographic">Order </tspan><tspan x="13.55" y="57.64" dominant-baseline="ideographic">Processing</tspan></text></g></g></g><g id="g-root-tx_asimplel_hydppoukmrka-fill" data-item-order="0" transform="translate(58, 500)"><g id="tx_asimplel_hydppoukmrka-fill" stroke="none" fill="#f4f4f4"><g><text style="font: 15px Roboto, sans-serif; white-space: pre;" font-size="15px" font-family="Roboto, sans-serif"><tspan x="17.53" y="30.28" dominant-baseline="ideographic">A simple lookup operation </tspan><tspan x="27.55" y="48.27" dominant-baseline="ideographic">retrieves the necessary </tspan><tspan x="81.01" y="66.27" dominant-baseline="ideographic">values.</tspan></text></g></g></g><g id="g-root-tx_ordersar_dik7l8ukmscj-fill" data-item-order="0" transform="translate(350, 500)"><g id="tx_ordersar_dik7l8ukmscj-fill" stroke="none" fill="#f4f4f4"><g><text style="font: 15px Roboto, sans-serif; white-space: pre;" font-size="15px" font-family="Roboto, sans-serif"><tspan x="20.83" y="30.28" dominant-baseline="ideographic">Orders are processed </tspan><tspan x="12.49" y="48.27" dominant-baseline="ideographic">using the pre-calculated </tspan><tspan x="68.69" y="66.27" dominant-baseline="ideographic">values.</tspan></text></g></g></g><g id="g-root-tx_precalcu_1lviangukmt4z-fill" data-item-order="0" transform="translate(114, 38)"><g id="tx_precalcu_1lviangukmt4z-fill" stroke="none" fill="#f4f4f4"><g><text style="font: bold 25px Roboto, sans-serif; white-space: pre;" font-weight="bold" font-size="25px" font-family="Roboto, sans-serif"><tspan x="12.45" y="43" dominant-baseline="ideographic">Pre-Calculation Engine Process</tspan></text></g></g></g><g id="g-root-cp_1_label-1_zn5tv0ukmsjs-stroke" data-item-order="-322548" transform="translate(88, 122)"><g id="cp_1_label-1_zn5tv0ukmsjs-stroke" fill="none" stroke-linecap="round" stroke-linejoin="round" stroke-miterlimit="4" stroke="#F8E6B8" stroke-width="2"><g><path d="M 10 10L 142 10M 142 106L 10 106"></path></g></g></g><g id="g-root-cp_1_left_zn5tv0ukmsju-stroke" data-item-order="-322540" transform="translate(70, 122)"><g id="cp_1_left_zn5tv0ukmsju-stroke" fill="none" stroke-linecap="round" stroke-linejoin="round" stroke-miterlimit="4" stroke="#F8E6B8" stroke-width="2"><g><path d="M 28 10L 26 10C 17.1634 10 10 17.1634 10 26M 28 106L 26 106C 17.1634 106 10 98.8366 10 90M 10 90L 10 26"></path></g></g></g><g id="g-root-cp_1_right_v7cbqkukmtc4-stroke" data-item-order="-322526" transform="translate(220, 122)"><g id="cp_1_right_v7cbqkukmtc4-stroke" fill="none" stroke-linecap="round" stroke-linejoin="round" stroke-miterlimit="4" stroke="#F8E6B8" stroke-width="2"><g><path d="M 10 10L 12 10C 20.8366 10 28 17.1634 28 26M 10 106L 12 106C 20.8366 106 28 98.8366 28 90M 28 90L 28 26"></path></g></g></g><g id="g-root-cp_2_label-2_v7cbqkukmtc6-stroke" data-item-order="-322512" transform="translate(368, 122)"><g id="cp_2_label-2_v7cbqkukmtc6-stroke" fill="none" stroke-linecap="round" stroke-linejoin="round" stroke-miterlimit="4" stroke="#d3d3d3" stroke-width="2"><g><path d="M 10 10L 142 10M 142 106L 10 106"></path></g></g></g><g id="g-root-cp_2_left_1_qritm4ukmu4g-stroke" data-item-order="-322504" transform="translate(350, 122)"><g id="cp_2_left_1_qritm4ukmu4g-stroke" fill="none" stroke-linecap="round" stroke-linejoin="round" stroke-miterlimit="4" stroke="#d3d3d3" stroke-width="2"><g><path d="M 28 10L 26 10C 17.1634 10 10 17.1634 10 26M 28 106L 26 106C 17.1634 106 10 98.8366 10 90M 10 90L 10 26"></path></g></g></g><g id="g-root-cp_2_right_1_qritm4ukmu4i-stroke" data-item-order="-322490" transform="translate(500, 122)"><g id="cp_2_right_1_qritm4ukmu4i-stroke" fill="none" stroke-linecap="round" stroke-linejoin="round" stroke-miterlimit="4" stroke="#d3d3d3" stroke-width="2"><g><path d="M 10 10L 12 10C 20.8366 10 28 17.1634 28 26M 10 106L 12 106C 20.8366 106 28 98.8366 28 90M 28 90L 28 26"></path></g></g></g><g id="g-root-cp_1_lines_hwiagcukmrrg-stroke" data-item-order="-322472" transform="translate(38, 194)"><g id="cp_1_lines_hwiagcukmrrg-stroke" fill="none" stroke-linecap="round" stroke-linejoin="round" stroke-miterlimit="4" stroke="#F8E6B8" stroke-width="2"><g><path d="M 242 46L 242 130M 10 130L 10 46M 242 130L 242 132C 242 140.8366 234.8366 148 226 148L 26 148C 17.1634 148 10 140.8366 10 132L 10 130M 10 46L 10 26C 10 17.1634 17.1634 10 26 10L 42 10M 242 46L 242 26C 242 17.1634 234.8366 10 226 10L 210 10"></path></g></g></g><g id="g-root-cp_2_lines_1_hwiagcukmrri-stroke" data-item-order="-322442" transform="translate(318, 194)"><g id="cp_2_lines_1_hwiagcukmrri-stroke" fill="none" stroke-linecap="round" stroke-linejoin="round" stroke-miterlimit="4" stroke="#d3d3d3" stroke-width="2"><g><path d="M 242 46L 242 130M 10 130L 10 46M 242 130L 242 132C 242 140.8366 234.8366 148 226 148L 26 148C 17.1634 148 10 140.8366 10 132L 10 130M 10 46L 10 26C 10 17.1634 17.1634 10 26 10L 42 10M 242 46L 242 26C 242 17.1634 234.8366 10 226 10L 210 10"></path></g></g></g><g id="g-root-sy_2_Vector_dgosbwukmsjs-stroke" data-item-order="-322417" transform="translate(434, 333)"><g id="sy_2_Vector_dgosbwukmsjs-stroke" fill="none" stroke-linecap="round" stroke-linejoin="round" stroke-miterlimit="4" stroke="#d3d3d3" stroke-width="2"><g><path d="M 10 50L 10 10"></path><path d="M 3.5 44L 10 50.5L 16.5 44" stroke-dasharray="none"></path></g></g></g><g id="g-root-sy_-1_Vector_58_dgosbwukmsjt-stroke" data-item-order="-322409" transform="translate(271, 272)"><g id="sy_-1_Vector_58_dgosbwukmsjt-stroke" fill="none" stroke-linecap="round" stroke-linejoin="round" stroke-miterlimit="4" stroke="#d3d3d3" stroke-width="2"><g><path d="M 50 10L 10 10"></path><path d="M 44 16.5L 50.5 10L 44 3.5" stroke-dasharray="none"></path></g></g></g><g id="g-root-cp_4_label-4_dgosbwukmsju-stroke" data-item-order="-322404" transform="translate(88, 380)"><g id="cp_4_label-4_dgosbwukmsju-stroke" fill="none" stroke-linecap="round" stroke-linejoin="round" stroke-miterlimit="4" stroke="#d3d3d3" stroke-width="2"><g><path d="M 10 10L 142 10M 142 106L 10 106"></path></g></g></g><g id="g-root-cp_4_left_2_90va7gukmtc4-stroke" data-item-order="-322396" transform="translate(70, 380)"><g id="cp_4_left_2_90va7gukmtc4-stroke" fill="none" stroke-linecap="round" stroke-linejoin="round" stroke-miterlimit="4" stroke="#d3d3d3" stroke-width="2"><g><path d="M 28 10L 26 10C 17.1634 10 10 17.1634 10 26M 28 106L 26 106C 17.1634 106 10 98.8366 10 90M 10 90L 10 26"></path></g></g></g><g id="g-root-cp_4_right_2_90va7gukmtc6-stroke" data-item-order="-322382" transform="translate(220, 380)"><g id="cp_4_right_2_90va7gukmtc6-stroke" fill="none" stroke-linecap="round" stroke-linejoin="round" stroke-miterlimit="4" stroke="#d3d3d3" stroke-width="2"><g><path d="M 10 10L 12 10C 20.8366 10 28 17.1634 28 26M 10 106L 12 106C 20.8366 106 28 98.8366 28 90M 28 90L 28 26"></path></g></g></g><g id="g-root-cp_3_label-3_4l1s30ukmu4g-stroke" data-item-order="-322368" transform="translate(368, 380)"><g id="cp_3_label-3_4l1s30ukmu4g-stroke" fill="none" stroke-linecap="round" stroke-linejoin="round" stroke-miterlimit="4" stroke="#d3d3d3" stroke-width="2"><g><path d="M 10 10L 142 10M 142 106L 10 106"></path></g></g></g><g id="g-root-cp_3_left_3_4l1s30ukmu4i-stroke" data-item-order="-322360" transform="translate(350, 380)"><g id="cp_3_left_3_4l1s30ukmu4i-stroke" fill="none" stroke-linecap="round" stroke-linejoin="round" stroke-miterlimit="4" stroke="#d3d3d3" stroke-width="2"><g><path d="M 28 10L 26 10C 17.1634 10 10 17.1634 10 26M 28 106L 26 106C 17.1634 106 10 98.8366 10 90M 10 90L 10 26"></path></g></g></g><g id="g-root-cp_3_right_3_1ur5awcukmrkc-stroke" data-item-order="-322346" transform="translate(500, 380)"><g id="cp_3_right_3_1ur5awcukmrkc-stroke" fill="none" stroke-linecap="round" stroke-linejoin="round" stroke-miterlimit="4" stroke="#d3d3d3" stroke-width="2"><g><path d="M 10 10L 12 10C 20.8366 10 28 17.1634 28 26M 10 106L 12 106C 20.8366 106 28 98.8366 28 90M 28 90L 28 26"></path></g></g></g><g id="g-root-cp_4_lines_2_1ur5awcukmrke-stroke" data-item-order="-322328" transform="translate(38, 452)"><g id="cp_4_lines_2_1ur5awcukmrke-stroke" fill="none" stroke-linecap="round" stroke-linejoin="round" stroke-miterlimit="4" stroke="#d3d3d3" stroke-width="2"><g><path d="M 242 46L 242 130M 10 130L 10 46M 242 130L 242 132C 242 140.8366 234.8366 148 226 148L 26 148C 17.1634 148 10 140.8366 10 132L 10 130M 10 46L 10 26C 10 17.1634 17.1634 10 26 10L 42 10M 242 46L 242 26C 242 17.1634 234.8366 10 226 10L 210 10"></path></g></g></g><g id="g-root-cp_3_lines_3_1qbbsrwukmsco-stroke" data-item-order="-322300" transform="translate(318, 452)"><g id="cp_3_lines_3_1qbbsrwukmsco-stroke" fill="none" stroke-linecap="round" stroke-linejoin="round" stroke-miterlimit="4" stroke="#d3d3d3" stroke-width="2"><g><path d="M 242 46L 242 130M 10 130L 10 46M 242 130L 242 132C 242 140.8366 234.8366 148 226 148L 26 148C 17.1634 148 10 140.8366 10 132L 10 130M 10 46L 10 26C 10 17.1634 17.1634 10 26 10L 42 10M 242 46L 242 26C 242 17.1634 234.8366 10 226 10L 210 10"></path></g></g></g><g id="g-root-sy_4_Vector_58_1qbbsrwukmscq-stroke" data-item-order="-322271" transform="translate(275, 530)"><g id="sy_4_Vector_58_1qbbsrwukmscq-stroke" fill="none" stroke-linecap="round" stroke-linejoin="round" stroke-miterlimit="4" stroke="#d3d3d3" stroke-width="2"><g><path d="M 12 10L 52 10"></path><path d="M 18 3.5L 11.5 10L 18 16.5" stroke-dasharray="none"></path></g></g></g><g id="g-root-tx_atableof_zp194cukmscv-stroke" data-item-order="0" transform="translate(344, 242)"></g><g id="g-root-tx_thesmart_18ko9d8ukmrk6-stroke" data-item-order="0" transform="translate(76, 242)"></g><g id="g-root-tx_precalcu_1czvaekukmtxp-stroke" data-item-order="0" transform="translate(374, 134)"></g><g id="g-root-tx_contract_1lviangukmt50-stroke" data-item-order="0" transform="translate(94, 146)"></g><g id="g-root-tx_simplelo_v97qzwukmt54-stroke" data-item-order="0" transform="translate(106, 392)"></g><g id="g-root-tx_orderpro_qte8vgukmtxd-stroke" data-item-order="0" transform="translate(380, 404)"></g><g id="g-root-tx_asimplel_hydppoukmrka-stroke" data-item-order="0" transform="translate(58, 500)"></g><g id="g-root-tx_ordersar_dik7l8ukmscj-stroke" data-item-order="0" transform="translate(350, 500)"></g><g id="g-root-tx_precalcu_1lviangukmt4z-stroke" data-item-order="0" transform="translate(114, 38)"></g></g></g></svg>