<?xml version="1.0" encoding="utf-8" standalone="yes"?>
<!DOCTYPE svg PUBLIC "-//W3C//DTD SVG 1.1//EN" "http://www.w3.org/Graphics/SVG/1.1/DTD/svg11.dtd">
<svg width="936" height="612" viewBox="0 0 936 612" style="fill:none;stroke:none;fill-rule:evenodd;clip-rule:evenodd;stroke-linecap:round;stroke-linejoin:round;stroke-miterlimit:1.5;" version="1.1" xmlns="http://www.w3.org/2000/svg" xmlns:xlink="http://www.w3.org/1999/xlink"><style class="text-font-style fontImports" data-font-family="Roboto">@import url('https://fonts.googleapis.com/css2?family=Roboto:wght@400;700&amp;display=block');</style><g id="items" style="isolation: isolate"><g id="blend" style="mix-blend-mode: normal"><g id="g-root-cp_0_g-0_qvwxnwt6ug3x-fill" data-item-order="-458199" transform="translate(77, 122)"></g><g id="g-root-cp_4_g-4_qvwxnwt6ug3z-fill" data-item-order="-458196" transform="translate(481.8699951171875, 350)"><g id="cp_4_g-4_qvwxnwt6ug3z-fill" stroke="none" fill="#6b6b6b"><g><path d="M 55.031099 82L 96.601099 82L 117.381099 46L 96.601099 10L 55.031099 10L 34.251099 46L 55.031099 82ZM 217.952099 79L 207.582099 79L 202.392099 87.98L 207.582099 96.96L 217.952099 96.96L 223.132099 87.98L 217.952099 79Z"></path></g></g></g><g id="g-root-cp_3_g-3_mg3fjgt6ugw9-fill" data-item-order="-458190" transform="translate(206, 350)"><g id="cp_3_g-3_mg3fjgt6ugw9-fill" stroke="none" fill="#6b6b6b"><g><path d="M 193.099719 82L 151.529719 82L 130.749719 46L 151.529719 10L 193.099719 10L 213.879719 46L 193.099719 82ZM 40.821719 79L 30.451719 79L 25.261719 87.98L 30.451719 96.96L 40.821719 96.96L 46.001719 87.98L 40.821719 79Z"></path></g></g></g><g id="g-root-cp_2_g-2_mg3fjgt6ugwb-fill" data-item-order="-458184" transform="translate(481.8699951171875, 146)"><g id="cp_2_g-2_mg3fjgt6ugwb-fill" stroke="none" fill="#6b6b6b"><g><path d="M 55.031099 94L 96.601099 94L 117.381099 130L 96.601099 166L 55.031099 166L 34.251099 130L 55.031099 94ZM 217.952099 79L 207.582099 79L 202.392099 87.98L 207.582099 96.96L 217.952099 96.96L 223.132099 87.98L 217.952099 79Z"></path></g></g></g><g id="g-root-cp_1_g-1_i09xf0t6uhol-fill" data-item-order="-458178" transform="translate(206, 146)"><g id="cp_1_g-1_i09xf0t6uhol-fill" stroke="none" fill="#E5A000"><g><path d="M 193.099719 94L 151.529719 94L 130.749719 130L 151.529719 166L 193.099719 166L 213.879719 130L 193.099719 94ZM 40.821719 79L 30.451719 79L 25.261719 87.98L 30.451719 96.96L 40.821719 96.96L 46.001719 87.98L 40.821719 79Z"></path></g></g></g><g id="g-root-ic_2_9me0ct6ugw2-fill" data-item-order="0" transform="translate(578, 434)"></g><g id="g-root-tx_cleanlay_8x5bakt6t2x3-fill" data-item-order="0" transform="translate(734, 134)"><g id="tx_cleanlay_8x5bakt6t2x3-fill" stroke="none" fill="#f4f4f4"><g><text style="font: bold 20px Roboto, sans-serif; white-space: pre;" font-weight="bold" font-size="20px" font-family="Roboto, sans-serif"><tspan x="12" y="33.64" dominant-baseline="ideographic">Clean Layout</tspan></text></g></g></g><g id="g-root-ic_sear_1cy0twst71fyl-fill" data-item-order="0" transform="translate(290, 170)"></g><g id="g-root-ic_boar_1q7ltv0t6t1xe-fill" data-item-order="0" transform="translate(578, 170)"></g><g id="g-root-tx_useaclea_1unfbzgt6t154-fill" data-item-order="0" transform="translate(734, 170)"><g id="tx_useaclea_1unfbzgt6t154-fill" stroke="none" fill="#f4f4f4"><g><text style="font: 15px Roboto, sans-serif; white-space: pre;" font-size="15px" font-family="Roboto, sans-serif"><tspan x="12" y="27.28" dominant-baseline="ideographic">Use a clean code </tspan><tspan x="12" y="45.28" dominant-baseline="ideographic">layout with function </tspan><tspan x="12" y="63.28" dominant-baseline="ideographic">descriptions and </tspan><tspan x="12" y="81.27" dominant-baseline="ideographic">return value </tspan><tspan x="12" y="99.27" dominant-baseline="ideographic">explanations. This </tspan><tspan x="12" y="117.27" dominant-baseline="ideographic">improves code </tspan><tspan x="12" y="135.27" dominant-baseline="ideographic">clarity and </tspan><tspan x="12" y="153.26" dominant-baseline="ideographic">maintainability.</tspan></text></g></g></g><g id="g-root-tx_displays_1lt1d2kt71ibo-fill" data-item-order="0" transform="translate(38, 188)"><g id="tx_displays_1lt1d2kt71ibo-fill" stroke="none" fill="#F8E6B8"><g><text style="font: 15px Roboto, sans-serif; white-space: pre;" font-size="15px" font-family="Roboto, sans-serif"><tspan x="50.95" y="30.28" dominant-baseline="ideographic">Display Solidity </tspan><tspan x="23.19" y="48.28" dominant-baseline="ideographic">function signatures </tspan><tspan x="28.78" y="66.28" dominant-baseline="ideographic">with labeled return </tspan><tspan x="39.68" y="84.27" dominant-baseline="ideographic">parameters. This </tspan><tspan x="50.96" y="102.27" dominant-baseline="ideographic">enhances code </tspan><tspan x="54.33" y="120.27" dominant-baseline="ideographic">readability and </tspan><tspan x="52.09" y="138.26" dominant-baseline="ideographic">understanding.</tspan></text></g></g></g><g id="g-root-tx_1_909rvwt75n9c-fill" data-item-order="0" transform="translate(356, 248)"><g id="tx_1_909rvwt75n9c-fill" stroke="none" fill="#F8E6B8"><g><text style="font: bold 25px Roboto, sans-serif; white-space: pre;" font-weight="bold" font-size="25px" font-family="Roboto, sans-serif"><tspan x="14.83" y="43" dominant-baseline="ideographic">1</tspan></text></g></g></g><g id="g-root-tx_2_hu1cvgt71hqd-fill" data-item-order="0" transform="translate(536, 248)"><g id="tx_2_hu1cvgt71hqd-fill" stroke="none" fill="#f4f4f4"><g><text style="font: bold 25px Roboto, sans-serif; white-space: pre;" font-weight="bold" font-size="25px" font-family="Roboto, sans-serif"><tspan x="14.83" y="43" dominant-baseline="ideographic">2</tspan></text></g></g></g><g id="g-root-tx_syntaxhi_mcz23wt6vvgq-fill" data-item-order="0" transform="translate(62, 344)"><g id="tx_syntaxhi_mcz23wt6vvgq-fill" stroke="none" fill="#f4f4f4"><g><text style="font: bold 20px Roboto, sans-serif; white-space: pre;" font-weight="bold" font-size="20px" font-family="Roboto, sans-serif"><tspan x="66.75" y="33.63" dominant-baseline="ideographic">Syntax </tspan><tspan x="18.04" y="57.64" dominant-baseline="ideographic">Highlighting</tspan></text></g></g></g><g id="g-root-tx_logicalo_4pfw4st6ug3s-fill" data-item-order="0" transform="translate(734, 332)"><g id="tx_logicalo_4pfw4st6ug3s-fill" stroke="none" fill="#f4f4f4"><g><text style="font: bold 20px Roboto, sans-serif; white-space: pre;" font-weight="bold" font-size="20px" font-family="Roboto, sans-serif"><tspan x="12" y="33.63" dominant-baseline="ideographic">Logical </tspan><tspan x="12" y="57.64" dominant-baseline="ideographic">Organization</tspan></text></g></g></g><g id="g-root-tx_function_1q8uv70t71hje-fill" data-item-order="0" transform="translate(74, 128)"><g id="tx_function_1q8uv70t71hje-fill" stroke="none" fill="#F8E6B8"><g><text style="font: bold 20px Roboto, sans-serif; white-space: pre;" font-weight="bold" font-size="20px" font-family="Roboto, sans-serif"><tspan x="37.83" y="33.63" dominant-baseline="ideographic">Function </tspan><tspan x="18.87" y="57.64" dominant-baseline="ideographic">Signatures</tspan></text></g></g></g><g id="g-root-tx_solidity_i09xf0t6uhon-fill" data-item-order="0" transform="translate(320, 38)"><g id="tx_solidity_i09xf0t6uhon-fill" stroke="none" fill="#f4f4f4"><g><text style="font: bold 25px Roboto, sans-serif; white-space: pre;" font-weight="bold" font-size="25px" font-family="Roboto, sans-serif"><tspan x="12.96" y="43" dominant-baseline="ideographic">Solidity function display</tspan></text></g></g></g><g id="g-root-tx_3_9250tot6vtvw-fill" data-item-order="0" transform="translate(356, 368)"><g id="tx_3_9250tot6vtvw-fill" stroke="none" fill="#f4f4f4"><g><text style="font: bold 25px Roboto, sans-serif; white-space: pre;" font-weight="bold" font-size="25px" font-family="Roboto, sans-serif"><tspan x="14.83" y="43" dominant-baseline="ideographic">3</tspan></text></g></g></g><g id="g-root-tx_4_v8m2cst6vuo1-fill" data-item-order="0" transform="translate(536, 368)"><g id="tx_4_v8m2cst6vuo1-fill" stroke="none" fill="#f4f4f4"><g><text style="font: bold 25px Roboto, sans-serif; white-space: pre;" font-weight="bold" font-size="25px" font-family="Roboto, sans-serif"><tspan x="14.83" y="43" dominant-baseline="ideographic">4</tspan></text></g></g></g><g id="g-root-tx_applysyn_hx5jzgt6vw8z-fill" data-item-order="0" transform="translate(38, 404)"><g id="tx_applysyn_hx5jzgt6vw8z-fill" stroke="none" fill="#f4f4f4"><g><text style="font: 15px Roboto, sans-serif; white-space: pre;" font-size="15px" font-family="Roboto, sans-serif"><tspan x="67.27" y="27.28" dominant-baseline="ideographic">Apply syntax </tspan><tspan x="32.28" y="45.28" dominant-baseline="ideographic">highlighting to the </tspan><tspan x="20.31" y="63.28" dominant-baseline="ideographic">code interface. This </tspan><tspan x="46.15" y="81.27" dominant-baseline="ideographic">makes the code </tspan><tspan x="32.55" y="99.27" dominant-baseline="ideographic">easier to read and </tspan><tspan x="72.44" y="117.27" dominant-baseline="ideographic">understand.</tspan></text></g></g></g><g id="g-root-tx_organize_4pfw4st6ug3t-fill" data-item-order="0" transform="translate(734, 392)"><g id="tx_organize_4pfw4st6ug3t-fill" stroke="none" fill="#f4f4f4"><g><text style="font: 15px Roboto, sans-serif; white-space: pre;" font-size="15px" font-family="Roboto, sans-serif"><tspan x="12" y="30.28" dominant-baseline="ideographic">Organize functions </tspan><tspan x="12" y="48.28" dominant-baseline="ideographic">in a logical, readable </tspan><tspan x="12" y="66.28" dominant-baseline="ideographic">format. This </tspan><tspan x="12" y="84.27" dominant-baseline="ideographic">emphasizes the </tspan><tspan x="12" y="102.27" dominant-baseline="ideographic">transparency </tspan><tspan x="12" y="120.27" dominant-baseline="ideographic">features of the </tspan><tspan x="12" y="138.26" dominant-baseline="ideographic">system.</tspan></text></g></g></g><g id="g-root-ic_code_4mbip8t6vuo5-fill" data-item-order="0" transform="translate(290, 434)"></g><g id="g-root-cp_0_g-0_qvwxnwt6ug3x-stroke" data-item-order="-458199" transform="translate(77, 122)"><g id="cp_0_g-0_qvwxnwt6ug3x-stroke" fill="none" stroke-linecap="round" stroke-linejoin="round" stroke-miterlimit="4" stroke="#f4f4f4" stroke-width="2" stroke-dasharray="5.0, 7.0"><g><path d="M 778 214L 394.1143 214M 394.1143 214L 10 214M 394.1143 214L 394.1143 10M 394.1143 214L 394.1143 418"></path></g></g></g><g id="g-root-cp_4_g-4_qvwxnwt6ug3z-stroke" data-item-order="-458196" transform="translate(481.8699951171875, 350)"><g id="cp_4_g-4_qvwxnwt6ug3z-stroke" fill="none" stroke-linecap="round" stroke-linejoin="round" stroke-miterlimit="4" stroke="#d3d3d3" stroke-width="2"><g><path d="M 55.0311 82L 96.6011 82L 117.3811 46L 96.6011 10L 55.0311 10L 34.2511 46L 55.0311 82ZM 217.9517 79L 207.5817 79L 202.3917 87.98L 207.5817 96.96L 217.9517 96.96L 223.1317 87.98L 217.9517 79ZM 55.03 166L 145.1 166L 190.13 88L 145.1 10L 55.03 10L 10 88L 55.03 166ZM 238.13 88L 223.13 88M 238.13 58L 238.13 118"></path></g></g></g><g id="g-root-cp_3_g-3_mg3fjgt6ugw9-stroke" data-item-order="-458190" transform="translate(206, 350)"><g id="cp_3_g-3_mg3fjgt6ugw9-stroke" fill="none" stroke-linecap="round" stroke-linejoin="round" stroke-miterlimit="4" stroke="#d3d3d3" stroke-width="2"><g><path d="M 193.1 166L 103.03 166L 58 88L 103.03 10L 193.1 10L 238.13 88L 193.1 166ZM 193.1 82L 151.53 82L 130.75 46L 151.53 10L 193.1 10L 213.88 46L 193.1 82ZM 40.82 79L 30.45 79L 25.26 87.98L 30.45 96.96L 40.82 96.96L 46 87.98L 40.82 79ZM 25 88L 10 88M 10 58L 10 118"></path></g></g></g><g id="g-root-cp_2_g-2_mg3fjgt6ugwb-stroke" data-item-order="-458184" transform="translate(481.8699951171875, 146)"><g id="cp_2_g-2_mg3fjgt6ugwb-stroke" fill="none" stroke-linecap="round" stroke-linejoin="round" stroke-miterlimit="4" stroke="#d3d3d3" stroke-width="2"><g><path d="M 55.03 10L 145.1 10L 190.13 88L 145.1 166L 55.03 166L 10 88L 55.03 10ZM 55.03 94L 96.6 94L 117.38 130L 96.6 166L 55.03 166L 34.25 130L 55.03 94ZM 217.95 79L 207.58 79L 202.39 87.98L 207.58 96.96L 217.95 96.96L 223.13 87.98L 217.95 79ZM 238.13 88L 223.13 88M 238.13 58L 238.13 118"></path></g></g></g><g id="g-root-cp_1_g-1_i09xf0t6uhol-stroke" data-item-order="-458178" transform="translate(206, 146)"><g id="cp_1_g-1_i09xf0t6uhol-stroke" fill="none" stroke-linecap="round" stroke-linejoin="round" stroke-miterlimit="4" stroke="#d3d3d3" stroke-width="2"><g><path d="M 193.1 94L 151.53 94L 130.75 130L 151.53 166L 193.1 166L 213.88 130L 193.1 94ZM 40.8217 79L 30.4517 79L 25.2617 87.98L 30.4517 96.96L 40.8217 96.96L 46.0017 87.98L 40.8217 79ZM 193.1 10L 103.03 10L 58 88L 103.03 166L 193.1 166L 238.13 88L 193.1 10ZM 25 88L 10 88M 10 58L 10 118"></path></g></g></g><g id="g-root-ic_2_9me0ct6ugw2-stroke" data-item-order="0" transform="translate(578, 434)"><g id="ic_2_9me0ct6ugw2-stroke" fill="none" stroke-linecap="round" stroke-linejoin="round" stroke-miterlimit="4" stroke="#f4f4f4" stroke-width="2"><g><path d="M 40.5 19L 26.5 19L 30.5 11L 44.5 11L 40.5 19ZM 21.5 41L 12.5 36L 21.5 31L 30.5 36L 21.5 41ZM 21.5 41L 21.5 46M 16 51.5C 16 54.537567 18.462433 57 21.5 57C 24.537567 57 27 54.537567 27 51.5C 27 48.462437 24.537567 46 21.5 46C 18.462433 46 16 48.462437 16 51.5M 10 10M 46.5 41L 37.5 36L 46.5 31L 55.5 36L 46.5 41ZM 46.5 31L 46.5 29C 46.5 27.89543 45.604568 27 44.5 27L 23.5 27C 22.395432 27 21.5 27.89543 21.5 29L 21.5 31M 46.5 41L 46.5 46M 41 51.5C 41 54.537567 43.462437 57 46.5 57C 49.537567 57 52 54.537567 52 51.5C 52 48.462437 49.537567 46 46.5 46C 43.462437 46 41 48.462437 41 51.5M 34.5 19L 34.5 27"></path></g></g></g><g id="g-root-tx_cleanlay_8x5bakt6t2x3-stroke" data-item-order="0" transform="translate(734, 134)"></g><g id="g-root-ic_sear_1cy0twst71fyl-stroke" data-item-order="0" transform="translate(290, 170)"><g id="ic_sear_1cy0twst71fyl-stroke" fill="none" stroke-linecap="round" stroke-linejoin="round" stroke-miterlimit="4" stroke="#F8E6B8" stroke-width="2"><g><path d="M 45.166 45.09L 57.077999 57M 11 30.969999C 11 42.015694 19.954306 50.970001 31 50.970001C 42.045696 50.970001 51 42.015694 51 30.970001C 51 19.924305 42.045696 10.97 31 10.97C 19.954306 10.97 11 19.924305 11 30.970001ZM 38 25L 44 31L 38 37M 24 25L 18 31L 24 37M 34 23L 28 39"></path></g></g></g><g id="g-root-ic_boar_1q7ltv0t6t1xe-stroke" data-item-order="0" transform="translate(578, 170)"><g id="ic_boar_1q7ltv0t6t1xe-stroke" fill="none" stroke-linecap="round" stroke-linejoin="round" stroke-miterlimit="4" stroke="#f4f4f4" stroke-width="2"><g><path d="M 13.09 11.522L 30.08 11.522C 31.234274 11.522 32.169998 12.457725 32.169998 13.612L 32.169998 21.978001L 32.169998 21.978001L 11 21.978001L 11 21.978001L 11 13.614C 10.998895 12.458944 11.934943 11.521999 13.09 11.522ZM 11 28.388L 32.169998 28.388L 32.169998 47.206001L 11 47.206001ZM 25.114 17.012001C 25.113939 17.445034 25.464966 17.796108 25.897999 17.796108C 26.331034 17.796108 26.682058 17.445034 26.681999 17.011999C 26.682058 16.578966 26.331034 16.227892 25.897999 16.227892C 25.464966 16.227892 25.113939 16.578966 25.113998 17.011999M 16.487999 34.66L 26.944 34.66M 22.762001 40.931999L 26.944 40.931999M 41.318001 11.522L 54.917999 11.522C 56.069927 11.526409 57.00111 12.462061 56.999996 13.614L 57 21.978001L 57 21.978001L 39.228001 21.978001L 39.228001 21.978001L 39.228001 13.614C 39.226891 12.458944 40.162941 11.521999 41.318001 11.522ZM 39.228001 28.388L 57 28.388L 57 40.933998L 39.228001 40.933998ZM 49.944 17.012001C 49.943939 17.445034 50.294964 17.796108 50.727997 17.796108C 51.161034 17.796108 51.512058 17.445034 51.511997 17.011999C 51.512058 16.578966 51.161034 16.227892 50.727997 16.227892C 50.294964 16.227892 49.943939 16.578966 49.944 17.011999M 44.453999 34.66L 51.771999 34.66M 39.228001 47.206001L 57 47.206001L 57 56.478001L 39.228001 56.478001ZM 16.43 39.900002C 16.43 40.314217 16.765787 40.650002 17.18 40.650002C 17.594213 40.650002 17.93 40.314217 17.93 39.900002C 17.93 39.485786 17.594213 39.150002 17.18 39.150002C 16.765787 39.150002 16.43 39.485786 16.43 39.900002"></path></g></g></g><g id="g-root-tx_useaclea_1unfbzgt6t154-stroke" data-item-order="0" transform="translate(734, 170)"></g><g id="g-root-tx_displays_1lt1d2kt71ibo-stroke" data-item-order="0" transform="translate(38, 188)"></g><g id="g-root-tx_1_909rvwt75n9c-stroke" data-item-order="0" transform="translate(356, 248)"></g><g id="g-root-tx_2_hu1cvgt71hqd-stroke" data-item-order="0" transform="translate(536, 248)"></g><g id="g-root-tx_syntaxhi_mcz23wt6vvgq-stroke" data-item-order="0" transform="translate(62, 344)"></g><g id="g-root-tx_logicalo_4pfw4st6ug3s-stroke" data-item-order="0" transform="translate(734, 332)"></g><g id="g-root-tx_function_1q8uv70t71hje-stroke" data-item-order="0" transform="translate(74, 128)"></g><g id="g-root-tx_solidity_i09xf0t6uhon-stroke" data-item-order="0" transform="translate(320, 38)"></g><g id="g-root-tx_3_9250tot6vtvw-stroke" data-item-order="0" transform="translate(356, 368)"></g><g id="g-root-tx_4_v8m2cst6vuo1-stroke" data-item-order="0" transform="translate(536, 368)"></g><g id="g-root-tx_applysyn_hx5jzgt6vw8z-stroke" data-item-order="0" transform="translate(38, 404)"></g><g id="g-root-tx_organize_4pfw4st6ug3t-stroke" data-item-order="0" transform="translate(734, 392)"></g><g id="g-root-ic_code_4mbip8t6vuo5-stroke" data-item-order="0" transform="translate(290, 434)"><g id="ic_code_4mbip8t6vuo5-stroke" fill="none" stroke-linecap="round" stroke-linejoin="round" stroke-miterlimit="4" stroke="#f4f4f4" stroke-width="2"><g><path d="M 54 37.577999C 53.837711 48.462929 44.885006 57.156898 34 57C 23.114992 57.156898 14.162289 48.462929 14 37.577999C 14 23.265999 31.893999 18.156 31.893999 11C 31.893999 11 41.368 14.066 39.264 20.200001C 36.728001 27.586 35.052002 33.487999 41.368 33.487999C 47.683998 33.487999 46.632 25.312 46.632 25.312C 51.288624 27.593584 54.17297 32.395348 54 37.577999ZM 25.577999 48.821999C 25.718258 53.372314 29.447523 56.9884 34 56.9884C 38.552475 56.9884 42.281742 53.372314 42.421997 48.821999C 42.422001 41.66 30.841999 44.734001 30.841999 35.534C 27.739536 39.303047 25.898336 43.950821 25.577999 48.821999Z"></path></g></g></g></g></g></svg>