<?xml version="1.0" encoding="utf-8" standalone="yes"?>
<!DOCTYPE svg PUBLIC "-//W3C//DTD SVG 1.1//EN" "http://www.w3.org/Graphics/SVG/1.1/DTD/svg11.dtd">
<svg width="792" height="402" viewBox="0 0 792 402" style="fill:none;stroke:none;fill-rule:evenodd;clip-rule:evenodd;stroke-linecap:round;stroke-linejoin:round;stroke-miterlimit:1.5;" version="1.1" xmlns="http://www.w3.org/2000/svg" xmlns:xlink="http://www.w3.org/1999/xlink"><style class="text-font-style fontImports" data-font-family="Roboto">@import url('https://fonts.googleapis.com/css2?family=Roboto:wght@400;700&amp;display=block');</style><g id="items" style="isolation: isolate"><g id="blend" style="mix-blend-mode: normal"><g id="g-root-sy_3_line_detsu4scrgnj-fill" data-item-order="-38843" transform="translate(302, 164)"></g><g id="g-root-sy_1_line_4jt9ocscrf28-fill" data-item-order="-38837" transform="translate(301.9999084472656, 56)"></g><g id="g-root-sy_2_line_1upabekscrfnt-fill" data-item-order="-38831" transform="translate(301.9997863769531, 164)"></g><g id="g-root-sy_0_line_1q9gta4scrgg2-fill" data-item-order="-38827" transform="translate(230, 164)"></g><g id="g-root-ic_man_magzeksd1bes-fill" data-item-order="0" transform="translate(422, 38)"></g><g id="g-root-tx_currentp_v7cri4scrh8g-fill" data-item-order="0" transform="translate(470, 44)"><g id="tx_currentp_v7cri4scrh8g-fill" stroke="none" fill="#F8E6B8"><g><text style="font: bold 20px Roboto, sans-serif; white-space: pre;" font-weight="bold" font-size="20px" font-family="Roboto, sans-serif"><tspan x="12" y="33.64" dominant-baseline="ideographic">Current Participants</tspan></text></g></g></g><g id="g-root-ic_micr_qs5tmksd6xos-fill" data-item-order="0" transform="translate(86, 92)"></g><g id="g-root-tx_focusonm_zn69mkscrgg7-fill" data-item-order="0" transform="translate(470, 80)"><g id="tx_focusonm_zn69mkscrgg7-fill" stroke="none" fill="#F8E6B8"><g><text style="font: 20px Roboto, sans-serif; white-space: pre;" font-size="20px" font-family="Roboto, sans-serif"><tspan x="12" y="33.63" dominant-baseline="ideographic">Focus on maintaining current </tspan><tspan x="12" y="57.64" dominant-baseline="ideographic">benefits and influence</tspan></text></g></g></g><g id="g-root-ic_pick_145ho3gsdb47e-fill" data-item-order="0" transform="translate(422, 146)"></g><g id="g-root-tx_whatisth_mcc8ccscrevd-fill" data-item-order="0" transform="translate(14, 164)"><g id="tx_whatisth_mcc8ccscrevd-fill" stroke="none" fill="#f4f4f4"><g><text style="font: bold 25px Roboto, sans-serif; white-space: pre;" font-weight="bold" font-size="25px" font-family="Roboto, sans-serif"><tspan x="47.54" y="40" dominant-baseline="ideographic">What is the </tspan><tspan x="18.63" y="70" dominant-baseline="ideographic">optimal strategy </tspan><tspan x="64.14" y="100" dominant-baseline="ideographic">for each </tspan><tspan x="15.76" y="130" dominant-baseline="ideographic">participant type?</tspan></text></g></g></g><g id="g-root-tx_potentia_142zrr0scrfny-fill" data-item-order="0" transform="translate(470, 152)"><g id="tx_potentia_142zrr0scrfny-fill" stroke="none" fill="#f4f4f4"><g><text style="font: bold 20px Roboto, sans-serif; white-space: pre;" font-weight="bold" font-size="20px" font-family="Roboto, sans-serif"><tspan x="12" y="33.64" dominant-baseline="ideographic">Potential Participants</tspan></text></g></g></g><g id="g-root-tx_exploren_1cymrzwscrev9-fill" data-item-order="0" transform="translate(470, 188)"><g id="tx_exploren_1cymrzwscrev9-fill" stroke="none" fill="#f4f4f4"><g><text style="font: 20px Roboto, sans-serif; white-space: pre;" font-size="20px" font-family="Roboto, sans-serif"><tspan x="12" y="33.63" dominant-baseline="ideographic">Explore new opportunities and </tspan><tspan x="12" y="57.64" dominant-baseline="ideographic">growth</tspan></text></g></g></g><g id="g-root-ic_stca_4l27ukscrh8i-fill" data-item-order="0" transform="translate(422, 254)"></g><g id="g-root-tx_continuo_1cymrzwscrev8-fill" data-item-order="0" transform="translate(470, 260)"><g id="tx_continuo_1cymrzwscrev8-fill" stroke="none" fill="#f4f4f4"><g><text style="font: bold 20px Roboto, sans-serif; white-space: pre;" font-weight="bold" font-size="20px" font-family="Roboto, sans-serif"><tspan x="12" y="33.64" dominant-baseline="ideographic">Continuous Contributors</tspan></text></g></g></g><g id="g-root-tx_ensurelo_1q9gta4scrgg3-fill" data-item-order="0" transform="translate(470, 296)"><g id="tx_ensurelo_1q9gta4scrgg3-fill" stroke="none" fill="#f4f4f4"><g><text style="font: 20px Roboto, sans-serif; white-space: pre;" font-size="20px" font-family="Roboto, sans-serif"><tspan x="12" y="33.63" dominant-baseline="ideographic">Ensure long-term sustainability </tspan><tspan x="12" y="57.64" dominant-baseline="ideographic">and stability</tspan></text></g></g></g><g id="g-root-sy_3_line_detsu4scrgnj-stroke" data-item-order="-38843" transform="translate(302, 164)"><g id="sy_3_line_detsu4scrgnj-stroke" fill="none" stroke-linecap="round" stroke-linejoin="round" stroke-miterlimit="4" stroke="#f4f4f4" stroke-width="2"><g><path d="M 116 118L 57.95 118C 44.7 118 33.95 107.25 33.95 94L 33.95 33.95C 33.95 20.72 23.23 10 10 10"></path><path d="M 110 124.5L 116.5 118L 110 111.5" stroke-dasharray="none"></path></g></g></g><g id="g-root-sy_1_line_4jt9ocscrf28-stroke" data-item-order="-38837" transform="translate(301.9999084472656, 56)"><g id="sy_1_line_4jt9ocscrf28-stroke" fill="none" stroke-linecap="round" stroke-linejoin="round" stroke-miterlimit="4" stroke="#F8E6B8" stroke-width="2"><g><path d="M 116.000092 10L 58.950092 10C 45.700092 10 34.950092 20.75 34.950092 34L 34.950092 94.05C 34.950092 107.28 24.230092 118 11.000092 118L 10.000092 118"></path><path d="M 110.000092 16.5L 116.500092 10L 110.000092 3.5" stroke-dasharray="none"></path></g></g></g><g id="g-root-sy_2_line_1upabekscrfnt-stroke" data-item-order="-38831" transform="translate(301.9997863769531, 164)"><g id="sy_2_line_1upabekscrfnt-stroke" fill="none" stroke-linecap="round" stroke-linejoin="round" stroke-miterlimit="4" stroke="#f4f4f4" stroke-width="2"><g><path d="M 116.000214 10L 10.000214 10"></path><path d="M 110.000214 16.5L 116.500214 10L 110.000214 3.5" stroke-dasharray="none"></path></g></g></g><g id="g-root-sy_0_line_1q9gta4scrgg2-stroke" data-item-order="-38827" transform="translate(230, 164)"><g id="sy_0_line_1q9gta4scrgg2-stroke" fill="none" stroke-linecap="round" stroke-linejoin="round" stroke-miterlimit="4" stroke="#d3d3d3" stroke-width="2"><g><path d="M 82 10L 10 10"></path></g></g></g><g id="g-root-ic_man_magzeksd1bes-stroke" data-item-order="0" transform="translate(422, 38)"><g id="ic_man_magzeksd1bes-stroke" fill="none" stroke-linecap="round" stroke-linejoin="round" stroke-miterlimit="4" stroke="#F8E6B8" stroke-width="2"><g><path d="M 33.25 40L 29.5 40C 29.085787 40 28.75 39.664215 28.75 39.25L 28.75 16.75C 28.75 16.335787 29.085787 16 29.5 16L 33.25 16M 24.25 28L 28.75 28M 37.375 14.125C 37.375 15.574747 38.550255 16.75 40 16.75C 41.449749 16.75 42.625 15.574747 42.625 14.125C 42.625 12.675253 41.449749 11.5 40 11.5C 38.550255 11.5 37.375 12.675253 37.375 14.125M 45.25 22C 44.642536 19.595869 42.479691 17.911545 40 17.911545C 37.520309 17.911545 35.357464 19.595869 34.75 22ZM 37.375 36.625C 37.375 38.074749 38.550255 39.25 40 39.25C 41.449749 39.25 42.625 38.074749 42.625 36.625C 42.625 35.175255 41.449749 34 40 34C 38.550255 34 37.375 35.175255 37.375 36.625M 45.25 44.5C 44.642536 42.095871 42.479691 40.411545 40 40.411545C 37.520309 40.411545 35.357464 42.095871 34.75 44.5ZM 10.75 35.5C 10.75 31.772079 13.772079 28.75 17.5 28.75C 21.227922 28.75 24.25 31.772079 24.25 35.5ZM 13.945 21.025C 15.936974 23.063457 18.980726 23.660271 21.594999 22.525M 13.375 23.125C 13.375 25.403175 15.221826 27.25 17.5 27.25C 19.778175 27.25 21.625 25.403175 21.625 23.125C 21.625 20.846827 19.778175 19 17.5 19C 15.221826 19 13.375 20.846827 13.375 23.125"></path></g></g></g><g id="g-root-tx_currentp_v7cri4scrh8g-stroke" data-item-order="0" transform="translate(470, 44)"></g><g id="g-root-ic_micr_qs5tmksd6xos-stroke" data-item-order="0" transform="translate(86, 92)"><g id="ic_micr_qs5tmksd6xos-stroke" fill="none" stroke-linecap="round" stroke-linejoin="round" stroke-miterlimit="4" stroke="#f4f4f4" stroke-width="2"><g><path d="M 23.75 16.25L 33.75 16.25M 46.25 16.25L 55 16.25M 33.125 16.25L 46.875 16.25L 46.875 63.75L 33.125 63.75ZM 68.75 63.75L 55 63.75L 55 16.25L 68.75 30L 68.75 63.75ZM 11.25 16.25L 25 16.25L 25 63.75L 11.25 63.75ZM 25 31.25L 33.125 31.25M 46.875 31.25L 55 31.25"></path></g></g></g><g id="g-root-tx_focusonm_zn69mkscrgg7-stroke" data-item-order="0" transform="translate(470, 80)"></g><g id="g-root-ic_pick_145ho3gsdb47e-stroke" data-item-order="0" transform="translate(422, 146)"><g id="ic_pick_145ho3gsdb47e-stroke" fill="none" stroke-linecap="round" stroke-linejoin="round" stroke-miterlimit="4" stroke="#f4f4f4" stroke-width="2"><g><path d="M 22.953999 33.685001C 22.953552 36.497826 25.233673 38.778309 28.046501 38.778309C 30.859325 38.778309 33.139446 36.497826 33.139 33.685001C 33.139446 30.872173 30.859325 28.59169 28.046501 28.59169C 25.233673 28.59169 22.953552 30.872173 22.953999 33.685001M 20.239 45.25C 21.416746 42.012302 24.470484 39.837364 27.915302 39.782772C 31.360119 39.728172 34.481247 41.805252 35.761002 45.004002M 14.347 35.495499C 14.347 37.308098 15.816401 38.7775 17.629 38.7775C 19.441599 38.7775 20.910999 37.308098 20.910999 35.495499C 20.910999 33.682899 19.441599 32.213501 17.629 32.213501C 15.816401 32.213501 14.347 33.682899 14.347 35.495499M 21.584499 42.878502C 20.455975 41.993725 19.063015 41.513557 17.629 41.514999C 15.198223 41.521507 12.975733 42.888481 11.8735 45.055M 35.089001 35.495499C 35.089001 37.308098 36.558403 38.7775 38.370998 38.7775C 40.183598 38.7775 41.653 37.308098 41.653 35.495499C 41.653 33.682899 40.183598 32.213501 38.370998 32.213501C 36.558403 32.213501 35.089001 33.682899 35.089001 35.495499M 44.126499 45.055C 43.024265 42.888481 40.801777 41.521507 38.370998 41.514999C 36.961334 41.511909 35.590195 41.974934 34.471001 42.832001M 37.75 10.75L 32.284 10.9C 31.282976 10.928275 30.314804 11.263391 29.5105 11.86L 24.280001 15.740499C 23.181467 16.557356 22.389105 17.719488 22.030001 19.040501L 21.130001 22.362999C 20.772472 23.381878 20.768246 24.49143 21.118 25.513C 21.664667 26.581409 22.916513 27.081764 24.049 26.6845C 24.715189 26.472345 25.225269 25.932226 25.399002 25.255001L 26.521 20.563C 26.705097 20.127905 27.014803 19.757616 27.4105 19.4995L 31.168001 17.049999C 31.868412 16.59185 32.757881 16.534906 33.511002 16.9C 34.111 17.200001 35.170002 17.778999 35.403999 18.379C 35.866421 19.330063 35.702396 20.466934 34.989998 21.248499L 32.177498 23.992001C 31.315153 24.779045 31.171299 26.084011 31.841499 27.039999C 32.703999 28.067501 33.916 27.463001 35.035 26.689001L 40.09 23.191C 40.532097 22.883778 40.858063 22.436831 41.015499 21.922001L 42.065502 18.488501"></path></g></g></g><g id="g-root-tx_whatisth_mcc8ccscrevd-stroke" data-item-order="0" transform="translate(14, 164)"></g><g id="g-root-tx_potentia_142zrr0scrfny-stroke" data-item-order="0" transform="translate(470, 152)"></g><g id="g-root-tx_exploren_1cymrzwscrev9-stroke" data-item-order="0" transform="translate(470, 188)"></g><g id="g-root-ic_stca_4l27ukscrh8i-stroke" data-item-order="0" transform="translate(422, 254)"><g id="ic_stca_4l27ukscrh8i-stroke" fill="none" stroke-linecap="round" stroke-linejoin="round" stroke-miterlimit="4" stroke="#f4f4f4" stroke-width="2"><g><path d="M 45.25 14.3695C 39.211002 14.2255 24.784 14.95 24.784 20.35C 24.784 25.75 45.25 25.196499 45.25 33.301003C 45.25 41.405502 33.113503 44.659 27.8125 44.659M 30.099998 11.341C 27.071499 11.341 11.926 13.366 11.926 19.6705C 11.926 26.870499 28.5865 26.081499 28.5865 33.301003C 28.5865 38.334999 17.226999 39.359501 11.926 39.359501M 41.697998 20.551001C 41.69936 19.566561 41.065498 18.693653 40.128975 18.390259C 39.192451 18.086864 38.167149 18.42227 37.591 19.220499C 37.08083 18.167168 36.006916 17.504492 34.836651 17.520889C 33.666389 17.537285 32.611462 18.229786 32.131001 19.297001C 31.812166 19.127628 31.457024 19.038071 31.096001 19.035999C 30.285275 19.03516 29.535667 19.466854 29.129501 20.168501M 24.507999 32.1115C 23.792732 32.23354 23.17923 32.690876 22.858 33.341499C 22.182192 32.386402 21.014629 31.908808 19.863192 32.116467C 18.711754 32.324123 17.784588 33.179493 17.485001 34.310501C 17.142138 34.1964 16.776836 34.166561 16.42 34.223499M 20.461 32.068001C 20.169594 30.600239 18.987814 29.4736 17.507813 29.252609C 16.027811 29.031618 14.568461 29.763885 13.861 31.082499C 13.245631 29.935932 12.051261 29.218964 10.75 29.215M 44.879501 21.428499C 44.627129 21.550306 44.399723 21.718185 44.209 21.9235C 43.447281 20.903006 42.126984 20.47043 40.909065 20.842329C 39.691151 21.214228 38.837715 22.310564 38.776001 23.5825C 37.883305 22.925383 36.702328 22.810223 35.699501 23.282499"></path></g></g></g><g id="g-root-tx_continuo_1cymrzwscrev8-stroke" data-item-order="0" transform="translate(470, 260)"></g><g id="g-root-tx_ensurelo_1q9gta4scrgg3-stroke" data-item-order="0" transform="translate(470, 296)"></g></g></g></svg>