<?xml version="1.0" encoding="utf-8" standalone="yes"?>
<!DOCTYPE svg PUBLIC "-//W3C//DTD SVG 1.1//EN" "http://www.w3.org/Graphics/SVG/1.1/DTD/svg11.dtd">
<svg width="605" height="405" viewBox="0 0 605 405" style="fill:none;stroke:none;fill-rule:evenodd;clip-rule:evenodd;stroke-linecap:round;stroke-linejoin:round;stroke-miterlimit:1.5;" version="1.1" xmlns="http://www.w3.org/2000/svg" xmlns:xlink="http://www.w3.org/1999/xlink"><style class="text-font-style fontImports" data-font-family="Roboto">@import url('https://fonts.googleapis.com/css2?family=Roboto:wght@400;700&amp;display=block');</style><g id="items" style="isolation: isolate"><g id="blend" style="mix-blend-mode: normal"><g id="g-root-cp_4_g-4_93zqrvsx8xl6-fill" data-item-order="-172103" transform="translate(320.281005859375, 281)"><g id="cp_4_g-4_93zqrvsx8xl6-fill" stroke="none" fill="#6b6b6b"><g><path d="M 225.4953 10L 33.9439 10L 10 52L 249.4393 52L 225.4953 10Z"></path></g></g></g><g id="g-root-cp_3_g-3_4ospqjsx8v7o-fill" data-item-order="-172099" transform="translate(351.0660400390625, 227)"><g id="cp_3_g-3_4ospqjsx8v7o-fill" stroke="none" fill="#6b6b6b"><g><path d="M 163.9252 10L 33.9439 10L 10 52L 187.8691 52L 163.9252 10Z"></path></g></g></g><g id="g-root-cp_2_g-2_4ospqjsx8v7q-fill" data-item-order="-172095" transform="translate(381.8499755859375, 173)"><g id="cp_2_g-2_4ospqjsx8v7q-fill" stroke="none" fill="#6b6b6b"><g><path d="M 102.3551 10L 33.9439 10L 10 52L 126.2991 52L 102.3551 10Z"></path></g></g></g><g id="g-root-cp_1_g-1_4ospqjsx8v7s-fill" data-item-order="-172091" transform="translate(412.636962890625, 113)"><g id="cp_1_g-1_4ospqjsx8v7s-fill" stroke="none" fill="#E5A000"><g><path d="M 64.7289 58L 37.3645 10L 10 58L 64.7289 58Z"></path></g></g></g><g id="g-root-sy_-1_Line_8z7m3sx8w02-fill" data-item-order="-172034" transform="translate(284, 299)"></g><g id="g-root-sy_-1_Line_1_8z7m3sx8w03-fill" data-item-order="-172030" transform="translate(284, 245)"></g><g id="g-root-sy_-1_Line_2_8z7m3sx8w04-fill" data-item-order="-172026" transform="translate(284, 191)"></g><g id="g-root-sy_-1_Line_3_1qeg9cbsx8wlp-fill" data-item-order="-172022" transform="translate(284, 137)"></g><g id="g-root-tx_resonanc_1qeg9cbsx8wlq-fill" data-item-order="0" transform="translate(70.5, 38)"><g id="tx_resonanc_1qeg9cbsx8wlq-fill" stroke="none" fill="#f4f4f4"><g><text style="font: bold 25px Roboto, sans-serif; white-space: pre;" font-weight="bold" font-size="25px" font-family="Roboto, sans-serif"><tspan x="13.3" y="43" dominant-baseline="ideographic">Resonance Pool Amplification Pyramid</tspan></text></g></g></g><g id="g-root-tx_timereso_1lymr7vsx8xdz-fill" data-item-order="0" transform="translate(134, 116)"><g id="tx_timereso_1lymr7vsx8xdz-fill" stroke="none" fill="#F8E6B8"><g><text style="font: bold 11.7px Roboto, sans-serif; white-space: pre;" font-weight="bold" font-size="11.7px" font-family="Roboto, sans-serif"><tspan x="16.06" y="28.64" dominant-baseline="ideographic">Time Resonance</tspan></text></g></g></g><g id="g-root-ic_1_hrikwbsxaadr-fill" data-item-order="0" transform="translate(242, 122)"></g><g id="g-root-tx_synchron_1hjfq6jsx8v0g-fill" data-item-order="0" transform="translate(50, 146)"><g id="tx_synchron_1hjfq6jsx8v0g-fill" stroke="none" fill="#F8E6B8"><g><text style="font: 10px Roboto, sans-serif; white-space: pre;" font-size="10px" font-family="Roboto, sans-serif"><tspan x="13.95" y="21.82" dominant-baseline="ideographic">Synchronized timing for optimal results</tspan></text></g></g></g><g id="g-root-tx_networke_18nspxnsx8vt5-fill" data-item-order="0" transform="translate(146, 170)"><g id="tx_networke_18nspxnsx8vt5-fill" stroke="none" fill="#f4f4f4"><g><text style="font: bold 11.7px Roboto, sans-serif; white-space: pre;" font-weight="bold" font-size="11.7px" font-family="Roboto, sans-serif"><tspan x="13.73" y="28.64" dominant-baseline="ideographic">Network Effect</tspan></text></g></g></g><g id="g-root-ic_1_zlx1zfsx8vew-fill" data-item-order="0" transform="translate(242, 176)"></g><g id="g-root-tx_increase_18nspxnsx8vt6-fill" data-item-order="0" transform="translate(50, 200)"><g id="tx_increase_18nspxnsx8vt6-fill" stroke="none" fill="#f4f4f4"><g><text style="font: 10px Roboto, sans-serif; white-space: pre;" font-size="10px" font-family="Roboto, sans-serif"><tspan x="16.14" y="21.82" dominant-baseline="ideographic">Increased value with more participants</tspan></text></g></g></g><g id="g-root-tx_compound_147z7t7sx8wlf-fill" data-item-order="0" transform="translate(134, 218)"><g id="tx_compound_147z7t7sx8wlf-fill" stroke="none" fill="#f4f4f4"><g><text style="font: bold 11.7px Roboto, sans-serif; white-space: pre;" font-weight="bold" font-size="11.7px" font-family="Roboto, sans-serif"><tspan x="12.72" y="28.64" dominant-baseline="ideographic">Compound Effect</tspan></text></g></g></g><g id="g-root-ic_can_hs58azswp72k-fill" data-item-order="0" transform="translate(242, 230)"></g><g id="g-root-tx_accumula_vcc7kbsx8xe4-fill" data-item-order="0" transform="translate(86, 248)"><g id="tx_accumula_vcc7kbsx8xe4-fill" stroke="none" fill="#f4f4f4"><g><text style="font: 10px Roboto, sans-serif; white-space: pre;" font-size="10px" font-family="Roboto, sans-serif"><tspan x="21.28" y="21.82" dominant-baseline="ideographic">Accumulative growth through </tspan><tspan x="94.06" y="33.82" dominant-baseline="ideographic">reinvestment</tspan></text></g></g></g><g id="g-root-tx_automati_qn5l57sxa9l1-fill" data-item-order="0" transform="translate(122, 272)"><g id="tx_automati_qn5l57sxa9l1-fill" stroke="none" fill="#f4f4f4"><g><text style="font: bold 11.7px Roboto, sans-serif; white-space: pre;" font-weight="bold" font-size="11.7px" font-family="Roboto, sans-serif"><tspan x="16.72" y="28.64" dominant-baseline="ideographic">Automatic Balance</tspan></text></g></g></g><g id="g-root-ic_bala_1howbswqm19-fill" data-item-order="0" transform="translate(242, 284)"></g><g id="g-root-tx_ensuress_qn5l57sxa9l2-fill" data-item-order="0" transform="translate(50, 302)"><g id="tx_ensuress_qn5l57sxa9l2-fill" stroke="none" fill="#f4f4f4"><g><text style="font: 10px Roboto, sans-serif; white-space: pre;" font-size="10px" font-family="Roboto, sans-serif"><tspan x="17.02" y="21.82" dominant-baseline="ideographic">Ensures stability and equilibrium in the </tspan><tspan x="155.6" y="33.82" dominant-baseline="ideographic">system</tspan></text></g></g></g><g id="g-root-cp_4_g-4_93zqrvsx8xl6-stroke" data-item-order="-172103" transform="translate(320.281005859375, 281)"><g id="cp_4_g-4_93zqrvsx8xl6-stroke" fill="none" stroke-linecap="round" stroke-linejoin="round" stroke-miterlimit="4" stroke="#d3d3d3" stroke-width="2"><g><path d="M 225.4953 10L 33.9439 10L 10 52L 249.4393 52L 225.4953 10Z"></path></g></g></g><g id="g-root-cp_3_g-3_4ospqjsx8v7o-stroke" data-item-order="-172099" transform="translate(351.0660400390625, 227)"><g id="cp_3_g-3_4ospqjsx8v7o-stroke" fill="none" stroke-linecap="round" stroke-linejoin="round" stroke-miterlimit="4" stroke="#d3d3d3" stroke-width="2"><g><path d="M 163.9252 10L 33.9439 10L 10 52L 187.8691 52L 163.9252 10Z"></path></g></g></g><g id="g-root-cp_2_g-2_4ospqjsx8v7q-stroke" data-item-order="-172095" transform="translate(381.8499755859375, 173)"><g id="cp_2_g-2_4ospqjsx8v7q-stroke" fill="none" stroke-linecap="round" stroke-linejoin="round" stroke-miterlimit="4" stroke="#d3d3d3" stroke-width="2"><g><path d="M 102.3551 10L 33.9439 10L 10 52L 126.2991 52L 102.3551 10Z"></path></g></g></g><g id="g-root-cp_1_g-1_4ospqjsx8v7s-stroke" data-item-order="-172091" transform="translate(412.636962890625, 113)"><g id="cp_1_g-1_4ospqjsx8v7s-stroke" fill="none" stroke-linecap="round" stroke-linejoin="round" stroke-miterlimit="4" stroke="#F8E6B8" stroke-width="2"><g><path d="M 64.7289 58L 37.3645 10L 10 58L 64.7289 58Z"></path></g></g></g><g id="g-root-sy_-1_Line_8z7m3sx8w02-stroke" data-item-order="-172034" transform="translate(284, 299)"><g id="sy_-1_Line_8z7m3sx8w02-stroke" fill="none" stroke-linecap="round" stroke-linejoin="round" stroke-miterlimit="4" stroke="#d3d3d3" stroke-width="2"><g><path d="M 10 10L 43 10"></path><path d="M 37 16.5L 43.5 10L 37 3.5" stroke-dasharray="none"></path></g></g></g><g id="g-root-sy_-1_Line_1_8z7m3sx8w03-stroke" data-item-order="-172030" transform="translate(284, 245)"><g id="sy_-1_Line_1_8z7m3sx8w03-stroke" fill="none" stroke-linecap="round" stroke-linejoin="round" stroke-miterlimit="4" stroke="#d3d3d3" stroke-width="2"><g><path d="M 10 10L 74 10"></path><path d="M 68 16.5L 74.5 10L 68 3.5" stroke-dasharray="none"></path></g></g></g><g id="g-root-sy_-1_Line_2_8z7m3sx8w04-stroke" data-item-order="-172026" transform="translate(284, 191)"><g id="sy_-1_Line_2_8z7m3sx8w04-stroke" fill="none" stroke-linecap="round" stroke-linejoin="round" stroke-miterlimit="4" stroke="#d3d3d3" stroke-width="2"><g><path d="M 10 10L 105 10"></path><path d="M 99 16.5L 105.5 10L 99 3.5" stroke-dasharray="none"></path></g></g></g><g id="g-root-sy_-1_Line_3_1qeg9cbsx8wlp-stroke" data-item-order="-172022" transform="translate(284, 137)"><g id="sy_-1_Line_3_1qeg9cbsx8wlp-stroke" fill="none" stroke-linecap="round" stroke-linejoin="round" stroke-miterlimit="4" stroke="#d3d3d3" stroke-width="2"><g><path d="M 10 10L 136 10"></path><path d="M 130 16.5L 136.5 10L 130 3.5" stroke-dasharray="none"></path></g></g></g><g id="g-root-tx_resonanc_1qeg9cbsx8wlq-stroke" data-item-order="0" transform="translate(70.5, 38)"></g><g id="g-root-tx_timereso_1lymr7vsx8xdz-stroke" data-item-order="0" transform="translate(134, 116)"></g><g id="g-root-ic_1_hrikwbsxaadr-stroke" data-item-order="0" transform="translate(242, 122)"><g id="ic_1_hrikwbsxaadr-stroke" fill="none" stroke-linecap="round" stroke-linejoin="round" stroke-miterlimit="4" stroke="#F8E6B8" stroke-width="2"><g><path d="M 24.9375 26.875C 25.973 26.875 26.8125 26.0355 26.8125 25C 26.8125 23.9645 25.973 23.125 24.9375 23.125C 23.901875 23.125 23.0625 23.9645 23.0625 25C 23.0625 26.0355 23.901875 26.875 24.9375 26.875ZM 20.937561 31.25C 18.937563 29.875 17.562563 27.625 17.562563 25C 17.562563 20.875 20.937561 17.5 25.0625 17.5C 27.1875 17.5 29.0625 18.375 30.3125 19.75L 26.3125 23.62475M 32.4375 25C 32.4375 25.5 32.4375 26 32.3125 26.5M 30.4375 30.1245C 29.0625 31.6245 27.1875 32.4995 24.9375 32.4995M 35.625 33.125C 35.625 34.5 34.5 35.625 33.125 35.625L 16.875 35.625C 15.5 35.625 14.375 34.5 14.375 33.125L 14.375 16.875C 14.375 15.5 15.5 14.375 16.875 14.375L 33.125 14.375C 34.5 14.375 35.625 15.5 35.625 16.875L 35.625 33.125ZM 10.9375 16.5625L 14.375 16.5625M 10.9375 22.1875L 14.375 22.1875M 10.9375 27.8125L 14.375 27.8125M 35.625 22.1875L 39.0625 22.1875M 35.625 27.8125L 39.0625 27.8125M 10.9375 33.4375L 14.375 33.4375M 39.0625 16.5625L 35.625 16.5625M 39.0625 33.4375L 35.625 33.4375M 33.374874 39.0625L 33.374874 35.625M 27.791626 39.0625L 27.791626 35.625M 22.208324 39.0625L 22.208324 35.625M 27.791626 14.375L 27.791626 10.9375M 22.208324 14.375L 22.208324 10.9375M 16.625063 39.0625L 16.625063 35.625M 33.374874 10.9375L 33.374874 14.375M 16.625063 10.9375L 16.625063 14.375"></path></g></g></g><g id="g-root-tx_synchron_1hjfq6jsx8v0g-stroke" data-item-order="0" transform="translate(50, 146)"></g><g id="g-root-tx_networke_18nspxnsx8vt5-stroke" data-item-order="0" transform="translate(146, 170)"></g><g id="g-root-ic_1_zlx1zfsx8vew-stroke" data-item-order="0" transform="translate(242, 176)"><g id="ic_1_zlx1zfsx8vew-stroke" fill="none" stroke-linecap="round" stroke-linejoin="round" stroke-miterlimit="4" stroke="#f4f4f4" stroke-width="2"><g><path d="M 13.9675 32.4575L 11.25 39.375M 15 39.375L 16.116251 33.125M 36.032501 32.4575L 38.75 39.375M 35 39.375L 33.883751 33.125M 27.914999 25.4575L 32.424999 29.065001M 17.575001 29.065001L 22.08375 25.4575M 15.38875 28.147499L 14.7875 21.83625M 22.622499 33.889999L 17.883751 31.678751M 32.114998 31.68L 27.377501 33.889999M 35.208748 21.875L 34.611248 28.141249M 27.311251 14.0775L 33.383751 16.577499M 16.615 16.577499L 22.690001 14.07625M 13.125 30.625C 13.125 32.005714 14.244288 33.125 15.625 33.125C 17.005713 33.125 18.125 32.005714 18.125 30.625C 18.125 29.244287 17.005713 28.125 15.625 28.125C 14.244288 28.125 13.125 29.244287 13.125 30.625ZM 22.5 13.125C 22.5 14.505712 23.619287 15.625 25 15.625C 26.380713 15.625 27.5 14.505712 27.5 13.125C 27.5 11.744288 26.380713 10.625 25 10.625C 23.619287 10.625 22.5 11.744288 22.5 13.125ZM 11.25 18.75C 11.25 20.475889 12.64911 21.875 14.375 21.875C 16.100889 21.875 17.5 20.475889 17.5 18.75C 17.5 17.024111 16.100889 15.625 14.375 15.625C 12.64911 15.625 11.25 17.024111 11.25 18.75ZM 31.875 30.625C 31.875 32.005714 32.994286 33.125 34.375 33.125C 35.755714 33.125 36.875 32.005714 36.875 30.625C 36.875 29.244287 35.755714 28.125 34.375 28.125C 32.994286 28.125 31.875 29.244287 31.875 30.625ZM 32.5 18.75C 32.5 20.475889 33.899109 21.875 35.625 21.875C 37.350891 21.875 38.75 20.475889 38.75 18.75C 38.75 17.024111 37.350891 15.625 35.625 15.625C 33.899109 15.625 32.5 17.024111 32.5 18.75ZM 21.518749 21.7325L 15.625 19.375M 34.375 19.375L 28.47875 21.733749M 25 15.625L 25 19.375M 26.383751 26.610001L 28.125 39.375M 21.875 39.375L 23.616249 26.610001M 21.25 23.125C 21.25 25.196068 22.928932 26.875 25 26.875C 27.071068 26.875 28.75 25.196068 28.75 23.125C 28.75 21.053932 27.071068 19.375 25 19.375C 22.928932 19.375 21.25 21.053932 21.25 23.125Z"></path></g></g></g><g id="g-root-tx_increase_18nspxnsx8vt6-stroke" data-item-order="0" transform="translate(50, 200)"></g><g id="g-root-tx_compound_147z7t7sx8wlf-stroke" data-item-order="0" transform="translate(134, 218)"></g><g id="g-root-ic_can_hs58azswp72k-stroke" data-item-order="0" transform="translate(242, 230)"><g id="ic_can_hs58azswp72k-stroke" fill="none" stroke-linecap="round" stroke-linejoin="round" stroke-miterlimit="4" stroke="#f4f4f4" stroke-width="2"><g><path d="M 27.535 16.22875C 27.535002 18.299818 29.213932 19.97875 31.285 19.97875C 33.356068 19.97875 35.035 18.299818 35.035 16.22875C 35.035 14.157682 33.356068 12.47875 31.285 12.47875C 29.213932 12.47875 27.535002 14.157682 27.535002 16.22875M 36.91 14.35375L 39.34 12.89625M 35.25375 12.16625L 37.535 10.64625M 21.91 30.342501L 21.91 36.4375C 21.91 38.048748 23.86875 39.353748 26.285 39.353748C 28.70125 39.353748 30.66 38.048748 30.66 36.4375L 30.66 28.9375M 27.75 26.186251C 29.44875 26.587502 30.666252 27.6675 30.666252 28.936251C 30.666252 31.481249 25.778749 33.264999 21.91625 30.341251M 19.41 30.34L 19.41 36.4375C 19.41 38.048748 17.45125 39.353748 15.035 39.353748C 12.61875 39.353748 10.66 38.048748 10.66 36.4375L 10.66 28.9375M 13.57625 26.186251C 11.875 26.587502 10.66 27.6675 10.66 28.9375C 10.66 31.487501 15.56875 33.272499 19.43 30.325001M 16.285 18.72875L 16.285 25.8125C 16.285 27.42375 18.24375 28.72875 20.66 28.72875C 23.07625 28.72875 25.035 27.42375 25.035 25.8125L 25.035 18.72875M 16.285 18.514999C 16.285 20.244343 18.243755 21.64625 20.660002 21.64625C 23.076246 21.64625 25.035002 20.244343 25.035002 18.514999C 25.035002 16.785658 23.076246 15.38375 20.660002 15.38375C 18.243755 15.38375 16.285 16.785658 16.285 18.514999"></path></g></g></g><g id="g-root-tx_accumula_vcc7kbsx8xe4-stroke" data-item-order="0" transform="translate(86, 248)"></g><g id="g-root-tx_automati_qn5l57sxa9l1-stroke" data-item-order="0" transform="translate(122, 272)"></g><g id="g-root-ic_bala_1howbswqm19-stroke" data-item-order="0" transform="translate(242, 284)"><g id="ic_bala_1howbswqm19-stroke" fill="none" stroke-linecap="round" stroke-linejoin="round" stroke-miterlimit="4" stroke="#f4f4f4" stroke-width="2"><g><path d="M 19.6875 28.1875C 19.6875 28.9375 19.1875 29.4375 18.4375 29.4375L 12.1875 29.4375C 11.4375 29.4375 10.9375 28.9375 10.9375 28.1875L 10.9375 21.937563C 10.9375 21.187563 11.4375 20.687563 12.1875 20.687563L 18.4375 20.687563C 19.1875 20.687563 19.6875 21.187563 19.6875 21.937563L 19.6875 28.1875ZM 39.0625 27.1875C 39.0625 27.9375 38.5625 28.4375 37.8125 28.4375L 33.4375 28.4375C 32.6875 28.4375 32.1875 27.9375 32.1875 27.1875L 32.1875 22.8125C 32.1875 22.0625 32.6875 21.5625 33.4375 21.5625L 37.8125 21.5625C 38.5625 21.5625 39.0625 22.0625 39.0625 22.8125L 39.0625 27.1875ZM 39.0625 16.5625C 39.0625 17.3125 38.5625 17.8125 37.8125 17.8125L 33.4375 17.8125C 32.6875 17.8125 32.1875 17.3125 32.1875 16.5625L 32.1875 12.1875C 32.1875 11.4375 32.6875 10.9375 33.4375 10.9375L 37.8125 10.9375C 38.5625 10.9375 39.0625 11.4375 39.0625 12.1875L 39.0625 16.5625ZM 39.0625 37.8125C 39.0625 38.5625 38.5625 39.0625 37.8125 39.0625L 33.4375 39.0625C 32.6875 39.0625 32.1875 38.5625 32.1875 37.8125L 32.1875 33.4375C 32.1875 32.6875 32.6875 32.1875 33.4375 32.1875L 37.8125 32.1875C 38.5625 32.1875 39.0625 32.6875 39.0625 33.4375L 39.0625 37.8125ZM 19.048 20.820313L 28.3125 14.6875M 10 10M 19.6875 25.0625L 28.4375 25.0625M 10 10M 25.6875 22.1875L 28.4375 25.0625L 25.6875 27.8125M 10 10M 24.5625 13.812563L 28.4375 14.687563L 27.5625 18.56255M 10 10M 19.048 29.304501L 28.3125 35.437374M 10 10M 24.5625 36.3125L 28.4375 35.4375L 27.5625 31.5625"></path></g></g></g><g id="g-root-tx_ensuress_qn5l57sxa9l2-stroke" data-item-order="0" transform="translate(50, 302)"></g></g></g></svg>