<?xml version="1.0" encoding="utf-8" standalone="yes"?>
<!DOCTYPE svg PUBLIC "-//W3C//DTD SVG 1.1//EN" "http://www.w3.org/Graphics/SVG/1.1/DTD/svg11.dtd">
<svg width="852" height="576" viewBox="0 0 852 576" style="fill:none;stroke:none;fill-rule:evenodd;clip-rule:evenodd;stroke-linecap:round;stroke-linejoin:round;stroke-miterlimit:1.5;" version="1.1" xmlns="http://www.w3.org/2000/svg" xmlns:xlink="http://www.w3.org/1999/xlink"><style class="text-font-style fontImports" data-font-family="Roboto">@import url('https://fonts.googleapis.com/css2?family=Roboto:wght@400;700&amp;display=block');</style><g id="items" style="isolation: isolate"><g id="blend" style="mix-blend-mode: normal"><g id="g-root-sy_3_line_4g31bwqparrg-fill" data-item-order="-92654" transform="translate(350, 417.3828125)"></g><g id="g-root-sy_3_line_1_1q6d20sqpapzh-fill" data-item-order="-92650" transform="translate(374, 422.921875)"></g><g id="g-root-sy_3_line_2_1cuwjngqparke-fill" data-item-order="-92646" transform="translate(398, 428.4609375)"></g><g id="g-root-sy_3_line_3_18f31j0qpascn-fill" data-item-order="-92642" transform="translate(494, 417.392578125)"></g><g id="g-root-sy_3_line_4_13zw0hoqpapz4-fill" data-item-order="-92638" transform="translate(470, 422.927734375)"></g><g id="g-root-sy_3_line_5_qofi4cqpark1-fill" data-item-order="-92634" transform="translate(446, 428.462890625)"></g><g id="g-root-sy_3_line_6_hsshvgqpascq-fill" data-item-order="-92630" transform="translate(422, 433.998046875)"></g><g id="g-root-sy_3_cu_4hygl8qpaqrv-fill" data-item-order="-92629" transform="translate(266, 356)"><g id="sy_3_cu_4hygl8qpaqrv-fill" stroke="none" fill="#6b6b6b"><g><path d="M 10 52L 10 40L 140 10L 166 16L 192 10L 322 40L 322 52L 166 88L 10 52Z"></path></g></g></g><g id="g-root-sy_2_line_1q7m070qpas5o-fill" data-item-order="-92622" transform="translate(326, 339.84375)"></g><g id="g-root-sy_2_line_1_1cwrywsqpaqkt-fill" data-item-order="-92618" transform="translate(350, 345.3828125)"></g><g id="g-root-sy_2_line_2_18gygscqpard2-fill" data-item-order="-92614" transform="translate(374, 350.921875)"></g><g id="g-root-sy_2_line_3_v64fi4qpaps7-fill" data-item-order="-92610" transform="translate(398, 356.4609375)"></g><g id="g-root-sy_2_line_4_qqaxdoqpaqkg-fill" data-item-order="-92606" transform="translate(518, 339.857421875)"></g><g id="g-root-sy_2_line_5_hunx4sqpard5-fill" data-item-order="-92602" transform="translate(494, 345.392578125)"></g><g id="g-root-sy_2_line_6_deuf0cqpas5e-fill" data-item-order="-92598" transform="translate(470, 350.927734375)"></g><g id="g-root-sy_2_line_7_40dq4qpaqkj-fill" data-item-order="-92594" transform="translate(446, 356.462890625)"></g><g id="g-root-sy_2_line_8_1q9hfgcqpar64-fill" data-item-order="-92590" transform="translate(422, 361.998046875)"></g><g id="g-root-sy_2_cu_1ltnxbwqparyd-fill" data-item-order="-92589" transform="translate(266, 284)"><g id="sy_2_cu_1ltnxbwqparyd-fill" stroke="none" fill="#6b6b6b"><g><path d="M 10 52L 10 40L 140 10L 166 16L 192 10L 322 40L 322 52L 166 88L 10 52Z"></path></g></g></g><g id="g-root-sy_1_line_18itw1oqpaqdi-fill" data-item-order="-92582" transform="translate(302, 262.3046875)"></g><g id="g-root-sy_1_line_1_v7ddocqparyf-fill" data-item-order="-92578" transform="translate(326, 267.84375)"></g><g id="g-root-sy_1_line_2_qs6cn0qpapkw-fill" data-item-order="-92574" transform="translate(350, 273.3828125)"></g><g id="g-root-sy_1_line_3_hwjce4qpaqdl-fill" data-item-order="-92570" transform="translate(374, 278.921875)"></g><g id="g-root-sy_1_line_4_4l2u0sqparyi-fill" data-item-order="-92566" transform="translate(398, 284.4609375)"></g><g id="g-root-sy_1_line_5_5vszgqpapkz-fill" data-item-order="-92562" transform="translate(542, 262.322265625)"></g><g id="g-root-sy_1_line_6_1qbcupoqpaq6k-fill" data-item-order="-92558" transform="translate(518, 267.857421875)"></g><g id="g-root-sy_1_line_7_1lvjcl8qpaqyt-fill" data-item-order="-92554" transform="translate(494, 273.392578125)"></g><g id="g-root-sy_1_line_8_18kpbb0qpapdy-fill" data-item-order="-92550" transform="translate(470, 278.927734375)"></g><g id="g-root-sy_1_line_9_zp2b24qpaq6n-fill" data-item-order="-92546" transform="translate(446, 284.462890625)"></g><g id="g-root-sy_1_line_10_v98sxoqpaqyw-fill" data-item-order="-92542" transform="translate(422, 289.998046875)"></g><g id="g-root-sy_1_cu_qtfat8qparr5-fill" data-item-order="-92541" transform="translate(266, 206)"><g id="sy_1_cu_qtfat8qparr5-fill" stroke="none" fill="#E5A000"><g><path d="M 10 58L 10 46L 166 10L 322 46L 322 58L 166 94L 10 58Z"></path></g></g></g><g id="g-root-sy_0_line_dil9j0qpaq6a-fill" data-item-order="-92534" transform="translate(278, 182)"></g><g id="g-root-sy_0_line_1_74r5oqparr7-fill" data-item-order="-92530" transform="translate(494, 194)"></g><g id="g-root-sy_0_line_2_1qclsvwqpascs-fill" data-item-order="-92526" transform="translate(446, 194)"></g><g id="g-root-sy_0_line_3_1d1rrloqpaqrx-fill" data-item-order="-92522" transform="translate(350, 194)"></g><g id="g-root-sy_0_line_4_18ly9h8qpark6-fill" data-item-order="-92518" transform="translate(470, 182)"></g><g id="g-root-sy_0_line_5_zqb98cqpascv-fill" data-item-order="-92514" transform="translate(302, 194)"></g><g id="g-root-sy_0_line_6_qvaq2kqpaqrk-fill" data-item-order="-92510" transform="translate(566, 182)"></g><g id="g-root-sy_0_line_7_hznptoqpark9-fill" data-item-order="-92506" transform="translate(518, 182)"></g><g id="g-root-sy_0_line_8_dju7p8qpasci-fill" data-item-order="-92502" transform="translate(326, 182)"></g><g id="g-root-sy_0_line_9_4otojgqpapzf-fill" data-item-order="-92498" transform="translate(398, 194)"></g><g id="g-root-sy_0_line_10_1qeh858qpard8-fill" data-item-order="-92494" transform="translate(374, 182)"></g><g id="g-root-sy_0_line_11_1lynq0sqpas5h-fill" data-item-order="-92490" transform="translate(542, 194)"></g><g id="g-root-sy_0_line_12_1d3n6v0qpapse-fill" data-item-order="-92486" transform="translate(422, 182)"></g><g id="g-root-tx_fundsecu_zs6ohoqpardb-fill" data-item-order="0" transform="translate(14, 380)"><g id="tx_fundsecu_zs6ohoqpardb-fill" stroke="none" fill="#f4f4f4"><g><text style="font: 20px Roboto, sans-serif; white-space: pre;" font-size="20px" font-family="Roboto, sans-serif"><tspan x="18.19" y="33.64" dominant-baseline="ideographic">Fund Security Protection</tspan></text></g></g></g><g id="g-root-tx_inputval_qn6jy4qpc4ch-fill" data-item-order="0" transform="translate(14, 236)"><g id="tx_inputval_qn6jy4qpc4ch-fill" stroke="none" fill="#F8E6B8"><g><text style="font: 20px Roboto, sans-serif; white-space: pre;" font-size="20px" font-family="Roboto, sans-serif"><tspan x="20.26" y="33.64" dominant-baseline="ideographic">Input Validation Security</tspan></text></g></g></g><g id="g-root-tx_layereds_4g31bwqpc6q4-fill" data-item-order="0" transform="translate(248, 38)"><g id="tx_layereds_4g31bwqpc6q4-fill" stroke="none" fill="#f4f4f4"><g><text style="font: bold 25px Roboto, sans-serif; white-space: pre;" font-weight="bold" font-size="25px" font-family="Roboto, sans-serif"><tspan x="17.22" y="43" dominant-baseline="ideographic">Layered Security Architecture</tspan></text></g></g></g><g id="g-root-tx_business_vcd6d8qpas5k-fill" data-item-order="0" transform="translate(602, 308)"><g id="tx_business_vcd6d8qpas5k-fill" stroke="none" fill="#f4f4f4"><g><text style="font: 20px Roboto, sans-serif; white-space: pre;" font-size="20px" font-family="Roboto, sans-serif"><tspan x="12" y="33.64" dominant-baseline="ideographic">Business Logic Security</tspan></text></g></g></g><g id="g-root-tx_contract_hrjjp8qpc556-fill" data-item-order="0" transform="translate(326, 146)"><g id="tx_contract_hrjjp8qpc556-fill" stroke="none" fill="#f4f4f4"><g><text style="font: 20px Roboto, sans-serif; white-space: pre;" font-size="20px" font-family="Roboto, sans-serif"><tspan x="12.23" y="33.64" dominant-baseline="ideographic">Contract Deployment</tspan></text></g></g></g><g id="g-root-tx_securesy_dbq1ksqpc5xf-fill" data-item-order="0" transform="translate(308, 494)"><g id="tx_securesy_dbq1ksqpc5xf-fill" stroke="none" fill="#f4f4f4"><g><text style="font: 20px Roboto, sans-serif; white-space: pre;" font-size="20px" font-family="Roboto, sans-serif"><tspan x="11.92" y="33.64" dominant-baseline="ideographic">Secure System Operation</tspan></text></g></g></g><g id="g-root-sy_3_line_4g31bwqparrg-stroke" data-item-order="-92654" transform="translate(350, 417.3828125)"><g id="sy_3_line_4g31bwqparrg-stroke" fill="none" stroke-linecap="round" stroke-linejoin="round" stroke-miterlimit="4" stroke="#d3d3d3" stroke-width="2"><g><path d="M 10 9.998047L 10 52.998047"></path><path d="M 3.5 46.998047L 10 53.498047L 16.5 46.998047" stroke-dasharray="none"></path></g></g></g><g id="g-root-sy_3_line_1_1q6d20sqpapzh-stroke" data-item-order="-92650" transform="translate(374, 422.921875)"><g id="sy_3_line_1_1q6d20sqpapzh-stroke" fill="none" stroke-linecap="round" stroke-linejoin="round" stroke-miterlimit="4" stroke="#d3d3d3" stroke-width="2"><g><path d="M 10 9.998047L 10 52.998047"></path><path d="M 3.5 46.998047L 10 53.498047L 16.5 46.998047" stroke-dasharray="none"></path></g></g></g><g id="g-root-sy_3_line_2_1cuwjngqparke-stroke" data-item-order="-92646" transform="translate(398, 428.4609375)"><g id="sy_3_line_2_1cuwjngqparke-stroke" fill="none" stroke-linecap="round" stroke-linejoin="round" stroke-miterlimit="4" stroke="#d3d3d3" stroke-width="2"><g><path d="M 10 10L 10 53"></path><path d="M 3.5 47L 10 53.5L 16.5 47" stroke-dasharray="none"></path></g></g></g><g id="g-root-sy_3_line_3_18f31j0qpascn-stroke" data-item-order="-92642" transform="translate(494, 417.392578125)"><g id="sy_3_line_3_18f31j0qpascn-stroke" fill="none" stroke-linecap="round" stroke-linejoin="round" stroke-miterlimit="4" stroke="#d3d3d3" stroke-width="2"><g><path d="M 10 9.998047L 10 52.998047"></path><path d="M 3.5 46.998047L 10 53.498047L 16.5 46.998047" stroke-dasharray="none"></path></g></g></g><g id="g-root-sy_3_line_4_13zw0hoqpapz4-stroke" data-item-order="-92638" transform="translate(470, 422.927734375)"><g id="sy_3_line_4_13zw0hoqpapz4-stroke" fill="none" stroke-linecap="round" stroke-linejoin="round" stroke-miterlimit="4" stroke="#d3d3d3" stroke-width="2"><g><path d="M 10 10.001953L 10 53.001953"></path><path d="M 3.5 47.001953L 10 53.501953L 16.5 47.001953" stroke-dasharray="none"></path></g></g></g><g id="g-root-sy_3_line_5_qofi4cqpark1-stroke" data-item-order="-92634" transform="translate(446, 428.462890625)"><g id="sy_3_line_5_qofi4cqpark1-stroke" fill="none" stroke-linecap="round" stroke-linejoin="round" stroke-miterlimit="4" stroke="#d3d3d3" stroke-width="2"><g><path d="M 10 9.998047L 10 52.998047"></path><path d="M 3.5 46.998047L 10 53.498047L 16.5 46.998047" stroke-dasharray="none"></path></g></g></g><g id="g-root-sy_3_line_6_hsshvgqpascq-stroke" data-item-order="-92630" transform="translate(422, 433.998046875)"><g id="sy_3_line_6_hsshvgqpascq-stroke" fill="none" stroke-linecap="round" stroke-linejoin="round" stroke-miterlimit="4" stroke="#d3d3d3" stroke-width="2"><g><path d="M 10 10.001953L 10 53.001953"></path><path d="M 3.5 47.001953L 10 53.501953L 16.5 47.001953" stroke-dasharray="none"></path></g></g></g><g id="g-root-sy_3_cu_4hygl8qpaqrv-stroke" data-item-order="-92629" transform="translate(266, 356)"><g id="sy_3_cu_4hygl8qpaqrv-stroke" fill="none" stroke-linecap="round" stroke-linejoin="round" stroke-miterlimit="4" stroke="#d3d3d3" stroke-width="2"><g><path d="M 10 40L 10 52L 166 88L 322 52L 322 40M 10 40L 165.9714 76L 322 40M 10 40L 140 10L 166 16L 192 10L 322 40"></path></g></g></g><g id="g-root-sy_2_line_1q7m070qpas5o-stroke" data-item-order="-92622" transform="translate(326, 339.84375)"><g id="sy_2_line_1q7m070qpas5o-stroke" fill="none" stroke-linecap="round" stroke-linejoin="round" stroke-miterlimit="4" stroke="#d3d3d3" stroke-width="2"><g><path d="M 10 9.996094L 10 52.996094"></path><path d="M 3.5 46.996094L 10 53.496094L 16.5 46.996094" stroke-dasharray="none"></path></g></g></g><g id="g-root-sy_2_line_1_1cwrywsqpaqkt-stroke" data-item-order="-92618" transform="translate(350, 345.3828125)"><g id="sy_2_line_1_1cwrywsqpaqkt-stroke" fill="none" stroke-linecap="round" stroke-linejoin="round" stroke-miterlimit="4" stroke="#d3d3d3" stroke-width="2"><g><path d="M 10 9.998047L 10 52.998047"></path><path d="M 3.5 46.998047L 10 53.498047L 16.5 46.998047" stroke-dasharray="none"></path></g></g></g><g id="g-root-sy_2_line_2_18gygscqpard2-stroke" data-item-order="-92614" transform="translate(374, 350.921875)"><g id="sy_2_line_2_18gygscqpard2-stroke" fill="none" stroke-linecap="round" stroke-linejoin="round" stroke-miterlimit="4" stroke="#d3d3d3" stroke-width="2"><g><path d="M 10 9.998047L 10 52.998047"></path><path d="M 3.5 46.998047L 10 53.498047L 16.5 46.998047" stroke-dasharray="none"></path></g></g></g><g id="g-root-sy_2_line_3_v64fi4qpaps7-stroke" data-item-order="-92610" transform="translate(398, 356.4609375)"><g id="sy_2_line_3_v64fi4qpaps7-stroke" fill="none" stroke-linecap="round" stroke-linejoin="round" stroke-miterlimit="4" stroke="#d3d3d3" stroke-width="2"><g><path d="M 10 10L 10 53"></path><path d="M 3.5 47L 10 53.5L 16.5 47" stroke-dasharray="none"></path></g></g></g><g id="g-root-sy_2_line_4_qqaxdoqpaqkg-stroke" data-item-order="-92606" transform="translate(518, 339.857421875)"><g id="sy_2_line_4_qqaxdoqpaqkg-stroke" fill="none" stroke-linecap="round" stroke-linejoin="round" stroke-miterlimit="4" stroke="#d3d3d3" stroke-width="2"><g><path d="M 10 10.001953L 10 53.001953"></path><path d="M 3.5 47.001953L 10 53.501953L 16.5 47.001953" stroke-dasharray="none"></path></g></g></g><g id="g-root-sy_2_line_5_hunx4sqpard5-stroke" data-item-order="-92602" transform="translate(494, 345.392578125)"><g id="sy_2_line_5_hunx4sqpard5-stroke" fill="none" stroke-linecap="round" stroke-linejoin="round" stroke-miterlimit="4" stroke="#d3d3d3" stroke-width="2"><g><path d="M 10 9.998047L 10 52.998047"></path><path d="M 3.5 46.998047L 10 53.498047L 16.5 46.998047" stroke-dasharray="none"></path></g></g></g><g id="g-root-sy_2_line_6_deuf0cqpas5e-stroke" data-item-order="-92598" transform="translate(470, 350.927734375)"><g id="sy_2_line_6_deuf0cqpas5e-stroke" fill="none" stroke-linecap="round" stroke-linejoin="round" stroke-miterlimit="4" stroke="#d3d3d3" stroke-width="2"><g><path d="M 10 10.001953L 10 53.001953"></path><path d="M 3.5 47.001953L 10 53.501953L 16.5 47.001953" stroke-dasharray="none"></path></g></g></g><g id="g-root-sy_2_line_7_40dq4qpaqkj-stroke" data-item-order="-92594" transform="translate(446, 356.462890625)"><g id="sy_2_line_7_40dq4qpaqkj-stroke" fill="none" stroke-linecap="round" stroke-linejoin="round" stroke-miterlimit="4" stroke="#d3d3d3" stroke-width="2"><g><path d="M 10 9.998047L 10 52.998047"></path><path d="M 3.5 46.998047L 10 53.498047L 16.5 46.998047" stroke-dasharray="none"></path></g></g></g><g id="g-root-sy_2_line_8_1q9hfgcqpar64-stroke" data-item-order="-92590" transform="translate(422, 361.998046875)"><g id="sy_2_line_8_1q9hfgcqpar64-stroke" fill="none" stroke-linecap="round" stroke-linejoin="round" stroke-miterlimit="4" stroke="#d3d3d3" stroke-width="2"><g><path d="M 10 10.001953L 10 53.001953"></path><path d="M 3.5 47.001953L 10 53.501953L 16.5 47.001953" stroke-dasharray="none"></path></g></g></g><g id="g-root-sy_2_cu_1ltnxbwqparyd-stroke" data-item-order="-92589" transform="translate(266, 284)"><g id="sy_2_cu_1ltnxbwqparyd-stroke" fill="none" stroke-linecap="round" stroke-linejoin="round" stroke-miterlimit="4" stroke="#d3d3d3" stroke-width="2"><g><path d="M 10 40L 10 52L 166 88L 322 52L 322 40M 10 40L 165.9714 76L 322 40M 10 40L 140 10L 166 16L 192 10L 322 40"></path></g></g></g><g id="g-root-sy_1_line_18itw1oqpaqdi-stroke" data-item-order="-92582" transform="translate(302, 262.3046875)"><g id="sy_1_line_18itw1oqpaqdi-stroke" fill="none" stroke-linecap="round" stroke-linejoin="round" stroke-miterlimit="4" stroke="#F8E6B8" stroke-width="2"><g><path d="M 10 9.996094L 10 52.996094"></path><path d="M 3.5 46.996094L 10 53.496094L 16.5 46.996094" stroke-dasharray="none"></path></g></g></g><g id="g-root-sy_1_line_1_v7ddocqparyf-stroke" data-item-order="-92578" transform="translate(326, 267.84375)"><g id="sy_1_line_1_v7ddocqparyf-stroke" fill="none" stroke-linecap="round" stroke-linejoin="round" stroke-miterlimit="4" stroke="#F8E6B8" stroke-width="2"><g><path d="M 10 9.996094L 10 52.996094"></path><path d="M 3.5 46.996094L 10 53.496094L 16.5 46.996094" stroke-dasharray="none"></path></g></g></g><g id="g-root-sy_1_line_2_qs6cn0qpapkw-stroke" data-item-order="-92574" transform="translate(350, 273.3828125)"><g id="sy_1_line_2_qs6cn0qpapkw-stroke" fill="none" stroke-linecap="round" stroke-linejoin="round" stroke-miterlimit="4" stroke="#F8E6B8" stroke-width="2"><g><path d="M 10 9.998047L 10 52.998047"></path><path d="M 3.5 46.998047L 10 53.498047L 16.5 46.998047" stroke-dasharray="none"></path></g></g></g><g id="g-root-sy_1_line_3_hwjce4qpaqdl-stroke" data-item-order="-92570" transform="translate(374, 278.921875)"><g id="sy_1_line_3_hwjce4qpaqdl-stroke" fill="none" stroke-linecap="round" stroke-linejoin="round" stroke-miterlimit="4" stroke="#F8E6B8" stroke-width="2"><g><path d="M 10 9.998047L 10 52.998047"></path><path d="M 3.5 46.998047L 10 53.498047L 16.5 46.998047" stroke-dasharray="none"></path></g></g></g><g id="g-root-sy_1_line_4_4l2u0sqparyi-stroke" data-item-order="-92566" transform="translate(398, 284.4609375)"><g id="sy_1_line_4_4l2u0sqparyi-stroke" fill="none" stroke-linecap="round" stroke-linejoin="round" stroke-miterlimit="4" stroke="#F8E6B8" stroke-width="2"><g><path d="M 10 10L 10 53"></path><path d="M 3.5 47L 10 53.5L 16.5 47" stroke-dasharray="none"></path></g></g></g><g id="g-root-sy_1_line_5_5vszgqpapkz-stroke" data-item-order="-92562" transform="translate(542, 262.322265625)"><g id="sy_1_line_5_5vszgqpapkz-stroke" fill="none" stroke-linecap="round" stroke-linejoin="round" stroke-miterlimit="4" stroke="#F8E6B8" stroke-width="2"><g><path d="M 10 9.998047L 10 52.998047"></path><path d="M 3.5 46.998047L 10 53.498047L 16.5 46.998047" stroke-dasharray="none"></path></g></g></g><g id="g-root-sy_1_line_6_1qbcupoqpaq6k-stroke" data-item-order="-92558" transform="translate(518, 267.857421875)"><g id="sy_1_line_6_1qbcupoqpaq6k-stroke" fill="none" stroke-linecap="round" stroke-linejoin="round" stroke-miterlimit="4" stroke="#F8E6B8" stroke-width="2"><g><path d="M 10 10.001953L 10 53.001953"></path><path d="M 3.5 47.001953L 10 53.501953L 16.5 47.001953" stroke-dasharray="none"></path></g></g></g><g id="g-root-sy_1_line_7_1lvjcl8qpaqyt-stroke" data-item-order="-92554" transform="translate(494, 273.392578125)"><g id="sy_1_line_7_1lvjcl8qpaqyt-stroke" fill="none" stroke-linecap="round" stroke-linejoin="round" stroke-miterlimit="4" stroke="#F8E6B8" stroke-width="2"><g><path d="M 10 9.998047L 10 52.998047"></path><path d="M 3.5 46.998047L 10 53.498047L 16.5 46.998047" stroke-dasharray="none"></path></g></g></g><g id="g-root-sy_1_line_8_18kpbb0qpapdy-stroke" data-item-order="-92550" transform="translate(470, 278.927734375)"><g id="sy_1_line_8_18kpbb0qpapdy-stroke" fill="none" stroke-linecap="round" stroke-linejoin="round" stroke-miterlimit="4" stroke="#F8E6B8" stroke-width="2"><g><path d="M 10 10.001953L 10 53.001953"></path><path d="M 3.5 47.001953L 10 53.501953L 16.5 47.001953" stroke-dasharray="none"></path></g></g></g><g id="g-root-sy_1_line_9_zp2b24qpaq6n-stroke" data-item-order="-92546" transform="translate(446, 284.462890625)"><g id="sy_1_line_9_zp2b24qpaq6n-stroke" fill="none" stroke-linecap="round" stroke-linejoin="round" stroke-miterlimit="4" stroke="#F8E6B8" stroke-width="2"><g><path d="M 10 9.998047L 10 52.998047"></path><path d="M 3.5 46.998047L 10 53.498047L 16.5 46.998047" stroke-dasharray="none"></path></g></g></g><g id="g-root-sy_1_line_10_v98sxoqpaqyw-stroke" data-item-order="-92542" transform="translate(422, 289.998046875)"><g id="sy_1_line_10_v98sxoqpaqyw-stroke" fill="none" stroke-linecap="round" stroke-linejoin="round" stroke-miterlimit="4" stroke="#F8E6B8" stroke-width="2"><g><path d="M 10 10.001953L 10 53.001953"></path><path d="M 3.5 47.001953L 10 53.501953L 16.5 47.001953" stroke-dasharray="none"></path></g></g></g><g id="g-root-sy_1_cu_qtfat8qparr5-stroke" data-item-order="-92541" transform="translate(266, 206)"><g id="sy_1_cu_qtfat8qparr5-stroke" fill="none" stroke-linecap="round" stroke-linejoin="round" stroke-miterlimit="4" stroke="#F8E6B8" stroke-width="2"><g><path d="M 10 46L 10 58L 166 94L 322 58L 322 46M 10 46L 166 10L 322 46M 10 46L 166 82L 322 46"></path></g></g></g><g id="g-root-sy_0_line_dil9j0qpaq6a-stroke" data-item-order="-92534" transform="translate(278, 182)"><g id="sy_0_line_dil9j0qpaq6a-stroke" fill="none" stroke-linecap="round" stroke-linejoin="round" stroke-miterlimit="4" stroke="#d3d3d3" stroke-width="2"><g><path d="M 10 10L 10 55.77"></path><path d="M 3.5 49.8L 10 56.3L 16.5 49.8" stroke-dasharray="none"></path></g></g></g><g id="g-root-sy_0_line_1_74r5oqparr7-stroke" data-item-order="-92530" transform="translate(494, 194)"><g id="sy_0_line_1_74r5oqparr7-stroke" fill="none" stroke-linecap="round" stroke-linejoin="round" stroke-miterlimit="4" stroke="#d3d3d3" stroke-width="2"><g><path d="M 10 10L 10 60.39"></path><path d="M 3.5 54.4L 10 60.9L 16.5 54.4" stroke-dasharray="none"></path></g></g></g><g id="g-root-sy_0_line_2_1qclsvwqpascs-stroke" data-item-order="-92526" transform="translate(446, 194)"><g id="sy_0_line_2_1qclsvwqpascs-stroke" fill="none" stroke-linecap="round" stroke-linejoin="round" stroke-miterlimit="4" stroke="#d3d3d3" stroke-width="2"><g><path d="M 10 10L 10 71.46"></path><path d="M 3.5 65.5L 10 72L 16.5 65.5" stroke-dasharray="none"></path></g></g></g><g id="g-root-sy_0_line_3_1d1rrloqpaqrx-stroke" data-item-order="-92522" transform="translate(350, 194)"><g id="sy_0_line_3_1d1rrloqpaqrx-stroke" fill="none" stroke-linecap="round" stroke-linejoin="round" stroke-miterlimit="4" stroke="#d3d3d3" stroke-width="2"><g><path d="M 10 10L 10 60.38"></path><path d="M 3.5 54.4L 10 60.9L 16.5 54.4" stroke-dasharray="none"></path></g></g></g><g id="g-root-sy_0_line_4_18ly9h8qpark6-stroke" data-item-order="-92518" transform="translate(470, 182)"><g id="sy_0_line_4_18ly9h8qpark6-stroke" fill="none" stroke-linecap="round" stroke-linejoin="round" stroke-miterlimit="4" stroke="#d3d3d3" stroke-width="2"><g><path d="M 10 10L 10 77.93"></path><path d="M 3.5 71.9L 10 78.4L 16.5 71.9" stroke-dasharray="none"></path></g></g></g><g id="g-root-sy_0_line_5_zqb98cqpascv-stroke" data-item-order="-92514" transform="translate(302, 194)"><g id="sy_0_line_5_zqb98cqpascv-stroke" fill="none" stroke-linecap="round" stroke-linejoin="round" stroke-miterlimit="4" stroke="#d3d3d3" stroke-width="2"><g><path d="M 10 10L 10 49.31"></path><path d="M 3.5 43.3L 10 49.8L 16.5 43.3" stroke-dasharray="none"></path></g></g></g><g id="g-root-sy_0_line_6_qvaq2kqpaqrk-stroke" data-item-order="-92510" transform="translate(566, 182)"><g id="sy_0_line_6_qvaq2kqpaqrk-stroke" fill="none" stroke-linecap="round" stroke-linejoin="round" stroke-miterlimit="4" stroke="#d3d3d3" stroke-width="2"><g><path d="M 10 10L 10 55.79"></path><path d="M 3.5 49.8L 10 56.3L 16.5 49.8" stroke-dasharray="none"></path></g></g></g><g id="g-root-sy_0_line_7_hznptoqpark9-stroke" data-item-order="-92506" transform="translate(518, 182)"><g id="sy_0_line_7_hznptoqpark9-stroke" fill="none" stroke-linecap="round" stroke-linejoin="round" stroke-miterlimit="4" stroke="#d3d3d3" stroke-width="2"><g><path d="M 10 10L 10 66.86"></path><path d="M 3.5 60.9L 10 67.4L 16.5 60.9" stroke-dasharray="none"></path></g></g></g><g id="g-root-sy_0_line_8_dju7p8qpasci-stroke" data-item-order="-92502" transform="translate(326, 182)"><g id="sy_0_line_8_dju7p8qpasci-stroke" fill="none" stroke-linecap="round" stroke-linejoin="round" stroke-miterlimit="4" stroke="#d3d3d3" stroke-width="2"><g><path d="M 10 10L 10 66.84"></path><path d="M 3.5 60.8L 10 67.3L 16.5 60.8" stroke-dasharray="none"></path></g></g></g><g id="g-root-sy_0_line_9_4otojgqpapzf-stroke" data-item-order="-92498" transform="translate(398, 194)"><g id="sy_0_line_9_4otojgqpapzf-stroke" fill="none" stroke-linecap="round" stroke-linejoin="round" stroke-miterlimit="4" stroke="#d3d3d3" stroke-width="2"><g><path d="M 10 10L 10 71.46"></path><path d="M 3.5 65.5L 10 72L 16.5 65.5" stroke-dasharray="none"></path></g></g></g><g id="g-root-sy_0_line_10_1qeh858qpard8-stroke" data-item-order="-92494" transform="translate(374, 182)"><g id="sy_0_line_10_1qeh858qpard8-stroke" fill="none" stroke-linecap="round" stroke-linejoin="round" stroke-miterlimit="4" stroke="#d3d3d3" stroke-width="2"><g><path d="M 10 10L 10 77.92"></path><path d="M 3.5 71.9L 10 78.4L 16.5 71.9" stroke-dasharray="none"></path></g></g></g><g id="g-root-sy_0_line_11_1lynq0sqpas5h-stroke" data-item-order="-92490" transform="translate(542, 194)"><g id="sy_0_line_11_1lynq0sqpas5h-stroke" fill="none" stroke-linecap="round" stroke-linejoin="round" stroke-miterlimit="4" stroke="#d3d3d3" stroke-width="2"><g><path d="M 10 10L 10 49.32"></path><path d="M 3.5 43.3L 10 49.8L 16.5 43.3" stroke-dasharray="none"></path></g></g></g><g id="g-root-sy_0_line_12_1d3n6v0qpapse-stroke" data-item-order="-92486" transform="translate(422, 182)"><g id="sy_0_line_12_1d3n6v0qpapse-stroke" fill="none" stroke-linecap="round" stroke-linejoin="round" stroke-miterlimit="4" stroke="#d3d3d3" stroke-width="2"><g><path d="M 10 10L 10 89"></path><path d="M 3.5 83L 10 89.5L 16.5 83" stroke-dasharray="none"></path></g></g></g><g id="g-root-tx_fundsecu_zs6ohoqpardb-stroke" data-item-order="0" transform="translate(14, 380)"></g><g id="g-root-tx_inputval_qn6jy4qpc4ch-stroke" data-item-order="0" transform="translate(14, 236)"></g><g id="g-root-tx_layereds_4g31bwqpc6q4-stroke" data-item-order="0" transform="translate(248, 38)"></g><g id="g-root-tx_business_vcd6d8qpas5k-stroke" data-item-order="0" transform="translate(602, 308)"></g><g id="g-root-tx_contract_hrjjp8qpc556-stroke" data-item-order="0" transform="translate(326, 146)"></g><g id="g-root-tx_securesy_dbq1ksqpc5xf-stroke" data-item-order="0" transform="translate(308, 494)"></g></g></g></svg>