<?xml version="1.0" encoding="utf-8" standalone="yes"?>
<!DOCTYPE svg PUBLIC "-//W3C//DTD SVG 1.1//EN" "http://www.w3.org/Graphics/SVG/1.1/DTD/svg11.dtd">
<svg width="852" height="397" viewBox="0 0 852 397" style="fill:none;stroke:none;fill-rule:evenodd;clip-rule:evenodd;stroke-linecap:round;stroke-linejoin:round;stroke-miterlimit:1.5;" version="1.1" xmlns="http://www.w3.org/2000/svg" xmlns:xlink="http://www.w3.org/1999/xlink"><style class="text-font-style fontImports" data-font-family="Roboto">@import url('https://fonts.googleapis.com/css2?family=Roboto:wght@400;700&amp;display=block');</style><g id="items" style="isolation: isolate"><g id="blend" style="mix-blend-mode: normal"><g id="g-root-cp_3_g-3_1hhkx23qys1zi-fill" data-item-order="-241994" transform="translate(335.5, 134)"><g id="cp_3_g-3_1hhkx23qys1zi-fill" stroke="none" fill="#6b6b6b"><g><path d="M 206.9943 130L 148.3333 130L 176 82L 162.1667 58L 134.0003 58L 147.8337 82L 120.167 130L 64.8336 130L 51.0003 106L 23.8333 106L 51.5 154L 206.9943 154C 211.6237 164.5954 222.1961 172 234.498 172C 251.0666 172 264.498 158.5685 264.498 142C 264.498 125.4315 251.0666 112 234.498 112C 222.1961 112 211.6237 119.4046 206.9943 130ZM 10 82L 37.167 82L 64.8337 34L 148.3333 34L 134.5 10L 51.5 10L 10 82Z"></path></g></g></g><g id="g-root-cp_2_g-2_1lxef6jqys1z4-fill" data-item-order="-241990" transform="translate(362.6669921875, 140)"><g id="cp_2_g-2_1lxef6jqys1z4-fill" stroke="none" fill="#6b6b6b"><g><path d="M 37.6667 28L 179.8289 28C 184.458 17.4046 195.0303 10 207.332 10C 223.9 10 237.3311 23.431 237.3311 39.999C 237.3311 56.567 223.9 69.998 207.332 69.998C 195.031 69.998 184.4593 62.5944 179.8298 52L 106.8333 52L 120.6667 76L 93 124L 37.6667 124L 23.8333 100L 78.666 100L 92.4994 76L 78.666 52L 50.9993 52L 37.166 76L 10 76L 37.6667 28Z"></path></g></g></g><g id="g-root-cp_1_g-1_1lxef6jqys1z6-fill" data-item-order="-241986" transform="translate(242, 182)"><g id="cp_1_g-1_1lxef6jqys1z6-fill" stroke="none" fill="#E5A000"><g><path d="M 213.1664 34L 199.3331 58L 67.9192 58C 63.5318 69.1266 52.6854 77 40 77C 23.4315 77 10 63.5685 10 47C 10 30.4315 23.4315 17 40 17C 51.9111 17 62.2009 23.9416 67.0447 34L 157.8331 34L 171.6664 10L 199.3331 10L 213.1664 34Z"></path></g></g></g><g id="g-root-tx_resonanc_1d1rexnqys2rw-fill" data-item-order="0" transform="translate(272, 38)"><g id="tx_resonanc_1d1rexnqys2rw-fill" stroke="none" fill="#f4f4f4"><g><text style="font: bold 25px Roboto, sans-serif; white-space: pre;" font-weight="bold" font-size="25px" font-family="Roboto, sans-serif"><tspan x="13.57" y="43" dominant-baseline="ideographic">Resonance Process Flow</tspan></text></g></g></g><g id="g-root-ic_gran_1hhkx23qyuxhf-fill" data-item-order="0" transform="translate(541.9990234375, 152)"></g><g id="g-root-tx_resonanc_qp1mjfqyxp1q-fill" data-item-order="0" transform="translate(602, 158)"><g id="tx_resonanc_qp1mjfqyxp1q-fill" stroke="none" fill="#f4f4f4"><g><text style="font: bold 20px Roboto, sans-serif; white-space: pre;" font-weight="bold" font-size="20px" font-family="Roboto, sans-serif"><tspan x="12" y="33.63" dominant-baseline="ideographic">Resonance </tspan><tspan x="12" y="57.64" dominant-baseline="ideographic">Confirmation</tspan></text></g></g></g><g id="g-root-tx_resonanc_dhbyorqyxone-fill" data-item-order="0" transform="translate(122.60601806640625, 206)"><g id="tx_resonanc_dhbyorqyxone-fill" stroke="none" fill="#F8E6B8"><g><text style="font: bold 20px Roboto, sans-serif; white-space: pre;" font-weight="bold" font-size="20px" font-family="Roboto, sans-serif"><tspan x="16.47" y="33.63" dominant-baseline="ideographic">Resonance </tspan><tspan x="12.39" y="57.64" dominant-baseline="ideographic">Completion</tspan></text></g></g></g><g id="g-root-ic_brac_18lxwt7qys3k5-fill" data-item-order="0" transform="translate(254, 200)"></g><g id="g-root-tx_verifica_zlxkyjqyxqfa-fill" data-item-order="0" transform="translate(602, 219)"><g id="tx_verifica_zlxkyjqyxqfa-fill" stroke="none" fill="#f4f4f4"><g><text style="font: 15px Roboto, sans-serif; white-space: pre;" font-size="15px" font-family="Roboto, sans-serif"><tspan x="12" y="30.27" dominant-baseline="ideographic">Verification of resonance</tspan></text></g></g></g><g id="g-root-ic_play_vnmjqywb2k-fill" data-item-order="0" transform="translate(542, 248)"></g><g id="g-root-tx_resonanc_1qd7xazqywbnn-fill" data-item-order="0" transform="translate(602, 254)"><g id="tx_resonanc_1qd7xazqywbnn-fill" stroke="none" fill="#f4f4f4"><g><text style="font: bold 20px Roboto, sans-serif; white-space: pre;" font-weight="bold" font-size="20px" font-family="Roboto, sans-serif"><tspan x="12" y="33.63" dominant-baseline="ideographic">Resonance </tspan><tspan x="12" y="57.64" dominant-baseline="ideographic">Initialization</tspan></text></g></g></g><g id="g-root-tx_finalsta_9mau3qyxo8z-fill" data-item-order="0" transform="translate(62.60601806640625, 267)"><g id="tx_finalsta_9mau3qyxo8z-fill" stroke="none" fill="#F8E6B8"><g><text style="font: 15px Roboto, sans-serif; white-space: pre;" font-size="15px" font-family="Roboto, sans-serif"><tspan x="12.12" y="30.27" dominant-baseline="ideographic">Final stage of resonance</tspan></text></g></g></g><g id="g-root-tx_starting_1uuwuorqyw9vu-fill" data-item-order="0" transform="translate(602, 315)"><g id="tx_starting_1uuwuorqyw9vu-fill" stroke="none" fill="#f4f4f4"><g><text style="font: 15px Roboto, sans-serif; white-space: pre;" font-size="15px" font-family="Roboto, sans-serif"><tspan x="12" y="30.27" dominant-baseline="ideographic">Starting point of resonance</tspan></text></g></g></g><g id="g-root-cp_3_g-3_1hhkx23qys1zi-stroke" data-item-order="-241994" transform="translate(335.5, 134)"><g id="cp_3_g-3_1hhkx23qys1zi-stroke" fill="none" stroke-linecap="round" stroke-linejoin="round" stroke-miterlimit="4" stroke="#d3d3d3" stroke-width="2"><g><path d="M 206.9943 130L 148.3333 130L 176 82L 162.1667 58L 134.0003 58L 147.8337 82L 120.167 130L 64.8336 130L 51.0003 106L 23.8333 106L 51.5 154L 206.9943 154C 211.6237 164.5954 222.1961 172 234.498 172C 251.0666 172 264.498 158.5685 264.498 142C 264.498 125.4315 251.0666 112 234.498 112C 222.1961 112 211.6237 119.4046 206.9943 130ZM 10 82L 37.167 82L 64.8337 34L 148.3333 34L 134.5 10L 51.5 10L 10 82Z"></path></g></g></g><g id="g-root-cp_2_g-2_1lxef6jqys1z4-stroke" data-item-order="-241990" transform="translate(362.6669921875, 140)"><g id="cp_2_g-2_1lxef6jqys1z4-stroke" fill="none" stroke-linecap="round" stroke-linejoin="round" stroke-miterlimit="4" stroke="#d3d3d3" stroke-width="2"><g><path d="M 37.6667 28L 179.8289 28C 184.458 17.4046 195.0303 10 207.332 10C 223.9 10 237.3311 23.431 237.3311 39.999C 237.3311 56.567 223.9 69.998 207.332 69.998C 195.031 69.998 184.4593 62.5944 179.8298 52L 106.8333 52L 120.6667 76L 93 124L 37.6667 124L 23.8333 100L 78.666 100L 92.4994 76L 78.666 52L 50.9993 52L 37.166 76L 10 76L 37.6667 28Z"></path></g></g></g><g id="g-root-cp_1_g-1_1lxef6jqys1z6-stroke" data-item-order="-241986" transform="translate(242, 182)"><g id="cp_1_g-1_1lxef6jqys1z6-stroke" fill="none" stroke-linecap="round" stroke-linejoin="round" stroke-miterlimit="4" stroke="#F8E6B8" stroke-width="2"><g><path d="M 213.1664 34L 199.3331 58L 67.9192 58C 63.5318 69.1266 52.6854 77 40 77C 23.4315 77 10 63.5685 10 47C 10 30.4315 23.4315 17 40 17C 51.9111 17 62.2009 23.9416 67.0447 34L 157.8331 34L 171.6664 10L 199.3331 10L 213.1664 34Z"></path></g></g></g><g id="g-root-tx_resonanc_1d1rexnqys2rw-stroke" data-item-order="0" transform="translate(272, 38)"></g><g id="g-root-ic_gran_1hhkx23qyuxhf-stroke" data-item-order="0" transform="translate(541.9990234375, 152)"><g id="ic_gran_1hhkx23qyuxhf-stroke" fill="none" stroke-linecap="round" stroke-linejoin="round" stroke-miterlimit="4" stroke="#d3d3d3" stroke-width="2"><g><path d="M 34 23.089001C 32.827675 22.148438 31.377657 21.621159 29.875002 21.589001C 26.125 21.589001 23.875 26.839001 20.125 26.839001C 16.375 26.839001 17.125 24.589001 11.125 24.589001M 11.125 24.589001C 17.125 24.589001 16.375 19.339001 20.125 19.339001C 23.899 19.339001 25.348 23.6035 27.2575 26.0005M 22.375 37.900002C 15.657935 36.763252 10.840354 30.79995 11.140743 23.994001C 11.441133 17.188053 16.765354 11.672373 23.55645 11.131825C 30.347544 10.591279 36.477257 15.195268 37.850498 21.868M 26.875 35.910999C 26.875002 40.881565 30.904438 44.910999 35.875 44.910999C 40.845566 44.910999 44.875 40.881565 44.875 35.910999C 44.875 30.940437 40.845566 26.910999 35.875 26.910999C 30.904438 26.910999 26.875002 30.940437 26.875002 35.910999M 39.886002 33.293499L 35.5285 39.099998C 35.154144 39.596931 34.448124 39.69693 33.9505 39.323502C 33.908588 39.291862 33.868988 39.257271 33.832001 39.220001L 31.581999 36.970001"></path></g></g></g><g id="g-root-tx_resonanc_qp1mjfqyxp1q-stroke" data-item-order="0" transform="translate(602, 158)"></g><g id="g-root-tx_resonanc_dhbyorqyxone-stroke" data-item-order="0" transform="translate(122.60601806640625, 206)"></g><g id="g-root-ic_brac_18lxwt7qys3k5-stroke" data-item-order="0" transform="translate(254, 200)"><g id="ic_brac_18lxwt7qys3k5-stroke" fill="none" stroke-linecap="round" stroke-linejoin="round" stroke-miterlimit="4" stroke="#F8E6B8" stroke-width="2"><g><path d="M 24.625 40.900002C 24.625 42.550003 23.275002 43.900002 21.625 43.900002L 14.125 43.900002C 12.475 43.900002 11.125 42.550003 11.125 40.900002C 11.125 39.25 12.475 37.900002 14.125 37.900002L 21.625 37.900002C 23.275002 37.900002 24.625 39.25 24.625 40.900002ZM 44.875 40.900002C 44.875 42.550003 43.525002 43.900002 41.875 43.900002L 34.375 43.900002C 32.724998 43.900002 31.375 42.550003 31.375 40.900002C 31.375 39.25 32.724998 37.900002 34.375 37.900002L 41.875 37.900002C 43.525002 37.900002 44.875 39.25 44.875 40.900002ZM 17.875 37.900002L 17.875 33.400002C 17.875 32.5 18.475 31.900002 19.375 31.900002L 36.625 31.900002C 37.525002 31.900002 38.125 32.5 38.125 33.400002L 38.125 37.900002M 34.824997 19.6C 34.824997 23.349998 31.825001 26.349998 28.075001 26.349998C 24.325001 26.349998 21.325001 23.349998 21.325001 19.6L 21.325001 12.1L 34.824997 12.1L 34.824997 19.6ZM 34.824997 15.1L 37.074997 15.1C 39.175003 15.1 40.824997 16.75 40.824997 18.85C 40.824997 20.950001 39.175003 22.599998 37.074997 22.599998L 34.140999 22.599998M 28.075001 26.349998L 28.075001 31.900002M 21.325001 15.1L 19.075001 15.1C 16.975 15.1 15.325 16.75 15.325 18.85C 15.325 20.950001 16.975 22.599998 19.075001 22.599998L 22 22.599998"></path></g></g></g><g id="g-root-tx_verifica_zlxkyjqyxqfa-stroke" data-item-order="0" transform="translate(602, 219)"></g><g id="g-root-ic_play_vnmjqywb2k-stroke" data-item-order="0" transform="translate(542, 248)"><g id="ic_play_vnmjqywb2k-stroke" fill="none" stroke-linecap="round" stroke-linejoin="round" stroke-miterlimit="4" stroke="#d3d3d3" stroke-width="2"><g><path d="M 28 39.099998C 34.130352 39.099998 39.099998 34.130352 39.099998 28C 39.099998 21.869635 34.130352 16.9 28 16.9C 21.869635 16.9 16.9 21.869635 16.9 28C 16.9 34.130352 21.869635 39.099998 28 39.099998ZM 25.599998 23.349998C 25.299999 23.200001 25.150002 23.200001 24.849998 23.349998C 24.549999 23.5 24.400002 23.800014 24.400002 23.950014L 24.400002 31.900002C 24.400002 32.200001 24.549999 32.349998 24.849998 32.5C 25.150002 32.650002 25.299999 32.650002 25.599998 32.5L 32.5 28.450001C 32.799999 28.299999 32.799999 28 32.799999 27.849998C 32.799999 27.700001 32.650002 27.400002 32.5 27.25L 25.599998 23.349998ZM 28 12.325C 27.668652 12.325 27.400002 12.056365 27.400002 11.725C 27.400002 11.39363 27.668652 11.125 28 11.125M 28 12.325C 28.331348 12.325 28.599998 12.056365 28.599998 11.725C 28.599998 11.39363 28.331348 11.125 28 11.125M 28 44.875C 27.668652 44.875 27.400002 44.60635 27.400002 44.275002C 27.400002 43.943649 27.668652 43.675003 28 43.675003M 28 44.875C 28.331348 44.875 28.599998 44.60635 28.599998 44.275002C 28.599998 43.943649 28.331348 43.675003 28 43.675003M 34.228149 13.564C 33.896801 13.564 33.628151 13.295364 33.628151 12.964C 33.628151 12.632635 33.896801 12.364 34.228149 12.364M 34.228001 13.564C 34.559498 13.564 34.827999 13.295364 34.827999 12.964C 34.827999 12.632635 34.559498 12.364 34.228001 12.364M 21.77182 13.564C 21.440454 13.564 21.17182 13.295364 21.17182 12.964C 21.17182 12.632635 21.440454 12.364 21.77182 12.364M 21.771715 13.564C 22.103081 13.564 22.371716 13.295364 22.371716 12.964C 22.371716 12.632635 22.103081 12.364 21.771715 12.364M 34.228149 43.636002C 33.896801 43.636002 33.628151 43.367348 33.628151 43.035999C 33.628151 42.704651 33.896801 42.436001 34.228149 42.436001M 34.228001 43.636002C 34.559498 43.636002 34.827999 43.367348 34.827999 43.035999C 34.827999 42.704651 34.559498 42.436001 34.228001 42.436001M 21.77182 43.636002C 21.440454 43.636002 21.17182 43.367348 21.17182 43.035999C 21.17182 42.704651 21.440454 42.436001 21.77182 42.436001M 21.771715 43.636002C 22.103081 43.636002 22.371716 43.367348 22.371716 43.035999C 22.371716 42.704651 22.103081 42.436001 21.771715 42.436001M 16.491835 40.10815C 16.160454 40.10815 15.891835 39.8395 15.891835 39.508148C 15.891835 39.1768 16.160454 38.90815 16.491835 38.90815M 16.491714 40.10815C 16.82308 40.10815 17.091715 39.8395 17.091715 39.508148C 17.091715 39.1768 16.82308 38.90815 16.491714 38.90815M 12.964105 34.828148C 12.63274 34.828148 12.364105 34.559498 12.364105 34.228149C 12.364105 33.896801 12.63274 33.628151 12.964105 33.628151M 12.964 34.828148C 13.295364 34.828148 13.564 34.559498 13.564 34.228149C 13.564 33.896801 13.295364 33.628151 12.964 33.628151M 11.725 28.599998C 11.39363 28.599998 11.125 28.331348 11.125 28C 11.125 27.668652 11.39363 27.400002 11.725 27.400002M 11.72488 28.599998C 12.05626 28.599998 12.32488 28.331348 12.32488 28C 12.32488 27.668652 12.05626 27.400002 11.72488 27.400002M 12.964165 22.37182C 12.6328 22.37182 12.364165 22.103199 12.364165 21.77182C 12.364165 21.440454 12.6328 21.17182 12.964165 21.17182M 12.964045 22.37182C 13.295425 22.37182 13.56406 22.103199 13.56406 21.77182C 13.56406 21.440454 13.295425 21.17182 12.964045 21.17182M 16.491776 17.091835C 16.16041 17.091835 15.891775 16.823215 15.891775 16.491835C 15.891775 16.160469 16.16041 15.891835 16.491776 15.891835M 16.491655 17.091835C 16.823034 17.091835 17.091656 16.823215 17.091656 16.491835C 17.091656 16.160469 16.823034 15.891835 16.491655 15.891835M 39.507851 40.10815C 39.839199 40.10815 40.107849 39.8395 40.107849 39.508148C 40.107849 39.1768 39.839199 38.90815 39.507851 38.90815M 39.508003 40.10815C 39.176651 40.10815 38.907997 39.8395 38.907997 39.508148C 38.907997 39.1768 39.176651 38.90815 39.508003 38.90815M 43.035553 34.828148C 43.36705 34.828148 43.635551 34.559498 43.635551 34.228149C 43.635551 33.896801 43.36705 33.628151 43.035553 33.628151M 43.035698 34.828148C 42.70435 34.828148 42.435699 34.559498 42.435699 34.228149C 42.435699 33.896801 42.70435 33.628151 43.035698 33.628151M 44.2747 28.599998C 44.606049 28.599998 44.874699 28.331348 44.874699 28C 44.874699 27.668652 44.606049 27.400002 44.2747 27.400002M 44.274849 28.599998C 43.943501 28.599998 43.67485 28.331348 43.67485 28C 43.67485 27.668652 43.943501 27.400002 44.274849 27.400002M 43.035553 22.37182C 43.366901 22.37182 43.635551 22.103199 43.635551 21.77182C 43.635551 21.440454 43.366901 21.17182 43.035553 21.17182M 43.035698 22.37182C 42.70435 22.37182 42.435699 22.103199 42.435699 21.77182C 42.435699 21.440454 42.70435 21.17182 43.035698 21.17182M 39.508003 17.091835C 39.839352 17.091835 40.108002 16.823215 40.108002 16.491835C 40.108002 16.160469 39.839352 15.891835 39.508003 15.891835M 39.508003 17.091835C 39.176651 17.091835 38.907997 16.823215 38.907997 16.491835C 38.907997 16.160469 39.176651 15.891835 39.508003 15.891835"></path></g></g></g><g id="g-root-tx_resonanc_1qd7xazqywbnn-stroke" data-item-order="0" transform="translate(602, 254)"></g><g id="g-root-tx_finalsta_9mau3qyxo8z-stroke" data-item-order="0" transform="translate(62.60601806640625, 267)"></g><g id="g-root-tx_starting_1uuwuorqyw9vu-stroke" data-item-order="0" transform="translate(602, 315)"></g></g></g></svg>