<?xml version="1.0" encoding="utf-8" standalone="yes"?>
<!DOCTYPE svg PUBLIC "-//W3C//DTD SVG 1.1//EN" "http://www.w3.org/Graphics/SVG/1.1/DTD/svg11.dtd">
<svg width="948" height="670" viewBox="0 0 948 670" style="fill:none;stroke:none;fill-rule:evenodd;clip-rule:evenodd;stroke-linecap:round;stroke-linejoin:round;stroke-miterlimit:1.5;" version="1.1" xmlns="http://www.w3.org/2000/svg" xmlns:xlink="http://www.w3.org/1999/xlink"><style class="text-font-style fontImports" data-font-family="Roboto">@import url('https://fonts.googleapis.com/css2?family=Roboto:wght@400;700&amp;display=block');</style><g id="items" style="isolation: isolate"><g id="blend" style="mix-blend-mode: normal"><g id="g-root-cp_3_g-3_1uux46zs332tr-fill" data-item-order="-516590" transform="translate(38.304718017578125, 175.005859375)"><g id="cp_3_g-3_1uux46zs332tr-fill" stroke="none" fill="#6b6b6b"><g><path d="M 195.00507 375.5978C 92.79167 378.3773 8.87207 295.4621 10.01147 193.617C 11.11557 95.736 93.53047 15.6671 191.43657 15.6671L 389.51677 15.6703C 377.96877 16.0004 367.65047 19.6451 359.17207 25.5197C 335.94687 41.578 326.50077 74.2873 343.14967 101.1847C 345.81777 105.5013 348.30827 109.9275 350.62107 114.4634L 223.16077 80.3192C 211.71657 77.0187 200.01367 75.4957 188.41197 75.6642C 188.30047 75.6734 188.19617 75.6703 188.10147 75.6646C 187.26727 75.6811 186.44537 75.7046 185.63567 75.7352C 185.46117 75.7405 185.27687 75.7485 185.09977 75.7442C 184.33127 75.7741 183.56547 75.8137 182.79517 75.8751C 182.58197 75.8909 182.35647 75.8995 182.14327 75.9152C 181.38967 75.9619 180.62197 76.033 179.85157 76.0945C 179.64807 76.1076 179.44447 76.1207 179.23387 76.1461C 178.40557 76.2231 177.56767 76.3027 176.73487 76.4016C 176.61377 76.4133 176.49267 76.4251 176.38127 76.4342C 144.20107 80.129 113.88827 96.7819 93.62617 124.1693C 93.55477 124.2506 93.48857 124.3512 93.41977 124.4421C 93.00947 124.9972 92.60177 125.5619 92.19407 126.1267C 91.91947 126.5316 91.62557 126.9416 91.33167 127.3517C 91.13037 127.6437 90.93877 127.9331 90.73747 128.2252C 90.27837 128.9072 89.82187 129.599 89.35567 130.2933C 89.32737 130.3423 89.29207 130.4035 89.24447 130.4577C 86.50417 134.6809 84.00757 139.1184 81.79777 143.7377C 81.77917 143.7841 81.75797 143.8208 81.73937 143.8672C 81.41167 144.5762 81.08397 145.2852 80.74667 145.9967C 80.60847 146.2925 80.47297 146.598 80.34447 146.8913C 80.15757 147.3141 79.97057 147.7368 79.78367 148.1596C 79.52217 148.768 79.26337 149.3861 79.01417 150.0016C 78.97687 150.0944 78.93257 150.1994 78.88567 150.2948C 72.65557 165.5263 69.76827 181.4875 69.99717 197.2555C 69.99407 197.3599 69.99797 197.4519 69.99487 197.5563C 70.01847 198.3782 70.03487 199.2124 70.06547 200.022C 70.06377 200.2089 70.07877 200.3809 70.07447 200.558C 70.10437 201.3264 70.15627 202.0993 70.20547 202.8626C 70.22117 203.0758 70.22977 203.3013 70.24557 203.5145C 70.28767 204.29 70.34657 205.0507 70.41767 205.8184C 70.43337 206.0316 70.45357 206.2229 70.46417 206.4168C 70.54377 207.2547 70.62337 208.0927 70.72477 208.9351C 70.74367 209.0439 70.74567 209.1677 70.76707 209.2862C 74.46187 241.4664 91.11487 271.779 118.50227 292.0411C 118.58347 292.1125 118.68407 292.1787 118.77497 292.2475C 119.33007 292.6578 119.89487 293.0655 120.45957 293.4733C 120.86447 293.7478 121.27447 294.0417 121.68457 294.3356C 121.97657 294.5368 122.26607 294.7285 122.55807 294.9298C 123.24017 295.3889 123.93187 295.8454 124.62617 296.3116C 124.67517 296.3399 124.73637 296.3752 124.79057 296.4228C 129.01377 299.1631 133.45107 301.6597 138.07047 303.8695C 138.116869 303.8881 138.15357 303.9093 138.199969 303.9279C 138.908969 304.2556 139.61797 304.5833 140.32947 304.9206C 140.62527 305.0588 140.93077 305.1943 141.22407 305.3228C 141.646869 305.5098 142.06967 305.6967 142.49237 305.8836C 143.100769 306.1451 143.718869 306.4039 144.32467 306.6557C 144.42007 306.7026 144.53217 306.7347 144.63017 306.7913C 159.86167 313.0214 175.82277 315.9087 191.59087 315.6798C 191.69517 315.6829 191.78727 315.6789 191.89167 315.682C 192.72587 315.6656 193.54777 315.642 194.36707 315.6089C 194.54167 315.6035 194.72587 315.5955 194.90037 315.5902C 195.66887 315.5603 196.44177 315.5084 197.20767 315.4689C 197.42087 315.4532 197.63667 315.4471 197.84727 315.4217C 198.62277 315.3796 199.38337 315.3207 200.15117 315.2495C 200.35467 315.2364 200.55567 315.2136 200.74957 315.2031C 201.58747 315.1235 202.42547 315.0439 203.26787 314.9424C 203.37667 314.9236 203.50037 314.9215 203.61887 314.9001C 235.79917 311.2054 266.11187 294.5524 286.36427 267.1676C 286.44277 267.0741 286.50897 266.9736 286.57527 266.873C 286.98817 266.3275 287.38617 265.7655 287.79387 265.2007C 288.06847 264.7959 288.36237 264.3858 288.65627 263.9758C 288.85757 263.6837 289.04917 263.3943 289.25037 263.1022C 289.71917 262.4176 290.16597 261.7284 290.63217 261.0341C 290.66757 260.9729 290.69587 260.9239 290.74347 260.8697C 293.48377 256.6466 295.98037 252.2092 298.19017 247.5899C 298.20877 247.5435 298.22997 247.5068 298.24857 247.4604C 298.57627 246.7514 298.90387 246.0424 299.24127 245.3308C 299.37937 245.035 299.51497 244.7296 299.64347 244.4363L 300.20427 243.1679C 300.46567 242.5595 300.72457 241.9415 300.97637 241.3357C 301.02327 241.2403 301.05537 241.1281 301.11187 241.0302C 306.82947 227.0541 309.72807 212.4875 309.97677 197.9995C 314.18657 199.2216 318.32927 200.9276 322.32057 203.1503L 338.75297 212.2783L 309.99587 195.6754C 309.99917 195.1465 309.99977 194.608 309.99337 194.0817C 309.99647 193.9774 309.99957 193.873 309.99297 193.7713C 309.97657 192.9371 309.95307 192.1152 309.92247 191.3055C 309.91707 191.1309 309.90907 190.9467 309.91337 190.7696C 309.88347 190.0011 309.84397 189.2353 309.78247 188.465C 309.76677 188.2518 309.75807 188.0263 309.74237 187.8131C 309.69577 187.0595 309.63167 186.2795 309.56317 185.5214C 309.54997 185.3179 309.53687 185.1143 309.51147 184.9037C 309.43447 184.0754 309.35487 183.2375 309.25857 182.4144C 309.24687 182.2933 309.23507 182.1722 309.22597 182.0608C 309.19147 181.7387 309.14727 181.4192 309.10047 181.0901C 304.79957 151.0911 326.04587 125.2516 353.60447 120.6522C 364.11357 143.4904 369.98387 168.8762 370.00427 195.6119C 370.04217 293.4664 292.81077 372.9434 195.00057 375.6197L 195.00507 375.5978ZM 627.69427 22.0001C 631.00797 22.0001 633.69427 19.3139 633.69427 16.0001C 633.69427 12.6864 631.00797 10.0001 627.69427 10.0001C 624.38057 10.0001 621.69427 12.6864 621.69427 16.0001C 621.69427 19.3139 624.38057 22.0001 627.69427 22.0001ZM 389.51437 15.6608L 617.19427 15.9998"></path></g></g></g><g id="g-root-cp_2_g-2_1qf3m2js333m1-fill" data-item-order="-516586" transform="translate(98.29298400878906, 240.630859375)"><g id="cp_2_g-2_1qf3m2js333m1-fill" stroke="none" fill="#6b6b6b"><g><path d="M 249.115982 115.744599C 249.162689 116.074753 249.206879 116.395089 249.241379 116.718026C 249.260284 116.827141 249.262283 116.951294 249.274078 117.072647C 249.372986 117.907875 249.459686 118.73597 249.526978 119.569291C 249.542679 119.783104 249.565491 119.984597 249.578583 120.18879C 249.647079 120.94899 249.708588 121.721627 249.757889 122.487152C 249.77359 122.700966 249.782181 122.927025 249.797882 123.140839C 249.849686 123.915993 249.898987 124.681511 249.928879 125.452248C 249.934189 125.627251 249.942184 125.811989 249.937881 125.989701C 249.971085 126.811386 249.994583 127.635682 250.008484 128.462578C 250.005386 128.567284 250.002289 128.671875 250.008881 128.773972C 250.017883 129.31144 250.014587 129.841874 250.011383 130.372315L 160.862183 78.752343C 131.896988 61.980614 94.416382 71.460801 77.867386 100.61924C 61.122986 130.13131 71.993786 167.952271 102.411186 183.80423C 130.376587 198.383896 165.340485 188.396347 181.508682 161.261063C 181.723389 160.902237 181.935486 160.533768 182.150192 160.174927C 195.93399 135.933533 224.316879 125.22258 249.992279 132.703171C 249.743591 147.233307 246.844879 161.842255 241.127289 175.858902C 241.080383 175.954575 241.048386 176.067002 240.991791 176.165284C 240.73999 176.772858 240.481186 177.392746 240.219681 178.002915L 239.65889 179.274994C 239.53038 179.569046 239.394882 179.875443 239.256683 180.172104C 238.929092 180.883164 238.601379 181.594223 238.264084 182.307801C 238.235779 182.356934 238.221588 182.381516 238.205582 182.437668C 235.986191 187.073105 233.499283 191.520813 230.758881 195.756195C 230.711288 195.810547 230.682983 195.859696 230.64769 195.921067C 230.191177 196.614777 229.734589 197.308487 229.265884 197.995179C 229.06459 198.288025 228.872986 198.57837 228.671692 198.871216C 228.390091 199.289521 228.093582 199.691101 227.809387 200.099778C 227.401581 200.66623 227.003586 201.229966 226.590683 201.777039C 226.52449 201.877839 226.458282 201.97873 226.379791 202.072495C 206.12738 229.537033 175.802383 246.231232 143.634384 249.943909C 143.525482 249.962754 143.401886 249.964768 143.283386 249.986237C 142.447983 250.075791 141.612579 250.165345 140.764984 250.247681C 140.571091 250.258316 140.379883 250.278565 140.166687 250.294312C 139.39888 250.365631 138.638184 250.424698 137.862686 250.466919C 137.649483 250.482666 137.436287 250.498413 137.223084 250.514252C 136.447586 250.556473 135.684288 250.605912 134.915886 250.63591C 134.741287 250.64122 134.557083 250.649247 134.382484 250.654572C 133.553482 250.690461 132.731583 250.714035 131.907082 250.727982C 131.802788 250.724869 131.710686 250.728882 131.606285 250.725769C 115.838287 250.955338 99.886787 248.056931 84.645584 241.811325C 84.550186 241.764283 84.438087 241.732193 84.340088 241.675415C 83.734283 241.422882 83.116287 241.163346 82.507889 240.901078C 82.085083 240.713639 81.662285 240.526093 81.239487 240.338654C 80.946281 240.209778 80.640785 240.073883 80.344887 239.935288C 79.635986 239.60672 78.926987 239.278077 78.215385 238.939698C 78.166489 238.911408 78.141884 238.897187 78.085884 238.881119C 73.463985 236.655274 69.029186 234.161148 64.806084 231.412766C 64.751884 231.365036 64.690586 231.329636 64.641685 231.301255C 63.949886 230.843415 63.258186 230.385498 62.573586 229.915436C 62.281487 229.713532 61.992085 229.521393 61.699986 229.319504C 61.282887 229.037079 60.882484 228.739716 60.475086 228.45459C 59.910286 228.045716 59.348084 227.646561 58.790386 227.225342C 58.702084 227.165955 58.598885 227.089844 58.517685 227.018219C 31.130285 206.697312 14.477285 176.296357 10.782585 144.022599C 10.763785 143.913376 10.761685 143.789414 10.740285 143.670578C 10.650985 142.832749 10.561785 141.995011 10.479585 141.144944C 10.469085 140.950486 10.448885 140.758622 10.433185 140.544815C 10.361985 139.774765 10.303085 139.011872 10.260985 138.234101C 10.245285 138.020287 10.229585 137.806466 10.220885 137.580414C 10.181385 136.812287 10.119885 136.03975 10.089985 135.269013C 10.084585 135.094002 10.076685 134.909264 10.080985 134.731545C 10.047785 133.909867 10.021685 133.075852 10.010385 132.258683C 10.013485 132.153977 10.009485 132.061615 10.012585 131.95691C 9.783685 116.143052 12.673585 100.145165 18.901085 84.859749C 18.948085 84.764077 18.980085 84.651642 19.029585 84.565606C 19.278785 83.94841 19.540285 83.338242 19.799085 82.718346C 19.986085 82.294312 20.172985 81.870285 20.359985 81.446251C 20.488385 81.152199 20.623985 80.84581 20.762085 80.549149C 21.089785 79.838089 21.417485 79.12703 21.754785 78.41346C 21.783085 78.364319 21.797185 78.339745 21.813185 78.283486C 24.032585 73.648144 26.519585 69.200447 29.259886 64.965065C 29.307486 64.91071 29.342884 64.849331 29.371185 64.80019C 29.827684 64.10648 30.284185 63.412667 30.752985 62.726075C 30.954285 62.433129 31.145885 62.142884 31.347084 61.849938C 31.628784 61.431626 31.925184 61.030156 32.209484 60.621476C 32.617186 60.05513 33.015286 59.491299 33.435184 58.931977C 33.494385 58.843418 33.570286 58.739918 33.641685 58.658482C 53.903687 31.191344 84.216484 14.490018 116.396782 10.784474C 116.505585 10.765619 116.629189 10.763513 116.750282 10.751779C 117.583084 10.652592 118.408783 10.56564 119.249382 10.495536C 119.462585 10.479791 119.663483 10.456924 119.866982 10.443786C 120.634789 10.372379 121.395485 10.313308 122.158684 10.263965C 122.371887 10.248219 122.597382 10.239594 122.810585 10.223748C 123.583488 10.171798 124.346787 10.122455 125.115189 10.092468C 125.289787 10.087052 125.473984 10.079129 125.651184 10.083442C 126.470482 10.050145 127.292381 10.026577 128.116882 10.012636C 128.221283 10.015745 128.325584 10.018854 128.427383 10.012235C 140.019379 9.845853 151.731979 11.370674 163.176178 14.680771L 326.248581 58.489994L 314.800583 55.824665C 307.545975 54.129753 300.392471 53.975502 293.624374 55.109089C 266.065781 59.721863 244.829178 85.633789 249.120483 115.722634L 249.115982 115.744599ZM 579.705612 136.736565C 583.019272 136.736565 585.705612 134.04245 585.705612 130.719124C 585.705612 127.395783 583.019272 124.701676 579.705612 124.701676C 576.391891 124.701676 573.705612 127.395783 573.705612 130.719124C 573.705612 134.04245 576.391891 136.736565 579.705612 136.736565ZM 326.244278 58.512459L 569.797165 127.83355"></path></g></g></g><g id="g-root-cp_1_g-1_1cu9zejs34gln-fill" data-item-order="-516582" transform="translate(158.30860900878906, 300.953125)"><g id="cp_1_g-1_1cu9zejs34gln-fill" stroke="none" fill="#E5A000"><g><path d="M 100.850685 18.2406C 71.885485 1.5175 34.404985 10.9703 17.855985 40.0441C 1.111485 69.4706 11.982385 107.182 42.399685 122.988C 70.365185 137.5253 105.329085 127.5667 121.497185 100.5101C 121.711885 100.1524 121.924085 99.7849 122.138785 99.4272C 135.922485 75.2561 164.305485 64.5761 189.980785 72.035C 194.190585 73.2571 198.333285 74.963 202.324485 77.1857L 218.756985 86.3137L 100.850685 18.2406ZM 471.691385 244.0474C 475.005085 244.0474 477.691385 241.3611 477.691385 238.0474C 477.691385 234.7337 475.005085 232.0474 471.691385 232.0474C 468.377685 232.0474 465.691385 234.7337 465.691385 238.0474C 465.691385 241.3611 468.377685 244.0474 471.691385 244.0474ZM 203.922885 77.7416L 462.779185 232.6669"></path></g></g></g><g id="g-root-tx_resonanc_1cu9zejs34glp-fill" data-item-order="0" transform="translate(278, 38)"><g id="tx_resonanc_1cu9zejs34glp-fill" stroke="none" fill="#f4f4f4"><g><text style="font: bold 25px Roboto, sans-serif; white-space: pre;" font-weight="bold" font-size="25px" font-family="Roboto, sans-serif"><tspan x="14.69" y="43" dominant-baseline="ideographic">Resonance Distribution Network</tspan></text></g></g></g><g id="g-root-tx_czonegal_18egha3s34hdy-fill" data-item-order="0" transform="translate(674, 169)"><g id="tx_czonegal_18egha3s34hdy-fill" stroke="none" fill="#f4f4f4"><g><text style="font: bold 20px Roboto, sans-serif; white-space: pre;" font-weight="bold" font-size="20px" font-family="Roboto, sans-serif"><tspan x="12" y="33.64" dominant-baseline="ideographic">C Zone (Galaxy)</tspan></text></g></g></g><g id="g-root-tx_universa_zith17s34i6n-fill" data-item-order="0" transform="translate(674, 205)"><g id="tx_universa_zith17s34i6n-fill" stroke="none" fill="#f4f4f4"><g><text style="font: 15px Roboto, sans-serif; white-space: pre;" font-size="15px" font-family="Roboto, sans-serif"><tspan x="12" y="27.27" dominant-baseline="ideographic">Universal resonance </tspan><tspan x="12" y="45.27" dominant-baseline="ideographic">expansion</tspan></text></g></g></g><g id="g-root-tx_bzonehal_v2zywrs34iyw-fill" data-item-order="0" transform="translate(686, 349)"><g id="tx_bzonehal_v2zywrs34iyw-fill" stroke="none" fill="#f4f4f4"><g><text style="font: bold 20px Roboto, sans-serif; white-space: pre;" font-weight="bold" font-size="20px" font-family="Roboto, sans-serif"><tspan x="12" y="33.64" dominant-baseline="ideographic">B Zone (Halo)</tspan></text></g></g></g><g id="g-root-tx_regional_qnsxvfs34gld-fill" data-item-order="0" transform="translate(686, 385)"><g id="tx_regional_qnsxvfs34gld-fill" stroke="none" fill="#f4f4f4"><g><text style="font: 15px Roboto, sans-serif; white-space: pre;" font-size="15px" font-family="Roboto, sans-serif"><tspan x="12" y="30.27" dominant-baseline="ideographic">Regional resonance influence</tspan></text></g></g></g><g id="g-root-tx_azonecor_hs5xmjs34he2-fill" data-item-order="0" transform="translate(638, 517)"><g id="tx_azonecor_hs5xmjs34he2-fill" stroke="none" fill="#F8E6B8"><g><text style="font: bold 20px Roboto, sans-serif; white-space: pre;" font-weight="bold" font-size="20px" font-family="Roboto, sans-serif"><tspan x="12" y="33.64" dominant-baseline="ideographic">A Zone (Core)</tspan></text></g></g></g><g id="g-root-tx_directre_dccfi3s34i6b-fill" data-item-order="0" transform="translate(638, 553)"><g id="tx_directre_dccfi3s34i6b-fill" stroke="none" fill="#F8E6B8"><g><text style="font: 15px Roboto, sans-serif; white-space: pre;" font-size="15px" font-family="Roboto, sans-serif"><tspan x="12" y="30.27" dominant-baseline="ideographic">Direct resonance focus</tspan></text></g></g></g><g id="g-root-cp_3_g-3_1uux46zs332tr-stroke" data-item-order="-516590" transform="translate(38.304718017578125, 175.005859375)"><g id="cp_3_g-3_1uux46zs332tr-stroke" fill="none" stroke-linecap="round" stroke-linejoin="round" stroke-miterlimit="4" stroke="#d3d3d3" stroke-width="2"><g><path d="M 195.00507 375.5978C 92.79167 378.3773 8.87207 295.4621 10.01147 193.617C 11.11557 95.736 93.53047 15.6671 191.43657 15.6671L 389.51677 15.6703C 377.96877 16.0004 367.65047 19.6451 359.17207 25.5197C 335.94687 41.578 326.50077 74.2873 343.14967 101.1847C 345.81777 105.5013 348.30827 109.9275 350.62107 114.4634L 223.16077 80.3192C 211.71657 77.0187 200.01367 75.4957 188.41197 75.6642C 188.30047 75.6734 188.19617 75.6703 188.10147 75.6646C 187.26727 75.6811 186.44537 75.7046 185.63567 75.7352C 185.46117 75.7405 185.27687 75.7485 185.09977 75.7442C 184.33127 75.7741 183.56547 75.8137 182.79517 75.8751C 182.58197 75.8909 182.35647 75.8995 182.14327 75.9152C 181.38967 75.9619 180.62197 76.033 179.85157 76.0945C 179.64807 76.1076 179.44447 76.1207 179.23387 76.1461C 178.40557 76.2231 177.56767 76.3027 176.73487 76.4016C 176.61377 76.4133 176.49267 76.4251 176.38127 76.4342C 144.20107 80.129 113.88827 96.7819 93.62617 124.1693C 93.55477 124.2506 93.48857 124.3512 93.41977 124.4421C 93.00947 124.9972 92.60177 125.5619 92.19407 126.1267C 91.91947 126.5316 91.62557 126.9416 91.33167 127.3517C 91.13037 127.6437 90.93877 127.9331 90.73747 128.2252C 90.27837 128.9072 89.82187 129.599 89.35567 130.2933C 89.32737 130.3423 89.29207 130.4035 89.24447 130.4577C 86.50417 134.6809 84.00757 139.1184 81.79777 143.7377C 81.77917 143.7841 81.75797 143.8208 81.73937 143.8672C 81.41167 144.5762 81.08397 145.2852 80.74667 145.9967C 80.60847 146.2925 80.47297 146.598 80.34447 146.8913C 80.15757 147.3141 79.97057 147.7368 79.78367 148.1596C 79.52217 148.768 79.26337 149.3861 79.01417 150.0016C 78.97687 150.0944 78.93257 150.1994 78.88567 150.2948C 72.65557 165.5263 69.76827 181.4875 69.99717 197.2555C 69.99407 197.3599 69.99797 197.4519 69.99487 197.5563C 70.01847 198.3782 70.03487 199.2124 70.06547 200.022C 70.06377 200.2089 70.07877 200.3809 70.07447 200.558C 70.10437 201.3264 70.15627 202.0993 70.20547 202.8626C 70.22117 203.0758 70.22977 203.3013 70.24557 203.5145C 70.28767 204.29 70.34657 205.0507 70.41767 205.8184C 70.43337 206.0316 70.45357 206.2229 70.46417 206.4168C 70.54377 207.2547 70.62337 208.0927 70.72477 208.9351C 70.74367 209.0439 70.74567 209.1677 70.76707 209.2862C 74.46187 241.4664 91.11487 271.779 118.50227 292.0411C 118.58347 292.1125 118.68407 292.1787 118.77497 292.2475C 119.33007 292.6578 119.89487 293.0655 120.45957 293.4733C 120.86447 293.7478 121.27447 294.0417 121.68457 294.3356C 121.97657 294.5368 122.26607 294.7285 122.55807 294.9298C 123.24017 295.3889 123.93187 295.8454 124.62617 296.3116C 124.67517 296.3399 124.73637 296.3752 124.79057 296.4228C 129.01377 299.1631 133.45107 301.6597 138.07047 303.8695C 138.116869 303.8881 138.15357 303.9093 138.199969 303.9279C 138.908969 304.2556 139.61797 304.5833 140.32947 304.9206C 140.62527 305.0588 140.93077 305.1943 141.22407 305.3228C 141.646869 305.5098 142.06967 305.6967 142.49237 305.8836C 143.100769 306.1451 143.718869 306.4039 144.32467 306.6557C 144.42007 306.7026 144.53217 306.7347 144.63017 306.7913C 159.86167 313.0214 175.82277 315.9087 191.59087 315.6798C 191.69517 315.6829 191.78727 315.6789 191.89167 315.682C 192.72587 315.6656 193.54777 315.642 194.36707 315.6089C 194.54167 315.6035 194.72587 315.5955 194.90037 315.5902C 195.66887 315.5603 196.44177 315.5084 197.20767 315.4689C 197.42087 315.4532 197.63667 315.4471 197.84727 315.4217C 198.62277 315.3796 199.38337 315.3207 200.15117 315.2495C 200.35467 315.2364 200.55567 315.2136 200.74957 315.2031C 201.58747 315.1235 202.42547 315.0439 203.26787 314.9424C 203.37667 314.9236 203.50037 314.9215 203.61887 314.9001C 235.79917 311.2054 266.11187 294.5524 286.36427 267.1676C 286.44277 267.0741 286.50897 266.9736 286.57527 266.873C 286.98817 266.3275 287.38617 265.7655 287.79387 265.2007C 288.06847 264.7959 288.36237 264.3858 288.65627 263.9758C 288.85757 263.6837 289.04917 263.3943 289.25037 263.1022C 289.71917 262.4176 290.16597 261.7284 290.63217 261.0341C 290.66757 260.9729 290.69587 260.9239 290.74347 260.8697C 293.48377 256.6466 295.98037 252.2092 298.19017 247.5899C 298.20877 247.5435 298.22997 247.5068 298.24857 247.4604C 298.57627 246.7514 298.90387 246.0424 299.24127 245.3308C 299.37937 245.035 299.51497 244.7296 299.64347 244.4363L 300.20427 243.1679C 300.46567 242.5595 300.72457 241.9415 300.97637 241.3357C 301.02327 241.2403 301.05537 241.1281 301.11187 241.0302C 306.82947 227.0541 309.72807 212.4875 309.97677 197.9995C 314.18657 199.2216 318.32927 200.9276 322.32057 203.1503L 338.75297 212.2783L 309.99587 195.6754C 309.99917 195.1465 309.99977 194.608 309.99337 194.0817C 309.99647 193.9774 309.99957 193.873 309.99297 193.7713C 309.97657 192.9371 309.95307 192.1152 309.92247 191.3055C 309.91707 191.1309 309.90907 190.9467 309.91337 190.7696C 309.88347 190.0011 309.84397 189.2353 309.78247 188.465C 309.76677 188.2518 309.75807 188.0263 309.74237 187.8131C 309.69577 187.0595 309.63167 186.2795 309.56317 185.5214C 309.54997 185.3179 309.53687 185.1143 309.51147 184.9037C 309.43447 184.0754 309.35487 183.2375 309.25857 182.4144C 309.24687 182.2933 309.23507 182.1722 309.22597 182.0608C 309.19147 181.7387 309.14727 181.4192 309.10047 181.0901C 304.79957 151.0911 326.04587 125.2516 353.60447 120.6522C 364.11357 143.4904 369.98387 168.8762 370.00427 195.6119C 370.04217 293.4664 292.81077 372.9434 195.00057 375.6197L 195.00507 375.5978ZM 627.69427 22.0001C 631.00797 22.0001 633.69427 19.3139 633.69427 16.0001C 633.69427 12.6864 631.00797 10.0001 627.69427 10.0001C 624.38057 10.0001 621.69427 12.6864 621.69427 16.0001C 621.69427 19.3139 624.38057 22.0001 627.69427 22.0001ZM 389.51437 15.6608L 617.19427 15.9998"></path></g></g></g><g id="g-root-cp_2_g-2_1qf3m2js333m1-stroke" data-item-order="-516586" transform="translate(98.29298400878906, 240.630859375)"><g id="cp_2_g-2_1qf3m2js333m1-stroke" fill="none" stroke-linecap="round" stroke-linejoin="round" stroke-miterlimit="4" stroke="#d3d3d3" stroke-width="2"><g><path d="M 249.115982 115.744599C 249.162689 116.074753 249.206879 116.395089 249.241379 116.718026C 249.260284 116.827141 249.262283 116.951294 249.274078 117.072647C 249.372986 117.907875 249.459686 118.73597 249.526978 119.569291C 249.542679 119.783104 249.565491 119.984597 249.578583 120.18879C 249.647079 120.94899 249.708588 121.721627 249.757889 122.487152C 249.77359 122.700966 249.782181 122.927025 249.797882 123.140839C 249.849686 123.915993 249.898987 124.681511 249.928879 125.452248C 249.934189 125.627251 249.942184 125.811989 249.937881 125.989701C 249.971085 126.811386 249.994583 127.635682 250.008484 128.462578C 250.005386 128.567284 250.002289 128.671875 250.008881 128.773972C 250.017883 129.31144 250.014587 129.841874 250.011383 130.372315L 160.862183 78.752343C 131.896988 61.980614 94.416382 71.460801 77.867386 100.61924C 61.122986 130.13131 71.993786 167.952271 102.411186 183.80423C 130.376587 198.383896 165.340485 188.396347 181.508682 161.261063C 181.723389 160.902237 181.935486 160.533768 182.150192 160.174927C 195.93399 135.933533 224.316879 125.22258 249.992279 132.703171C 249.743591 147.233307 246.844879 161.842255 241.127289 175.858902C 241.080383 175.954575 241.048386 176.067002 240.991791 176.165284C 240.73999 176.772858 240.481186 177.392746 240.219681 178.002915L 239.65889 179.274994C 239.53038 179.569046 239.394882 179.875443 239.256683 180.172104C 238.929092 180.883164 238.601379 181.594223 238.264084 182.307801C 238.235779 182.356934 238.221588 182.381516 238.205582 182.437668C 235.986191 187.073105 233.499283 191.520813 230.758881 195.756195C 230.711288 195.810547 230.682983 195.859696 230.64769 195.921067C 230.191177 196.614777 229.734589 197.308487 229.265884 197.995179C 229.06459 198.288025 228.872986 198.57837 228.671692 198.871216C 228.390091 199.289521 228.093582 199.691101 227.809387 200.099778C 227.401581 200.66623 227.003586 201.229966 226.590683 201.777039C 226.52449 201.877839 226.458282 201.97873 226.379791 202.072495C 206.12738 229.537033 175.802383 246.231232 143.634384 249.943909C 143.525482 249.962754 143.401886 249.964768 143.283386 249.986237C 142.447983 250.075791 141.612579 250.165345 140.764984 250.247681C 140.571091 250.258316 140.379883 250.278565 140.166687 250.294312C 139.39888 250.365631 138.638184 250.424698 137.862686 250.466919C 137.649483 250.482666 137.436287 250.498413 137.223084 250.514252C 136.447586 250.556473 135.684288 250.605912 134.915886 250.63591C 134.741287 250.64122 134.557083 250.649247 134.382484 250.654572C 133.553482 250.690461 132.731583 250.714035 131.907082 250.727982C 131.802788 250.724869 131.710686 250.728882 131.606285 250.725769C 115.838287 250.955338 99.886787 248.056931 84.645584 241.811325C 84.550186 241.764283 84.438087 241.732193 84.340088 241.675415C 83.734283 241.422882 83.116287 241.163346 82.507889 240.901078C 82.085083 240.713639 81.662285 240.526093 81.239487 240.338654C 80.946281 240.209778 80.640785 240.073883 80.344887 239.935288C 79.635986 239.60672 78.926987 239.278077 78.215385 238.939698C 78.166489 238.911408 78.141884 238.897187 78.085884 238.881119C 73.463985 236.655274 69.029186 234.161148 64.806084 231.412766C 64.751884 231.365036 64.690586 231.329636 64.641685 231.301255C 63.949886 230.843415 63.258186 230.385498 62.573586 229.915436C 62.281487 229.713532 61.992085 229.521393 61.699986 229.319504C 61.282887 229.037079 60.882484 228.739716 60.475086 228.45459C 59.910286 228.045716 59.348084 227.646561 58.790386 227.225342C 58.702084 227.165955 58.598885 227.089844 58.517685 227.018219C 31.130285 206.697312 14.477285 176.296357 10.782585 144.022599C 10.763785 143.913376 10.761685 143.789414 10.740285 143.670578C 10.650985 142.832749 10.561785 141.995011 10.479585 141.144944C 10.469085 140.950486 10.448885 140.758622 10.433185 140.544815C 10.361985 139.774765 10.303085 139.011872 10.260985 138.234101C 10.245285 138.020287 10.229585 137.806466 10.220885 137.580414C 10.181385 136.812287 10.119885 136.03975 10.089985 135.269013C 10.084585 135.094002 10.076685 134.909264 10.080985 134.731545C 10.047785 133.909867 10.021685 133.075852 10.010385 132.258683C 10.013485 132.153977 10.009485 132.061615 10.012585 131.95691C 9.783685 116.143052 12.673585 100.145165 18.901085 84.859749C 18.948085 84.764077 18.980085 84.651642 19.029585 84.565606C 19.278785 83.94841 19.540285 83.338242 19.799085 82.718346C 19.986085 82.294312 20.172985 81.870285 20.359985 81.446251C 20.488385 81.152199 20.623985 80.84581 20.762085 80.549149C 21.089785 79.838089 21.417485 79.12703 21.754785 78.41346C 21.783085 78.364319 21.797185 78.339745 21.813185 78.283486C 24.032585 73.648144 26.519585 69.200447 29.259886 64.965065C 29.307486 64.91071 29.342884 64.849331 29.371185 64.80019C 29.827684 64.10648 30.284185 63.412667 30.752985 62.726075C 30.954285 62.433129 31.145885 62.142884 31.347084 61.849938C 31.628784 61.431626 31.925184 61.030156 32.209484 60.621476C 32.617186 60.05513 33.015286 59.491299 33.435184 58.931977C 33.494385 58.843418 33.570286 58.739918 33.641685 58.658482C 53.903687 31.191344 84.216484 14.490018 116.396782 10.784474C 116.505585 10.765619 116.629189 10.763513 116.750282 10.751779C 117.583084 10.652592 118.408783 10.56564 119.249382 10.495536C 119.462585 10.479791 119.663483 10.456924 119.866982 10.443786C 120.634789 10.372379 121.395485 10.313308 122.158684 10.263965C 122.371887 10.248219 122.597382 10.239594 122.810585 10.223748C 123.583488 10.171798 124.346787 10.122455 125.115189 10.092468C 125.289787 10.087052 125.473984 10.079129 125.651184 10.083442C 126.470482 10.050145 127.292381 10.026577 128.116882 10.012636C 128.221283 10.015745 128.325584 10.018854 128.427383 10.012235C 140.019379 9.845853 151.731979 11.370674 163.176178 14.680771L 326.248581 58.489994L 314.800583 55.824665C 307.545975 54.129753 300.392471 53.975502 293.624374 55.109089C 266.065781 59.721863 244.829178 85.633789 249.120483 115.722634L 249.115982 115.744599ZM 579.705612 136.736565C 583.019272 136.736565 585.705612 134.04245 585.705612 130.719124C 585.705612 127.395783 583.019272 124.701676 579.705612 124.701676C 576.391891 124.701676 573.705612 127.395783 573.705612 130.719124C 573.705612 134.04245 576.391891 136.736565 579.705612 136.736565ZM 326.244278 58.512459L 569.797165 127.83355"></path></g></g></g><g id="g-root-cp_1_g-1_1cu9zejs34gln-stroke" data-item-order="-516582" transform="translate(158.30860900878906, 300.953125)"><g id="cp_1_g-1_1cu9zejs34gln-stroke" fill="none" stroke-linecap="round" stroke-linejoin="round" stroke-miterlimit="4" stroke="#d3d3d3" stroke-width="2"><g><path d="M 100.850685 18.2406C 71.885485 1.5175 34.404985 10.9703 17.855985 40.0441C 1.111485 69.4706 11.982385 107.182 42.399685 122.988C 70.365185 137.5253 105.329085 127.5667 121.497185 100.5101C 121.711885 100.1524 121.924085 99.7849 122.138785 99.4272C 135.922485 75.2561 164.305485 64.5761 189.980785 72.035C 194.190585 73.2571 198.333285 74.963 202.324485 77.1857L 218.756985 86.3137L 100.850685 18.2406ZM 471.691385 244.0474C 475.005085 244.0474 477.691385 241.3611 477.691385 238.0474C 477.691385 234.7337 475.005085 232.0474 471.691385 232.0474C 468.377685 232.0474 465.691385 234.7337 465.691385 238.0474C 465.691385 241.3611 468.377685 244.0474 471.691385 244.0474ZM 203.922885 77.7416L 462.779185 232.6669"></path></g></g></g><g id="g-root-tx_resonanc_1cu9zejs34glp-stroke" data-item-order="0" transform="translate(278, 38)"></g><g id="g-root-tx_czonegal_18egha3s34hdy-stroke" data-item-order="0" transform="translate(674, 169)"></g><g id="g-root-tx_universa_zith17s34i6n-stroke" data-item-order="0" transform="translate(674, 205)"></g><g id="g-root-tx_bzonehal_v2zywrs34iyw-stroke" data-item-order="0" transform="translate(686, 349)"></g><g id="g-root-tx_regional_qnsxvfs34gld-stroke" data-item-order="0" transform="translate(686, 385)"></g><g id="g-root-tx_azonecor_hs5xmjs34he2-stroke" data-item-order="0" transform="translate(638, 517)"></g><g id="g-root-tx_directre_dccfi3s34i6b-stroke" data-item-order="0" transform="translate(638, 553)"></g></g></g></svg>