<?xml version="1.0" encoding="utf-8" standalone="yes"?>
<!DOCTYPE svg PUBLIC "-//W3C//DTD SVG 1.1//EN" "http://www.w3.org/Graphics/SVG/1.1/DTD/svg11.dtd">
<svg width="672" height="552" viewBox="0 0 672 552" style="fill:none;stroke:none;fill-rule:evenodd;clip-rule:evenodd;stroke-linecap:round;stroke-linejoin:round;stroke-miterlimit:1.5;" version="1.1" xmlns="http://www.w3.org/2000/svg" xmlns:xlink="http://www.w3.org/1999/xlink"><style class="text-font-style fontImports" data-font-family="Roboto">@import url('https://fonts.googleapis.com/css2?family=Roboto:wght@400;700&amp;display=block');</style><g id="items" style="isolation: isolate"><g id="blend" style="mix-blend-mode: normal"><g id="g-root-ro_96krqp6iod-fill" data-item-order="-25200" transform="translate(242, 233)"><g id="ro_96krqp6iod-fill" stroke="none" fill="#6b6b6b"><g><path d="M 34 10L 154 10C 154 10 178 10 178 34L 178 136C 178 136 178 160 154 160L 34 160C 34 160 10 160 10 136L 10 34C 10 34 10 10 34 10"></path></g></g></g><g id="g-root-ro_18i72bvqp6jnz-fill" data-item-order="-9720" transform="translate(458, 332)"><g id="ro_18i72bvqp6jnz-fill" stroke="none" fill="#E5A000"><g><path d="M 22 10L 178 10C 178 10 190 10 190 22L 190 52C 190 52 190 64 178 64L 22 64C 22 64 10 64 10 52L 10 22C 10 22 10 10 22 10"></path></g></g></g><g id="g-root-ro_qunwcrqp6k27-fill" data-item-order="-9720" transform="translate(14, 122)"><g id="ro_qunwcrqp6k27-fill" stroke="none" fill="#E5A000"><g><path d="M 22 10L 178 10C 178 10 190 10 190 22L 190 52C 190 52 190 64 178 64L 22 64C 22 64 10 64 10 52L 10 22C 10 22 10 10 22 10"></path></g></g></g><g id="g-root-ro_1d30d57qp6jut-fill" data-item-order="-9720" transform="translate(14, 332)"><g id="ro_1d30d57qp6jut-fill" stroke="none" fill="#E5A000"><g><path d="M 22 10L 178 10C 178 10 190 10 190 22L 190 52C 190 52 190 64 178 64L 22 64C 22 64 10 64 10 52L 10 22C 10 22 10 10 22 10"></path></g></g></g><g id="g-root-ro_m9uljfqp6kn5-fill" data-item-order="-9720" transform="translate(458, 122)"><g id="ro_m9uljfqp6kn5-fill" stroke="none" fill="#E5A000"><g><path d="M 22 10L 178 10C 178 10 190 10 190 22L 190 52C 190 52 190 64 178 64L 22 64C 22 64 10 64 10 52L 10 22C 10 22 10 10 22 10"></path></g></g></g><g id="g-root-cu_zs6buzqp6i9y-fill" data-item-order="0" transform="translate(194, 149)"></g><g id="g-root-cu_vcctqjqp6j29-fill" data-item-order="0" transform="translate(410, 149)"></g><g id="g-root-tx_azone_1448zgrqp6jgs-fill" data-item-order="0" transform="translate(506, 398)"><g id="tx_azone_1448zgrqp6jgs-fill" stroke="none" fill="#F8E6B8"><g><text style="font: 20px Roboto, sans-serif; white-space: pre;" font-size="20px" font-family="Roboto, sans-serif"><tspan x="12" y="33.64" dominant-baseline="ideographic">A Zone: ✓</tspan></text></g></g></g><g id="g-root-tx_azonex_1uqjj4bqp6jgm-fill" data-item-order="0" transform="translate(50, 188)"><g id="tx_azonex_1uqjj4bqp6jgm-fill" stroke="none" fill="#F8E6B8"><g><text style="font: 20px Roboto, sans-serif; white-space: pre;" font-size="20px" font-family="Roboto, sans-serif"><tspan x="18.8" y="33.64" dominant-baseline="ideographic">A Zone: X</tspan></text></g></g></g><g id="g-root-cu_vcctqjqp6j2i-fill" data-item-order="0" transform="translate(152, 176)"></g><g id="g-root-cu_qwjbm3qp6jut-fill" data-item-order="0" transform="translate(152, 176)"></g><g id="g-root-cu_qwjbm3qp6juv-fill" data-item-order="0" transform="translate(152, 176)"></g><g id="g-root-cu_qwjbm3qp6jux-fill" data-item-order="0" transform="translate(482, 176)"></g><g id="g-root-cu_mgpthnqp6kn8-fill" data-item-order="0" transform="translate(482, 176)"></g><g id="g-root-cu_mgpthnqp6kna-fill" data-item-order="0" transform="translate(482, 176)"></g><g id="g-root-tx_czonex_zofhcbqp6k92-fill" data-item-order="0" transform="translate(506, 470)"><g id="tx_czonex_zofhcbqp6k92-fill" stroke="none" fill="#F8E6B8"><g><text style="font: 20px Roboto, sans-serif; white-space: pre;" font-size="20px" font-family="Roboto, sans-serif"><tspan x="12" y="33.64" dominant-baseline="ideographic">C Zone: X</tspan></text></g></g></g><g id="g-root-tx_azone_1hfphu3qp6hvt-fill" data-item-order="0" transform="translate(506, 188)"><g id="tx_azone_1hfphu3qp6hvt-fill" stroke="none" fill="#F8E6B8"><g><text style="font: 20px Roboto, sans-serif; white-space: pre;" font-size="20px" font-family="Roboto, sans-serif"><tspan x="12" y="33.64" dominant-baseline="ideographic">A Zone: ✓</tspan></text></g></g></g><g id="g-root-tx_bzonex_1uqjj4bqp6jgn-fill" data-item-order="0" transform="translate(50, 224)"><g id="tx_bzonex_1uqjj4bqp6jgn-fill" stroke="none" fill="#F8E6B8"><g><text style="font: 20px Roboto, sans-serif; white-space: pre;" font-size="20px" font-family="Roboto, sans-serif"><tspan x="19.4" y="33.64" dominant-baseline="ideographic">B Zone: X</tspan></text></g></g></g><g id="g-root-tx_bzone_v98gazqp6hvk-fill" data-item-order="0" transform="translate(50, 434)"><g id="tx_bzone_v98gazqp6hvk-fill" stroke="none" fill="#F8E6B8"><g><text style="font: 20px Roboto, sans-serif; white-space: pre;" font-size="20px" font-family="Roboto, sans-serif"><tspan x="18.28" y="33.64" dominant-baseline="ideographic">B Zone: ✓</tspan></text></g></g></g><g id="g-root-tx_bzonex_1hfphu3qp6hvu-fill" data-item-order="0" transform="translate(506, 224)"><g id="tx_bzonex_1hfphu3qp6hvu-fill" stroke="none" fill="#F8E6B8"><g><text style="font: 20px Roboto, sans-serif; white-space: pre;" font-size="20px" font-family="Roboto, sans-serif"><tspan x="12" y="33.64" dominant-baseline="ideographic">B Zone: X</tspan></text></g></g></g><g id="g-root-tx_czonex_1qaq0zvqp6k8w-fill" data-item-order="0" transform="translate(50, 260)"><g id="tx_czonex_1qaq0zvqp6k8w-fill" stroke="none" fill="#F8E6B8"><g><text style="font: 20px Roboto, sans-serif; white-space: pre;" font-size="20px" font-family="Roboto, sans-serif"><tspan x="18.84" y="33.64" dominant-baseline="ideographic">C Zone: X</tspan></text></g></g></g><g id="g-root-tx_czonex_1czvzpnqp6io3-fill" data-item-order="0" transform="translate(506, 260)"><g id="tx_czonex_1czvzpnqp6io3-fill" stroke="none" fill="#F8E6B8"><g><text style="font: 20px Roboto, sans-serif; white-space: pre;" font-size="20px" font-family="Roboto, sans-serif"><tspan x="12" y="33.64" dominant-baseline="ideographic">C Zone: X</tspan></text></g></g></g><g id="g-root-tx_bzone_1448zgrqp6jgt-fill" data-item-order="0" transform="translate(506, 434)"><g id="tx_bzone_1448zgrqp6jgt-fill" stroke="none" fill="#F8E6B8"><g><text style="font: 20px Roboto, sans-serif; white-space: pre;" font-size="20px" font-family="Roboto, sans-serif"><tspan x="12" y="33.64" dominant-baseline="ideographic">B Zone: ✓</tspan></text></g></g></g><g id="g-root-tx_czone_mdlg23qp6io9-fill" data-item-order="0" transform="translate(50, 470)"><g id="tx_czone_mdlg23qp6io9-fill" stroke="none" fill="#F8E6B8"><g><text style="font: 20px Roboto, sans-serif; white-space: pre;" font-size="20px" font-family="Roboto, sans-serif"><tspan x="17.72" y="33.64" dominant-baseline="ideographic">C Zone: ✓</tspan></text></g></g></g><g id="g-root-cu_vcctqjqp6j2f-fill" data-item-order="0" transform="translate(194, 333)"></g><g id="g-root-cu_vcctqjqp6j2c-fill" data-item-order="0" transform="translate(410, 333)"></g><g id="g-root-tx_consensu_dbpoy3qp7xmu-fill" data-item-order="0" transform="translate(44, 38)"><g id="tx_consensu_dbpoy3qp7xmu-fill" stroke="none" fill="#f4f4f4"><g><text style="font: bold 25px Roboto, sans-serif; white-space: pre;" font-weight="bold" font-size="25px" font-family="Roboto, sans-serif"><tspan x="12.06" y="46" dominant-baseline="ideographic">Consensus Permissions Across Dimension Levels</tspan></text></g></g></g><g id="g-root-tx_azone_qtey6jqp6hvz-fill" data-item-order="0" transform="translate(50, 398)"><g id="tx_azone_qtey6jqp6hvz-fill" stroke="none" fill="#F8E6B8"><g><text style="font: 20px Roboto, sans-serif; white-space: pre;" font-size="20px" font-family="Roboto, sans-serif"><tspan x="17.69" y="33.64" dominant-baseline="ideographic">A Zone: ✓</tspan></text></g></g></g><g id="g-root-cu_hrj72jqp7wuf-fill" data-item-order="0" transform="translate(152, 386)"></g><g id="g-root-cu_dbpoy3qp7xmq-fill" data-item-order="0" transform="translate(152, 386)"></g><g id="g-root-cu_dbpoy3qp7xms-fill" data-item-order="0" transform="translate(152, 386)"></g><g id="g-root-cu_mgpthnqp6knc-fill" data-item-order="0" transform="translate(482, 386)"></g><g id="g-root-cu_hrj72jqp7wub-fill" data-item-order="0" transform="translate(482, 386)"></g><g id="g-root-cu_hrj72jqp7wud-fill" data-item-order="0" transform="translate(482, 386)"></g><g id="g-root-tx_dimensio_v5hlsbqp6j2n-fill" data-item-order="3000000000" transform="translate(506, 137)"><g id="tx_dimensio_v5hlsbqp6j2n-fill" stroke="none" fill="#F8E6B8"><g><text style="font: 20px Roboto, sans-serif; white-space: pre;" font-size="20px" font-family="Roboto, sans-serif"><tspan x="12" y="33.64" dominant-baseline="ideographic">Dimension 2</tspan></text></g></g></g><g id="g-root-ic_disa_qpo3nvqp6juw-fill" data-item-order="3000000000" transform="translate(470, 134)"></g><g id="g-root-ic_2_96krqp6ioc-fill" data-item-order="3000000000" transform="translate(302, 257)"></g><g id="g-root-tx_consensu_dl2t8rqp55or-fill" data-item-order="3000000000" transform="translate(266, 311)"><g id="tx_consensu_dl2t8rqp55or-fill" stroke="none" fill="#f4f4f4"><g><text style="font: 20px Roboto, sans-serif; white-space: pre;" font-size="20px" font-family="Roboto, sans-serif"><tspan x="20.44" y="33.63" dominant-baseline="ideographic">Consensus </tspan><tspan x="14.72" y="57.64" dominant-baseline="ideographic">Permissions</tspan></text></g></g></g><g id="g-root-ic_appr_zqawlnqp6j9i-fill" data-item-order="3000000000" transform="translate(152, 134)"></g><g id="g-root-tx_dimensio_1hitv9nqp6j2j-fill" data-item-order="3000000000" transform="translate(26, 347)"><g id="tx_dimensio_1hitv9nqp6j2j-fill" stroke="none" fill="#F8E6B8"><g><text style="font: 20px Roboto, sans-serif; white-space: pre;" font-size="20px" font-family="Roboto, sans-serif"><tspan x="16.98" y="33.64" dominant-baseline="ideographic">Dimension 4</tspan></text></g></g></g><g id="g-root-ic_four_1d30d57qp6jus-fill" data-item-order="3000000000" transform="translate(152, 344)"></g><g id="g-root-tx_dimensio_1464eq3qp6ih9-fill" data-item-order="3000000000" transform="translate(26, 137)"><g id="tx_dimensio_1464eq3qp6ih9-fill" stroke="none" fill="#F8E6B8"><g><text style="font: 20px Roboto, sans-serif; white-space: pre;" font-size="20px" font-family="Roboto, sans-serif"><tspan x="16.98" y="33.64" dominant-baseline="ideographic">Dimension 1</tspan></text></g></g></g><g id="g-root-ic_appr_1hdu2krqp6iva-fill" data-item-order="3000000000" transform="translate(470, 344)"></g><g id="g-root-tx_dimensio_1ltnkp7qp6i31-fill" data-item-order="3000000000" transform="translate(506, 347)"><g id="tx_dimensio_1ltnkp7qp6i31-fill" stroke="none" fill="#F8E6B8"><g><text style="font: 20px Roboto, sans-serif; white-space: pre;" font-size="20px" font-family="Roboto, sans-serif"><tspan x="12" y="33.64" dominant-baseline="ideographic">Dimension 3</tspan></text></g></g></g><g id="g-root-ro_96krqp6iod-stroke" data-item-order="-25200" transform="translate(242, 233)"><g id="ro_96krqp6iod-stroke" fill="none" stroke-linecap="round" stroke-linejoin="round" stroke-miterlimit="4" stroke="#d3d3d3" stroke-width="2"><g><path d="M 34 10L 154 10C 154 10 178 10 178 34L 178 136C 178 136 178 160 154 160L 34 160C 34 160 10 160 10 136L 10 34C 10 34 10 10 34 10"></path></g></g></g><g id="g-root-ro_18i72bvqp6jnz-stroke" data-item-order="-9720" transform="translate(458, 332)"><g id="ro_18i72bvqp6jnz-stroke" fill="none" stroke-linecap="round" stroke-linejoin="round" stroke-miterlimit="4" stroke="#F8E6B8" stroke-width="2"><g><path d="M 22 10L 178 10C 178 10 190 10 190 22L 190 52C 190 52 190 64 178 64L 22 64C 22 64 10 64 10 52L 10 22C 10 22 10 10 22 10"></path></g></g></g><g id="g-root-ro_qunwcrqp6k27-stroke" data-item-order="-9720" transform="translate(14, 122)"><g id="ro_qunwcrqp6k27-stroke" fill="none" stroke-linecap="round" stroke-linejoin="round" stroke-miterlimit="4" stroke="#F8E6B8" stroke-width="2"><g><path d="M 22 10L 178 10C 178 10 190 10 190 22L 190 52C 190 52 190 64 178 64L 22 64C 22 64 10 64 10 52L 10 22C 10 22 10 10 22 10"></path></g></g></g><g id="g-root-ro_1d30d57qp6jut-stroke" data-item-order="-9720" transform="translate(14, 332)"><g id="ro_1d30d57qp6jut-stroke" fill="none" stroke-linecap="round" stroke-linejoin="round" stroke-miterlimit="4" stroke="#F8E6B8" stroke-width="2"><g><path d="M 22 10L 178 10C 178 10 190 10 190 22L 190 52C 190 52 190 64 178 64L 22 64C 22 64 10 64 10 52L 10 22C 10 22 10 10 22 10"></path></g></g></g><g id="g-root-ro_m9uljfqp6kn5-stroke" data-item-order="-9720" transform="translate(458, 122)"><g id="ro_m9uljfqp6kn5-stroke" fill="none" stroke-linecap="round" stroke-linejoin="round" stroke-miterlimit="4" stroke="#F8E6B8" stroke-width="2"><g><path d="M 22 10L 178 10C 178 10 190 10 190 22L 190 52C 190 52 190 64 178 64L 22 64C 22 64 10 64 10 52L 10 22C 10 22 10 10 22 10"></path></g></g></g><g id="g-root-cu_zs6buzqp6i9y-stroke" data-item-order="0" transform="translate(194, 149)"><g id="cu_zs6buzqp6i9y-stroke" fill="none" stroke-linecap="round" stroke-linejoin="round" stroke-miterlimit="4" stroke="#ababab" stroke-width="2" stroke-dasharray="5.0, 7.0"><g><path d="M 58 144L 55 144L 54.9 144C 43.357254 144 34.000004 134.642752 34.000004 123.1L 34 123L 34 30.9C 33.999998 19.357248 24.64275 10 13.1 10L 13 10L 10 10"></path></g></g></g><g id="g-root-cu_vcctqjqp6j29-stroke" data-item-order="0" transform="translate(410, 149)"><g id="cu_vcctqjqp6j29-stroke" fill="none" stroke-linecap="round" stroke-linejoin="round" stroke-miterlimit="4" stroke="#ababab" stroke-width="2" stroke-dasharray="5.0, 7.0"><g><path d="M 10 144L 13 144L 13.1 144C 24.642746 144.000005 33.999995 134.642756 33.999996 123.100005L 34 123L 34 30.9C 33.999999 19.357249 43.357248 10.000001 54.899999 10.000002L 55 10L 58 10"></path></g></g></g><g id="g-root-tx_azone_1448zgrqp6jgs-stroke" data-item-order="0" transform="translate(506, 398)"></g><g id="g-root-tx_azonex_1uqjj4bqp6jgm-stroke" data-item-order="0" transform="translate(50, 188)"></g><g id="g-root-cu_vcctqjqp6j2i-stroke" data-item-order="0" transform="translate(152, 176)"><g id="cu_vcctqjqp6j2i-stroke" fill="none" stroke-linecap="round" stroke-linejoin="round" stroke-miterlimit="4" stroke="#ababab" stroke-width="2" stroke-dasharray="5.0, 7.0"><g><path d="M 28 10L 28 22L 28 34L 19 34L 10 34"></path></g></g></g><g id="g-root-cu_qwjbm3qp6jut-stroke" data-item-order="0" transform="translate(152, 176)"><g id="cu_qwjbm3qp6jut-stroke" fill="none" stroke-linecap="round" stroke-linejoin="round" stroke-miterlimit="4" stroke="#ababab" stroke-width="2" stroke-dasharray="5.0, 7.0"><g><path d="M 28 10L 28 40L 28 70L 19 70L 10 70"></path></g></g></g><g id="g-root-cu_qwjbm3qp6juv-stroke" data-item-order="0" transform="translate(152, 176)"><g id="cu_qwjbm3qp6juv-stroke" fill="none" stroke-linecap="round" stroke-linejoin="round" stroke-miterlimit="4" stroke="#ababab" stroke-width="2" stroke-dasharray="5.0, 7.0"><g><path d="M 28 10L 28 22L 28 94C 28.000002 100.627415 22.627419 105.999998 16.000002 105.999998L 15.9 106L 10 106"></path></g></g></g><g id="g-root-cu_qwjbm3qp6jux-stroke" data-item-order="0" transform="translate(482, 176)"><g id="cu_qwjbm3qp6jux-stroke" fill="none" stroke-linecap="round" stroke-linejoin="round" stroke-miterlimit="4" stroke="#ababab" stroke-width="2" stroke-dasharray="5.0, 7.0"><g><path d="M 10 10L 10 22L 10 34L 19 34L 28 34"></path></g></g></g><g id="g-root-cu_mgpthnqp6kn8-stroke" data-item-order="0" transform="translate(482, 176)"><g id="cu_mgpthnqp6kn8-stroke" fill="none" stroke-linecap="round" stroke-linejoin="round" stroke-miterlimit="4" stroke="#ababab" stroke-width="2" stroke-dasharray="5.0, 7.0"><g><path d="M 10 10L 10 40L 10 70L 19 70L 28 70"></path></g></g></g><g id="g-root-cu_mgpthnqp6kna-stroke" data-item-order="0" transform="translate(482, 176)"><g id="cu_mgpthnqp6kna-stroke" fill="none" stroke-linecap="round" stroke-linejoin="round" stroke-miterlimit="4" stroke="#ababab" stroke-width="2" stroke-dasharray="5.0, 7.0"><g><path d="M 10 10L 10 22L 10 94C 10.000004 100.627423 15.372587 106.000006 22.000005 106.000005L 22.1 106L 28 106"></path></g></g></g><g id="g-root-tx_czonex_zofhcbqp6k92-stroke" data-item-order="0" transform="translate(506, 470)"></g><g id="g-root-tx_azone_1hfphu3qp6hvt-stroke" data-item-order="0" transform="translate(506, 188)"></g><g id="g-root-tx_bzonex_1uqjj4bqp6jgn-stroke" data-item-order="0" transform="translate(50, 224)"></g><g id="g-root-tx_bzone_v98gazqp6hvk-stroke" data-item-order="0" transform="translate(50, 434)"></g><g id="g-root-tx_bzonex_1hfphu3qp6hvu-stroke" data-item-order="0" transform="translate(506, 224)"></g><g id="g-root-tx_czonex_1qaq0zvqp6k8w-stroke" data-item-order="0" transform="translate(50, 260)"></g><g id="g-root-tx_czonex_1czvzpnqp6io3-stroke" data-item-order="0" transform="translate(506, 260)"></g><g id="g-root-tx_bzone_1448zgrqp6jgt-stroke" data-item-order="0" transform="translate(506, 434)"></g><g id="g-root-tx_czone_mdlg23qp6io9-stroke" data-item-order="0" transform="translate(50, 470)"></g><g id="g-root-cu_vcctqjqp6j2f-stroke" data-item-order="0" transform="translate(194, 333)"><g id="cu_vcctqjqp6j2f-stroke" fill="none" stroke-linecap="round" stroke-linejoin="round" stroke-miterlimit="4" stroke="#ababab" stroke-width="2" stroke-dasharray="5.0, 7.0"><g><path d="M 58 10L 55 10L 54.9 10C 50.984059 9.997797 46.734046 11.20715 42.600001 13.499999C 40.125469 14.874797 37.035088 18.288589 33.999998 22.999998C 30.964908 27.711408 27.874528 31.1252 25.399999 32.499998C 21.265957 34.792849 17.015944 36.002202 13.1 36L 13 36L 10 36"></path></g></g></g><g id="g-root-cu_vcctqjqp6j2c-stroke" data-item-order="0" transform="translate(410, 333)"><g id="cu_vcctqjqp6j2c-stroke" fill="none" stroke-linecap="round" stroke-linejoin="round" stroke-miterlimit="4" stroke="#ababab" stroke-width="2" stroke-dasharray="5.0, 7.0"><g><path d="M 10 10L 13 10L 13.1 10C 17.015943 9.997798 21.265956 11.207151 25.400001 13.5C 27.874528 14.874798 30.964908 18.288591 33.999998 23C 37.035089 27.711409 40.125469 31.125202 42.599998 32.5C 46.734045 34.79285 50.984058 36.002203 54.900002 36.000001L 55 36L 58 36"></path></g></g></g><g id="g-root-tx_consensu_dbpoy3qp7xmu-stroke" data-item-order="0" transform="translate(44, 38)"></g><g id="g-root-tx_azone_qtey6jqp6hvz-stroke" data-item-order="0" transform="translate(50, 398)"></g><g id="g-root-cu_hrj72jqp7wuf-stroke" data-item-order="0" transform="translate(152, 386)"><g id="cu_hrj72jqp7wuf-stroke" fill="none" stroke-linecap="round" stroke-linejoin="round" stroke-miterlimit="4" stroke="#ababab" stroke-width="2" stroke-dasharray="5.0, 7.0"><g><path d="M 28 10L 28 22L 28 34L 19 34L 10 34"></path></g></g></g><g id="g-root-cu_dbpoy3qp7xmq-stroke" data-item-order="0" transform="translate(152, 386)"><g id="cu_dbpoy3qp7xmq-stroke" fill="none" stroke-linecap="round" stroke-linejoin="round" stroke-miterlimit="4" stroke="#ababab" stroke-width="2" stroke-dasharray="5.0, 7.0"><g><path d="M 28 10L 28 40L 28 70L 19 70L 10 70"></path></g></g></g><g id="g-root-cu_dbpoy3qp7xms-stroke" data-item-order="0" transform="translate(152, 386)"><g id="cu_dbpoy3qp7xms-stroke" fill="none" stroke-linecap="round" stroke-linejoin="round" stroke-miterlimit="4" stroke="#ababab" stroke-width="2" stroke-dasharray="5.0, 7.0"><g><path d="M 28 10L 28 22L 28 94C 28.000002 100.627415 22.627419 105.999998 16.000002 105.999998L 15.9 106L 10 106"></path></g></g></g><g id="g-root-cu_mgpthnqp6knc-stroke" data-item-order="0" transform="translate(482, 386)"><g id="cu_mgpthnqp6knc-stroke" fill="none" stroke-linecap="round" stroke-linejoin="round" stroke-miterlimit="4" stroke="#ababab" stroke-width="2" stroke-dasharray="5.0, 7.0"><g><path d="M 10 10L 10 22L 10 34L 19 34L 28 34"></path></g></g></g><g id="g-root-cu_hrj72jqp7wub-stroke" data-item-order="0" transform="translate(482, 386)"><g id="cu_hrj72jqp7wub-stroke" fill="none" stroke-linecap="round" stroke-linejoin="round" stroke-miterlimit="4" stroke="#ababab" stroke-width="2" stroke-dasharray="5.0, 7.0"><g><path d="M 10 10L 10 40L 10 70L 19 70L 28 70"></path></g></g></g><g id="g-root-cu_hrj72jqp7wud-stroke" data-item-order="0" transform="translate(482, 386)"><g id="cu_hrj72jqp7wud-stroke" fill="none" stroke-linecap="round" stroke-linejoin="round" stroke-miterlimit="4" stroke="#ababab" stroke-width="2" stroke-dasharray="5.0, 7.0"><g><path d="M 10 10L 10 22L 10 94C 10.000004 100.627423 15.372587 106.000006 22.000005 106.000005L 22.1 106L 28 106"></path></g></g></g><g id="g-root-tx_dimensio_v5hlsbqp6j2n-stroke" data-item-order="3000000000" transform="translate(506, 137)"></g><g id="g-root-ic_disa_qpo3nvqp6juw-stroke" data-item-order="3000000000" transform="translate(470, 134)"><g id="ic_disa_qpo3nvqp6juw-stroke" fill="none" stroke-linecap="round" stroke-linejoin="round" stroke-miterlimit="4" stroke="#F8E6B8" stroke-width="2"><g><path d="M 24.375 31.875C 24.375002 36.017136 27.732864 39.375 31.875 39.375C 36.017136 39.375 39.375 36.017136 39.375 31.875C 39.375 27.732864 36.017136 24.375002 31.875 24.375002C 27.732864 24.375002 24.375002 27.732864 24.375002 31.875ZM 26.5725 37.177502L 37.178749 26.571251M 23.125 39.375L 11.875 39.375C 11.184644 39.375 10.625 38.815353 10.625 38.125L 10.625 11.875C 10.625 11.184644 11.184644 10.625 11.875 10.625L 28.491251 10.625C 28.822744 10.625071 29.140635 10.756813 29.375 10.99125L 34.008751 15.625C 34.243187 15.859366 34.374928 16.177258 34.375 16.508749L 34.375 20.625"></path></g></g></g><g id="g-root-ic_2_96krqp6ioc-stroke" data-item-order="3000000000" transform="translate(302, 257)"><g id="ic_2_96krqp6ioc-stroke" fill="none" stroke-linecap="round" stroke-linejoin="round" stroke-miterlimit="4" stroke="#d3d3d3" stroke-width="2"><g><path d="M 57 47C 57 52.522846 52.522846 57 47 57C 41.477154 57 37 52.522846 37 47C 37 41.477154 41.477154 37 47 37M 10 10M 43 46L 46.240002 48.43C 46.665913 48.749241 47.267254 48.678909 47.608002 48.27L 57 37M 11 41C 11 34.372581 16.372583 29 23 29C 29.627417 29 35 34.372581 35 41ZM 15.5 18.5C 15.5 22.642136 18.857864 26 23 26C 27.142136 26 30.5 22.642136 30.5 18.5C 30.5 14.357864 27.142136 11 23 11C 18.857864 11 15.5 14.357864 15.5 18.5ZM 34.5 18.5C 34.5 22.642136 37.857864 26 42 26C 46.142136 26 49.5 22.642136 49.5 18.5C 49.5 14.357864 46.142136 11 42 11C 37.857864 11 34.5 14.357864 34.5 18.5ZM 48.939999 31.209999C 45.132832 28.510376 40.105755 28.263079 36.052002 30.576"></path></g></g></g><g id="g-root-tx_consensu_dl2t8rqp55or-stroke" data-item-order="3000000000" transform="translate(266, 311)"></g><g id="g-root-ic_appr_zqawlnqp6j9i-stroke" data-item-order="3000000000" transform="translate(152, 134)"><g id="ic_appr_zqawlnqp6j9i-stroke" fill="none" stroke-linecap="round" stroke-linejoin="round" stroke-miterlimit="4" stroke="#F8E6B8" stroke-width="2"><g><path d="M 20 21.875L 20 15C 20 14.309644 20.559643 13.75 21.25 13.75L 37.5 13.75C 38.190353 13.75 38.75 14.309644 38.75 15L 38.75 37.5C 38.75 38.190353 38.190353 38.75 37.5 38.75L 25.625 38.75M 31.786251 13.125C 31.506546 12.021485 30.513411 11.248671 29.375 11.248671C 28.236589 11.248671 27.243454 12.021485 26.963751 13.125L 24.375 13.125L 24.375 16.875L 34.375 16.875L 34.375 13.125ZM 11.25 31.875C 11.25 35.671959 14.328043 38.75 18.125 38.75C 21.921957 38.75 25 35.671959 25 31.875C 25 28.078043 21.921957 25.000002 18.125 25.000002C 14.328043 25.000002 11.25 28.078043 11.25 31.875M 15.625 32.5L 16.875 34.375L 21.25 30M 24.375 21.25L 34.375 21.25M 27.5 25.625L 34.375 25.625M 30 30L 34.375 30M 30 34.375L 34.375 34.375"></path></g></g></g><g id="g-root-tx_dimensio_1hitv9nqp6j2j-stroke" data-item-order="3000000000" transform="translate(26, 347)"></g><g id="g-root-ic_four_1d30d57qp6jus-stroke" data-item-order="3000000000" transform="translate(152, 344)"><g id="ic_four_1d30d57qp6jus-stroke" fill="none" stroke-linecap="round" stroke-linejoin="round" stroke-miterlimit="4" stroke="#F8E6B8" stroke-width="2"><g><path d="M 34.375 32.03125L 15.625 32.03125L 29.6875 10.9375L 29.6875 39.0625"></path></g></g></g><g id="g-root-tx_dimensio_1464eq3qp6ih9-stroke" data-item-order="3000000000" transform="translate(26, 137)"></g><g id="g-root-ic_appr_1hdu2krqp6iva-stroke" data-item-order="3000000000" transform="translate(470, 344)"><g id="ic_appr_1hdu2krqp6iva-stroke" fill="none" stroke-linecap="round" stroke-linejoin="round" stroke-miterlimit="4" stroke="#F8E6B8" stroke-width="2"><g><path d="M 30.525 15.9375C 29.368034 15.363489 28.140961 14.943259 26.875002 14.6875L 26.875 11.875C 26.875 11.184644 26.315357 10.625 25.625 10.625L 24.375 10.625C 23.684643 10.625 23.125 11.184644 23.125 11.875L 23.125 14.6875C 21.859041 14.943259 20.631969 15.363489 19.475 15.937501L 17.5 13.95C 17.012453 13.465345 16.225048 13.465345 15.7375 13.95L 13.95 15.725C 13.713359 15.959708 13.580253 16.279203 13.580253 16.612499C 13.580253 16.945797 13.713359 17.265291 13.95 17.5L 15.9375 19.475C 15.363489 20.631969 14.943259 21.859041 14.6875 23.125002L 11.875 23.125C 11.184644 23.125 10.625 23.684643 10.625 24.375L 10.625 25.625C 10.625 26.315357 11.184644 26.875 11.875 26.875L 14.6875 26.875C 14.943259 28.140961 15.363489 29.368034 15.937501 30.525002L 13.95 32.5C 13.465345 32.987549 13.465345 33.774952 13.95 34.262501L 15.712501 36.037498C 15.947208 36.274139 16.266703 36.407249 16.6 36.407249C 16.933296 36.407249 17.252792 36.274139 17.487499 36.037498L 19.475 34.049999C 20.631969 34.624012 21.859041 35.044243 23.125002 35.300003L 23.125 38.125C 23.125 38.815353 23.684643 39.375 24.375 39.375L 25.625 39.375C 26.315357 39.375 26.875 38.815353 26.875 38.125L 26.875 35.3125C 28.140961 35.056744 29.368034 34.636513 30.525002 34.062504L 32.5 36.049999C 32.987549 36.534657 33.774952 36.534657 34.262501 36.049999L 36.037498 34.275002C 36.522156 33.787453 36.522156 33.000046 36.037498 32.512501L 34.049999 30.525C 34.624012 29.368034 35.044243 28.140961 35.300003 26.875002L 38.125 26.875C 38.815353 26.875 39.375 26.315357 39.375 25.625L 39.375 24.375C 39.375 23.684643 38.815353 23.125 38.125 23.125L 35.3125 23.125C 35.162498 22.5 34.962498 21.6875 34.700001 20.9375M 39.375 10.625L 25.924999 27C 25.70517 27.294552 25.366846 27.477428 25 27.5C 24.634258 27.509991 24.282501 27.359236 24.037498 27.0875L 20 22.5"></path></g></g></g><g id="g-root-tx_dimensio_1ltnkp7qp6i31-stroke" data-item-order="3000000000" transform="translate(506, 347)"></g></g></g></svg>