<?xml version="1.0" encoding="utf-8" standalone="yes"?>
<!DOCTYPE svg PUBLIC "-//W3C//DTD SVG 1.1//EN" "http://www.w3.org/Graphics/SVG/1.1/DTD/svg11.dtd">
<svg width="900" height="708" viewBox="0 0 900 708" style="fill:none;stroke:none;fill-rule:evenodd;clip-rule:evenodd;stroke-linecap:round;stroke-linejoin:round;stroke-miterlimit:1.5;" version="1.1" xmlns="http://www.w3.org/2000/svg" xmlns:xlink="http://www.w3.org/1999/xlink"><style class="text-font-style fontImports" data-font-family="Roboto">@import url('https://fonts.googleapis.com/css2?family=Roboto:wght@400;700&amp;display=block');</style><g id="items" style="isolation: isolate"><g id="blend" style="mix-blend-mode: normal"><g id="g-root-sy_4_cu_Vector_v9ukqztgpv5x-fill" data-item-order="-419174" transform="translate(338, 530)"><g id="sy_4_cu_Vector_v9ukqztgpv5x-fill" stroke="none" fill="#6b6b6b"><g><path d="M 69.4375 10L 10 106L 538 106L 480.5625 10L 69.4375 10ZM 80 130L 10 106L 538 106L 466 130L 80 130Z"></path></g></g></g><g id="g-root-sy_4_Subtract_meu1l7tgpssu-fill" data-item-order="-419169" transform="translate(21, 566)"></g><g id="g-root-sy_4_Subtract-start_meu1l7tgpssv-fill" data-item-order="-419167" transform="translate(15, 563)"></g><g id="g-root-sy_3_cu_Vector_hz0jgrtgptl4-fill" data-item-order="-419164" transform="translate(410, 410)"><g id="sy_3_cu_Vector_hz0jgrtgptl4-fill" stroke="none" fill="#6b6b6b"><g><path d="M 70 10L 10 106L 394 106L 334 10L 70 10ZM 70 130L 10 106L 394 106L 334 130L 70 130Z"></path></g></g></g><g id="g-root-sy_3_Subtract_hz0jgrtgptl5-fill" data-item-order="-419159" transform="translate(20, 446)"></g><g id="g-root-sy_3_Subtract-start_dj71cbtgpude-fill" data-item-order="-419157" transform="translate(14, 443)"></g><g id="g-root-sy_2_cu_Vector_dj71cbtgpudf-fill" data-item-order="-419154" transform="translate(482, 290)"><g id="sy_2_cu_Vector_dj71cbtgpudf-fill" stroke="none" fill="#6b6b6b"><g><path d="M 58 10L 10 106L 250 106L 202 10L 58 10ZM 58 130L 10 106L 250 106L 202 130L 58 130Z"></path></g></g></g><g id="g-root-sy_2_Subtract_4nk13ftgpv64-fill" data-item-order="-419149" transform="translate(20, 326)"></g><g id="g-root-sy_2_Subtract-start_4nk13ftgpv65-fill" data-item-order="-419147" transform="translate(14, 323)"></g><g id="g-root-sy_1_cu_Vector_8d023tgpssm-fill" data-item-order="-419144" transform="translate(542, 158)"><g id="sy_1_cu_Vector_8d023tgpssm-fill" stroke="none" fill="#E5A000"><g><path d="M 130 118L 70 10L 10 118L 130 118ZM 10 118L 130 118L 94 142L 46 142L 10 118Z"></path></g></g></g><g id="g-root-sy_1_Subtract_8d023tgpssn-fill" data-item-order="-419139" transform="translate(20, 206)"></g><g id="g-root-sy_1_Subtract-start_1utnjwrtgptds-fill" data-item-order="-419137" transform="translate(14, 203)"></g><g id="g-root-ic_2_v7z5hntgzoy7-fill" data-item-order="0" transform="translate(578, 314)"></g><g id="g-root-tx_azoneacc_147d097tgptdx-fill" data-item-order="0" transform="translate(14, 410)"><g id="tx_azoneacc_147d097tgptdx-fill" stroke="none" fill="#f4f4f4"><g><text style="font: bold 20px Roboto, sans-serif; white-space: pre;" font-weight="bold" font-size="20px" font-family="Roboto, sans-serif"><tspan x="12" y="33.64" dominant-baseline="ideographic">A Zone Access</tspan></text></g></g></g><g id="g-root-tx_multireg_vbq00btgpu6m-fill" data-item-order="0" transform="translate(14, 338)"><g id="tx_multireg_vbq00btgpu6m-fill" stroke="none" fill="#f4f4f4"><g><text style="font: 15px Roboto, sans-serif; white-space: pre;" font-size="15px" font-family="Roboto, sans-serif"><tspan x="12" y="30.27" dominant-baseline="ideographic">Multi-regional access to A+B Zones</tspan></text></g></g></g><g id="g-root-tx_multireg_qvwhvvtgpuyv-fill" data-item-order="0" transform="translate(14, 290)"><g id="tx_multireg_qvwhvvtgpuyv-fill" stroke="none" fill="#f4f4f4"><g><text style="font: bold 20px Roboto, sans-serif; white-space: pre;" font-weight="bold" font-size="20px" font-family="Roboto, sans-serif"><tspan x="12" y="33.64" dominant-baseline="ideographic">Multi-Regional</tspan></text></g></g></g><g id="g-root-tx_directli_147d097tgptdw-fill" data-item-order="0" transform="translate(14, 458)"><g id="tx_directli_147d097tgptdw-fill" stroke="none" fill="#f4f4f4"><g><text style="font: 15px Roboto, sans-serif; white-space: pre;" font-size="15px" font-family="Roboto, sans-serif"><tspan x="12" y="30.27" dominant-baseline="ideographic">Direct link access to A Zone</tspan></text></g></g></g><g id="g-root-ic_dire_dj71cbtgznyh-fill" data-item-order="0" transform="translate(578, 206)"></g><g id="g-root-ic_batc_8z07m3tgvgg9-fill" data-item-order="0" transform="translate(578, 434)"></g><g id="g-root-tx_regional_1hi71jftgpuyr-fill" data-item-order="0" transform="translate(14, 530)"><g id="tx_regional_1hi71jftgpuyr-fill" stroke="none" fill="#f4f4f4"><g><text style="font: bold 20px Roboto, sans-serif; white-space: pre;" font-weight="bold" font-size="20px" font-family="Roboto, sans-serif"><tspan x="12" y="33.64" dominant-baseline="ideographic">Regional Sharing</tspan></text></g></g></g><g id="g-root-tx_fullacce_mgpgujtgpslc-fill" data-item-order="0" transform="translate(14, 218)"><g id="tx_fullacce_mgpgujtgpslc-fill" stroke="none" fill="#F8E6B8"><g><text style="font: 15px Roboto, sans-serif; white-space: pre;" font-size="15px" font-family="Roboto, sans-serif"><tspan x="12" y="30.27" dominant-baseline="ideographic">Full access to A+B+C Zones</tspan></text></g></g></g><g id="g-root-tx_universa_dl2glntgpte1-fill" data-item-order="0" transform="translate(14, 170)"><g id="tx_universa_dl2glntgpte1-fill" stroke="none" fill="#F8E6B8"><g><text style="font: bold 20px Roboto, sans-serif; white-space: pre;" font-weight="bold" font-size="20px" font-family="Roboto, sans-serif"><tspan x="12" y="33.64" dominant-baseline="ideographic">Universal Access</tspan></text></g></g></g><g id="g-root-tx_regional_1ly0jnvtgpu6i-fill" data-item-order="0" transform="translate(14, 578)"><g id="tx_regional_1ly0jnvtgpu6i-fill" stroke="none" fill="#f4f4f4"><g><text style="font: 15px Roboto, sans-serif; white-space: pre;" font-size="15px" font-family="Roboto, sans-serif"><tspan x="12" y="30.27" dominant-baseline="ideographic">Regional reward sharing only</tspan></text></g></g></g><g id="g-root-ic_exch_dl2glntgpte2-fill" data-item-order="0" transform="translate(578, 554)"></g><g id="g-root-tx_particip_1utnjwrtgptdt-fill" data-item-order="0" transform="translate(291, 38)"><g id="tx_particip_1utnjwrtgptdt-fill" stroke="none" fill="#f4f4f4"><g><text style="font: bold 25px Roboto, sans-serif; white-space: pre;" font-weight="bold" font-size="25px" font-family="Roboto, sans-serif"><tspan x="17.12" y="43" dominant-baseline="ideographic">Participation Level Pyramid</tspan></text></g></g></g><g id="g-root-sy_4_cu_Vector_v9ukqztgpv5x-stroke" data-item-order="-419174" transform="translate(338, 530)"><g id="sy_4_cu_Vector_v9ukqztgpv5x-stroke" fill="none" stroke-linecap="round" stroke-linejoin="round" stroke-miterlimit="4" stroke="#d3d3d3" stroke-width="2"><g><path d="M 69.4375 10L 10 106L 538 106L 480.5625 10L 69.4375 10ZM 80 130L 10 106L 538 106L 466 130L 80 130Z"></path></g></g></g><g id="g-root-sy_4_Subtract_meu1l7tgpssu-stroke" data-item-order="-419169" transform="translate(21, 566)"><g id="sy_4_Subtract_meu1l7tgpssu-stroke" fill="none" stroke-linecap="round" stroke-linejoin="round" stroke-miterlimit="4" stroke="#f4f4f4" stroke-width="2"><g><path d="M 10 10.0003L 364 10"></path></g></g></g><g id="g-root-sy_4_Subtract-start_meu1l7tgpssv-stroke" data-item-order="-419167" transform="translate(15, 563)"><g id="sy_4_Subtract-start_meu1l7tgpssv-stroke" fill="none" stroke-linecap="round" stroke-linejoin="round" stroke-miterlimit="4" stroke="#f4f4f4" stroke-width="2"><g><path d="M 13 16C 11.3443 16 10 14.6557 10 13C 10 11.3443 11.3443 10 13 10C 14.6557 10 16 11.3443 16 13C 16 14.6557 14.6557 16 13 16Z"></path></g></g></g><g id="g-root-sy_3_cu_Vector_hz0jgrtgptl4-stroke" data-item-order="-419164" transform="translate(410, 410)"><g id="sy_3_cu_Vector_hz0jgrtgptl4-stroke" fill="none" stroke-linecap="round" stroke-linejoin="round" stroke-miterlimit="4" stroke="#d3d3d3" stroke-width="2"><g><path d="M 70 10L 10 106L 394 106L 334 10L 70 10ZM 70 130L 10 106L 394 106L 334 130L 70 130Z"></path></g></g></g><g id="g-root-sy_3_Subtract_hz0jgrtgptl5-stroke" data-item-order="-419159" transform="translate(20, 446)"><g id="sy_3_Subtract_hz0jgrtgptl5-stroke" fill="none" stroke-linecap="round" stroke-linejoin="round" stroke-miterlimit="4" stroke="#f4f4f4" stroke-width="2"><g><path d="M 10 10L 437 10"></path></g></g></g><g id="g-root-sy_3_Subtract-start_dj71cbtgpude-stroke" data-item-order="-419157" transform="translate(14, 443)"><g id="sy_3_Subtract-start_dj71cbtgpude-stroke" fill="none" stroke-linecap="round" stroke-linejoin="round" stroke-miterlimit="4" stroke="#f4f4f4" stroke-width="2"><g><path d="M 13 16C 11.3443 16 10 14.6557 10 13C 10 11.3443 11.3443 10 13 10C 14.6557 10 16 11.3443 16 13C 16 14.6557 14.6557 16 13 16Z"></path></g></g></g><g id="g-root-sy_2_cu_Vector_dj71cbtgpudf-stroke" data-item-order="-419154" transform="translate(482, 290)"><g id="sy_2_cu_Vector_dj71cbtgpudf-stroke" fill="none" stroke-linecap="round" stroke-linejoin="round" stroke-miterlimit="4" stroke="#d3d3d3" stroke-width="2"><g><path d="M 58 10L 10 106L 250 106L 202 10L 58 10ZM 58 130L 10 106L 250 106L 202 130L 58 130Z"></path></g></g></g><g id="g-root-sy_2_Subtract_4nk13ftgpv64-stroke" data-item-order="-419149" transform="translate(20, 326)"><g id="sy_2_Subtract_4nk13ftgpv64-stroke" fill="none" stroke-linecap="round" stroke-linejoin="round" stroke-miterlimit="4" stroke="#f4f4f4" stroke-width="2"><g><path d="M 10 10L 502 10"></path></g></g></g><g id="g-root-sy_2_Subtract-start_4nk13ftgpv65-stroke" data-item-order="-419147" transform="translate(14, 323)"><g id="sy_2_Subtract-start_4nk13ftgpv65-stroke" fill="none" stroke-linecap="round" stroke-linejoin="round" stroke-miterlimit="4" stroke="#f4f4f4" stroke-width="2"><g><path d="M 13 16C 11.3443 16 10 14.6557 10 13C 10 11.3443 11.3443 10 13 10C 14.6557 10 16 11.3443 16 13C 16 14.6557 14.6557 16 13 16Z"></path></g></g></g><g id="g-root-sy_1_cu_Vector_8d023tgpssm-stroke" data-item-order="-419144" transform="translate(542, 158)"><g id="sy_1_cu_Vector_8d023tgpssm-stroke" fill="none" stroke-linecap="round" stroke-linejoin="round" stroke-miterlimit="4" stroke="#F8E6B8" stroke-width="2"><g><path d="M 130 118L 70 10L 10 118L 130 118ZM 10 118L 130 118L 94 142L 46 142L 10 118Z"></path></g></g></g><g id="g-root-sy_1_Subtract_8d023tgpssn-stroke" data-item-order="-419139" transform="translate(20, 206)"><g id="sy_1_Subtract_8d023tgpssn-stroke" fill="none" stroke-linecap="round" stroke-linejoin="round" stroke-miterlimit="4" stroke="#F8E6B8" stroke-width="2"><g><path d="M 10 10L 565 10"></path></g></g></g><g id="g-root-sy_1_Subtract-start_1utnjwrtgptds-stroke" data-item-order="-419137" transform="translate(14, 203)"><g id="sy_1_Subtract-start_1utnjwrtgptds-stroke" fill="none" stroke-linecap="round" stroke-linejoin="round" stroke-miterlimit="4" stroke="#F8E6B8" stroke-width="2"><g><path d="M 13 16C 11.3443 16 10 14.6557 10 13C 10 11.3443 11.3443 10 13 10C 14.6557 10 16 11.3443 16 13C 16 14.6557 14.6557 16 13 16Z"></path></g></g></g><g id="g-root-ic_2_v7z5hntgzoy7-stroke" data-item-order="0" transform="translate(578, 314)"><g id="ic_2_v7z5hntgzoy7-stroke" fill="none" stroke-linecap="round" stroke-linejoin="round" stroke-miterlimit="4" stroke="#d3d3d3" stroke-width="2"><g><path d="M 21.99988 38C 24.209019 38 25.99988 36.209198 25.99988 34C 25.99988 31.7908 24.209019 30 21.99988 30C 19.790741 30 17.99988 31.7908 17.99988 34C 17.99988 36.209198 19.790741 38 21.99988 38ZM 39.999802 28C 42.209 28 43.999802 26.209141 43.999802 24C 43.999802 21.790859 42.209 20 39.999802 20C 37.790802 20 35.999802 21.790859 35.999802 24C 35.999802 26.209141 37.790802 28 39.999802 28ZM 46.046799 53.007801C 43.846802 53.007801 41.999802 51.200001 41.999802 49C 41.999802 46.799999 43.799801 45 45.999802 45C 48.199799 45 49.999802 46.799999 49.999802 49L 49.898399 49.921799M 46.199799 41.1992C 46.133202 42.466202 46.066601 43.733002 45.999802 45M 42.399799 27.199221C 43.5998 29.199221 44.799801 32.1992 45.5998 35.999199M 24.9375 31.2812C 27.57074 29.0415 31.621799 26.19092 36.078201 24.765621M 24.99988 36.799801C 25.799881 37.399799 26.59988 38.199799 27.59988 38.999802M 38.999802 46.1992C 40.013 46.606602 41.026398 47.217602 42.242199 47.625M 32.199799 42.400398C 32.799801 42.8004 33.199799 43.200401 33.799801 43.400398M 19.828121 30.648399C 18.40624 28.17458 16.578121 24.463821 15.96876 20.546879M 43.765598 22.63282C 46.438999 22.011261 50.003601 21.389721 52.899799 21.8041M 34 56.5C 46.426399 56.5 56.5 46.426399 56.5 34C 56.5 21.57358 46.426399 11.5 34 11.5C 21.57358 11.5 11.5 21.57358 11.5 34C 11.5 46.426399 21.57358 56.5 34 56.5Z"></path></g></g></g><g id="g-root-tx_azoneacc_147d097tgptdx-stroke" data-item-order="0" transform="translate(14, 410)"></g><g id="g-root-tx_multireg_vbq00btgpu6m-stroke" data-item-order="0" transform="translate(14, 338)"></g><g id="g-root-tx_multireg_qvwhvvtgpuyv-stroke" data-item-order="0" transform="translate(14, 290)"></g><g id="g-root-tx_directli_147d097tgptdw-stroke" data-item-order="0" transform="translate(14, 458)"></g><g id="g-root-ic_dire_dj71cbtgznyh-stroke" data-item-order="0" transform="translate(578, 206)"><g id="ic_dire_dj71cbtgznyh-stroke" fill="none" stroke-linecap="round" stroke-linejoin="round" stroke-miterlimit="4" stroke="#F8E6B8" stroke-width="2"><g><path d="M 32.984001 11.012L 32.984001 19.012001M 27.983999 15.012L 32.984001 11.012L 37.984001 15.012M 32.984001 57.012001L 32.984001 49.012001M 27.983999 53.012001L 32.984001 57.012001L 37.984001 53.012001M 10.984 33.012001L 16.984001 33.012001M 14.984 38.012001L 10.984 33.012001L 14.984 28.011999M 56.984001 33.012001L 50.984001 33.012001M 52.984001 38.012001L 56.984001 33.012001L 52.984001 28.011999M 22.958 42.903999C 19.552132 37.453213 20.640835 30.33165 25.519657 26.147377C 30.398479 21.963104 37.602776 21.97226 42.470943 26.168919C 47.339115 30.36558 48.409714 37.489887 44.990002 42.932003M 26.983999 45.012001L 26.983999 36.012001C 26.984001 32.146008 30.118008 29.012001 33.984001 29.012001C 37.849995 29.012001 40.984001 32.146008 40.984001 36.012001L 40.984001 45.012001M 36.984001 36.012001C 36.984001 34.355148 35.640854 33.012001 33.984001 33.012001C 32.327148 33.012001 30.984001 34.355148 30.984001 36.012001L 30.983999 39.012001L 36.984001 39.012001Z"></path></g></g></g><g id="g-root-ic_batc_8z07m3tgvgg9-stroke" data-item-order="0" transform="translate(578, 434)"><g id="ic_batc_8z07m3tgvgg9-stroke" fill="none" stroke-linecap="round" stroke-linejoin="round" stroke-miterlimit="4" stroke="#d3d3d3" stroke-width="2"><g><path d="M 17.700081 38.9002C 21.013779 38.9002 23.700081 36.213799 23.700081 32.9002C 23.700081 29.586439 21.013779 26.900141 17.700081 26.900141C 14.38636 26.900141 11.700074 29.586439 11.700074 32.9002C 11.700074 36.213799 14.38636 38.9002 17.700081 38.9002ZM 34.700001 56.5C 38.013802 56.5 40.700001 53.813801 40.700001 50.5C 40.700001 47.186199 38.013802 44.5 34.700001 44.5C 31.3864 44.5 28.700081 47.186199 28.700081 50.5C 28.700081 53.813801 31.3864 56.5 34.700001 56.5ZM 34.700001 37.9002C 37.461399 37.9002 39.700001 35.661598 39.700001 32.9002C 39.700001 30.1388 37.461399 27.900141 34.700001 27.900141C 31.938601 27.900141 29.700081 30.1388 29.700081 32.9002C 29.700081 35.661598 31.938601 37.9002 34.700001 37.9002ZM 34.700001 21.5C 37.461399 21.5 39.700001 19.261421 39.700001 16.5C 39.700001 13.73858 37.461399 11.5 34.700001 11.5C 31.938601 11.5 29.700081 13.73858 29.700081 16.5C 29.700081 19.261421 31.938601 21.5 34.700001 21.5ZM 17.700081 55.5C 20.4615 55.5 22.700081 53.261398 22.700081 50.5C 22.700081 47.738602 20.4615 45.5 17.700081 45.5C 14.938641 45.5 12.70008 47.738602 12.70008 50.5C 12.70008 53.261398 14.938641 55.5 17.700081 55.5ZM 51.299999 55.5C 54.061401 55.5 56.299999 53.261398 56.299999 50.5C 56.299999 47.738602 54.061401 45.5 51.299999 45.5C 48.538601 45.5 46.299999 47.738602 46.299999 50.5C 46.299999 53.261398 48.538601 55.5 51.299999 55.5ZM 51.299999 37.9002C 54.061401 37.9002 56.299999 35.661598 56.299999 32.9002C 56.299999 30.1388 54.061401 27.900141 51.299999 27.900141C 48.538601 27.900141 46.299999 30.1388 46.299999 32.9002C 46.299999 35.661598 48.538601 37.9002 51.299999 37.9002ZM 17.700081 38.9002L 17.700081 45.5M 10 10M 34.700001 37.9002L 34.700001 44.5M 51.299999 37.9002L 51.299999 45.5M 23.700081 32.9002L 29.700041 32.9002M 39.700001 32.9002L 46.300201 32.9002M 34.700001 21.5L 34.700001 27.900141M 34.700001 52.382599C 35.739799 52.382599 36.5826 51.539799 36.5826 50.5C 36.5826 49.4604 35.739799 48.617401 34.700001 48.617401C 33.660202 48.617401 32.817398 49.4604 32.817398 50.5C 32.817398 51.539799 33.660202 52.382599 34.700001 52.382599ZM 17.70002 34.782799C 18.739761 34.782799 19.58264 33.940002 19.58264 32.9002C 19.58264 31.860399 18.739761 31.017599 17.70002 31.017599C 16.660259 31.017599 15.81738 31.860399 15.81738 32.9002C 15.81738 33.940002 16.660259 34.782799 17.70002 34.782799Z"></path></g></g></g><g id="g-root-tx_regional_1hi71jftgpuyr-stroke" data-item-order="0" transform="translate(14, 530)"></g><g id="g-root-tx_fullacce_mgpgujtgpslc-stroke" data-item-order="0" transform="translate(14, 218)"></g><g id="g-root-tx_universa_dl2glntgpte1-stroke" data-item-order="0" transform="translate(14, 170)"></g><g id="g-root-tx_regional_1ly0jnvtgpu6i-stroke" data-item-order="0" transform="translate(14, 578)"></g><g id="g-root-ic_exch_dl2glntgpte2-stroke" data-item-order="0" transform="translate(578, 554)"><g id="ic_exch_dl2glntgpte2-stroke" fill="none" stroke-linecap="round" stroke-linejoin="round" stroke-miterlimit="4" stroke="#d3d3d3" stroke-width="2"><g><path d="M 46.5 25.5C 46.5 27.985281 48.514717 30 51 30C 53.485283 30 55.5 27.985281 55.5 25.5C 55.5 23.014719 53.485283 21 51 21C 48.514717 21 46.5 23.014719 46.5 25.5M 51 32C 47.686291 32 45 34.686295 45 38L 45 43L 48 43L 49 52L 53 52L 54 43L 57 43L 57 38C 57 34.686295 54.313709 32 51 32ZM 12.5 25.5C 12.5 27.985281 14.514719 30 17 30C 19.485281 30 21.5 27.985281 21.5 25.5C 21.5 23.014719 19.485281 21 17 21C 14.514719 21 12.5 23.014719 12.5 25.5M 17 32C 13.686292 32 11 34.686295 11 38L 11 43L 14 43L 15 52L 19 52L 20 43L 23 43L 23 38C 23 34.686295 20.313709 32 17 32ZM 33 11L 37 15L 33 19M 28 15L 37 15M 33 49L 29 53L 33 57M 38 53L 29 53M 29.559999 37.559998C 29.625721 39.442833 31.193737 40.922523 33.077217 40.879086C 34.960701 40.835648 36.458836 39.285252 36.437691 37.401386C 36.416542 35.517525 34.88398 34.001144 33 34C 31.548374 34.048939 30.212582 33.211109 29.624693 31.882954C 29.036804 30.5548 29.314724 29.002684 30.326942 27.961039C 31.339161 26.919395 32.882675 26.597128 34.227127 27.146727C 35.571579 27.696325 36.447334 29.007568 36.439999 30.459999M 33 24L 33 26.9M 33 41.120003L 33 44"></path></g></g></g><g id="g-root-tx_particip_1utnjwrtgptdt-stroke" data-item-order="0" transform="translate(291, 38)"></g></g></g></svg>