<?xml version="1.0" encoding="utf-8" standalone="yes"?>
<!DOCTYPE svg PUBLIC "-//W3C//DTD SVG 1.1//EN" "http://www.w3.org/Graphics/SVG/1.1/DTD/svg11.dtd">
<svg width="613" height="466" viewBox="0 0 613 466" style="fill:none;stroke:none;fill-rule:evenodd;clip-rule:evenodd;stroke-linecap:round;stroke-linejoin:round;stroke-miterlimit:1.5;" version="1.1" xmlns="http://www.w3.org/2000/svg" xmlns:xlink="http://www.w3.org/1999/xlink"><style class="text-font-style fontImports" data-font-family="Roboto">@import url('https://fonts.googleapis.com/css2?family=Roboto:wght@400;700&amp;display=block');</style><g id="items" style="isolation: isolate"><g id="blend" style="mix-blend-mode: normal"><g id="g-root-sy_5_cu_18fozobqz8wec-fill" data-item-order="-40762" transform="translate(14.52862548828125, 344.7705078125)"><g id="sy_5_cu_18fozobqz8wec-fill" stroke="none" fill="#6b6b6b"><g><path d="M 127.336977 20.2322C 126.543977 29.7108 98.397177 34.4164 69.909777 39.6509C 48.711877 43.546 29.357977 45.288 21.745577 47.0136C 15.502477 48.4288 9.471377 52.8286 10.036877 61.629C 10.381077 66.9868 13.703477 71.4046 21.745577 72.035C 31.437377 72.7948 48.104077 69.9303 75.229277 65.242C 123.998977 56.8124 140.902977 48.3751 140.902977 31.5084C 140.902977 20.2322 125.553977 12.281 118.676977 10C 122.844977 11.6633 127.810977 14.562 127.336977 20.2322Z"></path></g></g></g><g id="g-root-sy_5_cu_1_zk1zffqz8x71-fill" data-item-order="-40760" transform="translate(17.224365234375, 338.4970703125)"><g id="sy_5_cu_1_zk1zffqz8x71-fill" stroke="none" fill="#6b6b6b"><g><path d="M 38.0076 27.1771C 16.9757 24.0392 10.9029 18.5537 10 17.5313C 11.8743 19.5171 14.7922 20.8771 19.0033 21.2053C 28.7014 21.9611 45.379 19.1113 72.522 14.4469C 81.0593 12.9798 88.6207 11.5124 95.2864 10C 102.5445 12.184 110.341 13.5695 117.352 16.811C 120.339 18.2371 124.813 20.893 124.686 26.0148C 124.538 31.9893 114.66 35.7537 102.0009 38.9452C 101.6757 38.8312 100.3044 38.2844 99.9973 38.1713C 92.3051 35.2781 65.1564 31.2276 38.0076 27.1771Z"></path></g></g></g><g id="g-root-sy_4_cu_v48hazqz8xza-fill" data-item-order="-40756" transform="translate(14.52862548828125, 287.74609375)"><g id="sy_4_cu_v48hazqz8xza-fill" stroke="none" fill="#6b6b6b"><g><path d="M 127.336977 20.2322C 126.543977 29.7108 98.397177 34.4164 69.909777 39.6509C 48.711877 43.546 29.357977 45.288 21.745577 47.0136C 15.502477 48.4288 9.471377 52.8286 10.036877 61.629C 10.381077 66.9868 13.703477 71.4046 21.745577 72.035C 31.437377 72.7948 48.104077 69.9303 75.229277 65.242C 123.998977 56.8124 140.902977 48.3751 140.902977 31.5084C 140.902977 20.2322 125.553977 12.281 118.676977 10C 122.844977 11.6633 127.810977 14.562 127.336977 20.2322Z"></path></g></g></g><g id="g-root-sy_4_cu_1_m8lh23qz8yrz-fill" data-item-order="-40754" transform="translate(17.224365234375, 281.4736328125)"><g id="sy_4_cu_1_m8lh23qz8yrz-fill" stroke="none" fill="#6b6b6b"><g><path d="M 38.0076 27.1771C 16.9757 24.0392 10.9029 18.5537 10 17.5313C 11.8743 19.5171 14.7922 20.8771 19.0033 21.2053C 28.7014 21.9611 45.379 19.1113 72.522 14.4469C 81.0593 12.9798 88.6207 11.5124 95.2864 10C 102.5445 12.184 110.341 13.5695 117.352 16.811C 120.339 18.2371 124.813 20.893 124.686 26.0148C 124.538 31.9893 114.66 35.7537 102.0009 38.9452C 101.6757 38.8312 100.3044 38.2844 99.9973 38.1713C 92.3051 35.2781 65.1564 31.2276 38.0076 27.1771Z"></path></g></g></g><g id="g-root-sy_3_cu_qoez6jqz8yrk-fill" data-item-order="-40750" transform="translate(14.52862548828125, 230.720703125)"><g id="sy_3_cu_qoez6jqz8yrk-fill" stroke="none" fill="#6b6b6b"><g><path d="M 127.336977 20.2322C 126.543977 29.7108 98.397177 34.4164 69.909777 39.6509C 48.711877 43.546 29.357977 45.288 21.745577 47.0136C 15.502477 48.4288 9.471377 52.8286 10.036877 61.629C 10.381077 66.9868 13.703477 71.4046 21.745577 72.035C 31.437377 72.7948 48.104077 69.9303 75.229277 65.242C 123.998977 56.8124 140.902977 48.3751 140.902977 31.5084C 140.902977 20.2322 125.553977 12.281 118.676977 10C 122.844977 11.6633 127.810977 14.562 127.336977 20.2322Z"></path></g></g></g><g id="g-root-sy_3_cu_1_hteg0rqz8weh-fill" data-item-order="-40748" transform="translate(17.224365234375, 224.4482421875)"><g id="sy_3_cu_1_hteg0rqz8weh-fill" stroke="none" fill="#6b6b6b"><g><path d="M 38.0076 27.1771C 16.9757 24.0392 10.9029 18.5537 10 17.5313C 11.8743 19.5171 14.7922 20.8771 19.0033 21.2053C 28.7014 21.9611 45.379 19.1113 72.522 14.4469C 81.0593 12.9798 88.6207 11.5124 95.2864 10C 102.5445 12.184 110.341 13.5695 117.352 16.811C 120.339 18.2371 124.813 20.893 124.686 26.0148C 124.538 31.9893 114.66 35.7537 102.0009 38.9452C 101.6757 38.8312 100.3044 38.2844 99.9973 38.1713C 92.3051 35.2781 65.1564 31.2276 38.0076 27.1771Z"></path></g></g></g><g id="g-root-sy_2_cu_ddkxwbqz8x6q-fill" data-item-order="-40744" transform="translate(14.52862548828125, 173.6962890625)"><g id="sy_2_cu_ddkxwbqz8x6q-fill" stroke="none" fill="#6b6b6b"><g><path d="M 127.336977 20.2322C 126.543977 29.7108 98.397177 34.4164 69.909777 39.6509C 48.711877 43.546 29.357977 45.288 21.745577 47.0136C 15.502477 48.4288 9.471377 52.8286 10.036877 61.629C 10.381077 66.9868 13.703477 71.4046 21.745577 72.035C 31.437377 72.7948 48.104077 69.9303 75.229277 65.242C 123.998977 56.8124 140.902977 48.3751 140.902977 31.5084C 140.902977 20.2322 125.553977 12.281 118.676977 10C 122.844977 11.6633 127.810977 14.562 127.336977 20.2322Z"></path></g></g></g><g id="g-root-sy_2_cu_1_4hxxnfqz8xzf-fill" data-item-order="-40742" transform="translate(17.224365234375, 167.4228515625)"><g id="sy_2_cu_1_4hxxnfqz8xzf-fill" stroke="none" fill="#6b6b6b"><g><path d="M 38.0076 27.1771C 16.9757 24.0392 10.9029 18.5537 10 17.5313C 11.8743 19.5171 14.7922 20.8771 19.0033 21.2053C 28.7014 21.9611 45.379 19.1113 72.522 14.4469C 81.0593 12.9798 88.6207 11.5124 95.2864 10C 102.5445 12.184 110.341 13.5695 117.352 16.811C 120.339 18.2371 124.813 20.893 124.686 26.0148C 124.538 31.9893 114.66 35.7537 102.0009 38.9452C 101.6757 38.8312 100.3044 38.2844 99.9973 38.1713C 92.3051 35.2781 65.1564 31.2276 38.0076 27.1771Z"></path></g></g></g><g id="g-root-sy_1_cu_24fizqz8yro-fill" data-item-order="-40738" transform="translate(14.52862548828125, 116.671875)"><g id="sy_1_cu_24fizqz8yro-fill" stroke="none" fill="#E5A000"><g><path d="M 127.336977 20.2322C 126.543977 29.7108 98.397177 34.4164 69.909777 39.6509C 48.711877 43.546 29.357977 45.288 21.745577 47.0136C 15.502477 48.4288 9.471377 52.8286 10.036877 61.629C 10.381077 66.9868 13.703477 71.4046 21.745577 72.035C 31.437377 72.7948 48.104077 69.9303 75.229277 65.242C 123.998977 56.8124 140.902977 48.3751 140.902977 31.5084C 140.902977 20.2322 125.553977 12.281 118.676977 10C 122.844977 11.6633 127.810977 14.562 127.336977 20.2322Z"></path></g></g></g><g id="g-root-sy_1_cu_1_1q87ycbqz8w7h-fill" data-item-order="-40736" transform="translate(14.5655517578125, 98)"><g id="sy_1_cu_1_1q87ycbqz8w7h-fill" stroke="none" fill="#E5A000"><g><path d="M 21.6823 10.137885C 31.374 9.378085 48.067 11.794885 75.1922 16.483285C 90.003 19.043285 106.1882 22.819685 120.011 29.210385C 122.998 30.636385 127.472 33.292385 127.345 38.414185C 127.196 44.388685 117.319 48.153085 104.6598 51.344585C 104.3346 51.230585 102.9633 50.683785 102.6561 50.570685C 78.8756 41.626185 51.5585 39.244885 26.2368 35.204085C 24.7636 35.763885 21.9403 35.966885 20.221 35.763885C 15.9301 34.666285 10 31.373185 10 22.448585C 10 17.819185 13.6401 10.768285 21.6823 10.137885Z"></path></g></g></g><g id="g-root-sy_1_Ellipse_1lseg7vqz8wzq-fill" data-item-order="-40734" transform="translate(14.5289306640625, 98.1787109375)"><g id="sy_1_Ellipse_1lseg7vqz8wzq-fill" stroke="none" fill="#E5A000"><g><path d="M 10 22.846066C 9.998156 29.94019 15.498816 35.692136 22.284863 35.692136C 29.070909 35.692136 34.57157 29.94019 34.569726 22.846066C 34.57157 15.751942 29.070909 9.999996 22.284863 9.999996C 15.498816 9.999996 9.998156 15.751942 10 22.846066"></path></g></g></g><g id="g-root-tx_determin_141qwt7qz8w76-fill" data-item-order="0" transform="translate(230.52859497070312, 182)"><g id="tx_determin_141qwt7qz8w76-fill" stroke="none" fill="#f4f4f4"><g><text style="font: 20px Roboto, sans-serif; white-space: pre;" font-size="20px" font-family="Roboto, sans-serif"><tspan x="12" y="33.64" dominant-baseline="ideographic">Determine Regional Consensus Ratios</tspan></text></g></g></g><g id="g-root-ic_add_24iorqz64g6-fill" data-item-order="0" transform="translate(182.52859497070312, 236)"></g><g id="g-root-tx_inputdat_18gxxujqz8ykp-fill" data-item-order="0" transform="translate(230.52859497070312, 242)"><g id="tx_inputdat_18gxxujqz8ykp-fill" stroke="none" fill="#f4f4f4"><g><text style="font: 20px Roboto, sans-serif; white-space: pre;" font-size="20px" font-family="Roboto, sans-serif"><tspan x="12" y="33.64" dominant-baseline="ideographic">Input Data into Calculation Box</tspan></text></g></g></g><g id="g-root-ic_cond_1ur5x23qz632c-fill" data-item-order="0" transform="translate(182.52859497070312, 176)"></g><g id="g-root-tx_identify_v63wkbqz8wzv-fill" data-item-order="0" transform="translate(230.52859497070312, 122)"><g id="tx_identify_v63wkbqz8wzv-fill" stroke="none" fill="#F8E6B8"><g><text style="font: 20px Roboto, sans-serif; white-space: pre;" font-size="20px" font-family="Roboto, sans-serif"><tspan x="12" y="33.64" dominant-baseline="ideographic">Identify Regional Resonance Returns</tspan></text></g></g></g><g id="g-root-tx_outputus_1cwrfyzqz8xsf-fill" data-item-order="0" transform="translate(230.52859497070312, 362)"><g id="tx_outputus_1cwrfyzqz8xsf-fill" stroke="none" fill="#f4f4f4"><g><text style="font: 20px Roboto, sans-serif; white-space: pre;" font-size="20px" font-family="Roboto, sans-serif"><tspan x="12" y="33.64" dominant-baseline="ideographic">Output User Consensus Reward</tspan></text></g></g></g><g id="g-root-tx_performc_18gxxujqz8yko-fill" data-item-order="0" transform="translate(230.52859497070312, 302)"><g id="tx_performc_18gxxujqz8yko-fill" stroke="none" fill="#f4f4f4"><g><text style="font: 20px Roboto, sans-serif; white-space: pre;" font-size="20px" font-family="Roboto, sans-serif"><tspan x="12" y="33.64" dominant-baseline="ideographic">Perform Calculation</tspan></text></g></g></g><g id="g-root-ic_xylo_detz8bqz8yz1-fill" data-item-order="0" transform="translate(182.52859497070312, 116)"></g><g id="g-root-ic_bash_hune6zqz8ykt-fill" data-item-order="0" transform="translate(182.52859497070312, 356)"></g><g id="g-root-tx_valuecon_qqaefvqz8xs4-fill" data-item-order="0" transform="translate(86.528564453125, 38)"><g id="tx_valuecon_qqaefvqz8xs4-fill" stroke="none" fill="#f4f4f4"><g><text style="font: bold 25px Roboto, sans-serif; white-space: pre;" font-weight="bold" font-size="25px" font-family="Roboto, sans-serif"><tspan x="15.64" y="43" dominant-baseline="ideographic">Value Consensus Calculation Algorithm</tspan></text></g></g></g><g id="g-root-ic_2_ddl123qyxpmp-fill" data-item-order="0" transform="translate(182.52859497070312, 296)"></g><g id="g-root-sy_5_cu_18fozobqz8wec-stroke" data-item-order="-40762" transform="translate(14.52862548828125, 344.7705078125)"><g id="sy_5_cu_18fozobqz8wec-stroke" fill="none" stroke-linecap="round" stroke-linejoin="round" stroke-miterlimit="4" stroke="#d3d3d3" stroke-width="2"><g><path d="M 69.909777 39.6509C 98.397177 34.4164 126.544077 29.7108 127.336877 20.2322C 127.811177 14.562 122.845377 11.6633 118.677377 10C 125.553977 12.281 140.902677 20.2322 140.902677 31.5084C 140.902677 48.3752 123.999377 56.8124 75.229277 65.242C 48.104077 69.9303 31.437377 72.7948 21.745577 72.035C 13.703477 71.4046 10.381077 66.9868 10.036877 61.629C 9.471377 52.8286 15.502477 48.4288 21.745577 47.0136C 29.357977 45.288 48.711877 43.546 69.909777 39.6509Z"></path></g></g></g><g id="g-root-sy_5_cu_1_zk1zffqz8x71-stroke" data-item-order="-40760" transform="translate(17.224365234375, 338.4970703125)"><g id="sy_5_cu_1_zk1zffqz8x71-stroke" fill="none" stroke-linecap="round" stroke-linejoin="round" stroke-miterlimit="4" stroke="#d3d3d3" stroke-width="2"><g><path d="M 38.0076 27.1771C 16.9757 24.0392 10.9029 18.5537 10 17.5313C 11.8743 19.5171 14.7922 20.8771 19.0033 21.2053C 28.7014 21.9611 45.379 19.1113 72.522 14.4469C 81.0593 12.9798 88.6207 11.5124 95.2864 10C 102.5445 12.184 110.3408 13.5695 117.3519 16.811C 120.3393 18.2371 124.8131 20.893 124.6859 26.0148C 124.5376 31.9893 114.6599 35.7537 102.0009 38.9452C 101.6757 38.8312 100.3044 38.2844 99.9973 38.1713C 92.3051 35.2781 65.1564 31.2276 38.0076 27.1771ZM 117.3519 16.811L 117.5995 16.9255"></path></g></g></g><g id="g-root-sy_4_cu_v48hazqz8xza-stroke" data-item-order="-40756" transform="translate(14.52862548828125, 287.74609375)"><g id="sy_4_cu_v48hazqz8xza-stroke" fill="none" stroke-linecap="round" stroke-linejoin="round" stroke-miterlimit="4" stroke="#d3d3d3" stroke-width="2"><g><path d="M 69.909777 39.6509C 98.397177 34.4164 126.544077 29.7108 127.336877 20.2322C 127.811177 14.562 122.845377 11.6633 118.677377 10C 125.553977 12.281 140.902677 20.2322 140.902677 31.5084C 140.902677 48.3752 123.999377 56.8124 75.229277 65.242C 48.104077 69.9303 31.437377 72.7948 21.745577 72.035C 13.703477 71.4046 10.381077 66.9868 10.036877 61.629C 9.471377 52.8286 15.502477 48.4288 21.745577 47.0136C 29.357977 45.288 48.711877 43.546 69.909777 39.6509Z"></path></g></g></g><g id="g-root-sy_4_cu_1_m8lh23qz8yrz-stroke" data-item-order="-40754" transform="translate(17.224365234375, 281.4736328125)"><g id="sy_4_cu_1_m8lh23qz8yrz-stroke" fill="none" stroke-linecap="round" stroke-linejoin="round" stroke-miterlimit="4" stroke="#d3d3d3" stroke-width="2"><g><path d="M 38.0076 27.1771C 16.9757 24.0392 10.9029 18.5537 10 17.5313C 11.8743 19.5171 14.7922 20.8771 19.0033 21.2053C 28.7014 21.9611 45.379 19.1113 72.522 14.4469C 81.0593 12.9798 88.6207 11.5124 95.2864 10C 102.5445 12.184 110.3408 13.5695 117.3519 16.811C 120.3393 18.2371 124.8131 20.893 124.6859 26.0148C 124.5376 31.9893 114.6599 35.7537 102.0009 38.9452C 101.6757 38.8312 100.3044 38.2844 99.9973 38.1713C 92.3051 35.2781 65.1564 31.2276 38.0076 27.1771ZM 117.3519 16.811L 117.5995 16.9255"></path></g></g></g><g id="g-root-sy_3_cu_qoez6jqz8yrk-stroke" data-item-order="-40750" transform="translate(14.52862548828125, 230.720703125)"><g id="sy_3_cu_qoez6jqz8yrk-stroke" fill="none" stroke-linecap="round" stroke-linejoin="round" stroke-miterlimit="4" stroke="#d3d3d3" stroke-width="2"><g><path d="M 69.909777 39.6509C 98.397177 34.4164 126.544077 29.7108 127.336877 20.2322C 127.811177 14.562 122.845377 11.6633 118.677377 10C 125.553977 12.281 140.902677 20.2322 140.902677 31.5084C 140.902677 48.3752 123.999377 56.8124 75.229277 65.242C 48.104077 69.9303 31.437377 72.7948 21.745577 72.035C 13.703477 71.4046 10.381077 66.9868 10.036877 61.629C 9.471377 52.8286 15.502477 48.4288 21.745577 47.0136C 29.357977 45.288 48.711877 43.546 69.909777 39.6509Z"></path></g></g></g><g id="g-root-sy_3_cu_1_hteg0rqz8weh-stroke" data-item-order="-40748" transform="translate(17.224365234375, 224.4482421875)"><g id="sy_3_cu_1_hteg0rqz8weh-stroke" fill="none" stroke-linecap="round" stroke-linejoin="round" stroke-miterlimit="4" stroke="#d3d3d3" stroke-width="2"><g><path d="M 38.0076 27.1771C 16.9757 24.0392 10.9029 18.5537 10 17.5313C 11.8743 19.5171 14.7922 20.8771 19.0033 21.2053C 28.7014 21.9611 45.379 19.1113 72.522 14.4469C 81.0593 12.9798 88.6207 11.5124 95.2864 10C 102.5445 12.184 110.3408 13.5695 117.3519 16.811C 120.3393 18.2371 124.8131 20.893 124.6859 26.0148C 124.5376 31.9893 114.6599 35.7537 102.0009 38.9452C 101.6757 38.8312 100.3044 38.2844 99.9973 38.1713C 92.3051 35.2781 65.1564 31.2276 38.0076 27.1771ZM 117.3519 16.811L 117.5995 16.9255"></path></g></g></g><g id="g-root-sy_2_cu_ddkxwbqz8x6q-stroke" data-item-order="-40744" transform="translate(14.52862548828125, 173.6962890625)"><g id="sy_2_cu_ddkxwbqz8x6q-stroke" fill="none" stroke-linecap="round" stroke-linejoin="round" stroke-miterlimit="4" stroke="#d3d3d3" stroke-width="2"><g><path d="M 69.909777 39.6509C 98.397177 34.4164 126.544077 29.7108 127.336877 20.2322C 127.811177 14.562 122.845377 11.6633 118.677377 10C 125.553977 12.281 140.902677 20.2322 140.902677 31.5084C 140.902677 48.3752 123.999377 56.8124 75.229277 65.242C 48.104077 69.9303 31.437377 72.7948 21.745577 72.035C 13.703477 71.4046 10.381077 66.9868 10.036877 61.629C 9.471377 52.8286 15.502477 48.4288 21.745577 47.0136C 29.357977 45.288 48.711877 43.546 69.909777 39.6509Z"></path></g></g></g><g id="g-root-sy_2_cu_1_4hxxnfqz8xzf-stroke" data-item-order="-40742" transform="translate(17.224365234375, 167.4228515625)"><g id="sy_2_cu_1_4hxxnfqz8xzf-stroke" fill="none" stroke-linecap="round" stroke-linejoin="round" stroke-miterlimit="4" stroke="#d3d3d3" stroke-width="2"><g><path d="M 38.0076 27.1771C 16.9757 24.0392 10.9029 18.5537 10 17.5313C 11.8743 19.5171 14.7922 20.8771 19.0033 21.2053C 28.7014 21.9611 45.379 19.1113 72.522 14.4469C 81.0593 12.9798 88.6207 11.5124 95.2864 10C 102.5445 12.184 110.3408 13.5695 117.3519 16.811C 120.3393 18.2371 124.8131 20.893 124.6859 26.0148C 124.5376 31.9893 114.6599 35.7537 102.0009 38.9452C 101.6757 38.8312 100.3044 38.2844 99.9973 38.1713C 92.3051 35.2781 65.1564 31.2276 38.0076 27.1771ZM 117.3519 16.811L 117.5995 16.9255"></path></g></g></g><g id="g-root-sy_1_cu_24fizqz8yro-stroke" data-item-order="-40738" transform="translate(14.52862548828125, 116.671875)"><g id="sy_1_cu_24fizqz8yro-stroke" fill="none" stroke-linecap="round" stroke-linejoin="round" stroke-miterlimit="4" stroke="#F8E6B8" stroke-width="2"><g><path d="M 69.909777 39.6509C 98.397177 34.4164 126.544077 29.7108 127.336877 20.2322C 127.811177 14.562 122.845377 11.6633 118.677377 10C 125.553977 12.281 140.902677 20.2322 140.902677 31.5084C 140.902677 48.3752 123.999377 56.8124 75.229277 65.242C 48.104077 69.9303 31.437377 72.7948 21.745577 72.035C 13.703477 71.4046 10.381077 66.9868 10.036877 61.629C 9.471377 52.8286 15.502477 48.4288 21.745577 47.0136C 29.357977 45.288 48.711877 43.546 69.909777 39.6509Z"></path></g></g></g><g id="g-root-sy_1_cu_1_1q87ycbqz8w7h-stroke" data-item-order="-40736" transform="translate(14.5655517578125, 98)"><g id="sy_1_cu_1_1q87ycbqz8w7h-stroke" fill="none" stroke-linecap="round" stroke-linejoin="round" stroke-miterlimit="4" stroke="#F8E6B8" stroke-width="2"><g><path d="M 120.0108 29.210385C 122.9982 30.636385 127.4718 33.292385 127.3446 38.414185C 127.1963 44.388685 117.3187 48.153085 104.6598 51.344585C 104.3346 51.230585 102.9633 50.683785 102.6561 50.570685C 78.8756 41.626185 51.5585 39.244885 26.2368 35.204085C 24.7636 35.763885 21.9403 35.966885 20.221 35.763885C 15.9301 34.666285 10 31.373185 10 22.448585C 10 17.819185 13.6401 10.768285 21.6823 10.137885C 31.374 9.378085 48.067 11.794885 75.1922 16.483285C 90.003 19.043185 106.1882 22.819685 120.0108 29.210385ZM 120.0108 29.210385L 120.2583 29.324785"></path></g></g></g><g id="g-root-sy_1_Ellipse_1lseg7vqz8wzq-stroke" data-item-order="-40734" transform="translate(14.5289306640625, 98.1787109375)"><g id="sy_1_Ellipse_1lseg7vqz8wzq-stroke" fill="none" stroke-linecap="round" stroke-linejoin="round" stroke-miterlimit="4" stroke="#F8E6B8" stroke-width="2"><g><path d="M 10 22.846066C 9.998156 29.94019 15.498816 35.692136 22.284863 35.692136C 29.070909 35.692136 34.57157 29.94019 34.569726 22.846066C 34.57157 15.751942 29.070909 9.999996 22.284863 9.999996C 15.498816 9.999996 9.998156 15.751942 10 22.846066"></path></g></g></g><g id="g-root-tx_determin_141qwt7qz8w76-stroke" data-item-order="0" transform="translate(230.52859497070312, 182)"></g><g id="g-root-ic_add_24iorqz64g6-stroke" data-item-order="0" transform="translate(182.52859497070312, 236)"><g id="ic_add_24iorqz64g6-stroke" fill="none" stroke-linecap="round" stroke-linejoin="round" stroke-miterlimit="4" stroke="#f4f4f4" stroke-width="2"><g><path d="M 23.6695 36.050499L 13.825 36.050499C 12.130867 36.050499 10.7575 34.677135 10.7575 32.983002L 10.7575 13.816C 10.7575 12.122108 12.131109 10.749171 13.825 10.75L 36.824501 10.75C 38.517803 10.75 39.890499 12.122695 39.890499 13.816L 39.890499 23.783501M 10.7575 16.738001L 39.890499 16.738001M 10.7575 29.464001L 24.9025 29.464001M 10.7575 23.1115L 39.890499 23.1115M 22.657 16.738001L 22.657 36.050499M 31.1875 16.738001L 31.1875 23.783501M 36.042999 45.25C 41.124763 45.249996 45.244274 41.130264 45.243996 36.0485C 45.243721 30.96673 41.123764 26.847446 36.042 26.847998C 30.960232 26.848551 26.841169 30.968731 26.841999 36.050499C 26.841999 41.131828 30.96167 45.250828 36.042999 45.249996ZM 36.042999 31.450001L 36.042999 40.649502M 31.450001 36.050499L 40.649502 36.050499"></path></g></g></g><g id="g-root-tx_inputdat_18gxxujqz8ykp-stroke" data-item-order="0" transform="translate(230.52859497070312, 242)"></g><g id="g-root-ic_cond_1ur5x23qz632c-stroke" data-item-order="0" transform="translate(182.52859497070312, 176)"><g id="ic_cond_1ur5x23qz632c-stroke" fill="none" stroke-linecap="round" stroke-linejoin="round" stroke-miterlimit="4" stroke="#f4f4f4" stroke-width="2"><g><path d="M 10 10M 28.024 38.125L 19.529501 32.125L 28.024 26.125L 36.421001 32.125L 28.024 38.125ZM 28.024 26.125L 28.024 12.6445M 36.421001 32.125L 43.714001 32.125C 44.121494 32.124603 44.512413 32.286301 44.800556 32.574444C 45.088699 32.862587 45.250401 33.253506 45.25 33.660999L 45.25 43.355499M 19.529501 32.125L 12.286 32.125C 11.878506 32.124603 11.487586 32.286301 11.199444 32.574444C 10.911302 32.862587 10.749601 33.253506 10.75 33.660999L 10.75 43.355499M 36.274002 24.667L 43.774002 17.167M 43.774002 24.667L 36.274002 17.167M 12.274 21.667L 15.208 24.667L 21.208 17.167"></path></g></g></g><g id="g-root-tx_identify_v63wkbqz8wzv-stroke" data-item-order="0" transform="translate(230.52859497070312, 122)"></g><g id="g-root-tx_outputus_1cwrfyzqz8xsf-stroke" data-item-order="0" transform="translate(230.52859497070312, 362)"></g><g id="g-root-tx_performc_18gxxujqz8yko-stroke" data-item-order="0" transform="translate(230.52859497070312, 302)"></g><g id="g-root-ic_xylo_detz8bqz8yz1-stroke" data-item-order="0" transform="translate(182.52859497070312, 116)"><g id="ic_xylo_detz8bqz8yz1-stroke" fill="none" stroke-linecap="round" stroke-linejoin="round" stroke-miterlimit="4" stroke="#F8E6B8" stroke-width="2"><g><path d="M 33.168999 39.841L 12.628 45.2005C 12.178699 45.317501 11.700544 45.219849 11.333098 44.936047C 10.965652 44.652245 10.750338 44.214283 10.75 43.75L 10.75 12.25C 10.750338 11.785716 10.965652 11.347756 11.333098 11.063954C 11.700544 10.780152 12.178699 10.6825 12.628 10.7995L 44.128002 19.0165C 44.788956 19.188616 45.250187 19.785503 45.25 20.4685L 45.25 35.532997C 45.248821 36.214878 44.787872 36.810169 44.128002 36.982002L 40.753002 37.862503M 19.75 43.342003L 19.75 12.658M 28.75 40.994499L 28.75 34.75M 28.75 19.75L 28.75 15.0055M 37.75 32.4865L 37.75 17.353001M 23.5 27.25C 23.5 29.735283 25.514719 31.75 28 31.75C 30.485283 31.75 32.5 29.735283 32.5 27.25C 32.5 24.764719 30.485283 22.75 28 22.75C 25.514719 22.75 23.5 24.764719 23.5 27.25M 30.793001 30.778L 42.25 45.25M 15.25 14.875C 15.457107 14.875 15.625 15.042893 15.625 15.25C 15.625 15.457107 15.457107 15.625 15.25 15.625C 15.042893 15.625 14.875 15.457107 14.875 15.25C 14.875 15.042893 15.042893 14.875 15.25 14.875M 24.25 17.0665C 24.457108 17.0665 24.625 17.234394 24.625 17.4415C 24.625 17.648607 24.457108 17.8165 24.25 17.8165C 24.042892 17.8165 23.875 17.648607 23.875 17.4415C 23.875 17.234394 24.042892 17.0665 24.25 17.0665M 33.25 19.2505C 33.457108 19.2505 33.625 19.418392 33.625 19.6255C 33.625 19.832607 33.457108 20.0005 33.25 20.0005C 33.042892 20.0005 32.875 19.832607 32.875 19.6255C 32.875 19.418392 33.042892 19.2505 33.25 19.2505M 41.5 21.25C 41.707108 21.25 41.875 21.417892 41.875 21.625C 41.875 21.832108 41.707108 22 41.5 22C 41.292892 22 41.125 21.832108 41.125 21.625C 41.125 21.417892 41.292892 21.25 41.5 21.25M 15.25 40.375C 15.042893 40.375 14.875 40.542892 14.875 40.75C 14.875 40.957108 15.042893 41.125 15.25 41.125C 15.457107 41.125 15.625 40.957108 15.625 40.75C 15.625 40.542892 15.457107 40.375 15.25 40.375M 24.25 38.183498C 24.042892 38.183498 23.875 38.351395 23.875 38.558498C 23.875 38.765606 24.042892 38.933498 24.25 38.933498C 24.457108 38.933498 24.625 38.765606 24.625 38.558498C 24.625 38.351395 24.457108 38.183498 24.25 38.183498M 41.5 34C 41.292892 34 41.125 34.167892 41.125 34.375C 41.125 34.582108 41.292892 34.75 41.5 34.75C 41.707108 34.75 41.875 34.582108 41.875 34.375C 41.875 34.167892 41.707108 34 41.5 34"></path></g></g></g><g id="g-root-ic_bash_hune6zqz8ykt-stroke" data-item-order="0" transform="translate(182.52859497070312, 356)"><g id="ic_bash_hune6zqz8ykt-stroke" fill="none" stroke-linecap="round" stroke-linejoin="round" stroke-miterlimit="4" stroke="#f4f4f4" stroke-width="2"><g><path d="M 10 10M 24.228281 21.88282L 13.096675 21.88282C 12.268255 21.88282 11.596675 21.211241 11.596675 20.38282L 11.596675 13.832035C 11.596675 13.0036 12.268255 12.332035 13.096675 12.332035L 36.162102 12.332035C 36.990551 12.332035 37.662102 13.0036 37.662102 13.832035L 37.662102 15.25714M 16.896879 17.55946C 16.647461 17.55946 16.44532 17.357306 16.44532 17.107885C 16.44532 16.858465 16.647461 16.65625 16.896879 16.65625M 16.896086 17.55946C 17.145504 17.55946 17.34766 17.357306 17.34766 17.107885C 17.34766 16.858465 17.145504 16.65625 16.896086 16.65625M 21.72793 17.55946C 21.478525 17.55946 21.276371 17.357306 21.276371 17.107885C 21.276371 16.858465 21.478525 16.65625 21.72793 16.65625M 21.727135 17.55946C 21.976555 17.55946 22.178709 17.357306 22.178709 17.107885C 22.178709 16.858465 21.976555 16.65625 21.727135 16.65625M 10 10M 44.403248 43.66795L 33.50005 32.764599M 10 10M 38.754852 32.763702L 33.502899 32.764751L 33.502899 38.015648M 10 10M 42.315849 31.1749L 44.40535 25.77475L 39.105247 26.286251L 38.748398 20.324215L 33.704048 24.094749L 29.0515 20.548735L 28.504749 26.8468L 22.757561 26.638599L 25.775351 32.271851L 21.217779 36.275051L 27.1807 37.854851L 26.113901 43.168301L 31.359701 41.728149"></path></g></g></g><g id="g-root-tx_valuecon_qqaefvqz8xs4-stroke" data-item-order="0" transform="translate(86.528564453125, 38)"></g><g id="g-root-ic_2_ddl123qyxpmp-stroke" data-item-order="0" transform="translate(182.52859497070312, 296)"><g id="ic_2_ddl123qyxpmp-stroke" fill="none" stroke-linecap="round" stroke-linejoin="round" stroke-miterlimit="4" stroke="#f4f4f4" stroke-width="2"><g><path d="M 31.375 37.824997C 31.375 39.474998 30.025002 40.824997 28.375 40.824997L 14.125 40.824997C 12.475 40.824997 11.125 39.474998 11.125 37.824997L 11.125 20.125C 11.125 18.475 12.475 17.125 14.125 17.125L 28.375 17.125C 30.025002 17.125 31.375 18.475 31.375 20.125L 31.375 37.824997ZM 11.125 26.125L 31.375 26.125M 16.375 21.625L 26.125 21.625M 41.125 35.574997L 41.125 37.824997C 41.125 41.574997 38.125 44.574997 34.375 44.574997C 31.674999 44.574997 29.424999 43.074997 28.375 40.824997M 27.775002 17.12491C 28.375 13.97491 31.075001 11.424927 34.375 11.424927C 38.125 11.424927 41.125 14.424925 41.125 18.174925L 41.125 24.25M 10 10M 37.375 20.575075L 41.125 24.325075L 44.875 20.575075M 21.25 31.73995C 21.96727 31.73995 22.548716 31.15855 22.548716 30.44125C 22.548716 29.7241 21.96727 29.14255 21.25 29.14255C 20.53273 29.14255 19.951256 29.7241 19.951256 30.44125C 19.951256 31.15855 20.53273 31.73995 21.25 31.73995ZM 15.671575 31.73995C 16.388845 31.73995 16.970291 31.15855 16.970291 30.44125C 16.970291 29.7241 16.388845 29.14255 15.671575 29.14255C 14.954305 29.14255 14.37283 29.7241 14.37283 30.44125C 14.37283 31.15855 14.954305 31.73995 15.671575 31.73995ZM 26.82835 31.73995C 27.54565 31.73995 28.127199 31.15855 28.127199 30.44125C 28.127199 29.7241 27.54565 29.14255 26.82835 29.14255C 26.1112 29.14255 25.52965 29.7241 25.52965 30.44125C 25.52965 31.15855 26.1112 31.73995 26.82835 31.73995ZM 21.25 37.355499C 21.96727 37.355499 22.548716 36.774101 22.548716 36.056801C 22.548716 35.3395 21.96727 34.758099 21.25 34.758099C 20.53273 34.758099 19.951256 35.3395 19.951256 36.056801C 19.951256 36.774101 20.53273 37.355499 21.25 37.355499ZM 15.671575 37.355499C 16.388845 37.355499 16.970291 36.774101 16.970291 36.056801C 16.970291 35.3395 16.388845 34.758099 15.671575 34.758099C 14.954305 34.758099 14.37283 35.3395 14.37283 36.056801C 14.37283 36.774101 14.954305 37.355499 15.671575 37.355499ZM 26.82835 37.355499C 27.54565 37.355499 28.127199 36.774101 28.127199 36.056801C 28.127199 35.3395 27.54565 34.758099 26.82835 34.758099C 26.1112 34.758099 25.52965 35.3395 25.52965 36.056801C 25.52965 36.774101 26.1112 37.355499 26.82835 37.355499Z"></path></g></g></g></g></g></svg>