<?xml version="1.0" encoding="utf-8" standalone="yes"?>
<!DOCTYPE svg PUBLIC "-//W3C//DTD SVG 1.1//EN" "http://www.w3.org/Graphics/SVG/1.1/DTD/svg11.dtd">
<svg width="774" height="732" viewBox="0 0 774 732" style="fill:none;stroke:none;fill-rule:evenodd;clip-rule:evenodd;stroke-linecap:round;stroke-linejoin:round;stroke-miterlimit:1.5;" version="1.1" xmlns="http://www.w3.org/2000/svg" xmlns:xlink="http://www.w3.org/1999/xlink"><style class="text-font-style fontImports" data-font-family="Roboto">@import url('https://fonts.googleapis.com/css2?family=Roboto:wght@400;700&amp;display=block');</style><g id="items" style="isolation: isolate"><g id="blend" style="mix-blend-mode: normal"><g id="g-root-cp_0_g-0_vbq36jtgsnwn-fill" data-item-order="-461726" transform="translate(290, 302)"><g id="cp_0_g-0_vbq36jtgsnwn-fill" stroke="none" fill="#6b6b6b"><g><path d="M 154.7258 152.0379L 150.5 152L 150.4964 156.1631C 135.5772 169.7303 115.7543 178 94 178C 72.2492 178 52.4293 169.733 37.5109 156.1697L 37.5 152L 33.194 151.9539C 18.8231 136.8803 10 116.4706 10 94C 10 72.2492 18.267 52.4292 31.8303 37.5108L 36 37.5L 36.0536 33.1868C 51.1264 18.8202 71.5332 10 94 10C 116.512 10 136.9556 18.8557 152.0372 33.2735L 152 37.5L 156.0968 37.4307C 169.7033 52.3582 178 72.2102 178 94C 178 116.5123 169.144 136.9562 154.7258 152.0379Z"></path></g></g></g><g id="g-root-cp_4_g-4_qwj257tgslj5-fill" data-item-order="-461722" transform="translate(134, 146)"><g id="cp_4_g-4_qwj257tgslj5-fill" stroke="none" fill="#6b6b6b"><g><path d="M 158.156 28.2689C 187.2741 16.2078 218.4828 10 250 10L 250 93.3422C 229.4274 93.3422 209.0562 97.3943 190.0496 105.267C 178.2629 110.1493 167.1441 116.4416 156.9283 123.9868L 184.1457 151.2042L 192.631 142.7189L 192 193.5L 141.7193 193.6306L 150.2046 185.1453L 123.1422 158.0829C 115.971 167.98 109.966 178.7055 105.267 190.0497C 97.3942 209.0563 93.3422 229.4274 93.3422 250L 10 250C 10 218.4828 16.2078 187.2741 28.2689 158.156C 40.33 129.0379 58.0083 102.5805 80.2944 80.2944C 102.5804 58.0083 129.0378 40.33 158.156 28.2689Z"></path></g></g></g><g id="g-root-cp_3_g-3_qwj257tgslj7-fill" data-item-order="-461714" transform="translate(134, 386)"><g id="cp_3_g-3_qwj257tgslj7-fill" stroke="none" fill="#6b6b6b"><g><path d="M 28.2689 101.844C 16.2078 72.7259 10 41.5173 10 10L 93.3422 10C 93.3422 30.5726 97.3942 50.9438 105.267 69.9504C 110.1573 81.7565 116.4623 92.8925 124.024 103.1221L 151.2048 75.9413L 142.7196 67.456L 193.5 68L 193.6312 118.3677L 185.146 109.8824L 158.1337 136.8947C 168.0167 144.0496 178.7249 150.0421 190.0496 154.733C 209.0562 162.6058 229.4274 166.6578 250 166.6578L 250 250C 218.4827 250 187.2741 243.7922 158.156 231.7311C 129.0378 219.67 102.5804 201.9917 80.2944 179.7056C 58.0083 157.4196 40.33 130.9622 28.2689 101.844Z"></path></g></g></g><g id="g-root-cp_2_g-2_i0w1wbtgsmbx-fill" data-item-order="-461706" transform="translate(374, 386)"><g id="cp_2_g-2_i0w1wbtgsmbx-fill" stroke="none" fill="#6b6b6b"><g><path d="M 101.844 231.7311C 72.7259 243.7922 41.5173 250 10 250L 10 166.6578C 30.5726 166.6578 50.9438 162.6057 69.9504 154.733C 81.0728 150.1259 91.6004 144.2633 101.3357 137.2771L 74.9411 110.8825L 66.4558 119.3678L 66.5 68L 117.3675 68.4561L 108.8822 76.9414L 135.5869 103.6461C 143.3217 93.2732 149.7591 81.9584 154.733 69.9504C 162.6058 50.9438 166.6578 30.5726 166.6578 10L 250 10C 250 41.5173 243.7922 72.7259 231.7311 101.844C 219.67 130.9622 201.9917 157.4196 179.7056 179.7056C 157.4196 201.9917 130.9622 219.67 101.844 231.7311Z"></path></g></g></g><g id="g-root-cp_1_g-1_i0w1wbtgsmbz-fill" data-item-order="-461698" transform="translate(374, 146)"><g id="cp_1_g-1_i0w1wbtgsmbz-fill" stroke="none" fill="#E5A000"><g><path d="M 179.7056 80.2944C 224.7143 125.3031 250 186.3481 250 250L 166.6578 250C 166.6578 216.8004 156.1194 184.6874 136.8951 158.1332L 110.8823 184.1461L 119.3676 192.6313L 68 193.5L 68.4559 141.7197L 76.9412 150.2049L 103.1225 124.0235C 76.3281 104.2166 43.7247 93.3422 10 93.3422L 10 10C 73.652 10 134.6969 35.2856 179.7056 80.2944Z"></path></g></g></g><g id="g-root-tx_starmapi_dl2jrvtgsn49-fill" data-item-order="0" transform="translate(119, 38)"><g id="tx_starmapi_dl2jrvtgsn49-fill" stroke="none" fill="#f4f4f4"><g><text style="font: bold 25px Roboto, sans-serif; white-space: pre;" font-weight="bold" font-size="25px" font-family="Roboto, sans-serif"><tspan x="17.6" y="43" dominant-baseline="ideographic">Star Map Interface for Network Visualization</tspan></text></g></g></g><g id="g-root-tx_valueflo_qqwyortgogld-fill" data-item-order="0" transform="translate(572, 98)"><g id="tx_valueflo_qqwyortgogld-fill" stroke="none" fill="#F8E6B8"><g><text style="font: bold 20px Roboto, sans-serif; white-space: pre;" font-weight="bold" font-size="20px" font-family="Roboto, sans-serif"><tspan x="12" y="33.63" dominant-baseline="ideographic">Value Flow </tspan><tspan x="12" y="57.64" dominant-baseline="ideographic">Paths</tspan></text></g></g></g><g id="g-root-tx_networke_13ymmjftgpv67-fill" data-item-order="0" transform="translate(86, 122)"><g id="tx_networke_13ymmjftgpv67-fill" stroke="none" fill="#f4f4f4"><g><text style="font: bold 20px Roboto, sans-serif; white-space: pre;" font-weight="bold" font-size="20px" font-family="Roboto, sans-serif"><tspan x="28.33" y="33.63" dominant-baseline="ideographic">Network </tspan><tspan x="20.68" y="57.64" dominant-baseline="ideographic">Evolution</tspan></text></g></g></g><g id="g-root-tx_visualiz_hvwfiztgoe8b-fill" data-item-order="0" transform="translate(572, 158)"><g id="tx_visualiz_hvwfiztgoe8b-fill" stroke="none" fill="#F8E6B8"><g><text style="font: 15px Roboto, sans-serif; white-space: pre;" font-size="15px" font-family="Roboto, sans-serif"><tspan x="12" y="30.28" dominant-baseline="ideographic">Visualizes the </tspan><tspan x="12" y="48.27" dominant-baseline="ideographic">movement of value </tspan><tspan x="12" y="66.27" dominant-baseline="ideographic">within the network</tspan></text></g></g></g><g id="g-root-tx_showstre_8ye00rtgpuyq-fill" data-item-order="0" transform="translate(50, 182)"><g id="tx_showstre_8ye00rtgpuyq-fill" stroke="none" fill="#f4f4f4"><g><text style="font: 15px Roboto, sans-serif; white-space: pre;" font-size="15px" font-family="Roboto, sans-serif"><tspan x="20.63" y="27.27" dominant-baseline="ideographic">Shows trends and </tspan><tspan x="17.56" y="45.27" dominant-baseline="ideographic">changes over time</tspan></text></g></g></g><g id="g-root-ic_3_9591nftgsnwi-fill" data-item-order="0" transform="translate(218, 230)"></g><g id="g-root-ic_mana_1cw4yvvth9hc9-fill" data-item-order="0" transform="translate(488, 224)"></g><g id="g-root-tx_networkv_1uuwrkrtgogll-fill" data-item-order="0" transform="translate(308, 362)"><g id="tx_networkv_1uuwrkrtgogll-fill" stroke="none" fill="#f4f4f4"><g><text style="font: bold 20px Roboto, sans-serif; white-space: pre;" font-weight="bold" font-size="20px" font-family="Roboto, sans-serif"><tspan x="38.16" y="33.63" dominant-baseline="ideographic">Network </tspan><tspan x="17.72" y="57.64" dominant-baseline="ideographic">Visualization</tspan></text></g></g></g><g id="g-root-ic_incr_qva3yztgwtu7-fill" data-item-order="0" transform="translate(212, 500)"></g><g id="g-root-ic_hot_v7zbtntgsljg-fill" data-item-order="0" transform="translate(488, 500)"></g><g id="g-root-tx_consensu_qqwyortgpurs-fill" data-item-order="0" transform="translate(74, 554)"><g id="tx_consensu_qqwyortgpurs-fill" stroke="none" fill="#f4f4f4"><g><text style="font: bold 20px Roboto, sans-serif; white-space: pre;" font-weight="bold" font-size="20px" font-family="Roboto, sans-serif"><tspan x="16.37" y="33.63" dominant-baseline="ideographic">Consensus </tspan><tspan x="35.11" y="57.64" dominant-baseline="ideographic">Potential</tspan></text></g></g></g><g id="g-root-tx_regional_dj7au3tgoff3-fill" data-item-order="0" transform="translate(572, 554)"><g id="tx_regional_dj7au3tgoff3-fill" stroke="none" fill="#f4f4f4"><g><text style="font: bold 20px Roboto, sans-serif; white-space: pre;" font-weight="bold" font-size="20px" font-family="Roboto, sans-serif"><tspan x="12" y="33.63" dominant-baseline="ideographic">Regional </tspan><tspan x="12" y="57.64" dominant-baseline="ideographic">Activity</tspan></text></g></g></g><g id="g-root-tx_indicate_909fa3tgptz8-fill" data-item-order="0" transform="translate(38, 614)"><g id="tx_indicate_909fa3tgptz8-fill" stroke="none" fill="#f4f4f4"><g><text style="font: 15px Roboto, sans-serif; white-space: pre;" font-size="15px" font-family="Roboto, sans-serif"><tspan x="90.91" y="30.28" dominant-baseline="ideographic">Indicates </tspan><tspan x="40.65" y="48.27" dominant-baseline="ideographic">opportunities for </tspan><tspan x="23.05" y="66.27" dominant-baseline="ideographic">consensus building</tspan></text></g></g></g><g id="g-root-tx_displays_147d9qztgoefd-fill" data-item-order="0" transform="translate(572, 614)"><g id="tx_displays_147d9qztgoefd-fill" stroke="none" fill="#f4f4f4"><g><text style="font: 15px Roboto, sans-serif; white-space: pre;" font-size="15px" font-family="Roboto, sans-serif"><tspan x="12" y="30.28" dominant-baseline="ideographic">Displays activity </tspan><tspan x="12" y="48.27" dominant-baseline="ideographic">levels across </tspan><tspan x="12" y="66.27" dominant-baseline="ideographic">different regions</tspan></text></g></g></g><g id="g-root-cp_0_g-0_vbq36jtgsnwn-stroke" data-item-order="-461726" transform="translate(290, 302)"><g id="cp_0_g-0_vbq36jtgsnwn-stroke" fill="none" stroke-linecap="round" stroke-linejoin="round" stroke-miterlimit="4" stroke="#d3d3d3" stroke-width="2"><g><path d="M 154.7258 152.0379L 150.5 152L 150.4964 156.1631C 135.5772 169.7303 115.7543 178 94 178C 72.2492 178 52.4293 169.733 37.5109 156.1697L 37.5 152L 33.194 151.9539C 18.8231 136.8803 10 116.4706 10 94C 10 72.2492 18.267 52.4292 31.8303 37.5108L 36 37.5L 36.0536 33.1868C 51.1264 18.8202 71.5332 10 94 10C 116.512 10 136.9556 18.8557 152.0372 33.2735L 152 37.5L 156.0968 37.4307C 169.7033 52.3582 178 72.2102 178 94C 178 116.5123 169.144 136.9562 154.7258 152.0379Z"></path></g></g></g><g id="g-root-cp_4_g-4_qwj257tgslj5-stroke" data-item-order="-461722" transform="translate(134, 146)"><g id="cp_4_g-4_qwj257tgslj5-stroke" fill="none" stroke-linecap="round" stroke-linejoin="round" stroke-miterlimit="4" stroke="#d3d3d3" stroke-width="2"><g><path d="M 158.156 28.2689C 187.2741 16.2078 218.4828 10 250 10L 250 93.3422C 229.4274 93.3422 209.0562 97.3943 190.0496 105.267C 178.2629 110.1493 167.1441 116.4416 156.9283 123.9868L 184.1457 151.2042L 192.631 142.7189L 192 193.5L 141.7193 193.6306L 150.2046 185.1453L 123.1422 158.0829C 115.971 167.98 109.966 178.7055 105.267 190.0497C 97.3942 209.0563 93.3422 229.4274 93.3422 250L 10 250C 10 218.4828 16.2078 187.2741 28.2689 158.156C 40.33 129.0379 58.0083 102.5805 80.2944 80.2944C 102.5804 58.0083 129.0378 40.33 158.156 28.2689Z"></path></g></g></g><g id="g-root-cp_3_g-3_qwj257tgslj7-stroke" data-item-order="-461714" transform="translate(134, 386)"><g id="cp_3_g-3_qwj257tgslj7-stroke" fill="none" stroke-linecap="round" stroke-linejoin="round" stroke-miterlimit="4" stroke="#d3d3d3" stroke-width="2"><g><path d="M 28.2689 101.844C 16.2078 72.7259 10 41.5173 10 10L 93.3422 10C 93.3422 30.5726 97.3942 50.9438 105.267 69.9504C 110.1573 81.7565 116.4623 92.8925 124.024 103.1221L 151.2048 75.9413L 142.7196 67.456L 193.5 68L 193.6312 118.3677L 185.146 109.8824L 158.1337 136.8947C 168.0167 144.0496 178.7249 150.0421 190.0496 154.733C 209.0562 162.6058 229.4274 166.6578 250 166.6578L 250 250C 218.4827 250 187.2741 243.7922 158.156 231.7311C 129.0378 219.67 102.5804 201.9917 80.2944 179.7056C 58.0083 157.4196 40.33 130.9622 28.2689 101.844Z"></path></g></g></g><g id="g-root-cp_2_g-2_i0w1wbtgsmbx-stroke" data-item-order="-461706" transform="translate(374, 386)"><g id="cp_2_g-2_i0w1wbtgsmbx-stroke" fill="none" stroke-linecap="round" stroke-linejoin="round" stroke-miterlimit="4" stroke="#d3d3d3" stroke-width="2"><g><path d="M 101.844 231.7311C 72.7259 243.7922 41.5173 250 10 250L 10 166.6578C 30.5726 166.6578 50.9438 162.6057 69.9504 154.733C 81.0728 150.1259 91.6004 144.2633 101.3357 137.2771L 74.9411 110.8825L 66.4558 119.3678L 66.5 68L 117.3675 68.4561L 108.8822 76.9414L 135.5869 103.6461C 143.3217 93.2732 149.7591 81.9584 154.733 69.9504C 162.6058 50.9438 166.6578 30.5726 166.6578 10L 250 10C 250 41.5173 243.7922 72.7259 231.7311 101.844C 219.67 130.9622 201.9917 157.4196 179.7056 179.7056C 157.4196 201.9917 130.9622 219.67 101.844 231.7311Z"></path></g></g></g><g id="g-root-cp_1_g-1_i0w1wbtgsmbz-stroke" data-item-order="-461698" transform="translate(374, 146)"><g id="cp_1_g-1_i0w1wbtgsmbz-stroke" fill="none" stroke-linecap="round" stroke-linejoin="round" stroke-miterlimit="4" stroke="#F8E6B8" stroke-width="2"><g><path d="M 179.7056 80.2944C 224.7143 125.3031 250 186.3481 250 250L 166.6578 250C 166.6578 216.8004 156.1194 184.6874 136.8951 158.1332L 110.8823 184.1461L 119.3676 192.6313L 68 193.5L 68.4559 141.7197L 76.9412 150.2049L 103.1225 124.0235C 76.3281 104.2166 43.7247 93.3422 10 93.3422L 10 10C 73.652 10 134.6969 35.2856 179.7056 80.2944Z"></path></g></g></g><g id="g-root-tx_starmapi_dl2jrvtgsn49-stroke" data-item-order="0" transform="translate(119, 38)"></g><g id="g-root-tx_valueflo_qqwyortgogld-stroke" data-item-order="0" transform="translate(572, 98)"></g><g id="g-root-tx_networke_13ymmjftgpv67-stroke" data-item-order="0" transform="translate(86, 122)"></g><g id="g-root-tx_visualiz_hvwfiztgoe8b-stroke" data-item-order="0" transform="translate(572, 158)"></g><g id="g-root-tx_showstre_8ye00rtgpuyq-stroke" data-item-order="0" transform="translate(50, 182)"></g><g id="g-root-ic_3_9591nftgsnwi-stroke" data-item-order="0" transform="translate(218, 230)"><g id="ic_3_9591nftgsnwi-stroke" fill="none" stroke-linecap="round" stroke-linejoin="round" stroke-miterlimit="4" stroke="#d3d3d3" stroke-width="2"><g><path d="M 30.5 20L 12.5 20C 11.9 20 11.5 19.6 11.5 19L 11.5 13C 11.5 12.4 11.9 12 12.5 12L 30.5 12C 31.1 12 31.5 12.4 31.5 13L 31.5 19C 31.5 19.4 31.1 20 30.5 20ZM 55.5 56L 37.5 56C 36.900002 56 36.5 55.599998 36.5 55L 36.5 49C 36.5 48.400002 36.900002 48 37.5 48L 55.5 48C 56.099998 48 56.5 48.400002 56.5 49L 56.5 55C 56.5 55.400002 56.099998 56 55.5 56ZM 55.5 33L 45.5 33C 44.900002 33 44.5 32.599998 44.5 32L 44.5 26C 44.5 25.4 44.900002 25 45.5 25L 55.5 25C 56.099998 25 56.5 25.4 56.5 26L 56.5 32C 56.5 32.400002 56.099998 33 55.5 33ZM 25.5 38L 15.5 38C 14.9 38 14.5 37.599998 14.5 37L 14.5 31C 14.5 30.4 14.9 30 15.5 30L 25.5 30C 26.1 30 26.5 30.4 26.5 31L 26.5 37C 26.5 37.400002 26.1 38 25.5 38ZM 31.5 16L 37.5 16C 38.099998 16 38.5 16.4 38.5 17L 38.5 28C 38.5 28.6 38.900002 29 39.5 29L 44.5 29M 36.5 52L 32.5 52C 31.9 52 31.5 51.599998 31.5 51L 31.5 35C 31.5 34.400002 31.1 34 30.5 34L 26.5 34"></path></g></g></g><g id="g-root-ic_mana_1cw4yvvth9hc9-stroke" data-item-order="0" transform="translate(488, 224)"><g id="ic_mana_1cw4yvvth9hc9-stroke" fill="none" stroke-linecap="round" stroke-linejoin="round" stroke-miterlimit="4" stroke="#F8E6B8" stroke-width="2"><g><path d="M 12 34L 16 34M 24 34L 34 34M 42 34L 56 34M 51.953999 30L 56 34L 51.953999 38M 16 34C 16 36.209137 17.790861 38 20 38C 22.209139 38 24 36.209137 24 34C 24 31.790861 22.209139 30 20 30C 17.790861 30 16 31.790861 16 34M 34 34C 34 36.209137 35.790863 38 38 38C 40.209137 38 42 36.209137 42 34C 42 31.790861 40.209137 30 38 30C 35.790863 30 34 31.790861 34 34M 38 30L 38 23M 20 45L 20 38M 32 11L 44 11C 44 11 46 11 46 13L 46 21C 46 21 46 23 44 23L 32 23C 32 23 30 23 30 21L 30 13C 30 13 30 11 32 11M 14 45L 26 45C 26 45 28 45 28 47L 28 55C 28 55 28 57 26 57L 14 57C 14 57 12 57 12 55L 12 47C 12 47 12 45 14 45"></path></g></g></g><g id="g-root-tx_networkv_1uuwrkrtgogll-stroke" data-item-order="0" transform="translate(308, 362)"></g><g id="g-root-ic_incr_qva3yztgwtu7-stroke" data-item-order="0" transform="translate(212, 500)"><g id="ic_incr_qva3yztgwtu7-stroke" fill="none" stroke-linecap="round" stroke-linejoin="round" stroke-miterlimit="4" stroke="#d3d3d3" stroke-width="2"><g><path d="M 11.008 56.5L 57.007999 56.5M 19 56.5L 19 51.5C 19 50.947716 18.552284 50.5 18 50.5L 14 50.5C 13.447716 50.5 13 50.947716 13 51.5L 13 56.5M 31 56.5L 31 43.5C 31 42.947716 30.552284 42.5 30 42.5L 26 42.5C 25.447716 42.5 25 42.947716 25 43.5L 25 56.5M 43 56.5L 43 35.5C 43 34.947716 42.552284 34.5 42 34.5L 38 34.5C 37.447716 34.5 37 34.947716 37 35.5L 37 56.5M 55 56.5L 55 27.5C 55 26.947716 54.552284 26.5 54 26.5L 50 26.5C 49.447716 26.5 49 26.947716 49 27.5L 49 56.5M 16.007999 36.5L 52.007999 12.5M 51.007999 20.5L 52.007999 12.5L 44.007999 11.5"></path></g></g></g><g id="g-root-ic_hot_v7zbtntgsljg-stroke" data-item-order="0" transform="translate(488, 500)"><g id="ic_hot_v7zbtntgsljg-stroke" fill="none" stroke-linecap="round" stroke-linejoin="round" stroke-miterlimit="4" stroke="#d3d3d3" stroke-width="2"><g><path d="M 11 34C 11 46.702549 21.297451 57 34 57C 46.702549 57 57 46.702549 57 34C 57 21.297451 46.702549 11 34 11C 21.297451 11 11 21.297451 11 34ZM 39 38C 39 39.656853 37.656853 41 36 41C 34.343147 41 33 39.656853 33 38L 33 32C 33 30.343147 34.343147 29 36 29C 37.656853 29 39 30.343147 39 32ZM 26.993999 29L 26.993999 41M 20.993999 41L 20.993999 29M 20.993999 35L 26.993999 35M 43.993999 29L 49.993999 29M 46.993999 29L 46.993999 41"></path></g></g></g><g id="g-root-tx_consensu_qqwyortgpurs-stroke" data-item-order="0" transform="translate(74, 554)"></g><g id="g-root-tx_regional_dj7au3tgoff3-stroke" data-item-order="0" transform="translate(572, 554)"></g><g id="g-root-tx_indicate_909fa3tgptz8-stroke" data-item-order="0" transform="translate(38, 614)"></g><g id="g-root-tx_displays_147d9qztgoefd-stroke" data-item-order="0" transform="translate(572, 614)"></g></g></g></svg>